<?xml version="1.0" encoding="utf-8" standalone="no"?>
<!DOCTYPE svg PUBLIC "-//W3C//DTD SVG 1.1//EN"
  "http://www.w3.org/Graphics/SVG/1.1/DTD/svg11.dtd">
<svg xmlns:xlink="http://www.w3.org/1999/xlink" width="393.378125pt" height="271.238906pt" viewBox="0 0 393.378125 271.238906" xmlns="http://www.w3.org/2000/svg" version="1.1">
 <metadata>
  <rdf:RDF xmlns:dc="http://purl.org/dc/elements/1.1/" xmlns:cc="http://creativecommons.org/ns#" xmlns:rdf="http://www.w3.org/1999/02/22-rdf-syntax-ns#">
   <cc:Work>
    <dc:type rdf:resource="http://purl.org/dc/dcmitype/StillImage"/>
    <dc:date>2025-11-24T17:21:28.952554</dc:date>
    <dc:format>image/svg+xml</dc:format>
    <dc:creator>
     <cc:Agent>
      <dc:title>Matplotlib v3.10.5, https://matplotlib.org/</dc:title>
     </cc:Agent>
    </dc:creator>
   </cc:Work>
  </rdf:RDF>
 </metadata>
 <defs>
  <style type="text/css">*{stroke-linejoin: round; stroke-linecap: butt}</style>
 </defs>
 <g id="figure_1">
  <g id="patch_1">
   <path d="M 0 271.238906 
L 393.378125 271.238906 
L 393.378125 0 
L 0 0 
z
" style="fill: #ffffff"/>
  </g>
  <g id="axes_1">
   <g id="patch_2">
    <path d="M 51.378125 232.759219 
L 386.178125 232.759219 
L 386.178125 10.999219 
L 51.378125 10.999219 
z
" style="fill: #ffffff"/>
   </g>
   <g id="matplotlib.axis_1">
    <g id="xtick_1">
     <g id="line2d_1">
      <defs>
       <path id="ma2a3f40024" d="M 0 0 
L 0 3.5 
" style="stroke: #000000; stroke-width: 0.8"/>
      </defs>
      <g>
       <use xlink:href="#ma2a3f40024" x="58.370263" y="232.759219" style="stroke: #000000; stroke-width: 0.8"/>
      </g>
     </g>
     <g id="text_1">
      <!-- 0.000 -->
      <g transform="translate(44.0562 247.357656) scale(0.1 -0.1)">
       <defs>
        <path id="DejaVuSans-30" d="M 2034 4250 
Q 1547 4250 1301 3770 
Q 1056 3291 1056 2328 
Q 1056 1369 1301 889 
Q 1547 409 2034 409 
Q 2525 409 2770 889 
Q 3016 1369 3016 2328 
Q 3016 3291 2770 3770 
Q 2525 4250 2034 4250 
z
M 2034 4750 
Q 2819 4750 3233 4129 
Q 3647 3509 3647 2328 
Q 3647 1150 3233 529 
Q 2819 -91 2034 -91 
Q 1250 -91 836 529 
Q 422 1150 422 2328 
Q 422 3509 836 4129 
Q 1250 4750 2034 4750 
z
" transform="scale(0.015625)"/>
        <path id="DejaVuSans-2e" d="M 684 794 
L 1344 794 
L 1344 0 
L 684 0 
L 684 794 
z
" transform="scale(0.015625)"/>
       </defs>
       <use xlink:href="#DejaVuSans-30"/>
       <use xlink:href="#DejaVuSans-2e" transform="translate(63.623047 0)"/>
       <use xlink:href="#DejaVuSans-30" transform="translate(95.410156 0)"/>
       <use xlink:href="#DejaVuSans-30" transform="translate(159.033203 0)"/>
       <use xlink:href="#DejaVuSans-30" transform="translate(222.65625 0)"/>
      </g>
     </g>
    </g>
    <g id="xtick_2">
     <g id="line2d_2">
      <g>
       <use xlink:href="#ma2a3f40024" x="99.500484" y="232.759219" style="stroke: #000000; stroke-width: 0.8"/>
      </g>
     </g>
     <g id="text_2">
      <!-- 0.025 -->
      <g transform="translate(85.186421 247.357656) scale(0.1 -0.1)">
       <defs>
        <path id="DejaVuSans-32" d="M 1228 531 
L 3431 531 
L 3431 0 
L 469 0 
L 469 531 
Q 828 903 1448 1529 
Q 2069 2156 2228 2338 
Q 2531 2678 2651 2914 
Q 2772 3150 2772 3378 
Q 2772 3750 2511 3984 
Q 2250 4219 1831 4219 
Q 1534 4219 1204 4116 
Q 875 4013 500 3803 
L 500 4441 
Q 881 4594 1212 4672 
Q 1544 4750 1819 4750 
Q 2544 4750 2975 4387 
Q 3406 4025 3406 3419 
Q 3406 3131 3298 2873 
Q 3191 2616 2906 2266 
Q 2828 2175 2409 1742 
Q 1991 1309 1228 531 
z
" transform="scale(0.015625)"/>
        <path id="DejaVuSans-35" d="M 691 4666 
L 3169 4666 
L 3169 4134 
L 1269 4134 
L 1269 2991 
Q 1406 3038 1543 3061 
Q 1681 3084 1819 3084 
Q 2600 3084 3056 2656 
Q 3513 2228 3513 1497 
Q 3513 744 3044 326 
Q 2575 -91 1722 -91 
Q 1428 -91 1123 -41 
Q 819 9 494 109 
L 494 744 
Q 775 591 1075 516 
Q 1375 441 1709 441 
Q 2250 441 2565 725 
Q 2881 1009 2881 1497 
Q 2881 1984 2565 2268 
Q 2250 2553 1709 2553 
Q 1456 2553 1204 2497 
Q 953 2441 691 2322 
L 691 4666 
z
" transform="scale(0.015625)"/>
       </defs>
       <use xlink:href="#DejaVuSans-30"/>
       <use xlink:href="#DejaVuSans-2e" transform="translate(63.623047 0)"/>
       <use xlink:href="#DejaVuSans-30" transform="translate(95.410156 0)"/>
       <use xlink:href="#DejaVuSans-32" transform="translate(159.033203 0)"/>
       <use xlink:href="#DejaVuSans-35" transform="translate(222.65625 0)"/>
      </g>
     </g>
    </g>
    <g id="xtick_3">
     <g id="line2d_3">
      <g>
       <use xlink:href="#ma2a3f40024" x="140.630705" y="232.759219" style="stroke: #000000; stroke-width: 0.8"/>
      </g>
     </g>
     <g id="text_3">
      <!-- 0.050 -->
      <g transform="translate(126.316642 247.357656) scale(0.1 -0.1)">
       <use xlink:href="#DejaVuSans-30"/>
       <use xlink:href="#DejaVuSans-2e" transform="translate(63.623047 0)"/>
       <use xlink:href="#DejaVuSans-30" transform="translate(95.410156 0)"/>
       <use xlink:href="#DejaVuSans-35" transform="translate(159.033203 0)"/>
       <use xlink:href="#DejaVuSans-30" transform="translate(222.65625 0)"/>
      </g>
     </g>
    </g>
    <g id="xtick_4">
     <g id="line2d_4">
      <g>
       <use xlink:href="#ma2a3f40024" x="181.760926" y="232.759219" style="stroke: #000000; stroke-width: 0.8"/>
      </g>
     </g>
     <g id="text_4">
      <!-- 0.075 -->
      <g transform="translate(167.446863 247.357656) scale(0.1 -0.1)">
       <defs>
        <path id="DejaVuSans-37" d="M 525 4666 
L 3525 4666 
L 3525 4397 
L 1831 0 
L 1172 0 
L 2766 4134 
L 525 4134 
L 525 4666 
z
" transform="scale(0.015625)"/>
       </defs>
       <use xlink:href="#DejaVuSans-30"/>
       <use xlink:href="#DejaVuSans-2e" transform="translate(63.623047 0)"/>
       <use xlink:href="#DejaVuSans-30" transform="translate(95.410156 0)"/>
       <use xlink:href="#DejaVuSans-37" transform="translate(159.033203 0)"/>
       <use xlink:href="#DejaVuSans-35" transform="translate(222.65625 0)"/>
      </g>
     </g>
    </g>
    <g id="xtick_5">
     <g id="line2d_5">
      <g>
       <use xlink:href="#ma2a3f40024" x="222.891147" y="232.759219" style="stroke: #000000; stroke-width: 0.8"/>
      </g>
     </g>
     <g id="text_5">
      <!-- 0.100 -->
      <g transform="translate(208.577085 247.357656) scale(0.1 -0.1)">
       <defs>
        <path id="DejaVuSans-31" d="M 794 531 
L 1825 531 
L 1825 4091 
L 703 3866 
L 703 4441 
L 1819 4666 
L 2450 4666 
L 2450 531 
L 3481 531 
L 3481 0 
L 794 0 
L 794 531 
z
" transform="scale(0.015625)"/>
       </defs>
       <use xlink:href="#DejaVuSans-30"/>
       <use xlink:href="#DejaVuSans-2e" transform="translate(63.623047 0)"/>
       <use xlink:href="#DejaVuSans-31" transform="translate(95.410156 0)"/>
       <use xlink:href="#DejaVuSans-30" transform="translate(159.033203 0)"/>
       <use xlink:href="#DejaVuSans-30" transform="translate(222.65625 0)"/>
      </g>
     </g>
    </g>
    <g id="xtick_6">
     <g id="line2d_6">
      <g>
       <use xlink:href="#ma2a3f40024" x="264.021368" y="232.759219" style="stroke: #000000; stroke-width: 0.8"/>
      </g>
     </g>
     <g id="text_6">
      <!-- 0.125 -->
      <g transform="translate(249.707306 247.357656) scale(0.1 -0.1)">
       <use xlink:href="#DejaVuSans-30"/>
       <use xlink:href="#DejaVuSans-2e" transform="translate(63.623047 0)"/>
       <use xlink:href="#DejaVuSans-31" transform="translate(95.410156 0)"/>
       <use xlink:href="#DejaVuSans-32" transform="translate(159.033203 0)"/>
       <use xlink:href="#DejaVuSans-35" transform="translate(222.65625 0)"/>
      </g>
     </g>
    </g>
    <g id="xtick_7">
     <g id="line2d_7">
      <g>
       <use xlink:href="#ma2a3f40024" x="305.151589" y="232.759219" style="stroke: #000000; stroke-width: 0.8"/>
      </g>
     </g>
     <g id="text_7">
      <!-- 0.150 -->
      <g transform="translate(290.837527 247.357656) scale(0.1 -0.1)">
       <use xlink:href="#DejaVuSans-30"/>
       <use xlink:href="#DejaVuSans-2e" transform="translate(63.623047 0)"/>
       <use xlink:href="#DejaVuSans-31" transform="translate(95.410156 0)"/>
       <use xlink:href="#DejaVuSans-35" transform="translate(159.033203 0)"/>
       <use xlink:href="#DejaVuSans-30" transform="translate(222.65625 0)"/>
      </g>
     </g>
    </g>
    <g id="xtick_8">
     <g id="line2d_8">
      <g>
       <use xlink:href="#ma2a3f40024" x="346.281811" y="232.759219" style="stroke: #000000; stroke-width: 0.8"/>
      </g>
     </g>
     <g id="text_8">
      <!-- 0.175 -->
      <g transform="translate(331.967748 247.357656) scale(0.1 -0.1)">
       <use xlink:href="#DejaVuSans-30"/>
       <use xlink:href="#DejaVuSans-2e" transform="translate(63.623047 0)"/>
       <use xlink:href="#DejaVuSans-31" transform="translate(95.410156 0)"/>
       <use xlink:href="#DejaVuSans-37" transform="translate(159.033203 0)"/>
       <use xlink:href="#DejaVuSans-35" transform="translate(222.65625 0)"/>
      </g>
     </g>
    </g>
    <g id="text_9">
     <!-- Q [1/Å] -->
     <g transform="translate(201.065625 261.959219) scale(0.1 -0.1)">
      <defs>
       <path id="DejaVuSans-51" d="M 2522 4238 
Q 1834 4238 1429 3725 
Q 1025 3213 1025 2328 
Q 1025 1447 1429 934 
Q 1834 422 2522 422 
Q 3209 422 3611 934 
Q 4013 1447 4013 2328 
Q 4013 3213 3611 3725 
Q 3209 4238 2522 4238 
z
M 3406 84 
L 4238 -825 
L 3475 -825 
L 2784 -78 
Q 2681 -84 2626 -87 
Q 2572 -91 2522 -91 
Q 1538 -91 948 567 
Q 359 1225 359 2328 
Q 359 3434 948 4092 
Q 1538 4750 2522 4750 
Q 3503 4750 4090 4092 
Q 4678 3434 4678 2328 
Q 4678 1516 4351 937 
Q 4025 359 3406 84 
z
" transform="scale(0.015625)"/>
       <path id="DejaVuSans-20" transform="scale(0.015625)"/>
       <path id="DejaVuSans-5b" d="M 550 4863 
L 1875 4863 
L 1875 4416 
L 1125 4416 
L 1125 -397 
L 1875 -397 
L 1875 -844 
L 550 -844 
L 550 4863 
z
" transform="scale(0.015625)"/>
       <path id="DejaVuSans-2f" d="M 1625 4666 
L 2156 4666 
L 531 -594 
L 0 -594 
L 1625 4666 
z
" transform="scale(0.015625)"/>
       <path id="DejaVuSans-c5" d="M 2663 5081 
Q 2663 5278 2523 5417 
Q 2384 5556 2188 5556 
Q 1988 5556 1852 5420 
Q 1716 5284 1716 5081 
Q 1716 4884 1853 4746 
Q 1991 4609 2188 4609 
Q 2384 4609 2523 4746 
Q 2663 4884 2663 5081 
z
M 2188 4044 
L 1338 1722 
L 3041 1722 
L 2188 4044 
z
M 1716 4366 
Q 1525 4494 1428 4673 
Q 1331 4853 1331 5081 
Q 1331 5441 1579 5691 
Q 1828 5941 2188 5941 
Q 2544 5941 2795 5689 
Q 3047 5438 3047 5081 
Q 3047 4863 2948 4678 
Q 2850 4494 2663 4366 
L 4325 0 
L 3669 0 
L 3244 1197 
L 1141 1197 
L 716 0 
L 50 0 
L 1716 4366 
z
" transform="scale(0.015625)"/>
       <path id="DejaVuSans-5d" d="M 1947 4863 
L 1947 -844 
L 622 -844 
L 622 -397 
L 1369 -397 
L 1369 4416 
L 622 4416 
L 622 4863 
L 1947 4863 
z
" transform="scale(0.015625)"/>
      </defs>
      <use xlink:href="#DejaVuSans-51"/>
      <use xlink:href="#DejaVuSans-20" transform="translate(78.710938 0)"/>
      <use xlink:href="#DejaVuSans-5b" transform="translate(110.498047 0)"/>
      <use xlink:href="#DejaVuSans-31" transform="translate(149.511719 0)"/>
      <use xlink:href="#DejaVuSans-2f" transform="translate(213.134766 0)"/>
      <use xlink:href="#DejaVuSans-c5" transform="translate(246.826172 0)"/>
      <use xlink:href="#DejaVuSans-5d" transform="translate(315.234375 0)"/>
     </g>
    </g>
   </g>
   <g id="matplotlib.axis_2">
    <g id="ytick_1">
     <g id="line2d_9">
      <defs>
       <path id="m0c63282eec" d="M 0 0 
L -3.5 0 
" style="stroke: #000000; stroke-width: 0.8"/>
      </defs>
      <g>
       <use xlink:href="#m0c63282eec" x="51.378125" y="232.759219" style="stroke: #000000; stroke-width: 0.8"/>
      </g>
     </g>
     <g id="text_10">
      <!-- $\mathdefault{10^{-3}}$ -->
      <g transform="translate(20.878125 236.558437) scale(0.1 -0.1)">
       <defs>
        <path id="DejaVuSans-2212" d="M 678 2272 
L 4684 2272 
L 4684 1741 
L 678 1741 
L 678 2272 
z
" transform="scale(0.015625)"/>
        <path id="DejaVuSans-33" d="M 2597 2516 
Q 3050 2419 3304 2112 
Q 3559 1806 3559 1356 
Q 3559 666 3084 287 
Q 2609 -91 1734 -91 
Q 1441 -91 1130 -33 
Q 819 25 488 141 
L 488 750 
Q 750 597 1062 519 
Q 1375 441 1716 441 
Q 2309 441 2620 675 
Q 2931 909 2931 1356 
Q 2931 1769 2642 2001 
Q 2353 2234 1838 2234 
L 1294 2234 
L 1294 2753 
L 1863 2753 
Q 2328 2753 2575 2939 
Q 2822 3125 2822 3475 
Q 2822 3834 2567 4026 
Q 2313 4219 1838 4219 
Q 1578 4219 1281 4162 
Q 984 4106 628 3988 
L 628 4550 
Q 988 4650 1302 4700 
Q 1616 4750 1894 4750 
Q 2613 4750 3031 4423 
Q 3450 4097 3450 3541 
Q 3450 3153 3228 2886 
Q 3006 2619 2597 2516 
z
" transform="scale(0.015625)"/>
       </defs>
       <use xlink:href="#DejaVuSans-31" transform="translate(0 0.765625)"/>
       <use xlink:href="#DejaVuSans-30" transform="translate(63.623047 0.765625)"/>
       <use xlink:href="#DejaVuSans-2212" transform="translate(128.203125 39.046875) scale(0.7)"/>
       <use xlink:href="#DejaVuSans-33" transform="translate(186.855469 39.046875) scale(0.7)"/>
      </g>
     </g>
    </g>
    <g id="ytick_2">
     <g id="line2d_10">
      <g>
       <use xlink:href="#m0c63282eec" x="51.378125" y="177.319219" style="stroke: #000000; stroke-width: 0.8"/>
      </g>
     </g>
     <g id="text_11">
      <!-- $\mathdefault{10^{-2}}$ -->
      <g transform="translate(20.878125 181.118437) scale(0.1 -0.1)">
       <use xlink:href="#DejaVuSans-31" transform="translate(0 0.765625)"/>
       <use xlink:href="#DejaVuSans-30" transform="translate(63.623047 0.765625)"/>
       <use xlink:href="#DejaVuSans-2212" transform="translate(128.203125 39.046875) scale(0.7)"/>
       <use xlink:href="#DejaVuSans-32" transform="translate(186.855469 39.046875) scale(0.7)"/>
      </g>
     </g>
    </g>
    <g id="ytick_3">
     <g id="line2d_11">
      <g>
       <use xlink:href="#m0c63282eec" x="51.378125" y="121.879219" style="stroke: #000000; stroke-width: 0.8"/>
      </g>
     </g>
     <g id="text_12">
      <!-- $\mathdefault{10^{-1}}$ -->
      <g transform="translate(20.878125 125.678438) scale(0.1 -0.1)">
       <use xlink:href="#DejaVuSans-31" transform="translate(0 0.684375)"/>
       <use xlink:href="#DejaVuSans-30" transform="translate(63.623047 0.684375)"/>
       <use xlink:href="#DejaVuSans-2212" transform="translate(128.203125 38.965625) scale(0.7)"/>
       <use xlink:href="#DejaVuSans-31" transform="translate(186.855469 38.965625) scale(0.7)"/>
      </g>
     </g>
    </g>
    <g id="ytick_4">
     <g id="line2d_12">
      <g>
       <use xlink:href="#m0c63282eec" x="51.378125" y="66.439219" style="stroke: #000000; stroke-width: 0.8"/>
      </g>
     </g>
     <g id="text_13">
      <!-- $\mathdefault{10^{0}}$ -->
      <g transform="translate(26.778125 70.238438) scale(0.1 -0.1)">
       <use xlink:href="#DejaVuSans-31" transform="translate(0 0.765625)"/>
       <use xlink:href="#DejaVuSans-30" transform="translate(63.623047 0.765625)"/>
       <use xlink:href="#DejaVuSans-30" transform="translate(128.203125 39.046875) scale(0.7)"/>
      </g>
     </g>
    </g>
    <g id="ytick_5">
     <g id="line2d_13">
      <g>
       <use xlink:href="#m0c63282eec" x="51.378125" y="10.999219" style="stroke: #000000; stroke-width: 0.8"/>
      </g>
     </g>
     <g id="text_14">
      <!-- $\mathdefault{10^{1}}$ -->
      <g transform="translate(26.778125 14.798438) scale(0.1 -0.1)">
       <use xlink:href="#DejaVuSans-31" transform="translate(0 0.684375)"/>
       <use xlink:href="#DejaVuSans-30" transform="translate(63.623047 0.684375)"/>
       <use xlink:href="#DejaVuSans-31" transform="translate(128.203125 38.965625) scale(0.7)"/>
      </g>
     </g>
    </g>
    <g id="ytick_6">
     <g id="line2d_14">
      <defs>
       <path id="ma20b806ea3" d="M 0 0 
L -2 0 
" style="stroke: #000000; stroke-width: 0.6"/>
      </defs>
      <g>
       <use xlink:href="#ma20b806ea3" x="51.378125" y="216.070116" style="stroke: #000000; stroke-width: 0.6"/>
      </g>
     </g>
    </g>
    <g id="ytick_7">
     <g id="line2d_15">
      <g>
       <use xlink:href="#ma20b806ea3" x="51.378125" y="206.307616" style="stroke: #000000; stroke-width: 0.6"/>
      </g>
     </g>
    </g>
    <g id="ytick_8">
     <g id="line2d_16">
      <g>
       <use xlink:href="#ma20b806ea3" x="51.378125" y="199.381013" style="stroke: #000000; stroke-width: 0.6"/>
      </g>
     </g>
    </g>
    <g id="ytick_9">
     <g id="line2d_17">
      <g>
       <use xlink:href="#ma20b806ea3" x="51.378125" y="194.008322" style="stroke: #000000; stroke-width: 0.6"/>
      </g>
     </g>
    </g>
    <g id="ytick_10">
     <g id="line2d_18">
      <g>
       <use xlink:href="#ma20b806ea3" x="51.378125" y="189.618513" style="stroke: #000000; stroke-width: 0.6"/>
      </g>
     </g>
    </g>
    <g id="ytick_11">
     <g id="line2d_19">
      <g>
       <use xlink:href="#ma20b806ea3" x="51.378125" y="185.906983" style="stroke: #000000; stroke-width: 0.6"/>
      </g>
     </g>
    </g>
    <g id="ytick_12">
     <g id="line2d_20">
      <g>
       <use xlink:href="#ma20b806ea3" x="51.378125" y="182.69191" style="stroke: #000000; stroke-width: 0.6"/>
      </g>
     </g>
    </g>
    <g id="ytick_13">
     <g id="line2d_21">
      <g>
       <use xlink:href="#ma20b806ea3" x="51.378125" y="179.856014" style="stroke: #000000; stroke-width: 0.6"/>
      </g>
     </g>
    </g>
    <g id="ytick_14">
     <g id="line2d_22">
      <g>
       <use xlink:href="#ma20b806ea3" x="51.378125" y="160.630116" style="stroke: #000000; stroke-width: 0.6"/>
      </g>
     </g>
    </g>
    <g id="ytick_15">
     <g id="line2d_23">
      <g>
       <use xlink:href="#ma20b806ea3" x="51.378125" y="150.867616" style="stroke: #000000; stroke-width: 0.6"/>
      </g>
     </g>
    </g>
    <g id="ytick_16">
     <g id="line2d_24">
      <g>
       <use xlink:href="#ma20b806ea3" x="51.378125" y="143.941013" style="stroke: #000000; stroke-width: 0.6"/>
      </g>
     </g>
    </g>
    <g id="ytick_17">
     <g id="line2d_25">
      <g>
       <use xlink:href="#ma20b806ea3" x="51.378125" y="138.568322" style="stroke: #000000; stroke-width: 0.6"/>
      </g>
     </g>
    </g>
    <g id="ytick_18">
     <g id="line2d_26">
      <g>
       <use xlink:href="#ma20b806ea3" x="51.378125" y="134.178513" style="stroke: #000000; stroke-width: 0.6"/>
      </g>
     </g>
    </g>
    <g id="ytick_19">
     <g id="line2d_27">
      <g>
       <use xlink:href="#ma20b806ea3" x="51.378125" y="130.466983" style="stroke: #000000; stroke-width: 0.6"/>
      </g>
     </g>
    </g>
    <g id="ytick_20">
     <g id="line2d_28">
      <g>
       <use xlink:href="#ma20b806ea3" x="51.378125" y="127.25191" style="stroke: #000000; stroke-width: 0.6"/>
      </g>
     </g>
    </g>
    <g id="ytick_21">
     <g id="line2d_29">
      <g>
       <use xlink:href="#ma20b806ea3" x="51.378125" y="124.416014" style="stroke: #000000; stroke-width: 0.6"/>
      </g>
     </g>
    </g>
    <g id="ytick_22">
     <g id="line2d_30">
      <g>
       <use xlink:href="#ma20b806ea3" x="51.378125" y="105.190116" style="stroke: #000000; stroke-width: 0.6"/>
      </g>
     </g>
    </g>
    <g id="ytick_23">
     <g id="line2d_31">
      <g>
       <use xlink:href="#ma20b806ea3" x="51.378125" y="95.427616" style="stroke: #000000; stroke-width: 0.6"/>
      </g>
     </g>
    </g>
    <g id="ytick_24">
     <g id="line2d_32">
      <g>
       <use xlink:href="#ma20b806ea3" x="51.378125" y="88.501013" style="stroke: #000000; stroke-width: 0.6"/>
      </g>
     </g>
    </g>
    <g id="ytick_25">
     <g id="line2d_33">
      <g>
       <use xlink:href="#ma20b806ea3" x="51.378125" y="83.128322" style="stroke: #000000; stroke-width: 0.6"/>
      </g>
     </g>
    </g>
    <g id="ytick_26">
     <g id="line2d_34">
      <g>
       <use xlink:href="#ma20b806ea3" x="51.378125" y="78.738513" style="stroke: #000000; stroke-width: 0.6"/>
      </g>
     </g>
    </g>
    <g id="ytick_27">
     <g id="line2d_35">
      <g>
       <use xlink:href="#ma20b806ea3" x="51.378125" y="75.026983" style="stroke: #000000; stroke-width: 0.6"/>
      </g>
     </g>
    </g>
    <g id="ytick_28">
     <g id="line2d_36">
      <g>
       <use xlink:href="#ma20b806ea3" x="51.378125" y="71.81191" style="stroke: #000000; stroke-width: 0.6"/>
      </g>
     </g>
    </g>
    <g id="ytick_29">
     <g id="line2d_37">
      <g>
       <use xlink:href="#ma20b806ea3" x="51.378125" y="68.976014" style="stroke: #000000; stroke-width: 0.6"/>
      </g>
     </g>
    </g>
    <g id="ytick_30">
     <g id="line2d_38">
      <g>
       <use xlink:href="#ma20b806ea3" x="51.378125" y="49.750116" style="stroke: #000000; stroke-width: 0.6"/>
      </g>
     </g>
    </g>
    <g id="ytick_31">
     <g id="line2d_39">
      <g>
       <use xlink:href="#ma20b806ea3" x="51.378125" y="39.987616" style="stroke: #000000; stroke-width: 0.6"/>
      </g>
     </g>
    </g>
    <g id="ytick_32">
     <g id="line2d_40">
      <g>
       <use xlink:href="#ma20b806ea3" x="51.378125" y="33.061013" style="stroke: #000000; stroke-width: 0.6"/>
      </g>
     </g>
    </g>
    <g id="ytick_33">
     <g id="line2d_41">
      <g>
       <use xlink:href="#ma20b806ea3" x="51.378125" y="27.688322" style="stroke: #000000; stroke-width: 0.6"/>
      </g>
     </g>
    </g>
    <g id="ytick_34">
     <g id="line2d_42">
      <g>
       <use xlink:href="#ma20b806ea3" x="51.378125" y="23.298513" style="stroke: #000000; stroke-width: 0.6"/>
      </g>
     </g>
    </g>
    <g id="ytick_35">
     <g id="line2d_43">
      <g>
       <use xlink:href="#ma20b806ea3" x="51.378125" y="19.586983" style="stroke: #000000; stroke-width: 0.6"/>
      </g>
     </g>
    </g>
    <g id="ytick_36">
     <g id="line2d_44">
      <g>
       <use xlink:href="#ma20b806ea3" x="51.378125" y="16.37191" style="stroke: #000000; stroke-width: 0.6"/>
      </g>
     </g>
    </g>
    <g id="ytick_37">
     <g id="line2d_45">
      <g>
       <use xlink:href="#ma20b806ea3" x="51.378125" y="13.536014" style="stroke: #000000; stroke-width: 0.6"/>
      </g>
     </g>
    </g>
    <g id="text_15">
     <!-- [dimensionless] -->
     <g transform="translate(14.798438 161.356562) rotate(-90) scale(0.1 -0.1)">
      <defs>
       <path id="DejaVuSans-64" d="M 2906 2969 
L 2906 4863 
L 3481 4863 
L 3481 0 
L 2906 0 
L 2906 525 
Q 2725 213 2448 61 
Q 2172 -91 1784 -91 
Q 1150 -91 751 415 
Q 353 922 353 1747 
Q 353 2572 751 3078 
Q 1150 3584 1784 3584 
Q 2172 3584 2448 3432 
Q 2725 3281 2906 2969 
z
M 947 1747 
Q 947 1113 1208 752 
Q 1469 391 1925 391 
Q 2381 391 2643 752 
Q 2906 1113 2906 1747 
Q 2906 2381 2643 2742 
Q 2381 3103 1925 3103 
Q 1469 3103 1208 2742 
Q 947 2381 947 1747 
z
" transform="scale(0.015625)"/>
       <path id="DejaVuSans-69" d="M 603 3500 
L 1178 3500 
L 1178 0 
L 603 0 
L 603 3500 
z
M 603 4863 
L 1178 4863 
L 1178 4134 
L 603 4134 
L 603 4863 
z
" transform="scale(0.015625)"/>
       <path id="DejaVuSans-6d" d="M 3328 2828 
Q 3544 3216 3844 3400 
Q 4144 3584 4550 3584 
Q 5097 3584 5394 3201 
Q 5691 2819 5691 2113 
L 5691 0 
L 5113 0 
L 5113 2094 
Q 5113 2597 4934 2840 
Q 4756 3084 4391 3084 
Q 3944 3084 3684 2787 
Q 3425 2491 3425 1978 
L 3425 0 
L 2847 0 
L 2847 2094 
Q 2847 2600 2669 2842 
Q 2491 3084 2119 3084 
Q 1678 3084 1418 2786 
Q 1159 2488 1159 1978 
L 1159 0 
L 581 0 
L 581 3500 
L 1159 3500 
L 1159 2956 
Q 1356 3278 1631 3431 
Q 1906 3584 2284 3584 
Q 2666 3584 2933 3390 
Q 3200 3197 3328 2828 
z
" transform="scale(0.015625)"/>
       <path id="DejaVuSans-65" d="M 3597 1894 
L 3597 1613 
L 953 1613 
Q 991 1019 1311 708 
Q 1631 397 2203 397 
Q 2534 397 2845 478 
Q 3156 559 3463 722 
L 3463 178 
Q 3153 47 2828 -22 
Q 2503 -91 2169 -91 
Q 1331 -91 842 396 
Q 353 884 353 1716 
Q 353 2575 817 3079 
Q 1281 3584 2069 3584 
Q 2775 3584 3186 3129 
Q 3597 2675 3597 1894 
z
M 3022 2063 
Q 3016 2534 2758 2815 
Q 2500 3097 2075 3097 
Q 1594 3097 1305 2825 
Q 1016 2553 972 2059 
L 3022 2063 
z
" transform="scale(0.015625)"/>
       <path id="DejaVuSans-6e" d="M 3513 2113 
L 3513 0 
L 2938 0 
L 2938 2094 
Q 2938 2591 2744 2837 
Q 2550 3084 2163 3084 
Q 1697 3084 1428 2787 
Q 1159 2491 1159 1978 
L 1159 0 
L 581 0 
L 581 3500 
L 1159 3500 
L 1159 2956 
Q 1366 3272 1645 3428 
Q 1925 3584 2291 3584 
Q 2894 3584 3203 3211 
Q 3513 2838 3513 2113 
z
" transform="scale(0.015625)"/>
       <path id="DejaVuSans-73" d="M 2834 3397 
L 2834 2853 
Q 2591 2978 2328 3040 
Q 2066 3103 1784 3103 
Q 1356 3103 1142 2972 
Q 928 2841 928 2578 
Q 928 2378 1081 2264 
Q 1234 2150 1697 2047 
L 1894 2003 
Q 2506 1872 2764 1633 
Q 3022 1394 3022 966 
Q 3022 478 2636 193 
Q 2250 -91 1575 -91 
Q 1294 -91 989 -36 
Q 684 19 347 128 
L 347 722 
Q 666 556 975 473 
Q 1284 391 1588 391 
Q 1994 391 2212 530 
Q 2431 669 2431 922 
Q 2431 1156 2273 1281 
Q 2116 1406 1581 1522 
L 1381 1569 
Q 847 1681 609 1914 
Q 372 2147 372 2553 
Q 372 3047 722 3315 
Q 1072 3584 1716 3584 
Q 2034 3584 2315 3537 
Q 2597 3491 2834 3397 
z
" transform="scale(0.015625)"/>
       <path id="DejaVuSans-6f" d="M 1959 3097 
Q 1497 3097 1228 2736 
Q 959 2375 959 1747 
Q 959 1119 1226 758 
Q 1494 397 1959 397 
Q 2419 397 2687 759 
Q 2956 1122 2956 1747 
Q 2956 2369 2687 2733 
Q 2419 3097 1959 3097 
z
M 1959 3584 
Q 2709 3584 3137 3096 
Q 3566 2609 3566 1747 
Q 3566 888 3137 398 
Q 2709 -91 1959 -91 
Q 1206 -91 779 398 
Q 353 888 353 1747 
Q 353 2609 779 3096 
Q 1206 3584 1959 3584 
z
" transform="scale(0.015625)"/>
       <path id="DejaVuSans-6c" d="M 603 4863 
L 1178 4863 
L 1178 0 
L 603 0 
L 603 4863 
z
" transform="scale(0.015625)"/>
      </defs>
      <use xlink:href="#DejaVuSans-5b"/>
      <use xlink:href="#DejaVuSans-64" transform="translate(39.013672 0)"/>
      <use xlink:href="#DejaVuSans-69" transform="translate(102.490234 0)"/>
      <use xlink:href="#DejaVuSans-6d" transform="translate(130.273438 0)"/>
      <use xlink:href="#DejaVuSans-65" transform="translate(227.685547 0)"/>
      <use xlink:href="#DejaVuSans-6e" transform="translate(289.208984 0)"/>
      <use xlink:href="#DejaVuSans-73" transform="translate(352.587891 0)"/>
      <use xlink:href="#DejaVuSans-69" transform="translate(404.6875 0)"/>
      <use xlink:href="#DejaVuSans-6f" transform="translate(432.470703 0)"/>
      <use xlink:href="#DejaVuSans-6e" transform="translate(493.652344 0)"/>
      <use xlink:href="#DejaVuSans-6c" transform="translate(557.03125 0)"/>
      <use xlink:href="#DejaVuSans-65" transform="translate(584.814453 0)"/>
      <use xlink:href="#DejaVuSans-73" transform="translate(646.337891 0)"/>
      <use xlink:href="#DejaVuSans-73" transform="translate(698.4375 0)"/>
      <use xlink:href="#DejaVuSans-5d" transform="translate(750.537109 0)"/>
     </g>
    </g>
   </g>
   <g id="line2d_46">
    <path d="M 66.596307 30.786117 
L 68.118125 30.786117 
L 68.118125 27.747172 
L 71.161761 27.829904 
L 71.161761 28.258479 
L 72.68358 28.258479 
L 72.68358 29.020245 
L 74.205398 29.020245 
L 74.205398 29.999451 
L 75.727216 29.999451 
L 75.727216 29.847835 
L 77.249034 29.847835 
L 77.249034 31.642167 
L 78.770852 31.642167 
L 78.770852 33.950818 
L 80.29267 33.950818 
L 80.29267 32.847476 
L 81.814489 32.847476 
L 81.814489 35.350402 
L 83.336307 35.350402 
L 83.336307 34.591601 
L 84.858125 34.591601 
L 84.858125 36.951701 
L 86.379943 36.951701 
L 86.379943 38.048709 
L 87.901761 38.048709 
L 87.901761 39.530841 
L 89.42358 39.530841 
L 89.42358 38.405658 
L 90.945398 38.405658 
L 90.945398 43.177292 
L 92.467216 43.177292 
L 92.467216 43.568522 
L 93.989034 43.568522 
L 93.989034 46.939436 
L 95.510852 46.939436 
L 95.510852 49.124072 
L 97.03267 49.124072 
L 97.03267 47.869754 
L 98.554489 47.869754 
L 98.554489 51.854691 
L 100.076307 51.854691 
L 100.076307 54.143671 
L 101.598125 54.143671 
L 101.598125 54.484862 
L 103.119943 54.484862 
L 103.119943 57.780653 
L 104.641761 57.780653 
L 104.641761 61.30925 
L 106.16358 61.30925 
L 106.16358 64.894811 
L 107.685398 64.894811 
L 107.685398 70.056898 
L 109.207216 70.056898 
L 109.207216 66.963672 
L 110.729034 66.963672 
L 110.729034 71.090471 
L 112.250852 71.090471 
L 112.250852 75.290881 
L 113.77267 75.290881 
L 113.77267 76.613084 
L 115.294489 76.613084 
L 115.294489 82.890523 
L 116.816307 82.890523 
L 116.816307 87.48299 
L 118.338125 87.48299 
L 118.338125 92.273408 
L 119.859943 92.273408 
L 119.859943 95.820013 
L 121.381761 95.820013 
L 121.381761 99.734727 
L 122.90358 99.734727 
L 122.90358 106.217522 
L 124.425398 106.217522 
L 124.425398 108.668593 
L 125.947216 108.668593 
L 125.947216 118.13446 
L 127.469034 118.13446 
L 127.469034 120.302083 
L 128.990852 120.302083 
L 128.990852 124.849519 
L 130.51267 124.849519 
L 130.51267 132.954833 
L 132.034489 132.954833 
L 132.034489 137.780539 
L 133.556307 137.780539 
L 133.556307 146.043383 
L 135.078125 146.043383 
L 135.078125 151.063268 
L 136.599943 151.063268 
L 136.599943 152.58564 
L 138.121761 152.58564 
L 138.121761 157.773267 
L 139.64358 157.773267 
L 139.64358 155.274942 
L 141.165398 155.274942 
L 141.165398 157.073463 
L 142.687216 157.073463 
L 142.687216 153.136106 
L 144.209034 153.136106 
L 144.209034 150.365455 
L 145.730852 150.365455 
L 145.730852 148.575052 
L 147.25267 148.575052 
L 147.25267 145.210941 
L 148.774489 145.210941 
L 148.774489 140.866976 
L 150.296307 140.866976 
L 150.296307 142.05999 
L 151.818125 142.05999 
L 151.818125 138.560369 
L 153.339943 138.560369 
L 153.339943 139.089953 
L 154.861761 139.089953 
L 154.861761 135.080338 
L 156.38358 135.080338 
L 156.38358 133.736944 
L 157.905398 133.736944 
L 157.905398 132.670139 
L 159.427216 132.670139 
L 159.427216 136.051713 
L 160.949034 136.051713 
L 160.949034 130.680297 
L 162.470852 130.680297 
L 162.470852 132.000884 
L 163.99267 132.000884 
L 163.99267 134.491663 
L 165.514489 134.491663 
L 165.514489 134.327135 
L 167.036307 134.327135 
L 167.036307 137.422485 
L 168.558125 137.422485 
L 168.558125 133.575015 
L 170.079943 133.575015 
L 170.079943 133.270417 
L 171.601761 133.270417 
L 171.601761 138.473184 
L 173.12358 138.473184 
L 173.12358 137.726143 
L 174.645398 137.726143 
L 174.645398 143.264865 
L 176.167216 143.264865 
L 176.167216 142.10636 
L 177.689034 142.10636 
L 177.689034 145.54079 
L 179.210852 145.54079 
L 179.210852 146.41168 
L 180.73267 146.41168 
L 180.73267 147.709677 
L 182.254489 147.709677 
L 182.254489 153.784967 
L 183.776307 153.784967 
L 183.776307 152.762486 
L 185.298125 152.762486 
L 185.298125 156.166317 
L 186.819943 156.166317 
L 186.819943 152.464058 
L 188.341761 152.464058 
L 188.341761 150.236145 
L 189.86358 150.236145 
L 189.86358 158.797734 
L 191.385398 158.797734 
L 191.385398 161.8164 
L 192.907216 161.8164 
L 192.907216 160.567189 
L 194.429034 160.567189 
L 194.429034 160.269102 
L 195.950852 160.269102 
L 195.950852 158.335509 
L 197.47267 158.335509 
L 197.47267 160.347102 
L 198.994489 160.347102 
L 198.994489 161.352332 
L 200.516307 161.352332 
L 200.516307 160.934063 
L 202.038125 160.934063 
L 202.038125 158.816066 
L 203.559943 158.816066 
L 203.559943 155.829155 
L 205.081761 155.829155 
L 205.081761 159.047201 
L 206.60358 159.047201 
L 206.60358 156.39912 
L 208.125398 156.39912 
L 208.125398 159.493569 
L 209.647216 159.493569 
L 209.647216 159.778091 
L 211.169034 159.778091 
L 211.169034 158.116511 
L 212.690852 158.116511 
L 212.690852 157.945672 
L 214.21267 157.945672 
L 214.21267 153.30019 
L 215.734489 153.30019 
L 215.734489 155.954044 
L 217.256307 155.954044 
L 217.256307 155.688932 
L 220.299943 155.716651 
L 220.299943 153.329687 
L 221.821761 153.329687 
L 221.821761 158.186094 
L 223.34358 158.186094 
L 223.34358 153.900104 
L 224.865398 153.900104 
L 224.865398 151.742078 
L 226.387216 151.742078 
L 226.387216 156.545216 
L 227.909034 156.545216 
L 227.909034 153.023995 
L 229.430852 153.023995 
L 229.430852 155.333945 
L 230.95267 155.333945 
L 230.95267 150.483083 
L 232.474489 150.483083 
L 232.474489 152.642725 
L 233.996307 152.642725 
L 233.996307 168.917118 
L 235.518125 168.917118 
L 235.518125 157.760365 
L 237.039943 157.760365 
L 237.039943 154.249464 
L 238.561761 154.249464 
L 238.561761 154.766788 
L 240.08358 154.766788 
L 240.08358 159.581845 
L 241.605398 159.581845 
L 241.605398 153.249419 
L 243.127216 153.249419 
L 243.127216 163.867137 
L 244.649034 163.867137 
L 244.649034 164.18898 
L 246.170852 164.18898 
L 246.170852 158.034479 
L 247.69267 158.034479 
L 247.69267 160.07381 
L 249.214489 160.07381 
L 249.214489 162.102463 
L 250.736307 162.102463 
L 250.736307 159.987896 
L 252.258125 159.987896 
L 252.258125 161.091316 
L 253.779943 161.091316 
L 253.779943 163.141374 
L 255.301761 163.141374 
L 255.301761 163.442553 
L 256.82358 163.442553 
L 256.82358 158.86666 
L 258.345398 158.86666 
L 258.345398 161.383615 
L 259.867216 161.383615 
L 259.867216 157.723251 
L 261.389034 157.723251 
L 261.389034 161.716001 
L 262.910852 161.716001 
L 262.910852 160.324205 
L 264.43267 160.324205 
L 264.43267 160.756818 
L 265.954489 160.756818 
L 265.954489 163.634253 
L 267.476307 163.634253 
L 267.476307 156.873819 
L 268.998125 156.873819 
L 268.998125 162.91748 
L 270.519943 162.91748 
L 270.519943 159.182679 
L 272.041761 159.182679 
L 272.041761 161.155836 
L 273.56358 161.155836 
L 273.56358 159.330489 
L 275.085398 159.330489 
L 275.085398 161.462338 
L 276.607216 161.462338 
L 276.607216 156.486283 
L 278.129034 156.486283 
L 278.129034 157.337103 
L 279.650852 157.337103 
L 279.650852 155.726514 
L 281.17267 155.726514 
L 281.17267 156.605962 
L 282.694489 156.605962 
L 282.694489 154.560574 
L 284.216307 154.560574 
L 284.216307 157.119426 
L 285.738125 157.119426 
L 285.738125 159.713079 
L 287.259943 159.713079 
L 287.259943 154.529389 
L 288.781761 154.529389 
L 288.781761 166.27846 
L 290.30358 166.27846 
L 290.30358 161.167125 
L 291.825398 161.167125 
L 291.825398 157.443646 
L 293.347216 157.443646 
L 293.347216 161.565914 
L 294.869034 161.565914 
L 294.869034 158.54453 
L 296.390852 158.54453 
L 296.390852 157.29821 
L 297.91267 157.29821 
L 297.91267 161.993667 
L 300.956307 161.953543 
L 300.956307 167.001886 
L 302.478125 167.001886 
L 302.478125 161.344284 
L 303.999943 161.344284 
L 303.999943 159.04518 
L 305.521761 159.04518 
L 305.521761 162.727176 
L 307.04358 162.727176 
L 307.04358 160.712658 
L 308.565398 160.712658 
L 308.565398 157.91668 
L 310.087216 157.91668 
L 310.087216 161.464621 
L 311.609034 161.464621 
L 311.609034 161.865132 
L 313.130852 161.865132 
L 313.130852 158.822312 
L 314.65267 158.822312 
L 314.65267 162.417403 
L 316.174489 162.417403 
L 316.174489 161.824867 
L 317.696307 161.824867 
L 317.696307 163.606062 
L 319.218125 163.606062 
L 319.218125 163.953804 
L 320.739943 163.953804 
L 320.739943 163.045505 
L 322.261761 163.045505 
L 322.261761 162.723602 
L 323.78358 162.723602 
L 323.78358 164.832652 
L 325.305398 164.832652 
L 325.305398 164.326241 
L 326.827216 164.326241 
L 326.827216 161.228799 
L 328.349034 161.228799 
L 328.349034 162.276352 
L 329.870852 162.276352 
L 329.870852 154.527814 
L 331.39267 154.527814 
L 331.39267 164.693004 
L 332.914489 164.693004 
L 332.914489 158.777797 
L 334.436307 158.777797 
L 334.436307 154.636533 
L 335.958125 154.636533 
L 335.958125 159.853811 
L 337.479943 159.853811 
L 337.479943 157.650484 
L 339.001761 157.650484 
L 339.001761 169.029959 
L 340.52358 169.029959 
L 340.52358 153.312164 
L 342.045398 153.312164 
L 342.045398 152.794535 
L 343.567216 152.794535 
L 343.567216 145.87379 
L 345.089034 145.87379 
L 345.089034 154.065914 
L 346.610852 154.065914 
L 346.610852 160.595922 
L 348.13267 160.595922 
L 348.13267 155.996741 
L 349.654489 155.996741 
L 349.654489 155.848605 
L 351.176307 155.848605 
L 351.176307 156.636374 
L 352.698125 156.636374 
L 352.698125 154.892974 
L 354.219943 154.892974 
L 354.219943 148.412557 
L 355.741761 148.412557 
L 355.741761 154.290114 
L 357.26358 154.290114 
L 357.26358 182.077327 
L 358.785398 182.077327 
L 358.785398 148.689498 
L 360.307216 148.689498 
L 360.307216 152.26891 
L 361.829034 152.26891 
L 361.829034 154.019212 
L 363.350852 154.019212 
L 363.350852 151.298143 
L 364.87267 151.298143 
L 364.87267 159.600452 
L 366.394489 159.600452 
L 366.394489 183.28568 
L 367.916307 183.28568 
L 367.916307 138.808425 
L 369.438125 138.808425 
L 369.438125 191.398843 
L 370.959943 191.398843 
L 370.959943 191.398843 
" clip-path="url(#p6b3690274b)" style="fill: none; stroke: #1f77b4; stroke-width: 1.5; stroke-linecap: square"/>
   </g>
   <g id="LineCollection_1">
    <path d="M 67.357216 32.445166 
L 67.357216 29.234052 
" clip-path="url(#p6b3690274b)" style="fill: none; stroke: #1f77b4; stroke-width: 1.5"/>
    <path d="M 68.879034 28.625091 
L 68.879034 26.90014 
" clip-path="url(#p6b3690274b)" style="fill: none; stroke: #1f77b4; stroke-width: 1.5"/>
    <path d="M 70.400852 28.884394 
L 70.400852 26.819665 
" clip-path="url(#p6b3690274b)" style="fill: none; stroke: #1f77b4; stroke-width: 1.5"/>
    <path d="M 71.92267 29.083136 
L 71.92267 27.461134 
" clip-path="url(#p6b3690274b)" style="fill: none; stroke: #1f77b4; stroke-width: 1.5"/>
    <path d="M 73.444489 29.77923 
L 73.444489 28.284457 
" clip-path="url(#p6b3690274b)" style="fill: none; stroke: #1f77b4; stroke-width: 1.5"/>
    <path d="M 74.966307 30.763777 
L 74.966307 29.258644 
" clip-path="url(#p6b3690274b)" style="fill: none; stroke: #1f77b4; stroke-width: 1.5"/>
    <path d="M 76.488125 30.624612 
L 76.488125 29.095336 
" clip-path="url(#p6b3690274b)" style="fill: none; stroke: #1f77b4; stroke-width: 1.5"/>
    <path d="M 78.009943 32.520243 
L 78.009943 30.79499 
" clip-path="url(#p6b3690274b)" style="fill: none; stroke: #1f77b4; stroke-width: 1.5"/>
    <path d="M 79.531761 34.748923 
L 79.531761 33.178321 
" clip-path="url(#p6b3690274b)" style="fill: none; stroke: #1f77b4; stroke-width: 1.5"/>
    <path d="M 81.05358 33.66205 
L 81.05358 32.059562 
" clip-path="url(#p6b3690274b)" style="fill: none; stroke: #1f77b4; stroke-width: 1.5"/>
    <path d="M 82.575398 36.179561 
L 82.575398 34.548849 
" clip-path="url(#p6b3690274b)" style="fill: none; stroke: #1f77b4; stroke-width: 1.5"/>
    <path d="M 84.097216 35.446267 
L 84.097216 33.766236 
" clip-path="url(#p6b3690274b)" style="fill: none; stroke: #1f77b4; stroke-width: 1.5"/>
    <path d="M 85.619034 37.825606 
L 85.619034 36.108408 
" clip-path="url(#p6b3690274b)" style="fill: none; stroke: #1f77b4; stroke-width: 1.5"/>
    <path d="M 87.140852 38.953394 
L 87.140852 37.176789 
" clip-path="url(#p6b3690274b)" style="fill: none; stroke: #1f77b4; stroke-width: 1.5"/>
    <path d="M 88.66267 40.444672 
L 88.66267 38.650429 
" clip-path="url(#p6b3690274b)" style="fill: none; stroke: #1f77b4; stroke-width: 1.5"/>
    <path d="M 90.184489 39.370961 
L 90.184489 37.477568 
" clip-path="url(#p6b3690274b)" style="fill: none; stroke: #1f77b4; stroke-width: 1.5"/>
    <path d="M 91.706307 44.155167 
L 91.706307 42.237587 
" clip-path="url(#p6b3690274b)" style="fill: none; stroke: #1f77b4; stroke-width: 1.5"/>
    <path d="M 93.228125 44.564768 
L 93.228125 42.611865 
" clip-path="url(#p6b3690274b)" style="fill: none; stroke: #1f77b4; stroke-width: 1.5"/>
    <path d="M 94.749943 47.986239 
L 94.749943 45.936255 
" clip-path="url(#p6b3690274b)" style="fill: none; stroke: #1f77b4; stroke-width: 1.5"/>
    <path d="M 96.271761 50.208676 
L 96.271761 48.086228 
" clip-path="url(#p6b3690274b)" style="fill: none; stroke: #1f77b4; stroke-width: 1.5"/>
    <path d="M 97.79358 48.992941 
L 97.79358 46.796636 
" clip-path="url(#p6b3690274b)" style="fill: none; stroke: #1f77b4; stroke-width: 1.5"/>
    <path d="M 99.315398 53.103465 
L 99.315398 50.667504 
" clip-path="url(#p6b3690274b)" style="fill: none; stroke: #1f77b4; stroke-width: 1.5"/>
    <path d="M 100.837216 55.514756 
L 100.837216 52.846473 
" clip-path="url(#p6b3690274b)" style="fill: none; stroke: #1f77b4; stroke-width: 1.5"/>
    <path d="M 102.359034 56.047062 
L 102.359034 53.017876 
" clip-path="url(#p6b3690274b)" style="fill: none; stroke: #1f77b4; stroke-width: 1.5"/>
    <path d="M 103.880852 59.580314 
L 103.880852 56.106203 
" clip-path="url(#p6b3690274b)" style="fill: none; stroke: #1f77b4; stroke-width: 1.5"/>
    <path d="M 105.40267 63.303571 
L 105.40267 59.467558 
" clip-path="url(#p6b3690274b)" style="fill: none; stroke: #1f77b4; stroke-width: 1.5"/>
    <path d="M 106.924489 67.08915 
L 106.924489 62.883861 
" clip-path="url(#p6b3690274b)" style="fill: none; stroke: #1f77b4; stroke-width: 1.5"/>
    <path d="M 108.446307 72.392463 
L 108.446307 67.927991 
" clip-path="url(#p6b3690274b)" style="fill: none; stroke: #1f77b4; stroke-width: 1.5"/>
    <path d="M 109.968125 69.090848 
L 109.968125 65.009266 
" clip-path="url(#p6b3690274b)" style="fill: none; stroke: #1f77b4; stroke-width: 1.5"/>
    <path d="M 111.489943 73.036688 
L 111.489943 69.289872 
" clip-path="url(#p6b3690274b)" style="fill: none; stroke: #1f77b4; stroke-width: 1.5"/>
    <path d="M 113.011761 77.128712 
L 113.011761 73.583439 
" clip-path="url(#p6b3690274b)" style="fill: none; stroke: #1f77b4; stroke-width: 1.5"/>
    <path d="M 114.53358 78.337854 
L 114.53358 75.003653 
" clip-path="url(#p6b3690274b)" style="fill: none; stroke: #1f77b4; stroke-width: 1.5"/>
    <path d="M 116.055398 84.532632 
L 116.055398 81.353294 
" clip-path="url(#p6b3690274b)" style="fill: none; stroke: #1f77b4; stroke-width: 1.5"/>
    <path d="M 117.577216 89.069348 
L 117.577216 85.994721 
" clip-path="url(#p6b3690274b)" style="fill: none; stroke: #1f77b4; stroke-width: 1.5"/>
    <path d="M 119.099034 93.887203 
L 119.099034 90.761018 
" clip-path="url(#p6b3690274b)" style="fill: none; stroke: #1f77b4; stroke-width: 1.5"/>
    <path d="M 120.620852 97.353555 
L 120.620852 94.378326 
" clip-path="url(#p6b3690274b)" style="fill: none; stroke: #1f77b4; stroke-width: 1.5"/>
    <path d="M 122.14267 101.283288 
L 122.14267 98.279774 
" clip-path="url(#p6b3690274b)" style="fill: none; stroke: #1f77b4; stroke-width: 1.5"/>
    <path d="M 123.664489 107.839991 
L 123.664489 104.697516 
" clip-path="url(#p6b3690274b)" style="fill: none; stroke: #1f77b4; stroke-width: 1.5"/>
    <path d="M 125.186307 110.251947 
L 125.186307 107.182968 
" clip-path="url(#p6b3690274b)" style="fill: none; stroke: #1f77b4; stroke-width: 1.5"/>
    <path d="M 126.708125 119.801769 
L 126.708125 116.57517 
" clip-path="url(#p6b3690274b)" style="fill: none; stroke: #1f77b4; stroke-width: 1.5"/>
    <path d="M 128.229943 121.948527 
L 128.229943 118.761054 
" clip-path="url(#p6b3690274b)" style="fill: none; stroke: #1f77b4; stroke-width: 1.5"/>
    <path d="M 129.751761 126.487972 
L 129.751761 123.315494 
" clip-path="url(#p6b3690274b)" style="fill: none; stroke: #1f77b4; stroke-width: 1.5"/>
    <path d="M 131.27358 134.612973 
L 131.27358 131.403564 
" clip-path="url(#p6b3690274b)" style="fill: none; stroke: #1f77b4; stroke-width: 1.5"/>
    <path d="M 132.795398 139.422703 
L 132.795398 136.243261 
" clip-path="url(#p6b3690274b)" style="fill: none; stroke: #1f77b4; stroke-width: 1.5"/>
    <path d="M 134.317216 147.64189 
L 134.317216 144.544426 
" clip-path="url(#p6b3690274b)" style="fill: none; stroke: #1f77b4; stroke-width: 1.5"/>
    <path d="M 135.839034 152.51283 
L 135.839034 149.696043 
" clip-path="url(#p6b3690274b)" style="fill: none; stroke: #1f77b4; stroke-width: 1.5"/>
    <path d="M 137.360852 153.970599 
L 137.360852 151.276031 
" clip-path="url(#p6b3690274b)" style="fill: none; stroke: #1f77b4; stroke-width: 1.5"/>
    <path d="M 138.88267 159.111633 
L 138.88267 156.505393 
" clip-path="url(#p6b3690274b)" style="fill: none; stroke: #1f77b4; stroke-width: 1.5"/>
    <path d="M 140.404489 156.620309 
L 140.404489 154.00079 
" clip-path="url(#p6b3690274b)" style="fill: none; stroke: #1f77b4; stroke-width: 1.5"/>
    <path d="M 141.926307 158.500963 
L 141.926307 155.725881 
" clip-path="url(#p6b3690274b)" style="fill: none; stroke: #1f77b4; stroke-width: 1.5"/>
    <path d="M 143.448125 154.712548 
L 143.448125 151.656569 
" clip-path="url(#p6b3690274b)" style="fill: none; stroke: #1f77b4; stroke-width: 1.5"/>
    <path d="M 144.969943 151.99209 
L 144.969943 148.841794 
" clip-path="url(#p6b3690274b)" style="fill: none; stroke: #1f77b4; stroke-width: 1.5"/>
    <path d="M 146.491761 150.271852 
L 146.491761 146.989998 
" clip-path="url(#p6b3690274b)" style="fill: none; stroke: #1f77b4; stroke-width: 1.5"/>
    <path d="M 148.01358 146.940059 
L 148.01358 143.597723 
" clip-path="url(#p6b3690274b)" style="fill: none; stroke: #1f77b4; stroke-width: 1.5"/>
    <path d="M 149.535398 142.624868 
L 149.535398 139.228741 
" clip-path="url(#p6b3690274b)" style="fill: none; stroke: #1f77b4; stroke-width: 1.5"/>
    <path d="M 151.057216 143.845981 
L 151.057216 140.39738 
" clip-path="url(#p6b3690274b)" style="fill: none; stroke: #1f77b4; stroke-width: 1.5"/>
    <path d="M 152.579034 140.395688 
L 152.579034 136.855095 
" clip-path="url(#p6b3690274b)" style="fill: none; stroke: #1f77b4; stroke-width: 1.5"/>
    <path d="M 154.100852 140.975369 
L 154.100852 137.341516 
" clip-path="url(#p6b3690274b)" style="fill: none; stroke: #1f77b4; stroke-width: 1.5"/>
    <path d="M 155.62267 136.933597 
L 155.62267 133.359588 
" clip-path="url(#p6b3690274b)" style="fill: none; stroke: #1f77b4; stroke-width: 1.5"/>
    <path d="M 157.144489 135.676207 
L 157.144489 131.942299 
" clip-path="url(#p6b3690274b)" style="fill: none; stroke: #1f77b4; stroke-width: 1.5"/>
    <path d="M 158.666307 134.554841 
L 158.666307 130.922318 
" clip-path="url(#p6b3690274b)" style="fill: none; stroke: #1f77b4; stroke-width: 1.5"/>
    <path d="M 160.188125 138.098916 
L 160.188125 134.165018 
" clip-path="url(#p6b3690274b)" style="fill: none; stroke: #1f77b4; stroke-width: 1.5"/>
    <path d="M 161.709943 132.610982 
L 161.709943 128.893 
" clip-path="url(#p6b3690274b)" style="fill: none; stroke: #1f77b4; stroke-width: 1.5"/>
    <path d="M 163.231761 134.017443 
L 163.231761 130.140244 
" clip-path="url(#p6b3690274b)" style="fill: none; stroke: #1f77b4; stroke-width: 1.5"/>
    <path d="M 164.75358 136.579367 
L 164.75358 132.570625 
" clip-path="url(#p6b3690274b)" style="fill: none; stroke: #1f77b4; stroke-width: 1.5"/>
    <path d="M 166.275398 136.359711 
L 166.275398 132.452869 
" clip-path="url(#p6b3690274b)" style="fill: none; stroke: #1f77b4; stroke-width: 1.5"/>
    <path d="M 167.797216 139.609011 
L 167.797216 135.418099 
" clip-path="url(#p6b3690274b)" style="fill: none; stroke: #1f77b4; stroke-width: 1.5"/>
    <path d="M 169.319034 135.638584 
L 169.319034 131.674429 
" clip-path="url(#p6b3690274b)" style="fill: none; stroke: #1f77b4; stroke-width: 1.5"/>
    <path d="M 170.840852 135.254852 
L 170.840852 131.437156 
" clip-path="url(#p6b3690274b)" style="fill: none; stroke: #1f77b4; stroke-width: 1.5"/>
    <path d="M 172.36267 140.621919 
L 172.36267 136.500597 
" clip-path="url(#p6b3690274b)" style="fill: none; stroke: #1f77b4; stroke-width: 1.5"/>
    <path d="M 173.884489 139.785368 
L 173.884489 135.829243 
" clip-path="url(#p6b3690274b)" style="fill: none; stroke: #1f77b4; stroke-width: 1.5"/>
    <path d="M 175.406307 145.440785 
L 175.406307 141.269394 
" clip-path="url(#p6b3690274b)" style="fill: none; stroke: #1f77b4; stroke-width: 1.5"/>
    <path d="M 176.928125 144.259084 
L 176.928125 140.130412 
" clip-path="url(#p6b3690274b)" style="fill: none; stroke: #1f77b4; stroke-width: 1.5"/>
    <path d="M 178.449943 147.758078 
L 178.449943 143.510585 
" clip-path="url(#p6b3690274b)" style="fill: none; stroke: #1f77b4; stroke-width: 1.5"/>
    <path d="M 179.971761 148.620017 
L 179.971761 144.388981 
" clip-path="url(#p6b3690274b)" style="fill: none; stroke: #1f77b4; stroke-width: 1.5"/>
    <path d="M 181.49358 149.833404 
L 181.49358 145.758183 
" clip-path="url(#p6b3690274b)" style="fill: none; stroke: #1f77b4; stroke-width: 1.5"/>
    <path d="M 183.015398 156.020692 
L 183.015398 151.739318 
" clip-path="url(#p6b3690274b)" style="fill: none; stroke: #1f77b4; stroke-width: 1.5"/>
    <path d="M 184.537216 154.855667 
L 184.537216 150.836813 
" clip-path="url(#p6b3690274b)" style="fill: none; stroke: #1f77b4; stroke-width: 1.5"/>
    <path d="M 186.059034 158.235673 
L 186.059034 154.260824 
" clip-path="url(#p6b3690274b)" style="fill: none; stroke: #1f77b4; stroke-width: 1.5"/>
    <path d="M 187.580852 154.460927 
L 187.580852 150.620192 
" clip-path="url(#p6b3690274b)" style="fill: none; stroke: #1f77b4; stroke-width: 1.5"/>
    <path d="M 189.10267 152.098519 
L 189.10267 148.50754 
" clip-path="url(#p6b3690274b)" style="fill: none; stroke: #1f77b4; stroke-width: 1.5"/>
    <path d="M 190.624489 160.762333 
L 190.624489 156.981415 
" clip-path="url(#p6b3690274b)" style="fill: none; stroke: #1f77b4; stroke-width: 1.5"/>
    <path d="M 192.146307 163.757612 
L 192.146307 160.020086 
" clip-path="url(#p6b3690274b)" style="fill: none; stroke: #1f77b4; stroke-width: 1.5"/>
    <path d="M 193.668125 162.509468 
L 193.668125 158.769963 
" clip-path="url(#p6b3690274b)" style="fill: none; stroke: #1f77b4; stroke-width: 1.5"/>
    <path d="M 195.189943 162.074333 
L 195.189943 158.589831 
" clip-path="url(#p6b3690274b)" style="fill: none; stroke: #1f77b4; stroke-width: 1.5"/>
    <path d="M 196.711761 160.116119 
L 196.711761 156.677563 
" clip-path="url(#p6b3690274b)" style="fill: none; stroke: #1f77b4; stroke-width: 1.5"/>
    <path d="M 198.23358 162.174722 
L 198.23358 158.648476 
" clip-path="url(#p6b3690274b)" style="fill: none; stroke: #1f77b4; stroke-width: 1.5"/>
    <path d="M 199.755398 163.120653 
L 199.755398 159.705044 
" clip-path="url(#p6b3690274b)" style="fill: none; stroke: #1f77b4; stroke-width: 1.5"/>
    <path d="M 201.277216 162.909088 
L 201.277216 159.108836 
" clip-path="url(#p6b3690274b)" style="fill: none; stroke: #1f77b4; stroke-width: 1.5"/>
    <path d="M 202.799034 160.765615 
L 202.799034 157.012617 
" clip-path="url(#p6b3690274b)" style="fill: none; stroke: #1f77b4; stroke-width: 1.5"/>
    <path d="M 204.320852 157.774634 
L 204.320852 154.029188 
" clip-path="url(#p6b3690274b)" style="fill: none; stroke: #1f77b4; stroke-width: 1.5"/>
    <path d="M 205.84267 161.020752 
L 205.84267 157.223234 
" clip-path="url(#p6b3690274b)" style="fill: none; stroke: #1f77b4; stroke-width: 1.5"/>
    <path d="M 207.364489 158.515955 
L 207.364489 154.453447 
" clip-path="url(#p6b3690274b)" style="fill: none; stroke: #1f77b4; stroke-width: 1.5"/>
    <path d="M 208.886307 161.706734 
L 208.886307 157.466821 
" clip-path="url(#p6b3690274b)" style="fill: none; stroke: #1f77b4; stroke-width: 1.5"/>
    <path d="M 210.408125 162.039995 
L 210.408125 157.710549 
" clip-path="url(#p6b3690274b)" style="fill: none; stroke: #1f77b4; stroke-width: 1.5"/>
    <path d="M 211.929943 160.416151 
L 211.929943 156.01749 
" clip-path="url(#p6b3690274b)" style="fill: none; stroke: #1f77b4; stroke-width: 1.5"/>
    <path d="M 213.451761 160.31177 
L 213.451761 155.79143 
" clip-path="url(#p6b3690274b)" style="fill: none; stroke: #1f77b4; stroke-width: 1.5"/>
    <path d="M 214.97358 155.552263 
L 214.97358 151.240865 
" clip-path="url(#p6b3690274b)" style="fill: none; stroke: #1f77b4; stroke-width: 1.5"/>
    <path d="M 216.495398 158.486182 
L 216.495398 153.663045 
" clip-path="url(#p6b3690274b)" style="fill: none; stroke: #1f77b4; stroke-width: 1.5"/>
    <path d="M 218.017216 158.100996 
L 218.017216 153.496656 
" clip-path="url(#p6b3690274b)" style="fill: none; stroke: #1f77b4; stroke-width: 1.5"/>
    <path d="M 219.539034 158.250194 
L 219.539034 153.424502 
" clip-path="url(#p6b3690274b)" style="fill: none; stroke: #1f77b4; stroke-width: 1.5"/>
    <path d="M 221.060852 155.87304 
L 221.060852 151.029511 
" clip-path="url(#p6b3690274b)" style="fill: none; stroke: #1f77b4; stroke-width: 1.5"/>
    <path d="M 222.58267 160.737867 
L 222.58267 155.879037 
" clip-path="url(#p6b3690274b)" style="fill: none; stroke: #1f77b4; stroke-width: 1.5"/>
    <path d="M 224.104489 156.295029 
L 224.104489 151.721994 
" clip-path="url(#p6b3690274b)" style="fill: none; stroke: #1f77b4; stroke-width: 1.5"/>
    <path d="M 225.626307 154.261478 
L 225.626307 149.46151 
" clip-path="url(#p6b3690274b)" style="fill: none; stroke: #1f77b4; stroke-width: 1.5"/>
    <path d="M 227.148125 159.097045 
L 227.148125 154.238111 
" clip-path="url(#p6b3690274b)" style="fill: none; stroke: #1f77b4; stroke-width: 1.5"/>
    <path d="M 228.669943 155.45499 
L 228.669943 150.816095 
" clip-path="url(#p6b3690274b)" style="fill: none; stroke: #1f77b4; stroke-width: 1.5"/>
    <path d="M 230.191761 157.910831 
L 230.191761 153.006382 
" clip-path="url(#p6b3690274b)" style="fill: none; stroke: #1f77b4; stroke-width: 1.5"/>
    <path d="M 231.71358 152.896848 
L 231.71358 148.289404 
" clip-path="url(#p6b3690274b)" style="fill: none; stroke: #1f77b4; stroke-width: 1.5"/>
    <path d="M 233.235398 154.996681 
L 233.235398 150.498549 
" clip-path="url(#p6b3690274b)" style="fill: none; stroke: #1f77b4; stroke-width: 1.5"/>
    <path d="M 234.757216 171.57977 
L 234.757216 166.519822 
" clip-path="url(#p6b3690274b)" style="fill: none; stroke: #1f77b4; stroke-width: 1.5"/>
    <path d="M 236.279034 160.258424 
L 236.279034 155.497294 
" clip-path="url(#p6b3690274b)" style="fill: none; stroke: #1f77b4; stroke-width: 1.5"/>
    <path d="M 237.800852 156.587794 
L 237.800852 152.11826 
" clip-path="url(#p6b3690274b)" style="fill: none; stroke: #1f77b4; stroke-width: 1.5"/>
    <path d="M 239.32267 157.140689 
L 239.32267 152.606078 
" clip-path="url(#p6b3690274b)" style="fill: none; stroke: #1f77b4; stroke-width: 1.5"/>
    <path d="M 240.844489 162.008768 
L 240.844489 157.377304 
" clip-path="url(#p6b3690274b)" style="fill: none; stroke: #1f77b4; stroke-width: 1.5"/>
    <path d="M 242.366307 155.616125 
L 242.366307 151.094673 
" clip-path="url(#p6b3690274b)" style="fill: none; stroke: #1f77b4; stroke-width: 1.5"/>
    <path d="M 243.888125 166.188022 
L 243.888125 161.750433 
" clip-path="url(#p6b3690274b)" style="fill: none; stroke: #1f77b4; stroke-width: 1.5"/>
    <path d="M 245.409943 166.699485 
L 245.409943 161.915702 
" clip-path="url(#p6b3690274b)" style="fill: none; stroke: #1f77b4; stroke-width: 1.5"/>
    <path d="M 246.931761 160.383421 
L 246.931761 155.894465 
" clip-path="url(#p6b3690274b)" style="fill: none; stroke: #1f77b4; stroke-width: 1.5"/>
    <path d="M 248.45358 162.573539 
L 248.45358 157.80937 
" clip-path="url(#p6b3690274b)" style="fill: none; stroke: #1f77b4; stroke-width: 1.5"/>
    <path d="M 249.975398 164.563808 
L 249.975398 159.86956 
" clip-path="url(#p6b3690274b)" style="fill: none; stroke: #1f77b4; stroke-width: 1.5"/>
    <path d="M 251.497216 162.477711 
L 251.497216 157.731592 
" clip-path="url(#p6b3690274b)" style="fill: none; stroke: #1f77b4; stroke-width: 1.5"/>
    <path d="M 253.019034 163.576334 
L 253.019034 158.838952 
" clip-path="url(#p6b3690274b)" style="fill: none; stroke: #1f77b4; stroke-width: 1.5"/>
    <path d="M 254.540852 165.594673 
L 254.540852 160.915094 
" clip-path="url(#p6b3690274b)" style="fill: none; stroke: #1f77b4; stroke-width: 1.5"/>
    <path d="M 256.06267 165.780444 
L 256.06267 161.311714 
" clip-path="url(#p6b3690274b)" style="fill: none; stroke: #1f77b4; stroke-width: 1.5"/>
    <path d="M 257.584489 161.31105 
L 257.584489 156.647719 
" clip-path="url(#p6b3690274b)" style="fill: none; stroke: #1f77b4; stroke-width: 1.5"/>
    <path d="M 259.106307 163.766066 
L 259.106307 159.215827 
" clip-path="url(#p6b3690274b)" style="fill: none; stroke: #1f77b4; stroke-width: 1.5"/>
    <path d="M 260.628125 160.165397 
L 260.628125 155.506158 
" clip-path="url(#p6b3690274b)" style="fill: none; stroke: #1f77b4; stroke-width: 1.5"/>
    <path d="M 262.149943 164.291484 
L 262.149943 159.389583 
" clip-path="url(#p6b3690274b)" style="fill: none; stroke: #1f77b4; stroke-width: 1.5"/>
    <path d="M 263.671761 162.836529 
L 263.671761 158.049435 
" clip-path="url(#p6b3690274b)" style="fill: none; stroke: #1f77b4; stroke-width: 1.5"/>
    <path d="M 265.19358 163.313224 
L 265.19358 158.445975 
" clip-path="url(#p6b3690274b)" style="fill: none; stroke: #1f77b4; stroke-width: 1.5"/>
    <path d="M 266.715398 166.391054 
L 266.715398 161.160921 
" clip-path="url(#p6b3690274b)" style="fill: none; stroke: #1f77b4; stroke-width: 1.5"/>
    <path d="M 268.237216 159.511306 
L 268.237216 154.496936 
" clip-path="url(#p6b3690274b)" style="fill: none; stroke: #1f77b4; stroke-width: 1.5"/>
    <path d="M 269.759034 165.660718 
L 269.759034 160.455069 
" clip-path="url(#p6b3690274b)" style="fill: none; stroke: #1f77b4; stroke-width: 1.5"/>
    <path d="M 271.280852 161.985264 
L 271.280852 156.672565 
" clip-path="url(#p6b3690274b)" style="fill: none; stroke: #1f77b4; stroke-width: 1.5"/>
    <path d="M 272.80267 164.110765 
L 272.80267 158.524237 
" clip-path="url(#p6b3690274b)" style="fill: none; stroke: #1f77b4; stroke-width: 1.5"/>
    <path d="M 274.324489 162.259142 
L 274.324489 156.719743 
" clip-path="url(#p6b3690274b)" style="fill: none; stroke: #1f77b4; stroke-width: 1.5"/>
    <path d="M 275.846307 164.28543 
L 275.846307 158.93579 
" clip-path="url(#p6b3690274b)" style="fill: none; stroke: #1f77b4; stroke-width: 1.5"/>
    <path d="M 277.368125 159.448299 
L 277.368125 153.849065 
" clip-path="url(#p6b3690274b)" style="fill: none; stroke: #1f77b4; stroke-width: 1.5"/>
    <path d="M 278.889943 160.316508 
L 278.889943 154.686113 
" clip-path="url(#p6b3690274b)" style="fill: none; stroke: #1f77b4; stroke-width: 1.5"/>
    <path d="M 280.411761 158.545225 
L 280.411761 153.203475 
" clip-path="url(#p6b3690274b)" style="fill: none; stroke: #1f77b4; stroke-width: 1.5"/>
    <path d="M 281.93358 159.723869 
L 281.93358 153.845912 
" clip-path="url(#p6b3690274b)" style="fill: none; stroke: #1f77b4; stroke-width: 1.5"/>
    <path d="M 283.455398 157.611359 
L 283.455398 151.853238 
" clip-path="url(#p6b3690274b)" style="fill: none; stroke: #1f77b4; stroke-width: 1.5"/>
    <path d="M 284.977216 159.97606 
L 284.977216 154.566053 
" clip-path="url(#p6b3690274b)" style="fill: none; stroke: #1f77b4; stroke-width: 1.5"/>
    <path d="M 286.499034 162.554106 
L 286.499034 157.17218 
" clip-path="url(#p6b3690274b)" style="fill: none; stroke: #1f77b4; stroke-width: 1.5"/>
    <path d="M 288.020852 157.447929 
L 288.020852 151.926682 
" clip-path="url(#p6b3690274b)" style="fill: none; stroke: #1f77b4; stroke-width: 1.5"/>
    <path d="M 289.54267 169.263163 
L 289.54267 163.623277 
" clip-path="url(#p6b3690274b)" style="fill: none; stroke: #1f77b4; stroke-width: 1.5"/>
    <path d="M 291.064489 163.937086 
L 291.064489 158.683209 
" clip-path="url(#p6b3690274b)" style="fill: none; stroke: #1f77b4; stroke-width: 1.5"/>
    <path d="M 292.586307 160.324751 
L 292.586307 154.870744 
" clip-path="url(#p6b3690274b)" style="fill: none; stroke: #1f77b4; stroke-width: 1.5"/>
    <path d="M 294.108125 164.444123 
L 294.108125 158.995321 
" clip-path="url(#p6b3690274b)" style="fill: none; stroke: #1f77b4; stroke-width: 1.5"/>
    <path d="M 295.629943 161.546356 
L 295.629943 155.875809 
" clip-path="url(#p6b3690274b)" style="fill: none; stroke: #1f77b4; stroke-width: 1.5"/>
    <path d="M 297.151761 160.247666 
L 297.151761 154.670952 
" clip-path="url(#p6b3690274b)" style="fill: none; stroke: #1f77b4; stroke-width: 1.5"/>
    <path d="M 298.67358 164.720137 
L 298.67358 159.544773 
" clip-path="url(#p6b3690274b)" style="fill: none; stroke: #1f77b4; stroke-width: 1.5"/>
    <path d="M 300.195398 164.959342 
L 300.195398 159.281683 
" clip-path="url(#p6b3690274b)" style="fill: none; stroke: #1f77b4; stroke-width: 1.5"/>
    <path d="M 301.717216 170.044288 
L 301.717216 164.301152 
" clip-path="url(#p6b3690274b)" style="fill: none; stroke: #1f77b4; stroke-width: 1.5"/>
    <path d="M 303.239034 164.704646 
L 303.239034 158.39599 
" clip-path="url(#p6b3690274b)" style="fill: none; stroke: #1f77b4; stroke-width: 1.5"/>
    <path d="M 304.760852 161.953779 
L 304.760852 156.45038 
" clip-path="url(#p6b3690274b)" style="fill: none; stroke: #1f77b4; stroke-width: 1.5"/>
    <path d="M 306.28267 165.810801 
L 306.28267 159.994016 
" clip-path="url(#p6b3690274b)" style="fill: none; stroke: #1f77b4; stroke-width: 1.5"/>
    <path d="M 307.804489 163.957546 
L 307.804489 157.853598 
" clip-path="url(#p6b3690274b)" style="fill: none; stroke: #1f77b4; stroke-width: 1.5"/>
    <path d="M 309.326307 161.19577 
L 309.326307 155.031111 
" clip-path="url(#p6b3690274b)" style="fill: none; stroke: #1f77b4; stroke-width: 1.5"/>
    <path d="M 310.848125 164.744022 
L 310.848125 158.578811 
" clip-path="url(#p6b3690274b)" style="fill: none; stroke: #1f77b4; stroke-width: 1.5"/>
    <path d="M 312.369943 165.159276 
L 312.369943 158.967917 
" clip-path="url(#p6b3690274b)" style="fill: none; stroke: #1f77b4; stroke-width: 1.5"/>
    <path d="M 313.891761 162.406503 
L 313.891761 155.703187 
" clip-path="url(#p6b3690274b)" style="fill: none; stroke: #1f77b4; stroke-width: 1.5"/>
    <path d="M 315.41358 165.981499 
L 315.41358 159.3135 
" clip-path="url(#p6b3690274b)" style="fill: none; stroke: #1f77b4; stroke-width: 1.5"/>
    <path d="M 316.935398 165.287723 
L 316.935398 158.797999 
" clip-path="url(#p6b3690274b)" style="fill: none; stroke: #1f77b4; stroke-width: 1.5"/>
    <path d="M 318.457216 166.989731 
L 318.457216 160.639847 
" clip-path="url(#p6b3690274b)" style="fill: none; stroke: #1f77b4; stroke-width: 1.5"/>
    <path d="M 319.979034 167.531434 
L 319.979034 160.839646 
" clip-path="url(#p6b3690274b)" style="fill: none; stroke: #1f77b4; stroke-width: 1.5"/>
    <path d="M 321.500852 167.013886 
L 321.500852 159.639576 
" clip-path="url(#p6b3690274b)" style="fill: none; stroke: #1f77b4; stroke-width: 1.5"/>
    <path d="M 323.02267 166.772505 
L 323.02267 159.258565 
" clip-path="url(#p6b3690274b)" style="fill: none; stroke: #1f77b4; stroke-width: 1.5"/>
    <path d="M 324.544489 168.866439 
L 324.544489 161.378686 
" clip-path="url(#p6b3690274b)" style="fill: none; stroke: #1f77b4; stroke-width: 1.5"/>
    <path d="M 326.066307 168.823321 
L 326.066307 160.53838 
" clip-path="url(#p6b3690274b)" style="fill: none; stroke: #1f77b4; stroke-width: 1.5"/>
    <path d="M 327.588125 165.578649 
L 327.588125 157.545851 
" clip-path="url(#p6b3690274b)" style="fill: none; stroke: #1f77b4; stroke-width: 1.5"/>
    <path d="M 329.109943 166.696745 
L 329.109943 158.543 
" clip-path="url(#p6b3690274b)" style="fill: none; stroke: #1f77b4; stroke-width: 1.5"/>
    <path d="M 330.631761 159.238465 
L 330.631761 150.5897 
" clip-path="url(#p6b3690274b)" style="fill: none; stroke: #1f77b4; stroke-width: 1.5"/>
    <path d="M 332.15358 169.435539 
L 332.15358 160.732653 
" clip-path="url(#p6b3690274b)" style="fill: none; stroke: #1f77b4; stroke-width: 1.5"/>
    <path d="M 333.675398 163.562875 
L 333.675398 154.787852 
" clip-path="url(#p6b3690274b)" style="fill: none; stroke: #1f77b4; stroke-width: 1.5"/>
    <path d="M 335.197216 159.446664 
L 335.197216 150.629203 
" clip-path="url(#p6b3690274b)" style="fill: none; stroke: #1f77b4; stroke-width: 1.5"/>
    <path d="M 336.719034 165.317357 
L 336.719034 155.403622 
" clip-path="url(#p6b3690274b)" style="fill: none; stroke: #1f77b4; stroke-width: 1.5"/>
    <path d="M 338.240852 163.151391 
L 338.240852 153.175577 
" clip-path="url(#p6b3690274b)" style="fill: none; stroke: #1f77b4; stroke-width: 1.5"/>
    <path d="M 339.76267 174.467816 
L 339.76267 164.596805 
" clip-path="url(#p6b3690274b)" style="fill: none; stroke: #1f77b4; stroke-width: 1.5"/>
    <path d="M 341.284489 158.89031 
L 341.284489 148.786353 
" clip-path="url(#p6b3690274b)" style="fill: none; stroke: #1f77b4; stroke-width: 1.5"/>
    <path d="M 342.806307 158.355969 
L 342.806307 148.279714 
" clip-path="url(#p6b3690274b)" style="fill: none; stroke: #1f77b4; stroke-width: 1.5"/>
    <path d="M 344.328125 151.672089 
L 344.328125 141.204366 
" clip-path="url(#p6b3690274b)" style="fill: none; stroke: #1f77b4; stroke-width: 1.5"/>
    <path d="M 345.849943 160.479605 
L 345.849943 149.006299 
" clip-path="url(#p6b3690274b)" style="fill: none; stroke: #1f77b4; stroke-width: 1.5"/>
    <path d="M 347.371761 167.295607 
L 347.371761 155.360415 
" clip-path="url(#p6b3690274b)" style="fill: none; stroke: #1f77b4; stroke-width: 1.5"/>
    <path d="M 348.89358 162.441637 
L 348.89358 150.917769 
" clip-path="url(#p6b3690274b)" style="fill: none; stroke: #1f77b4; stroke-width: 1.5"/>
    <path d="M 350.415398 163.54411 
L 350.415398 150.02609 
" clip-path="url(#p6b3690274b)" style="fill: none; stroke: #1f77b4; stroke-width: 1.5"/>
    <path d="M 351.937216 164.319489 
L 351.937216 150.820929 
" clip-path="url(#p6b3690274b)" style="fill: none; stroke: #1f77b4; stroke-width: 1.5"/>
    <path d="M 353.459034 162.925023 
L 353.459034 148.880585 
" clip-path="url(#p6b3690274b)" style="fill: none; stroke: #1f77b4; stroke-width: 1.5"/>
    <path d="M 354.980852 156.971872 
L 354.980852 142.11087 
" clip-path="url(#p6b3690274b)" style="fill: none; stroke: #1f77b4; stroke-width: 1.5"/>
    <path d="M 356.50267 163.47863 
L 356.50267 147.655717 
" clip-path="url(#p6b3690274b)" style="fill: none; stroke: #1f77b4; stroke-width: 1.5"/>
    <path d="M 358.024489 185.433814 
L 358.024489 179.132015 
" clip-path="url(#p6b3690274b)" style="fill: none; stroke: #1f77b4; stroke-width: 1.5"/>
    <path d="M 359.546307 159.055746 
L 359.546307 141.466604 
" clip-path="url(#p6b3690274b)" style="fill: none; stroke: #1f77b4; stroke-width: 1.5"/>
    <path d="M 361.068125 163.535542 
L 361.068125 144.624069 
" clip-path="url(#p6b3690274b)" style="fill: none; stroke: #1f77b4; stroke-width: 1.5"/>
    <path d="M 362.589943 166.924205 
L 362.589943 145.662882 
" clip-path="url(#p6b3690274b)" style="fill: none; stroke: #1f77b4; stroke-width: 1.5"/>
    <path d="M 364.111761 165.582804 
L 364.111761 142.393616 
" clip-path="url(#p6b3690274b)" style="fill: none; stroke: #1f77b4; stroke-width: 1.5"/>
    <path d="M 365.63358 173.308791 
L 365.63358 150.919599 
" clip-path="url(#p6b3690274b)" style="fill: none; stroke: #1f77b4; stroke-width: 1.5"/>
    <path d="M 367.155398 190.179435 
L 367.155398 177.93272 
" clip-path="url(#p6b3690274b)" style="fill: none; stroke: #1f77b4; stroke-width: 1.5"/>
    <path d="M 368.677216 161.049129 
L 368.677216 127.447493 
" clip-path="url(#p6b3690274b)" style="fill: none; stroke: #1f77b4; stroke-width: 1.5"/>
    <path d="M 370.199034 202.928183 
L 370.199034 183.635174 
" clip-path="url(#p6b3690274b)" style="fill: none; stroke: #1f77b4; stroke-width: 1.5"/>
   </g>
   <g id="patch_3">
    <path d="M 51.378125 232.759219 
L 51.378125 10.999219 
" style="fill: none; stroke: #000000; stroke-width: 0.8; stroke-linejoin: miter; stroke-linecap: square"/>
   </g>
   <g id="patch_4">
    <path d="M 386.178125 232.759219 
L 386.178125 10.999219 
" style="fill: none; stroke: #000000; stroke-width: 0.8; stroke-linejoin: miter; stroke-linecap: square"/>
   </g>
   <g id="patch_5">
    <path d="M 51.378125 232.759219 
L 386.178125 232.759219 
" style="fill: none; stroke: #000000; stroke-width: 0.8; stroke-linejoin: miter; stroke-linecap: square"/>
   </g>
   <g id="patch_6">
    <path d="M 51.378125 10.999219 
L 386.178125 10.999219 
" style="fill: none; stroke: #000000; stroke-width: 0.8; stroke-linejoin: miter; stroke-linecap: square"/>
   </g>
  </g>
 </g>
 <defs>
  <clipPath id="p6b3690274b">
   <rect x="51.378125" y="10.999219" width="334.8" height="221.76"/>
  </clipPath>
 </defs>
</svg>