<?xml version="1.0" encoding="utf-8" standalone="no"?>
<!DOCTYPE svg PUBLIC "-//W3C//DTD SVG 1.1//EN"
  "http://www.w3.org/Graphics/SVG/1.1/DTD/svg11.dtd">
<svg xmlns:xlink="http://www.w3.org/1999/xlink" width="388.965625pt" height="266.794375pt" viewBox="0 0 388.965625 266.794375" xmlns="http://www.w3.org/2000/svg" version="1.1">
 <metadata>
  <rdf:RDF xmlns:dc="http://purl.org/dc/elements/1.1/" xmlns:cc="http://creativecommons.org/ns#" xmlns:rdf="http://www.w3.org/1999/02/22-rdf-syntax-ns#">
   <cc:Work>
    <dc:type rdf:resource="http://purl.org/dc/dcmitype/StillImage"/>
    <dc:date>2025-11-24T17:21:17.925790</dc:date>
    <dc:format>image/svg+xml</dc:format>
    <dc:creator>
     <cc:Agent>
      <dc:title>Matplotlib v3.10.5, https://matplotlib.org/</dc:title>
     </cc:Agent>
    </dc:creator>
   </cc:Work>
  </rdf:RDF>
 </metadata>
 <defs>
  <style type="text/css">*{stroke-linejoin: round; stroke-linecap: butt}</style>
 </defs>
 <g id="figure_1">
  <g id="patch_1">
   <path d="M 0 266.794375 
L 388.965625 266.794375 
L 388.965625 0 
L 0 0 
z
" style="fill: #ffffff"/>
  </g>
  <g id="axes_1">
   <g id="patch_2">
    <path d="M 46.965625 228.96 
L 381.765625 228.96 
L 381.765625 7.2 
L 46.965625 7.2 
z
" style="fill: #ffffff"/>
   </g>
   <g id="matplotlib.axis_1">
    <g id="xtick_1">
     <g id="line2d_1">
      <defs>
       <path id="me4ddb2fe53" d="M 0 0 
L 0 3.5 
" style="stroke: #000000; stroke-width: 0.8"/>
      </defs>
      <g>
       <use xlink:href="#me4ddb2fe53" x="94.702248" y="228.96" style="stroke: #000000; stroke-width: 0.8"/>
      </g>
     </g>
     <g id="text_1">
      <!-- −0.015 -->
      <g transform="translate(76.198342 243.558437) scale(0.1 -0.1)">
       <defs>
        <path id="DejaVuSans-2212" d="M 678 2272 
L 4684 2272 
L 4684 1741 
L 678 1741 
L 678 2272 
z
" transform="scale(0.015625)"/>
        <path id="DejaVuSans-30" d="M 2034 4250 
Q 1547 4250 1301 3770 
Q 1056 3291 1056 2328 
Q 1056 1369 1301 889 
Q 1547 409 2034 409 
Q 2525 409 2770 889 
Q 3016 1369 3016 2328 
Q 3016 3291 2770 3770 
Q 2525 4250 2034 4250 
z
M 2034 4750 
Q 2819 4750 3233 4129 
Q 3647 3509 3647 2328 
Q 3647 1150 3233 529 
Q 2819 -91 2034 -91 
Q 1250 -91 836 529 
Q 422 1150 422 2328 
Q 422 3509 836 4129 
Q 1250 4750 2034 4750 
z
" transform="scale(0.015625)"/>
        <path id="DejaVuSans-2e" d="M 684 794 
L 1344 794 
L 1344 0 
L 684 0 
L 684 794 
z
" transform="scale(0.015625)"/>
        <path id="DejaVuSans-31" d="M 794 531 
L 1825 531 
L 1825 4091 
L 703 3866 
L 703 4441 
L 1819 4666 
L 2450 4666 
L 2450 531 
L 3481 531 
L 3481 0 
L 794 0 
L 794 531 
z
" transform="scale(0.015625)"/>
        <path id="DejaVuSans-35" d="M 691 4666 
L 3169 4666 
L 3169 4134 
L 1269 4134 
L 1269 2991 
Q 1406 3038 1543 3061 
Q 1681 3084 1819 3084 
Q 2600 3084 3056 2656 
Q 3513 2228 3513 1497 
Q 3513 744 3044 326 
Q 2575 -91 1722 -91 
Q 1428 -91 1123 -41 
Q 819 9 494 109 
L 494 744 
Q 775 591 1075 516 
Q 1375 441 1709 441 
Q 2250 441 2565 725 
Q 2881 1009 2881 1497 
Q 2881 1984 2565 2268 
Q 2250 2553 1709 2553 
Q 1456 2553 1204 2497 
Q 953 2441 691 2322 
L 691 4666 
z
" transform="scale(0.015625)"/>
       </defs>
       <use xlink:href="#DejaVuSans-2212"/>
       <use xlink:href="#DejaVuSans-30" transform="translate(83.789062 0)"/>
       <use xlink:href="#DejaVuSans-2e" transform="translate(147.412109 0)"/>
       <use xlink:href="#DejaVuSans-30" transform="translate(179.199219 0)"/>
       <use xlink:href="#DejaVuSans-31" transform="translate(242.822266 0)"/>
       <use xlink:href="#DejaVuSans-35" transform="translate(306.445312 0)"/>
      </g>
     </g>
    </g>
    <g id="xtick_2">
     <g id="line2d_2">
      <g>
       <use xlink:href="#me4ddb2fe53" x="157.612669" y="228.96" style="stroke: #000000; stroke-width: 0.8"/>
      </g>
     </g>
     <g id="text_2">
      <!-- −0.010 -->
      <g transform="translate(139.108763 243.558437) scale(0.1 -0.1)">
       <use xlink:href="#DejaVuSans-2212"/>
       <use xlink:href="#DejaVuSans-30" transform="translate(83.789062 0)"/>
       <use xlink:href="#DejaVuSans-2e" transform="translate(147.412109 0)"/>
       <use xlink:href="#DejaVuSans-30" transform="translate(179.199219 0)"/>
       <use xlink:href="#DejaVuSans-31" transform="translate(242.822266 0)"/>
       <use xlink:href="#DejaVuSans-30" transform="translate(306.445312 0)"/>
      </g>
     </g>
    </g>
    <g id="xtick_3">
     <g id="line2d_3">
      <g>
       <use xlink:href="#me4ddb2fe53" x="220.52309" y="228.96" style="stroke: #000000; stroke-width: 0.8"/>
      </g>
     </g>
     <g id="text_3">
      <!-- −0.005 -->
      <g transform="translate(202.019184 243.558437) scale(0.1 -0.1)">
       <use xlink:href="#DejaVuSans-2212"/>
       <use xlink:href="#DejaVuSans-30" transform="translate(83.789062 0)"/>
       <use xlink:href="#DejaVuSans-2e" transform="translate(147.412109 0)"/>
       <use xlink:href="#DejaVuSans-30" transform="translate(179.199219 0)"/>
       <use xlink:href="#DejaVuSans-30" transform="translate(242.822266 0)"/>
       <use xlink:href="#DejaVuSans-35" transform="translate(306.445312 0)"/>
      </g>
     </g>
    </g>
    <g id="xtick_4">
     <g id="line2d_4">
      <g>
       <use xlink:href="#me4ddb2fe53" x="283.433511" y="228.96" style="stroke: #000000; stroke-width: 0.8"/>
      </g>
     </g>
     <g id="text_4">
      <!-- 0.000 -->
      <g transform="translate(269.119448 243.558437) scale(0.1 -0.1)">
       <use xlink:href="#DejaVuSans-30"/>
       <use xlink:href="#DejaVuSans-2e" transform="translate(63.623047 0)"/>
       <use xlink:href="#DejaVuSans-30" transform="translate(95.410156 0)"/>
       <use xlink:href="#DejaVuSans-30" transform="translate(159.033203 0)"/>
       <use xlink:href="#DejaVuSans-30" transform="translate(222.65625 0)"/>
      </g>
     </g>
    </g>
    <g id="xtick_5">
     <g id="line2d_5">
      <g>
       <use xlink:href="#me4ddb2fe53" x="346.343932" y="228.96" style="stroke: #000000; stroke-width: 0.8"/>
      </g>
     </g>
     <g id="text_5">
      <!-- 0.005 -->
      <g transform="translate(332.029869 243.558437) scale(0.1 -0.1)">
       <use xlink:href="#DejaVuSans-30"/>
       <use xlink:href="#DejaVuSans-2e" transform="translate(63.623047 0)"/>
       <use xlink:href="#DejaVuSans-30" transform="translate(95.410156 0)"/>
       <use xlink:href="#DejaVuSans-30" transform="translate(159.033203 0)"/>
       <use xlink:href="#DejaVuSans-35" transform="translate(222.65625 0)"/>
      </g>
     </g>
    </g>
    <g id="text_6">
     <!-- energy_transfer [meV] -->
     <g transform="translate(157.839063 257.236562) scale(0.1 -0.1)">
      <defs>
       <path id="DejaVuSans-65" d="M 3597 1894 
L 3597 1613 
L 953 1613 
Q 991 1019 1311 708 
Q 1631 397 2203 397 
Q 2534 397 2845 478 
Q 3156 559 3463 722 
L 3463 178 
Q 3153 47 2828 -22 
Q 2503 -91 2169 -91 
Q 1331 -91 842 396 
Q 353 884 353 1716 
Q 353 2575 817 3079 
Q 1281 3584 2069 3584 
Q 2775 3584 3186 3129 
Q 3597 2675 3597 1894 
z
M 3022 2063 
Q 3016 2534 2758 2815 
Q 2500 3097 2075 3097 
Q 1594 3097 1305 2825 
Q 1016 2553 972 2059 
L 3022 2063 
z
" transform="scale(0.015625)"/>
       <path id="DejaVuSans-6e" d="M 3513 2113 
L 3513 0 
L 2938 0 
L 2938 2094 
Q 2938 2591 2744 2837 
Q 2550 3084 2163 3084 
Q 1697 3084 1428 2787 
Q 1159 2491 1159 1978 
L 1159 0 
L 581 0 
L 581 3500 
L 1159 3500 
L 1159 2956 
Q 1366 3272 1645 3428 
Q 1925 3584 2291 3584 
Q 2894 3584 3203 3211 
Q 3513 2838 3513 2113 
z
" transform="scale(0.015625)"/>
       <path id="DejaVuSans-72" d="M 2631 2963 
Q 2534 3019 2420 3045 
Q 2306 3072 2169 3072 
Q 1681 3072 1420 2755 
Q 1159 2438 1159 1844 
L 1159 0 
L 581 0 
L 581 3500 
L 1159 3500 
L 1159 2956 
Q 1341 3275 1631 3429 
Q 1922 3584 2338 3584 
Q 2397 3584 2469 3576 
Q 2541 3569 2628 3553 
L 2631 2963 
z
" transform="scale(0.015625)"/>
       <path id="DejaVuSans-67" d="M 2906 1791 
Q 2906 2416 2648 2759 
Q 2391 3103 1925 3103 
Q 1463 3103 1205 2759 
Q 947 2416 947 1791 
Q 947 1169 1205 825 
Q 1463 481 1925 481 
Q 2391 481 2648 825 
Q 2906 1169 2906 1791 
z
M 3481 434 
Q 3481 -459 3084 -895 
Q 2688 -1331 1869 -1331 
Q 1566 -1331 1297 -1286 
Q 1028 -1241 775 -1147 
L 775 -588 
Q 1028 -725 1275 -790 
Q 1522 -856 1778 -856 
Q 2344 -856 2625 -561 
Q 2906 -266 2906 331 
L 2906 616 
Q 2728 306 2450 153 
Q 2172 0 1784 0 
Q 1141 0 747 490 
Q 353 981 353 1791 
Q 353 2603 747 3093 
Q 1141 3584 1784 3584 
Q 2172 3584 2450 3431 
Q 2728 3278 2906 2969 
L 2906 3500 
L 3481 3500 
L 3481 434 
z
" transform="scale(0.015625)"/>
       <path id="DejaVuSans-79" d="M 2059 -325 
Q 1816 -950 1584 -1140 
Q 1353 -1331 966 -1331 
L 506 -1331 
L 506 -850 
L 844 -850 
Q 1081 -850 1212 -737 
Q 1344 -625 1503 -206 
L 1606 56 
L 191 3500 
L 800 3500 
L 1894 763 
L 2988 3500 
L 3597 3500 
L 2059 -325 
z
" transform="scale(0.015625)"/>
       <path id="DejaVuSans-5f" d="M 3263 -1063 
L 3263 -1509 
L -63 -1509 
L -63 -1063 
L 3263 -1063 
z
" transform="scale(0.015625)"/>
       <path id="DejaVuSans-74" d="M 1172 4494 
L 1172 3500 
L 2356 3500 
L 2356 3053 
L 1172 3053 
L 1172 1153 
Q 1172 725 1289 603 
Q 1406 481 1766 481 
L 2356 481 
L 2356 0 
L 1766 0 
Q 1100 0 847 248 
Q 594 497 594 1153 
L 594 3053 
L 172 3053 
L 172 3500 
L 594 3500 
L 594 4494 
L 1172 4494 
z
" transform="scale(0.015625)"/>
       <path id="DejaVuSans-61" d="M 2194 1759 
Q 1497 1759 1228 1600 
Q 959 1441 959 1056 
Q 959 750 1161 570 
Q 1363 391 1709 391 
Q 2188 391 2477 730 
Q 2766 1069 2766 1631 
L 2766 1759 
L 2194 1759 
z
M 3341 1997 
L 3341 0 
L 2766 0 
L 2766 531 
Q 2569 213 2275 61 
Q 1981 -91 1556 -91 
Q 1019 -91 701 211 
Q 384 513 384 1019 
Q 384 1609 779 1909 
Q 1175 2209 1959 2209 
L 2766 2209 
L 2766 2266 
Q 2766 2663 2505 2880 
Q 2244 3097 1772 3097 
Q 1472 3097 1187 3025 
Q 903 2953 641 2809 
L 641 3341 
Q 956 3463 1253 3523 
Q 1550 3584 1831 3584 
Q 2591 3584 2966 3190 
Q 3341 2797 3341 1997 
z
" transform="scale(0.015625)"/>
       <path id="DejaVuSans-73" d="M 2834 3397 
L 2834 2853 
Q 2591 2978 2328 3040 
Q 2066 3103 1784 3103 
Q 1356 3103 1142 2972 
Q 928 2841 928 2578 
Q 928 2378 1081 2264 
Q 1234 2150 1697 2047 
L 1894 2003 
Q 2506 1872 2764 1633 
Q 3022 1394 3022 966 
Q 3022 478 2636 193 
Q 2250 -91 1575 -91 
Q 1294 -91 989 -36 
Q 684 19 347 128 
L 347 722 
Q 666 556 975 473 
Q 1284 391 1588 391 
Q 1994 391 2212 530 
Q 2431 669 2431 922 
Q 2431 1156 2273 1281 
Q 2116 1406 1581 1522 
L 1381 1569 
Q 847 1681 609 1914 
Q 372 2147 372 2553 
Q 372 3047 722 3315 
Q 1072 3584 1716 3584 
Q 2034 3584 2315 3537 
Q 2597 3491 2834 3397 
z
" transform="scale(0.015625)"/>
       <path id="DejaVuSans-66" d="M 2375 4863 
L 2375 4384 
L 1825 4384 
Q 1516 4384 1395 4259 
Q 1275 4134 1275 3809 
L 1275 3500 
L 2222 3500 
L 2222 3053 
L 1275 3053 
L 1275 0 
L 697 0 
L 697 3053 
L 147 3053 
L 147 3500 
L 697 3500 
L 697 3744 
Q 697 4328 969 4595 
Q 1241 4863 1831 4863 
L 2375 4863 
z
" transform="scale(0.015625)"/>
       <path id="DejaVuSans-20" transform="scale(0.015625)"/>
       <path id="DejaVuSans-5b" d="M 550 4863 
L 1875 4863 
L 1875 4416 
L 1125 4416 
L 1125 -397 
L 1875 -397 
L 1875 -844 
L 550 -844 
L 550 4863 
z
" transform="scale(0.015625)"/>
       <path id="DejaVuSans-6d" d="M 3328 2828 
Q 3544 3216 3844 3400 
Q 4144 3584 4550 3584 
Q 5097 3584 5394 3201 
Q 5691 2819 5691 2113 
L 5691 0 
L 5113 0 
L 5113 2094 
Q 5113 2597 4934 2840 
Q 4756 3084 4391 3084 
Q 3944 3084 3684 2787 
Q 3425 2491 3425 1978 
L 3425 0 
L 2847 0 
L 2847 2094 
Q 2847 2600 2669 2842 
Q 2491 3084 2119 3084 
Q 1678 3084 1418 2786 
Q 1159 2488 1159 1978 
L 1159 0 
L 581 0 
L 581 3500 
L 1159 3500 
L 1159 2956 
Q 1356 3278 1631 3431 
Q 1906 3584 2284 3584 
Q 2666 3584 2933 3390 
Q 3200 3197 3328 2828 
z
" transform="scale(0.015625)"/>
       <path id="DejaVuSans-56" d="M 1831 0 
L 50 4666 
L 709 4666 
L 2188 738 
L 3669 4666 
L 4325 4666 
L 2547 0 
L 1831 0 
z
" transform="scale(0.015625)"/>
       <path id="DejaVuSans-5d" d="M 1947 4863 
L 1947 -844 
L 622 -844 
L 622 -397 
L 1369 -397 
L 1369 4416 
L 622 4416 
L 622 4863 
L 1947 4863 
z
" transform="scale(0.015625)"/>
      </defs>
      <use xlink:href="#DejaVuSans-65"/>
      <use xlink:href="#DejaVuSans-6e" transform="translate(61.523438 0)"/>
      <use xlink:href="#DejaVuSans-65" transform="translate(124.902344 0)"/>
      <use xlink:href="#DejaVuSans-72" transform="translate(186.425781 0)"/>
      <use xlink:href="#DejaVuSans-67" transform="translate(225.789062 0)"/>
      <use xlink:href="#DejaVuSans-79" transform="translate(289.265625 0)"/>
      <use xlink:href="#DejaVuSans-5f" transform="translate(348.445312 0)"/>
      <use xlink:href="#DejaVuSans-74" transform="translate(398.445312 0)"/>
      <use xlink:href="#DejaVuSans-72" transform="translate(437.654297 0)"/>
      <use xlink:href="#DejaVuSans-61" transform="translate(478.767578 0)"/>
      <use xlink:href="#DejaVuSans-6e" transform="translate(540.046875 0)"/>
      <use xlink:href="#DejaVuSans-73" transform="translate(603.425781 0)"/>
      <use xlink:href="#DejaVuSans-66" transform="translate(655.525391 0)"/>
      <use xlink:href="#DejaVuSans-65" transform="translate(690.730469 0)"/>
      <use xlink:href="#DejaVuSans-72" transform="translate(752.253906 0)"/>
      <use xlink:href="#DejaVuSans-20" transform="translate(793.367188 0)"/>
      <use xlink:href="#DejaVuSans-5b" transform="translate(825.154297 0)"/>
      <use xlink:href="#DejaVuSans-6d" transform="translate(864.167969 0)"/>
      <use xlink:href="#DejaVuSans-65" transform="translate(961.580078 0)"/>
      <use xlink:href="#DejaVuSans-56" transform="translate(1023.103516 0)"/>
      <use xlink:href="#DejaVuSans-5d" transform="translate(1091.511719 0)"/>
     </g>
    </g>
   </g>
   <g id="matplotlib.axis_2">
    <g id="ytick_1">
     <g id="line2d_6">
      <defs>
       <path id="m4b2956b484" d="M 0 0 
L -3.5 0 
" style="stroke: #000000; stroke-width: 0.8"/>
      </defs>
      <g>
       <use xlink:href="#m4b2956b484" x="46.965625" y="218.88" style="stroke: #000000; stroke-width: 0.8"/>
      </g>
     </g>
     <g id="text_7">
      <!-- 0 -->
      <g transform="translate(33.603125 222.679219) scale(0.1 -0.1)">
       <use xlink:href="#DejaVuSans-30"/>
      </g>
     </g>
    </g>
    <g id="ytick_2">
     <g id="line2d_7">
      <g>
       <use xlink:href="#m4b2956b484" x="46.965625" y="187.775157" style="stroke: #000000; stroke-width: 0.8"/>
      </g>
     </g>
     <g id="text_8">
      <!-- 50 -->
      <g transform="translate(27.240625 191.574375) scale(0.1 -0.1)">
       <use xlink:href="#DejaVuSans-35"/>
       <use xlink:href="#DejaVuSans-30" transform="translate(63.623047 0)"/>
      </g>
     </g>
    </g>
    <g id="ytick_3">
     <g id="line2d_8">
      <g>
       <use xlink:href="#m4b2956b484" x="46.965625" y="156.670313" style="stroke: #000000; stroke-width: 0.8"/>
      </g>
     </g>
     <g id="text_9">
      <!-- 100 -->
      <g transform="translate(20.878125 160.469532) scale(0.1 -0.1)">
       <use xlink:href="#DejaVuSans-31"/>
       <use xlink:href="#DejaVuSans-30" transform="translate(63.623047 0)"/>
       <use xlink:href="#DejaVuSans-30" transform="translate(127.246094 0)"/>
      </g>
     </g>
    </g>
    <g id="ytick_4">
     <g id="line2d_9">
      <g>
       <use xlink:href="#m4b2956b484" x="46.965625" y="125.56547" style="stroke: #000000; stroke-width: 0.8"/>
      </g>
     </g>
     <g id="text_10">
      <!-- 150 -->
      <g transform="translate(20.878125 129.364689) scale(0.1 -0.1)">
       <use xlink:href="#DejaVuSans-31"/>
       <use xlink:href="#DejaVuSans-35" transform="translate(63.623047 0)"/>
       <use xlink:href="#DejaVuSans-30" transform="translate(127.246094 0)"/>
      </g>
     </g>
    </g>
    <g id="ytick_5">
     <g id="line2d_10">
      <g>
       <use xlink:href="#m4b2956b484" x="46.965625" y="94.460627" style="stroke: #000000; stroke-width: 0.8"/>
      </g>
     </g>
     <g id="text_11">
      <!-- 200 -->
      <g transform="translate(20.878125 98.259845) scale(0.1 -0.1)">
       <defs>
        <path id="DejaVuSans-32" d="M 1228 531 
L 3431 531 
L 3431 0 
L 469 0 
L 469 531 
Q 828 903 1448 1529 
Q 2069 2156 2228 2338 
Q 2531 2678 2651 2914 
Q 2772 3150 2772 3378 
Q 2772 3750 2511 3984 
Q 2250 4219 1831 4219 
Q 1534 4219 1204 4116 
Q 875 4013 500 3803 
L 500 4441 
Q 881 4594 1212 4672 
Q 1544 4750 1819 4750 
Q 2544 4750 2975 4387 
Q 3406 4025 3406 3419 
Q 3406 3131 3298 2873 
Q 3191 2616 2906 2266 
Q 2828 2175 2409 1742 
Q 1991 1309 1228 531 
z
" transform="scale(0.015625)"/>
       </defs>
       <use xlink:href="#DejaVuSans-32"/>
       <use xlink:href="#DejaVuSans-30" transform="translate(63.623047 0)"/>
       <use xlink:href="#DejaVuSans-30" transform="translate(127.246094 0)"/>
      </g>
     </g>
    </g>
    <g id="ytick_6">
     <g id="line2d_11">
      <g>
       <use xlink:href="#m4b2956b484" x="46.965625" y="63.355783" style="stroke: #000000; stroke-width: 0.8"/>
      </g>
     </g>
     <g id="text_12">
      <!-- 250 -->
      <g transform="translate(20.878125 67.155002) scale(0.1 -0.1)">
       <use xlink:href="#DejaVuSans-32"/>
       <use xlink:href="#DejaVuSans-35" transform="translate(63.623047 0)"/>
       <use xlink:href="#DejaVuSans-30" transform="translate(127.246094 0)"/>
      </g>
     </g>
    </g>
    <g id="ytick_7">
     <g id="line2d_12">
      <g>
       <use xlink:href="#m4b2956b484" x="46.965625" y="32.25094" style="stroke: #000000; stroke-width: 0.8"/>
      </g>
     </g>
     <g id="text_13">
      <!-- 300 -->
      <g transform="translate(20.878125 36.050159) scale(0.1 -0.1)">
       <defs>
        <path id="DejaVuSans-33" d="M 2597 2516 
Q 3050 2419 3304 2112 
Q 3559 1806 3559 1356 
Q 3559 666 3084 287 
Q 2609 -91 1734 -91 
Q 1441 -91 1130 -33 
Q 819 25 488 141 
L 488 750 
Q 750 597 1062 519 
Q 1375 441 1716 441 
Q 2309 441 2620 675 
Q 2931 909 2931 1356 
Q 2931 1769 2642 2001 
Q 2353 2234 1838 2234 
L 1294 2234 
L 1294 2753 
L 1863 2753 
Q 2328 2753 2575 2939 
Q 2822 3125 2822 3475 
Q 2822 3834 2567 4026 
Q 2313 4219 1838 4219 
Q 1578 4219 1281 4162 
Q 984 4106 628 3988 
L 628 4550 
Q 988 4650 1302 4700 
Q 1616 4750 1894 4750 
Q 2613 4750 3031 4423 
Q 3450 4097 3450 3541 
Q 3450 3153 3228 2886 
Q 3006 2619 2597 2516 
z
" transform="scale(0.015625)"/>
       </defs>
       <use xlink:href="#DejaVuSans-33"/>
       <use xlink:href="#DejaVuSans-30" transform="translate(63.623047 0)"/>
       <use xlink:href="#DejaVuSans-30" transform="translate(127.246094 0)"/>
      </g>
     </g>
    </g>
    <g id="text_14">
     <!-- [counts] -->
     <g transform="translate(14.798438 138.6925) rotate(-90) scale(0.1 -0.1)">
      <defs>
       <path id="DejaVuSans-63" d="M 3122 3366 
L 3122 2828 
Q 2878 2963 2633 3030 
Q 2388 3097 2138 3097 
Q 1578 3097 1268 2742 
Q 959 2388 959 1747 
Q 959 1106 1268 751 
Q 1578 397 2138 397 
Q 2388 397 2633 464 
Q 2878 531 3122 666 
L 3122 134 
Q 2881 22 2623 -34 
Q 2366 -91 2075 -91 
Q 1284 -91 818 406 
Q 353 903 353 1747 
Q 353 2603 823 3093 
Q 1294 3584 2113 3584 
Q 2378 3584 2631 3529 
Q 2884 3475 3122 3366 
z
" transform="scale(0.015625)"/>
       <path id="DejaVuSans-6f" d="M 1959 3097 
Q 1497 3097 1228 2736 
Q 959 2375 959 1747 
Q 959 1119 1226 758 
Q 1494 397 1959 397 
Q 2419 397 2687 759 
Q 2956 1122 2956 1747 
Q 2956 2369 2687 2733 
Q 2419 3097 1959 3097 
z
M 1959 3584 
Q 2709 3584 3137 3096 
Q 3566 2609 3566 1747 
Q 3566 888 3137 398 
Q 2709 -91 1959 -91 
Q 1206 -91 779 398 
Q 353 888 353 1747 
Q 353 2609 779 3096 
Q 1206 3584 1959 3584 
z
" transform="scale(0.015625)"/>
       <path id="DejaVuSans-75" d="M 544 1381 
L 544 3500 
L 1119 3500 
L 1119 1403 
Q 1119 906 1312 657 
Q 1506 409 1894 409 
Q 2359 409 2629 706 
Q 2900 1003 2900 1516 
L 2900 3500 
L 3475 3500 
L 3475 0 
L 2900 0 
L 2900 538 
Q 2691 219 2414 64 
Q 2138 -91 1772 -91 
Q 1169 -91 856 284 
Q 544 659 544 1381 
z
M 1991 3584 
L 1991 3584 
z
" transform="scale(0.015625)"/>
      </defs>
      <use xlink:href="#DejaVuSans-5b"/>
      <use xlink:href="#DejaVuSans-63" transform="translate(39.013672 0)"/>
      <use xlink:href="#DejaVuSans-6f" transform="translate(93.994141 0)"/>
      <use xlink:href="#DejaVuSans-75" transform="translate(155.175781 0)"/>
      <use xlink:href="#DejaVuSans-6e" transform="translate(218.554688 0)"/>
      <use xlink:href="#DejaVuSans-74" transform="translate(281.933594 0)"/>
      <use xlink:href="#DejaVuSans-73" transform="translate(321.142578 0)"/>
      <use xlink:href="#DejaVuSans-5d" transform="translate(373.242188 0)"/>
     </g>
    </g>
   </g>
   <g id="line2d_13">
    <path d="M 62.183807 218.88 
L 183.929261 218.796295 
L 183.929261 218.671144 
L 190.016534 218.590944 
L 190.016534 218.4355 
L 193.06017 218.4355 
L 193.06017 218.134002 
L 196.103807 218.134002 
L 196.103807 217.504119 
L 199.147443 217.504119 
L 199.147443 216.347125 
L 202.19108 216.347125 
L 202.19108 214.778307 
L 205.234716 214.778307 
L 205.234716 212.22001 
L 208.278352 212.22001 
L 208.278352 209.403312 
L 211.321989 209.403312 
L 211.321989 206.645928 
L 214.365625 206.645928 
L 214.365625 204.197503 
L 217.409261 204.197503 
L 217.409261 200.961984 
L 220.452898 200.961984 
L 220.452898 198.872679 
L 223.496534 198.872679 
L 223.496534 196.128718 
L 226.54017 196.128718 
L 226.54017 198.07408 
L 229.583807 198.07408 
L 229.583807 196.152801 
L 232.627443 196.152801 
L 232.627443 197.164202 
L 235.67108 197.164202 
L 235.67108 196.568971 
L 238.714716 196.568971 
L 238.714716 196.157727 
L 241.758352 196.157727 
L 241.758352 195.445078 
L 244.801989 195.445078 
L 244.801989 196.734781 
L 247.845625 196.734781 
L 247.845625 195.618534 
L 250.889261 195.618534 
L 250.889261 195.931949 
L 253.932898 195.931949 
L 253.932898 196.084116 
L 256.976534 196.084116 
L 256.976534 194.715697 
L 260.02017 194.715697 
L 260.02017 191.338138 
L 263.063807 191.338138 
L 263.063807 186.346493 
L 266.107443 186.346493 
L 266.107443 179.246591 
L 269.15108 179.246591 
L 269.15108 166.340263 
L 272.194716 166.340263 
L 272.194716 150.503397 
L 275.238352 150.503397 
L 275.238352 133.255566 
L 278.281989 133.255566 
L 278.281989 115.061591 
L 281.325625 115.061591 
L 281.325625 96.109615 
L 284.369261 96.109615 
L 284.369261 76.06826 
L 287.412898 76.06826 
L 287.412898 60.816945 
L 290.456534 60.816945 
L 290.456534 46.926677 
L 293.50017 46.926677 
L 293.50017 35.775539 
L 296.543807 35.775539 
L 296.543807 28.579969 
L 299.587443 28.579969 
L 299.587443 25.487774 
L 302.63108 25.487774 
L 302.63108 18.725422 
L 305.674716 18.725422 
L 305.674716 20.664289 
L 308.718352 20.664289 
L 308.718352 22.462918 
L 311.761989 22.462918 
L 311.761989 26.485036 
L 314.805625 26.485036 
L 314.805625 31.915266 
L 317.849261 31.915266 
L 317.849261 43.571882 
L 320.892898 43.571882 
L 320.892898 58.791272 
L 323.936534 58.791272 
L 323.936534 76.988374 
L 326.98017 76.988374 
L 326.98017 93.439633 
L 330.023807 93.439633 
L 330.023807 112.289839 
L 333.067443 112.289839 
L 333.067443 134.006613 
L 336.11108 134.006613 
L 336.11108 152.680195 
L 339.154716 152.680195 
L 339.154716 170.2131 
L 342.198352 170.2131 
L 342.198352 184.270063 
L 345.241989 184.270063 
L 345.241989 195.635384 
L 348.285625 195.635384 
L 348.285625 204.346087 
L 351.329261 204.346087 
L 351.329261 209.959779 
L 354.372898 209.959779 
L 354.372898 214.13252 
L 357.416534 214.13252 
L 357.416534 216.974477 
L 360.46017 216.974477 
L 360.46017 218.261535 
L 363.503807 218.261535 
L 363.503807 218.758196 
L 366.547443 218.758196 
L 366.547443 218.758196 
" clip-path="url(#p12c602a8a2)" style="fill: none; stroke: #1f77b4; stroke-width: 1.5; stroke-linecap: square"/>
   </g>
   <g id="LineCollection_1">
    <path d="M 63.705625 218.88 
L 63.705625 218.88 
" clip-path="url(#p12c602a8a2)" style="fill: none; stroke: #1f77b4; stroke-width: 1.5"/>
    <path d="M 66.749261 218.88 
L 66.749261 218.88 
" clip-path="url(#p12c602a8a2)" style="fill: none; stroke: #1f77b4; stroke-width: 1.5"/>
    <path d="M 69.792898 218.88 
L 69.792898 218.88 
" clip-path="url(#p12c602a8a2)" style="fill: none; stroke: #1f77b4; stroke-width: 1.5"/>
    <path d="M 72.836534 218.88 
L 72.836534 218.88 
" clip-path="url(#p12c602a8a2)" style="fill: none; stroke: #1f77b4; stroke-width: 1.5"/>
    <path d="M 75.88017 218.88 
L 75.88017 218.88 
" clip-path="url(#p12c602a8a2)" style="fill: none; stroke: #1f77b4; stroke-width: 1.5"/>
    <path d="M 78.923807 218.88 
L 78.923807 218.88 
" clip-path="url(#p12c602a8a2)" style="fill: none; stroke: #1f77b4; stroke-width: 1.5"/>
    <path d="M 81.967443 218.88 
L 81.967443 218.88 
" clip-path="url(#p12c602a8a2)" style="fill: none; stroke: #1f77b4; stroke-width: 1.5"/>
    <path d="M 85.01108 218.88 
L 85.01108 218.88 
" clip-path="url(#p12c602a8a2)" style="fill: none; stroke: #1f77b4; stroke-width: 1.5"/>
    <path d="M 88.054716 218.88 
L 88.054716 218.88 
" clip-path="url(#p12c602a8a2)" style="fill: none; stroke: #1f77b4; stroke-width: 1.5"/>
    <path d="M 91.098352 218.88 
L 91.098352 218.88 
" clip-path="url(#p12c602a8a2)" style="fill: none; stroke: #1f77b4; stroke-width: 1.5"/>
    <path d="M 94.141989 218.88 
L 94.141989 218.88 
" clip-path="url(#p12c602a8a2)" style="fill: none; stroke: #1f77b4; stroke-width: 1.5"/>
    <path d="M 97.185625 218.88 
L 97.185625 218.88 
" clip-path="url(#p12c602a8a2)" style="fill: none; stroke: #1f77b4; stroke-width: 1.5"/>
    <path d="M 100.229261 218.88 
L 100.229261 218.88 
" clip-path="url(#p12c602a8a2)" style="fill: none; stroke: #1f77b4; stroke-width: 1.5"/>
    <path d="M 103.272898 218.88 
L 103.272898 218.88 
" clip-path="url(#p12c602a8a2)" style="fill: none; stroke: #1f77b4; stroke-width: 1.5"/>
    <path d="M 106.316534 218.88 
L 106.316534 218.88 
" clip-path="url(#p12c602a8a2)" style="fill: none; stroke: #1f77b4; stroke-width: 1.5"/>
    <path d="M 109.36017 218.88 
L 109.36017 218.88 
" clip-path="url(#p12c602a8a2)" style="fill: none; stroke: #1f77b4; stroke-width: 1.5"/>
    <path d="M 112.403807 218.88 
L 112.403807 218.88 
" clip-path="url(#p12c602a8a2)" style="fill: none; stroke: #1f77b4; stroke-width: 1.5"/>
    <path d="M 115.447443 218.88 
L 115.447443 218.88 
" clip-path="url(#p12c602a8a2)" style="fill: none; stroke: #1f77b4; stroke-width: 1.5"/>
    <path d="M 118.49108 218.88 
L 118.49108 218.88 
" clip-path="url(#p12c602a8a2)" style="fill: none; stroke: #1f77b4; stroke-width: 1.5"/>
    <path d="M 121.534716 218.88 
L 121.534716 218.88 
" clip-path="url(#p12c602a8a2)" style="fill: none; stroke: #1f77b4; stroke-width: 1.5"/>
    <path d="M 124.578352 218.88 
L 124.578352 218.88 
" clip-path="url(#p12c602a8a2)" style="fill: none; stroke: #1f77b4; stroke-width: 1.5"/>
    <path d="M 127.621989 218.88 
L 127.621989 218.88 
" clip-path="url(#p12c602a8a2)" style="fill: none; stroke: #1f77b4; stroke-width: 1.5"/>
    <path d="M 130.665625 218.88 
L 130.665625 218.88 
" clip-path="url(#p12c602a8a2)" style="fill: none; stroke: #1f77b4; stroke-width: 1.5"/>
    <path d="M 133.709261 218.88 
L 133.709261 218.88 
" clip-path="url(#p12c602a8a2)" style="fill: none; stroke: #1f77b4; stroke-width: 1.5"/>
    <path d="M 136.752898 218.88 
L 136.752898 218.88 
" clip-path="url(#p12c602a8a2)" style="fill: none; stroke: #1f77b4; stroke-width: 1.5"/>
    <path d="M 139.796534 218.88 
L 139.796534 218.88 
" clip-path="url(#p12c602a8a2)" style="fill: none; stroke: #1f77b4; stroke-width: 1.5"/>
    <path d="M 142.84017 218.88 
L 142.84017 218.88 
" clip-path="url(#p12c602a8a2)" style="fill: none; stroke: #1f77b4; stroke-width: 1.5"/>
    <path d="M 145.883807 218.88 
L 145.883807 218.88 
" clip-path="url(#p12c602a8a2)" style="fill: none; stroke: #1f77b4; stroke-width: 1.5"/>
    <path d="M 148.927443 218.88 
L 148.927443 218.88 
" clip-path="url(#p12c602a8a2)" style="fill: none; stroke: #1f77b4; stroke-width: 1.5"/>
    <path d="M 151.97108 218.88 
L 151.97108 218.88 
" clip-path="url(#p12c602a8a2)" style="fill: none; stroke: #1f77b4; stroke-width: 1.5"/>
    <path d="M 155.014716 218.88 
L 155.014716 218.88 
" clip-path="url(#p12c602a8a2)" style="fill: none; stroke: #1f77b4; stroke-width: 1.5"/>
    <path d="M 158.058352 218.88 
L 158.058352 218.88 
" clip-path="url(#p12c602a8a2)" style="fill: none; stroke: #1f77b4; stroke-width: 1.5"/>
    <path d="M 161.101989 218.88 
L 161.101989 218.88 
" clip-path="url(#p12c602a8a2)" style="fill: none; stroke: #1f77b4; stroke-width: 1.5"/>
    <path d="M 164.145625 218.88 
L 164.145625 218.88 
" clip-path="url(#p12c602a8a2)" style="fill: none; stroke: #1f77b4; stroke-width: 1.5"/>
    <path d="M 167.189261 218.88 
L 167.189261 218.88 
" clip-path="url(#p12c602a8a2)" style="fill: none; stroke: #1f77b4; stroke-width: 1.5"/>
    <path d="M 170.232898 218.88 
L 170.232898 218.88 
" clip-path="url(#p12c602a8a2)" style="fill: none; stroke: #1f77b4; stroke-width: 1.5"/>
    <path d="M 173.276534 218.88 
L 173.276534 218.88 
" clip-path="url(#p12c602a8a2)" style="fill: none; stroke: #1f77b4; stroke-width: 1.5"/>
    <path d="M 176.32017 218.862036 
L 176.32017 218.835916 
" clip-path="url(#p12c602a8a2)" style="fill: none; stroke: #1f77b4; stroke-width: 1.5"/>
    <path d="M 179.363807 218.842107 
L 179.363807 218.807037 
" clip-path="url(#p12c602a8a2)" style="fill: none; stroke: #1f77b4; stroke-width: 1.5"/>
    <path d="M 182.407443 218.816861 
L 182.407443 218.775729 
" clip-path="url(#p12c602a8a2)" style="fill: none; stroke: #1f77b4; stroke-width: 1.5"/>
    <path d="M 185.45108 218.704966 
L 185.45108 218.637321 
" clip-path="url(#p12c602a8a2)" style="fill: none; stroke: #1f77b4; stroke-width: 1.5"/>
    <path d="M 188.494716 218.630896 
L 188.494716 218.550991 
" clip-path="url(#p12c602a8a2)" style="fill: none; stroke: #1f77b4; stroke-width: 1.5"/>
    <path d="M 191.538352 218.486781 
L 191.538352 218.38422 
" clip-path="url(#p12c602a8a2)" style="fill: none; stroke: #1f77b4; stroke-width: 1.5"/>
    <path d="M 194.581989 218.199071 
L 194.581989 218.068933 
" clip-path="url(#p12c602a8a2)" style="fill: none; stroke: #1f77b4; stroke-width: 1.5"/>
    <path d="M 197.625625 217.597575 
L 197.625625 217.410664 
" clip-path="url(#p12c602a8a2)" style="fill: none; stroke: #1f77b4; stroke-width: 1.5"/>
    <path d="M 200.669261 216.478296 
L 200.669261 216.215953 
" clip-path="url(#p12c602a8a2)" style="fill: none; stroke: #1f77b4; stroke-width: 1.5"/>
    <path d="M 203.712898 214.955941 
L 203.712898 214.600673 
" clip-path="url(#p12c602a8a2)" style="fill: none; stroke: #1f77b4; stroke-width: 1.5"/>
    <path d="M 206.756534 212.456115 
L 206.756534 211.983905 
" clip-path="url(#p12c602a8a2)" style="fill: none; stroke: #1f77b4; stroke-width: 1.5"/>
    <path d="M 209.80017 209.698019 
L 209.80017 209.108604 
" clip-path="url(#p12c602a8a2)" style="fill: none; stroke: #1f77b4; stroke-width: 1.5"/>
    <path d="M 212.843807 206.989142 
L 212.843807 206.302714 
" clip-path="url(#p12c602a8a2)" style="fill: none; stroke: #1f77b4; stroke-width: 1.5"/>
    <path d="M 215.887443 204.579249 
L 215.887443 203.815756 
" clip-path="url(#p12c602a8a2)" style="fill: none; stroke: #1f77b4; stroke-width: 1.5"/>
    <path d="M 218.93108 201.386257 
L 218.93108 200.537711 
" clip-path="url(#p12c602a8a2)" style="fill: none; stroke: #1f77b4; stroke-width: 1.5"/>
    <path d="M 221.974716 199.324184 
L 221.974716 198.421174 
" clip-path="url(#p12c602a8a2)" style="fill: none; stroke: #1f77b4; stroke-width: 1.5"/>
    <path d="M 225.018352 196.615446 
L 225.018352 195.641991 
" clip-path="url(#p12c602a8a2)" style="fill: none; stroke: #1f77b4; stroke-width: 1.5"/>
    <path d="M 228.061989 198.536481 
L 228.061989 197.61168 
" clip-path="url(#p12c602a8a2)" style="fill: none; stroke: #1f77b4; stroke-width: 1.5"/>
    <path d="M 231.105625 196.638114 
L 231.105625 195.667488 
" clip-path="url(#p12c602a8a2)" style="fill: none; stroke: #1f77b4; stroke-width: 1.5"/>
    <path d="M 234.149261 197.638841 
L 234.149261 196.689564 
" clip-path="url(#p12c602a8a2)" style="fill: none; stroke: #1f77b4; stroke-width: 1.5"/>
    <path d="M 237.192898 197.049172 
L 237.192898 196.08877 
" clip-path="url(#p12c602a8a2)" style="fill: none; stroke: #1f77b4; stroke-width: 1.5"/>
    <path d="M 240.236534 196.645284 
L 240.236534 195.670169 
" clip-path="url(#p12c602a8a2)" style="fill: none; stroke: #1f77b4; stroke-width: 1.5"/>
    <path d="M 243.28017 195.937223 
L 243.28017 194.952933 
" clip-path="url(#p12c602a8a2)" style="fill: none; stroke: #1f77b4; stroke-width: 1.5"/>
    <path d="M 246.323807 197.211458 
L 246.323807 196.258104 
" clip-path="url(#p12c602a8a2)" style="fill: none; stroke: #1f77b4; stroke-width: 1.5"/>
    <path d="M 249.367443 196.10579 
L 249.367443 195.131278 
" clip-path="url(#p12c602a8a2)" style="fill: none; stroke: #1f77b4; stroke-width: 1.5"/>
    <path d="M 252.41108 196.415878 
L 252.41108 195.448021 
" clip-path="url(#p12c602a8a2)" style="fill: none; stroke: #1f77b4; stroke-width: 1.5"/>
    <path d="M 255.454716 196.561875 
L 255.454716 195.606357 
" clip-path="url(#p12c602a8a2)" style="fill: none; stroke: #1f77b4; stroke-width: 1.5"/>
    <path d="M 258.498352 195.20056 
L 258.498352 194.230833 
" clip-path="url(#p12c602a8a2)" style="fill: none; stroke: #1f77b4; stroke-width: 1.5"/>
    <path d="M 261.541989 191.846581 
L 261.541989 190.829696 
" clip-path="url(#p12c602a8a2)" style="fill: none; stroke: #1f77b4; stroke-width: 1.5"/>
    <path d="M 264.585625 186.890637 
L 264.585625 185.80235 
" clip-path="url(#p12c602a8a2)" style="fill: none; stroke: #1f77b4; stroke-width: 1.5"/>
    <path d="M 267.629261 179.842879 
L 267.629261 178.650303 
" clip-path="url(#p12c602a8a2)" style="fill: none; stroke: #1f77b4; stroke-width: 1.5"/>
    <path d="M 270.672898 167.030331 
L 270.672898 165.650195 
" clip-path="url(#p12c602a8a2)" style="fill: none; stroke: #1f77b4; stroke-width: 1.5"/>
    <path d="M 273.716534 151.305409 
L 273.716534 149.701384 
" clip-path="url(#p12c602a8a2)" style="fill: none; stroke: #1f77b4; stroke-width: 1.5"/>
    <path d="M 276.76017 134.162412 
L 276.76017 132.348719 
" clip-path="url(#p12c602a8a2)" style="fill: none; stroke: #1f77b4; stroke-width: 1.5"/>
    <path d="M 279.803807 116.071174 
L 279.803807 114.052009 
" clip-path="url(#p12c602a8a2)" style="fill: none; stroke: #1f77b4; stroke-width: 1.5"/>
    <path d="M 282.847443 97.216489 
L 282.847443 95.002742 
" clip-path="url(#p12c602a8a2)" style="fill: none; stroke: #1f77b4; stroke-width: 1.5"/>
    <path d="M 285.89108 77.271162 
L 285.89108 74.865358 
" clip-path="url(#p12c602a8a2)" style="fill: none; stroke: #1f77b4; stroke-width: 1.5"/>
    <path d="M 288.934716 62.086464 
L 288.934716 59.547426 
" clip-path="url(#p12c602a8a2)" style="fill: none; stroke: #1f77b4; stroke-width: 1.5"/>
    <path d="M 291.978352 48.254969 
L 291.978352 45.598385 
" clip-path="url(#p12c602a8a2)" style="fill: none; stroke: #1f77b4; stroke-width: 1.5"/>
    <path d="M 295.021989 37.150981 
L 295.021989 34.400096 
" clip-path="url(#p12c602a8a2)" style="fill: none; stroke: #1f77b4; stroke-width: 1.5"/>
    <path d="M 298.065625 29.986003 
L 298.065625 27.173935 
" clip-path="url(#p12c602a8a2)" style="fill: none; stroke: #1f77b4; stroke-width: 1.5"/>
    <path d="M 301.109261 26.907938 
L 301.109261 24.06761 
" clip-path="url(#p12c602a8a2)" style="fill: none; stroke: #1f77b4; stroke-width: 1.5"/>
    <path d="M 304.152898 20.170843 
L 304.152898 17.28 
" clip-path="url(#p12c602a8a2)" style="fill: none; stroke: #1f77b4; stroke-width: 1.5"/>
    <path d="M 307.196534 22.10589 
L 307.196534 19.222689 
" clip-path="url(#p12c602a8a2)" style="fill: none; stroke: #1f77b4; stroke-width: 1.5"/>
    <path d="M 310.24017 23.900975 
L 310.24017 21.024861 
" clip-path="url(#p12c602a8a2)" style="fill: none; stroke: #1f77b4; stroke-width: 1.5"/>
    <path d="M 313.283807 27.910948 
L 313.283807 25.059125 
" clip-path="url(#p12c602a8a2)" style="fill: none; stroke: #1f77b4; stroke-width: 1.5"/>
    <path d="M 316.327443 33.328651 
L 316.327443 30.50188 
" clip-path="url(#p12c602a8a2)" style="fill: none; stroke: #1f77b4; stroke-width: 1.5"/>
    <path d="M 319.37108 44.944749 
L 319.37108 42.199015 
" clip-path="url(#p12c602a8a2)" style="fill: none; stroke: #1f77b4; stroke-width: 1.5"/>
    <path d="M 322.414716 60.10801 
L 322.414716 57.474535 
" clip-path="url(#p12c602a8a2)" style="fill: none; stroke: #1f77b4; stroke-width: 1.5"/>
    <path d="M 325.458352 78.2323 
L 325.458352 75.744448 
" clip-path="url(#p12c602a8a2)" style="fill: none; stroke: #1f77b4; stroke-width: 1.5"/>
    <path d="M 328.501989 94.611997 
L 328.501989 92.267268 
" clip-path="url(#p12c602a8a2)" style="fill: none; stroke: #1f77b4; stroke-width: 1.5"/>
    <path d="M 331.545625 113.3765 
L 331.545625 111.203179 
" clip-path="url(#p12c602a8a2)" style="fill: none; stroke: #1f77b4; stroke-width: 1.5"/>
    <path d="M 334.589261 134.975464 
L 334.589261 133.037762 
" clip-path="url(#p12c602a8a2)" style="fill: none; stroke: #1f77b4; stroke-width: 1.5"/>
    <path d="M 337.632898 153.538211 
L 337.632898 151.82218 
" clip-path="url(#p12c602a8a2)" style="fill: none; stroke: #1f77b4; stroke-width: 1.5"/>
    <path d="M 340.676534 170.949243 
L 340.676534 169.476958 
" clip-path="url(#p12c602a8a2)" style="fill: none; stroke: #1f77b4; stroke-width: 1.5"/>
    <path d="M 343.72017 184.893094 
L 343.72017 183.647033 
" clip-path="url(#p12c602a8a2)" style="fill: none; stroke: #1f77b4; stroke-width: 1.5"/>
    <path d="M 346.763807 196.145724 
L 346.763807 195.125043 
" clip-path="url(#p12c602a8a2)" style="fill: none; stroke: #1f77b4; stroke-width: 1.5"/>
    <path d="M 349.807443 204.752718 
L 349.807443 203.939455 
" clip-path="url(#p12c602a8a2)" style="fill: none; stroke: #1f77b4; stroke-width: 1.5"/>
    <path d="M 352.85108 210.276236 
L 352.85108 209.643323 
" clip-path="url(#p12c602a8a2)" style="fill: none; stroke: #1f77b4; stroke-width: 1.5"/>
    <path d="M 355.894716 214.365054 
L 355.894716 213.899986 
" clip-path="url(#p12c602a8a2)" style="fill: none; stroke: #1f77b4; stroke-width: 1.5"/>
    <path d="M 358.938352 217.121857 
L 358.938352 216.827097 
" clip-path="url(#p12c602a8a2)" style="fill: none; stroke: #1f77b4; stroke-width: 1.5"/>
    <path d="M 361.981989 218.343694 
L 361.981989 218.179376 
" clip-path="url(#p12c602a8a2)" style="fill: none; stroke: #1f77b4; stroke-width: 1.5"/>
    <path d="M 365.025625 218.793979 
L 365.025625 218.722412 
" clip-path="url(#p12c602a8a2)" style="fill: none; stroke: #1f77b4; stroke-width: 1.5"/>
   </g>
   <g id="line2d_14">
    <path d="M 62.183807 218.88 
L 235.67108 218.850173 
L 235.67108 218.739546 
L 238.714716 218.739546 
L 238.714716 218.578087 
L 241.758352 218.578087 
L 241.758352 218.319293 
L 244.801989 218.319293 
L 244.801989 217.95916 
L 247.845625 217.95916 
L 247.845625 217.229374 
L 250.889261 217.229374 
L 250.889261 216.472621 
L 253.932898 216.472621 
L 253.932898 214.872767 
L 256.976534 214.872767 
L 256.976534 211.453007 
L 260.02017 211.453007 
L 260.02017 205.426924 
L 263.063807 205.426924 
L 263.063807 197.884789 
L 266.107443 197.884789 
L 266.107443 187.80626 
L 269.15108 187.80626 
L 269.15108 172.34502 
L 272.194716 172.34502 
L 272.194716 154.920051 
L 275.238352 154.920051 
L 275.238352 136.346699 
L 278.281989 136.346699 
L 278.281989 118.568234 
L 281.325625 118.568234 
L 281.325625 101.131598 
L 284.369261 101.131598 
L 284.369261 83.202931 
L 287.412898 83.202931 
L 287.412898 69.162042 
L 290.456534 69.162042 
L 290.456534 57.167874 
L 293.50017 57.167874 
L 293.50017 47.248407 
L 296.543807 47.248407 
L 296.543807 41.036176 
L 299.587443 41.036176 
L 299.587443 38.175169 
L 302.63108 38.175169 
L 302.63108 31.631742 
L 305.674716 31.631742 
L 305.674716 34.666373 
L 308.718352 34.666373 
L 308.718352 36.151433 
L 311.761989 36.151433 
L 311.761989 39.610856 
L 314.805625 39.610856 
L 314.805625 45.086731 
L 317.849261 45.086731 
L 317.849261 56.375734 
L 320.892898 56.375734 
L 320.892898 71.052959 
L 323.936534 71.052959 
L 323.936534 88.893489 
L 326.98017 88.893489 
L 326.98017 105.097959 
L 330.023807 105.097959 
L 330.023807 122.405538 
L 333.067443 122.405538 
L 333.067443 143.255089 
L 336.11108 143.255089 
L 336.11108 159.447574 
L 339.154716 159.447574 
L 339.154716 175.597771 
L 342.198352 175.597771 
L 342.198352 188.14722 
L 345.241989 188.14722 
L 345.241989 197.92513 
L 348.285625 197.92513 
L 348.285625 205.478444 
L 351.329261 205.478444 
L 351.329261 210.325843 
L 354.372898 210.325843 
L 354.372898 214.214633 
L 357.416534 214.214633 
L 357.416534 216.980916 
L 360.46017 216.980916 
L 360.46017 218.261535 
L 363.503807 218.261535 
L 363.503807 218.758196 
L 366.547443 218.758196 
L 366.547443 218.758196 
" clip-path="url(#p12c602a8a2)" style="fill: none; stroke: #ff7f0e; stroke-width: 1.5; stroke-linecap: square"/>
   </g>
   <g id="LineCollection_2">
    <path d="M 63.705625 218.88 
L 63.705625 218.88 
" clip-path="url(#p12c602a8a2)" style="fill: none; stroke: #ff7f0e; stroke-width: 1.5"/>
    <path d="M 66.749261 218.88 
L 66.749261 218.88 
" clip-path="url(#p12c602a8a2)" style="fill: none; stroke: #ff7f0e; stroke-width: 1.5"/>
    <path d="M 69.792898 218.88 
L 69.792898 218.88 
" clip-path="url(#p12c602a8a2)" style="fill: none; stroke: #ff7f0e; stroke-width: 1.5"/>
    <path d="M 72.836534 218.88 
L 72.836534 218.88 
" clip-path="url(#p12c602a8a2)" style="fill: none; stroke: #ff7f0e; stroke-width: 1.5"/>
    <path d="M 75.88017 218.88 
L 75.88017 218.88 
" clip-path="url(#p12c602a8a2)" style="fill: none; stroke: #ff7f0e; stroke-width: 1.5"/>
    <path d="M 78.923807 218.88 
L 78.923807 218.88 
" clip-path="url(#p12c602a8a2)" style="fill: none; stroke: #ff7f0e; stroke-width: 1.5"/>
    <path d="M 81.967443 218.88 
L 81.967443 218.88 
" clip-path="url(#p12c602a8a2)" style="fill: none; stroke: #ff7f0e; stroke-width: 1.5"/>
    <path d="M 85.01108 218.88 
L 85.01108 218.88 
" clip-path="url(#p12c602a8a2)" style="fill: none; stroke: #ff7f0e; stroke-width: 1.5"/>
    <path d="M 88.054716 218.88 
L 88.054716 218.88 
" clip-path="url(#p12c602a8a2)" style="fill: none; stroke: #ff7f0e; stroke-width: 1.5"/>
    <path d="M 91.098352 218.88 
L 91.098352 218.88 
" clip-path="url(#p12c602a8a2)" style="fill: none; stroke: #ff7f0e; stroke-width: 1.5"/>
    <path d="M 94.141989 218.88 
L 94.141989 218.88 
" clip-path="url(#p12c602a8a2)" style="fill: none; stroke: #ff7f0e; stroke-width: 1.5"/>
    <path d="M 97.185625 218.88 
L 97.185625 218.88 
" clip-path="url(#p12c602a8a2)" style="fill: none; stroke: #ff7f0e; stroke-width: 1.5"/>
    <path d="M 100.229261 218.88 
L 100.229261 218.88 
" clip-path="url(#p12c602a8a2)" style="fill: none; stroke: #ff7f0e; stroke-width: 1.5"/>
    <path d="M 103.272898 218.88 
L 103.272898 218.88 
" clip-path="url(#p12c602a8a2)" style="fill: none; stroke: #ff7f0e; stroke-width: 1.5"/>
    <path d="M 106.316534 218.88 
L 106.316534 218.88 
" clip-path="url(#p12c602a8a2)" style="fill: none; stroke: #ff7f0e; stroke-width: 1.5"/>
    <path d="M 109.36017 218.88 
L 109.36017 218.88 
" clip-path="url(#p12c602a8a2)" style="fill: none; stroke: #ff7f0e; stroke-width: 1.5"/>
    <path d="M 112.403807 218.88 
L 112.403807 218.88 
" clip-path="url(#p12c602a8a2)" style="fill: none; stroke: #ff7f0e; stroke-width: 1.5"/>
    <path d="M 115.447443 218.88 
L 115.447443 218.88 
" clip-path="url(#p12c602a8a2)" style="fill: none; stroke: #ff7f0e; stroke-width: 1.5"/>
    <path d="M 118.49108 218.88 
L 118.49108 218.88 
" clip-path="url(#p12c602a8a2)" style="fill: none; stroke: #ff7f0e; stroke-width: 1.5"/>
    <path d="M 121.534716 218.88 
L 121.534716 218.88 
" clip-path="url(#p12c602a8a2)" style="fill: none; stroke: #ff7f0e; stroke-width: 1.5"/>
    <path d="M 124.578352 218.88 
L 124.578352 218.88 
" clip-path="url(#p12c602a8a2)" style="fill: none; stroke: #ff7f0e; stroke-width: 1.5"/>
    <path d="M 127.621989 218.88 
L 127.621989 218.88 
" clip-path="url(#p12c602a8a2)" style="fill: none; stroke: #ff7f0e; stroke-width: 1.5"/>
    <path d="M 130.665625 218.88 
L 130.665625 218.88 
" clip-path="url(#p12c602a8a2)" style="fill: none; stroke: #ff7f0e; stroke-width: 1.5"/>
    <path d="M 133.709261 218.88 
L 133.709261 218.88 
" clip-path="url(#p12c602a8a2)" style="fill: none; stroke: #ff7f0e; stroke-width: 1.5"/>
    <path d="M 136.752898 218.88 
L 136.752898 218.88 
" clip-path="url(#p12c602a8a2)" style="fill: none; stroke: #ff7f0e; stroke-width: 1.5"/>
    <path d="M 139.796534 218.88 
L 139.796534 218.88 
" clip-path="url(#p12c602a8a2)" style="fill: none; stroke: #ff7f0e; stroke-width: 1.5"/>
    <path d="M 142.84017 218.88 
L 142.84017 218.88 
" clip-path="url(#p12c602a8a2)" style="fill: none; stroke: #ff7f0e; stroke-width: 1.5"/>
    <path d="M 145.883807 218.88 
L 145.883807 218.88 
" clip-path="url(#p12c602a8a2)" style="fill: none; stroke: #ff7f0e; stroke-width: 1.5"/>
    <path d="M 148.927443 218.88 
L 148.927443 218.88 
" clip-path="url(#p12c602a8a2)" style="fill: none; stroke: #ff7f0e; stroke-width: 1.5"/>
    <path d="M 151.97108 218.88 
L 151.97108 218.88 
" clip-path="url(#p12c602a8a2)" style="fill: none; stroke: #ff7f0e; stroke-width: 1.5"/>
    <path d="M 155.014716 218.88 
L 155.014716 218.88 
" clip-path="url(#p12c602a8a2)" style="fill: none; stroke: #ff7f0e; stroke-width: 1.5"/>
    <path d="M 158.058352 218.88 
L 158.058352 218.88 
" clip-path="url(#p12c602a8a2)" style="fill: none; stroke: #ff7f0e; stroke-width: 1.5"/>
    <path d="M 161.101989 218.88 
L 161.101989 218.88 
" clip-path="url(#p12c602a8a2)" style="fill: none; stroke: #ff7f0e; stroke-width: 1.5"/>
    <path d="M 164.145625 218.88 
L 164.145625 218.88 
" clip-path="url(#p12c602a8a2)" style="fill: none; stroke: #ff7f0e; stroke-width: 1.5"/>
    <path d="M 167.189261 218.88 
L 167.189261 218.88 
" clip-path="url(#p12c602a8a2)" style="fill: none; stroke: #ff7f0e; stroke-width: 1.5"/>
    <path d="M 170.232898 218.88 
L 170.232898 218.88 
" clip-path="url(#p12c602a8a2)" style="fill: none; stroke: #ff7f0e; stroke-width: 1.5"/>
    <path d="M 173.276534 218.88 
L 173.276534 218.88 
" clip-path="url(#p12c602a8a2)" style="fill: none; stroke: #ff7f0e; stroke-width: 1.5"/>
    <path d="M 176.32017 218.879997 
L 176.32017 218.879957 
" clip-path="url(#p12c602a8a2)" style="fill: none; stroke: #ff7f0e; stroke-width: 1.5"/>
    <path d="M 179.363807 218.879999 
L 179.363807 218.879981 
" clip-path="url(#p12c602a8a2)" style="fill: none; stroke: #ff7f0e; stroke-width: 1.5"/>
    <path d="M 182.407443 218.879992 
L 182.407443 218.879941 
" clip-path="url(#p12c602a8a2)" style="fill: none; stroke: #ff7f0e; stroke-width: 1.5"/>
    <path d="M 185.45108 218.879996 
L 185.45108 218.879987 
" clip-path="url(#p12c602a8a2)" style="fill: none; stroke: #ff7f0e; stroke-width: 1.5"/>
    <path d="M 188.494716 218.879972 
L 188.494716 218.879925 
" clip-path="url(#p12c602a8a2)" style="fill: none; stroke: #ff7f0e; stroke-width: 1.5"/>
    <path d="M 191.538352 218.87996 
L 191.538352 218.87992 
" clip-path="url(#p12c602a8a2)" style="fill: none; stroke: #ff7f0e; stroke-width: 1.5"/>
    <path d="M 194.581989 218.879931 
L 194.581989 218.879829 
" clip-path="url(#p12c602a8a2)" style="fill: none; stroke: #ff7f0e; stroke-width: 1.5"/>
    <path d="M 197.625625 218.879669 
L 197.625625 218.87943 
" clip-path="url(#p12c602a8a2)" style="fill: none; stroke: #ff7f0e; stroke-width: 1.5"/>
    <path d="M 200.669261 218.879653 
L 200.669261 218.879492 
" clip-path="url(#p12c602a8a2)" style="fill: none; stroke: #ff7f0e; stroke-width: 1.5"/>
    <path d="M 203.712898 218.879567 
L 203.712898 218.879397 
" clip-path="url(#p12c602a8a2)" style="fill: none; stroke: #ff7f0e; stroke-width: 1.5"/>
    <path d="M 206.756534 218.879487 
L 206.756534 218.879287 
" clip-path="url(#p12c602a8a2)" style="fill: none; stroke: #ff7f0e; stroke-width: 1.5"/>
    <path d="M 209.80017 218.879165 
L 209.80017 218.8789 
" clip-path="url(#p12c602a8a2)" style="fill: none; stroke: #ff7f0e; stroke-width: 1.5"/>
    <path d="M 212.843807 218.878896 
L 212.843807 218.878603 
" clip-path="url(#p12c602a8a2)" style="fill: none; stroke: #ff7f0e; stroke-width: 1.5"/>
    <path d="M 215.887443 218.87892 
L 215.887443 218.87867 
" clip-path="url(#p12c602a8a2)" style="fill: none; stroke: #ff7f0e; stroke-width: 1.5"/>
    <path d="M 218.93108 218.87852 
L 218.93108 218.854971 
" clip-path="url(#p12c602a8a2)" style="fill: none; stroke: #ff7f0e; stroke-width: 1.5"/>
    <path d="M 221.974716 218.878738 
L 221.974716 218.878419 
" clip-path="url(#p12c602a8a2)" style="fill: none; stroke: #ff7f0e; stroke-width: 1.5"/>
    <path d="M 225.018352 218.878425 
L 225.018352 218.878059 
" clip-path="url(#p12c602a8a2)" style="fill: none; stroke: #ff7f0e; stroke-width: 1.5"/>
    <path d="M 228.061989 218.878466 
L 228.061989 218.870862 
" clip-path="url(#p12c602a8a2)" style="fill: none; stroke: #ff7f0e; stroke-width: 1.5"/>
    <path d="M 231.105625 218.870709 
L 231.105625 218.854519 
" clip-path="url(#p12c602a8a2)" style="fill: none; stroke: #ff7f0e; stroke-width: 1.5"/>
    <path d="M 234.149261 218.865994 
L 234.149261 218.834352 
" clip-path="url(#p12c602a8a2)" style="fill: none; stroke: #ff7f0e; stroke-width: 1.5"/>
    <path d="M 237.192898 218.76766 
L 237.192898 218.711433 
" clip-path="url(#p12c602a8a2)" style="fill: none; stroke: #ff7f0e; stroke-width: 1.5"/>
    <path d="M 240.236534 218.618421 
L 240.236534 218.537753 
" clip-path="url(#p12c602a8a2)" style="fill: none; stroke: #ff7f0e; stroke-width: 1.5"/>
    <path d="M 243.28017 218.375048 
L 243.28017 218.263537 
" clip-path="url(#p12c602a8a2)" style="fill: none; stroke: #ff7f0e; stroke-width: 1.5"/>
    <path d="M 246.323807 218.0308 
L 246.323807 217.88752 
" clip-path="url(#p12c602a8a2)" style="fill: none; stroke: #ff7f0e; stroke-width: 1.5"/>
    <path d="M 249.367443 217.324691 
L 249.367443 217.134058 
" clip-path="url(#p12c602a8a2)" style="fill: none; stroke: #ff7f0e; stroke-width: 1.5"/>
    <path d="M 252.41108 216.592024 
L 252.41108 216.353219 
" clip-path="url(#p12c602a8a2)" style="fill: none; stroke: #ff7f0e; stroke-width: 1.5"/>
    <path d="M 255.454716 215.029519 
L 255.454716 214.716015 
" clip-path="url(#p12c602a8a2)" style="fill: none; stroke: #ff7f0e; stroke-width: 1.5"/>
    <path d="M 258.498352 211.676597 
L 258.498352 211.229416 
" clip-path="url(#p12c602a8a2)" style="fill: none; stroke: #ff7f0e; stroke-width: 1.5"/>
    <path d="M 261.541989 205.745453 
L 261.541989 205.108394 
" clip-path="url(#p12c602a8a2)" style="fill: none; stroke: #ff7f0e; stroke-width: 1.5"/>
    <path d="M 264.585625 198.292431 
L 264.585625 197.477148 
" clip-path="url(#p12c602a8a2)" style="fill: none; stroke: #ff7f0e; stroke-width: 1.5"/>
    <path d="M 267.629261 188.315896 
L 267.629261 187.296623 
" clip-path="url(#p12c602a8a2)" style="fill: none; stroke: #ff7f0e; stroke-width: 1.5"/>
    <path d="M 270.672898 172.985407 
L 270.672898 171.704632 
" clip-path="url(#p12c602a8a2)" style="fill: none; stroke: #ff7f0e; stroke-width: 1.5"/>
    <path d="M 273.716534 155.693371 
L 273.716534 154.14673 
" clip-path="url(#p12c602a8a2)" style="fill: none; stroke: #ff7f0e; stroke-width: 1.5"/>
    <path d="M 276.76017 137.238086 
L 276.76017 135.455311 
" clip-path="url(#p12c602a8a2)" style="fill: none; stroke: #ff7f0e; stroke-width: 1.5"/>
    <path d="M 279.803807 119.5629 
L 279.803807 117.573568 
" clip-path="url(#p12c602a8a2)" style="fill: none; stroke: #ff7f0e; stroke-width: 1.5"/>
    <path d="M 282.847443 102.218209 
L 282.847443 100.044988 
" clip-path="url(#p12c602a8a2)" style="fill: none; stroke: #ff7f0e; stroke-width: 1.5"/>
    <path d="M 285.89108 84.3772 
L 285.89108 82.028662 
" clip-path="url(#p12c602a8a2)" style="fill: none; stroke: #ff7f0e; stroke-width: 1.5"/>
    <path d="M 288.934716 70.398985 
L 288.934716 67.9251 
" clip-path="url(#p12c602a8a2)" style="fill: none; stroke: #ff7f0e; stroke-width: 1.5"/>
    <path d="M 291.978352 58.457025 
L 291.978352 55.878723 
" clip-path="url(#p12c602a8a2)" style="fill: none; stroke: #ff7f0e; stroke-width: 1.5"/>
    <path d="M 295.021989 48.580923 
L 295.021989 45.915891 
" clip-path="url(#p12c602a8a2)" style="fill: none; stroke: #ff7f0e; stroke-width: 1.5"/>
    <path d="M 298.065625 42.396257 
L 298.065625 39.676094 
" clip-path="url(#p12c602a8a2)" style="fill: none; stroke: #ff7f0e; stroke-width: 1.5"/>
    <path d="M 301.109261 39.548788 
L 301.109261 36.80155 
" clip-path="url(#p12c602a8a2)" style="fill: none; stroke: #ff7f0e; stroke-width: 1.5"/>
    <path d="M 304.152898 33.02964 
L 304.152898 30.233844 
" clip-path="url(#p12c602a8a2)" style="fill: none; stroke: #ff7f0e; stroke-width: 1.5"/>
    <path d="M 307.196534 36.05614 
L 307.196534 33.276607 
" clip-path="url(#p12c602a8a2)" style="fill: none; stroke: #ff7f0e; stroke-width: 1.5"/>
    <path d="M 310.24017 37.538992 
L 310.24017 34.763875 
" clip-path="url(#p12c602a8a2)" style="fill: none; stroke: #ff7f0e; stroke-width: 1.5"/>
    <path d="M 313.283807 40.98835 
L 313.283807 38.233363 
" clip-path="url(#p12c602a8a2)" style="fill: none; stroke: #ff7f0e; stroke-width: 1.5"/>
    <path d="M 316.327443 46.451142 
L 316.327443 43.72232 
" clip-path="url(#p12c602a8a2)" style="fill: none; stroke: #ff7f0e; stroke-width: 1.5"/>
    <path d="M 319.37108 57.698253 
L 319.37108 55.053215 
" clip-path="url(#p12c602a8a2)" style="fill: none; stroke: #ff7f0e; stroke-width: 1.5"/>
    <path d="M 322.414716 72.320636 
L 322.414716 69.785283 
" clip-path="url(#p12c602a8a2)" style="fill: none; stroke: #ff7f0e; stroke-width: 1.5"/>
    <path d="M 325.458352 90.085683 
L 325.458352 87.701296 
" clip-path="url(#p12c602a8a2)" style="fill: none; stroke: #ff7f0e; stroke-width: 1.5"/>
    <path d="M 328.501989 106.215566 
L 328.501989 103.980352 
" clip-path="url(#p12c602a8a2)" style="fill: none; stroke: #ff7f0e; stroke-width: 1.5"/>
    <path d="M 331.545625 123.439503 
L 331.545625 121.371574 
" clip-path="url(#p12c602a8a2)" style="fill: none; stroke: #ff7f0e; stroke-width: 1.5"/>
    <path d="M 334.589261 144.169296 
L 334.589261 142.340882 
" clip-path="url(#p12c602a8a2)" style="fill: none; stroke: #ff7f0e; stroke-width: 1.5"/>
    <path d="M 337.632898 160.259914 
L 337.632898 158.635234 
" clip-path="url(#p12c602a8a2)" style="fill: none; stroke: #ff7f0e; stroke-width: 1.5"/>
    <path d="M 340.676534 176.291792 
L 340.676534 174.903751 
" clip-path="url(#p12c602a8a2)" style="fill: none; stroke: #ff7f0e; stroke-width: 1.5"/>
    <path d="M 343.72017 188.733689 
L 343.72017 187.560751 
" clip-path="url(#p12c602a8a2)" style="fill: none; stroke: #ff7f0e; stroke-width: 1.5"/>
    <path d="M 346.763807 198.409377 
L 346.763807 197.440883 
" clip-path="url(#p12c602a8a2)" style="fill: none; stroke: #ff7f0e; stroke-width: 1.5"/>
    <path d="M 349.807443 205.868338 
L 349.807443 205.088551 
" clip-path="url(#p12c602a8a2)" style="fill: none; stroke: #ff7f0e; stroke-width: 1.5"/>
    <path d="M 352.85108 210.635074 
L 352.85108 210.016612 
" clip-path="url(#p12c602a8a2)" style="fill: none; stroke: #ff7f0e; stroke-width: 1.5"/>
    <path d="M 355.894716 214.44538 
L 355.894716 213.983885 
" clip-path="url(#p12c602a8a2)" style="fill: none; stroke: #ff7f0e; stroke-width: 1.5"/>
    <path d="M 358.938352 217.128156 
L 358.938352 216.833677 
" clip-path="url(#p12c602a8a2)" style="fill: none; stroke: #ff7f0e; stroke-width: 1.5"/>
    <path d="M 361.981989 218.343694 
L 361.981989 218.179376 
" clip-path="url(#p12c602a8a2)" style="fill: none; stroke: #ff7f0e; stroke-width: 1.5"/>
    <path d="M 365.025625 218.793979 
L 365.025625 218.722412 
" clip-path="url(#p12c602a8a2)" style="fill: none; stroke: #ff7f0e; stroke-width: 1.5"/>
   </g>
   <g id="patch_3">
    <path d="M 46.965625 228.96 
L 46.965625 7.2 
" style="fill: none; stroke: #000000; stroke-width: 0.8; stroke-linejoin: miter; stroke-linecap: square"/>
   </g>
   <g id="patch_4">
    <path d="M 381.765625 228.96 
L 381.765625 7.2 
" style="fill: none; stroke: #000000; stroke-width: 0.8; stroke-linejoin: miter; stroke-linecap: square"/>
   </g>
   <g id="patch_5">
    <path d="M 46.965625 228.96 
L 381.765625 228.96 
" style="fill: none; stroke: #000000; stroke-width: 0.8; stroke-linejoin: miter; stroke-linecap: square"/>
   </g>
   <g id="patch_6">
    <path d="M 46.965625 7.2 
L 381.765625 7.2 
" style="fill: none; stroke: #000000; stroke-width: 0.8; stroke-linejoin: miter; stroke-linecap: square"/>
   </g>
   <g id="legend_1">
    <g id="patch_7">
     <path d="M 53.965625 44.55625 
L 137.648438 44.55625 
Q 139.648438 44.55625 139.648438 42.55625 
L 139.648438 14.2 
Q 139.648438 12.2 137.648438 12.2 
L 53.965625 12.2 
Q 51.965625 12.2 51.965625 14.2 
L 51.965625 42.55625 
Q 51.965625 44.55625 53.965625 44.55625 
z
" style="fill: #ffffff; opacity: 0.8; stroke: #cccccc; stroke-linejoin: miter"/>
    </g>
    <g id="line2d_15">
     <path d="M 55.965625 20.298438 
L 55.965625 20.298438 
L 65.965625 20.298438 
L 65.965625 20.298438 
L 75.965625 20.298438 
" style="fill: none; stroke: #1f77b4; stroke-width: 1.5; stroke-linecap: square"/>
    </g>
    <g id="text_15">
     <!-- unmasked -->
     <g transform="translate(83.965625 23.798438) scale(0.1 -0.1)">
      <defs>
       <path id="DejaVuSans-6b" d="M 581 4863 
L 1159 4863 
L 1159 1991 
L 2875 3500 
L 3609 3500 
L 1753 1863 
L 3688 0 
L 2938 0 
L 1159 1709 
L 1159 0 
L 581 0 
L 581 4863 
z
" transform="scale(0.015625)"/>
       <path id="DejaVuSans-64" d="M 2906 2969 
L 2906 4863 
L 3481 4863 
L 3481 0 
L 2906 0 
L 2906 525 
Q 2725 213 2448 61 
Q 2172 -91 1784 -91 
Q 1150 -91 751 415 
Q 353 922 353 1747 
Q 353 2572 751 3078 
Q 1150 3584 1784 3584 
Q 2172 3584 2448 3432 
Q 2725 3281 2906 2969 
z
M 947 1747 
Q 947 1113 1208 752 
Q 1469 391 1925 391 
Q 2381 391 2643 752 
Q 2906 1113 2906 1747 
Q 2906 2381 2643 2742 
Q 2381 3103 1925 3103 
Q 1469 3103 1208 2742 
Q 947 2381 947 1747 
z
" transform="scale(0.015625)"/>
      </defs>
      <use xlink:href="#DejaVuSans-75"/>
      <use xlink:href="#DejaVuSans-6e" transform="translate(63.378906 0)"/>
      <use xlink:href="#DejaVuSans-6d" transform="translate(126.757812 0)"/>
      <use xlink:href="#DejaVuSans-61" transform="translate(224.169922 0)"/>
      <use xlink:href="#DejaVuSans-73" transform="translate(285.449219 0)"/>
      <use xlink:href="#DejaVuSans-6b" transform="translate(337.548828 0)"/>
      <use xlink:href="#DejaVuSans-65" transform="translate(391.833984 0)"/>
      <use xlink:href="#DejaVuSans-64" transform="translate(453.357422 0)"/>
     </g>
    </g>
    <g id="line2d_16">
     <path d="M 55.965625 34.976562 
L 55.965625 34.976562 
L 65.965625 34.976562 
L 65.965625 34.976562 
L 75.965625 34.976562 
" style="fill: none; stroke: #ff7f0e; stroke-width: 1.5; stroke-linecap: square"/>
    </g>
    <g id="text_16">
     <!-- masked -->
     <g transform="translate(83.965625 38.476562) scale(0.1 -0.1)">
      <use xlink:href="#DejaVuSans-6d"/>
      <use xlink:href="#DejaVuSans-61" transform="translate(97.412109 0)"/>
      <use xlink:href="#DejaVuSans-73" transform="translate(158.691406 0)"/>
      <use xlink:href="#DejaVuSans-6b" transform="translate(210.791016 0)"/>
      <use xlink:href="#DejaVuSans-65" transform="translate(265.076172 0)"/>
      <use xlink:href="#DejaVuSans-64" transform="translate(326.599609 0)"/>
     </g>
    </g>
   </g>
  </g>
 </g>
 <defs>
  <clipPath id="p12c602a8a2">
   <rect x="46.965625" y="7.2" width="334.8" height="221.76"/>
  </clipPath>
 </defs>
</svg>