<?xml version="1.0" encoding="utf-8" standalone="no"?>
<!DOCTYPE svg PUBLIC "-//W3C//DTD SVG 1.1//EN"
  "http://www.w3.org/Graphics/SVG/1.1/DTD/svg11.dtd">
<svg xmlns:xlink="http://www.w3.org/1999/xlink" width="389.435225pt" height="268.200625pt" viewBox="0 0 389.435225 268.200625" xmlns="http://www.w3.org/2000/svg" version="1.1">
 <metadata>
  <rdf:RDF xmlns:dc="http://purl.org/dc/elements/1.1/" xmlns:cc="http://creativecommons.org/ns#" xmlns:rdf="http://www.w3.org/1999/02/22-rdf-syntax-ns#">
   <cc:Work>
    <dc:type rdf:resource="http://purl.org/dc/dcmitype/StillImage"/>
    <dc:date>2025-11-24T17:21:26.341545</dc:date>
    <dc:format>image/svg+xml</dc:format>
    <dc:creator>
     <cc:Agent>
      <dc:title>Matplotlib v3.10.5, https://matplotlib.org/</dc:title>
     </cc:Agent>
    </dc:creator>
   </cc:Work>
  </rdf:RDF>
 </metadata>
 <defs>
  <style type="text/css">*{stroke-linejoin: round; stroke-linecap: butt}</style>
 </defs>
 <g id="figure_1">
  <g id="patch_1">
   <path d="M 0 268.200625 
L 389.435225 268.200625 
L 389.435225 0 
L 0 0 
z
" style="fill: #ffffff"/>
  </g>
  <g id="axes_1">
   <g id="patch_2">
    <path d="M 46.965625 228.96 
L 381.765625 228.96 
L 381.765625 7.2 
L 46.965625 7.2 
z
" style="fill: #ffffff"/>
   </g>
   <g id="matplotlib.axis_1">
    <g id="xtick_1">
     <g id="line2d_1">
      <defs>
       <path id="m7ac159030c" d="M 0 0 
L 0 3.5 
" style="stroke: #000000; stroke-width: 0.8"/>
      </defs>
      <g>
       <use xlink:href="#m7ac159030c" x="62.508984" y="228.96" style="stroke: #000000; stroke-width: 0.8"/>
      </g>
     </g>
     <g id="text_1">
      <!-- 5.25 -->
      <g transform="translate(51.376172 243.558437) scale(0.1 -0.1)">
       <defs>
        <path id="DejaVuSans-35" d="M 691 4666 
L 3169 4666 
L 3169 4134 
L 1269 4134 
L 1269 2991 
Q 1406 3038 1543 3061 
Q 1681 3084 1819 3084 
Q 2600 3084 3056 2656 
Q 3513 2228 3513 1497 
Q 3513 744 3044 326 
Q 2575 -91 1722 -91 
Q 1428 -91 1123 -41 
Q 819 9 494 109 
L 494 744 
Q 775 591 1075 516 
Q 1375 441 1709 441 
Q 2250 441 2565 725 
Q 2881 1009 2881 1497 
Q 2881 1984 2565 2268 
Q 2250 2553 1709 2553 
Q 1456 2553 1204 2497 
Q 953 2441 691 2322 
L 691 4666 
z
" transform="scale(0.015625)"/>
        <path id="DejaVuSans-2e" d="M 684 794 
L 1344 794 
L 1344 0 
L 684 0 
L 684 794 
z
" transform="scale(0.015625)"/>
        <path id="DejaVuSans-32" d="M 1228 531 
L 3431 531 
L 3431 0 
L 469 0 
L 469 531 
Q 828 903 1448 1529 
Q 2069 2156 2228 2338 
Q 2531 2678 2651 2914 
Q 2772 3150 2772 3378 
Q 2772 3750 2511 3984 
Q 2250 4219 1831 4219 
Q 1534 4219 1204 4116 
Q 875 4013 500 3803 
L 500 4441 
Q 881 4594 1212 4672 
Q 1544 4750 1819 4750 
Q 2544 4750 2975 4387 
Q 3406 4025 3406 3419 
Q 3406 3131 3298 2873 
Q 3191 2616 2906 2266 
Q 2828 2175 2409 1742 
Q 1991 1309 1228 531 
z
" transform="scale(0.015625)"/>
       </defs>
       <use xlink:href="#DejaVuSans-35"/>
       <use xlink:href="#DejaVuSans-2e" transform="translate(63.623047 0)"/>
       <use xlink:href="#DejaVuSans-32" transform="translate(95.410156 0)"/>
       <use xlink:href="#DejaVuSans-35" transform="translate(159.033203 0)"/>
      </g>
     </g>
    </g>
    <g id="xtick_2">
     <g id="line2d_2">
      <g>
       <use xlink:href="#m7ac159030c" x="106.59376" y="228.96" style="stroke: #000000; stroke-width: 0.8"/>
      </g>
     </g>
     <g id="text_2">
      <!-- 5.50 -->
      <g transform="translate(95.460947 243.558437) scale(0.1 -0.1)">
       <defs>
        <path id="DejaVuSans-30" d="M 2034 4250 
Q 1547 4250 1301 3770 
Q 1056 3291 1056 2328 
Q 1056 1369 1301 889 
Q 1547 409 2034 409 
Q 2525 409 2770 889 
Q 3016 1369 3016 2328 
Q 3016 3291 2770 3770 
Q 2525 4250 2034 4250 
z
M 2034 4750 
Q 2819 4750 3233 4129 
Q 3647 3509 3647 2328 
Q 3647 1150 3233 529 
Q 2819 -91 2034 -91 
Q 1250 -91 836 529 
Q 422 1150 422 2328 
Q 422 3509 836 4129 
Q 1250 4750 2034 4750 
z
" transform="scale(0.015625)"/>
       </defs>
       <use xlink:href="#DejaVuSans-35"/>
       <use xlink:href="#DejaVuSans-2e" transform="translate(63.623047 0)"/>
       <use xlink:href="#DejaVuSans-35" transform="translate(95.410156 0)"/>
       <use xlink:href="#DejaVuSans-30" transform="translate(159.033203 0)"/>
      </g>
     </g>
    </g>
    <g id="xtick_3">
     <g id="line2d_3">
      <g>
       <use xlink:href="#m7ac159030c" x="150.678535" y="228.96" style="stroke: #000000; stroke-width: 0.8"/>
      </g>
     </g>
     <g id="text_3">
      <!-- 5.75 -->
      <g transform="translate(139.545723 243.558437) scale(0.1 -0.1)">
       <defs>
        <path id="DejaVuSans-37" d="M 525 4666 
L 3525 4666 
L 3525 4397 
L 1831 0 
L 1172 0 
L 2766 4134 
L 525 4134 
L 525 4666 
z
" transform="scale(0.015625)"/>
       </defs>
       <use xlink:href="#DejaVuSans-35"/>
       <use xlink:href="#DejaVuSans-2e" transform="translate(63.623047 0)"/>
       <use xlink:href="#DejaVuSans-37" transform="translate(95.410156 0)"/>
       <use xlink:href="#DejaVuSans-35" transform="translate(159.033203 0)"/>
      </g>
     </g>
    </g>
    <g id="xtick_4">
     <g id="line2d_4">
      <g>
       <use xlink:href="#m7ac159030c" x="194.76331" y="228.96" style="stroke: #000000; stroke-width: 0.8"/>
      </g>
     </g>
     <g id="text_4">
      <!-- 6.00 -->
      <g transform="translate(183.630498 243.558437) scale(0.1 -0.1)">
       <defs>
        <path id="DejaVuSans-36" d="M 2113 2584 
Q 1688 2584 1439 2293 
Q 1191 2003 1191 1497 
Q 1191 994 1439 701 
Q 1688 409 2113 409 
Q 2538 409 2786 701 
Q 3034 994 3034 1497 
Q 3034 2003 2786 2293 
Q 2538 2584 2113 2584 
z
M 3366 4563 
L 3366 3988 
Q 3128 4100 2886 4159 
Q 2644 4219 2406 4219 
Q 1781 4219 1451 3797 
Q 1122 3375 1075 2522 
Q 1259 2794 1537 2939 
Q 1816 3084 2150 3084 
Q 2853 3084 3261 2657 
Q 3669 2231 3669 1497 
Q 3669 778 3244 343 
Q 2819 -91 2113 -91 
Q 1303 -91 875 529 
Q 447 1150 447 2328 
Q 447 3434 972 4092 
Q 1497 4750 2381 4750 
Q 2619 4750 2861 4703 
Q 3103 4656 3366 4563 
z
" transform="scale(0.015625)"/>
       </defs>
       <use xlink:href="#DejaVuSans-36"/>
       <use xlink:href="#DejaVuSans-2e" transform="translate(63.623047 0)"/>
       <use xlink:href="#DejaVuSans-30" transform="translate(95.410156 0)"/>
       <use xlink:href="#DejaVuSans-30" transform="translate(159.033203 0)"/>
      </g>
     </g>
    </g>
    <g id="xtick_5">
     <g id="line2d_5">
      <g>
       <use xlink:href="#m7ac159030c" x="238.848086" y="228.96" style="stroke: #000000; stroke-width: 0.8"/>
      </g>
     </g>
     <g id="text_5">
      <!-- 6.25 -->
      <g transform="translate(227.715273 243.558437) scale(0.1 -0.1)">
       <use xlink:href="#DejaVuSans-36"/>
       <use xlink:href="#DejaVuSans-2e" transform="translate(63.623047 0)"/>
       <use xlink:href="#DejaVuSans-32" transform="translate(95.410156 0)"/>
       <use xlink:href="#DejaVuSans-35" transform="translate(159.033203 0)"/>
      </g>
     </g>
    </g>
    <g id="xtick_6">
     <g id="line2d_6">
      <g>
       <use xlink:href="#m7ac159030c" x="282.932861" y="228.96" style="stroke: #000000; stroke-width: 0.8"/>
      </g>
     </g>
     <g id="text_6">
      <!-- 6.50 -->
      <g transform="translate(271.800049 243.558437) scale(0.1 -0.1)">
       <use xlink:href="#DejaVuSans-36"/>
       <use xlink:href="#DejaVuSans-2e" transform="translate(63.623047 0)"/>
       <use xlink:href="#DejaVuSans-35" transform="translate(95.410156 0)"/>
       <use xlink:href="#DejaVuSans-30" transform="translate(159.033203 0)"/>
      </g>
     </g>
    </g>
    <g id="xtick_7">
     <g id="line2d_7">
      <g>
       <use xlink:href="#m7ac159030c" x="327.017637" y="228.96" style="stroke: #000000; stroke-width: 0.8"/>
      </g>
     </g>
     <g id="text_7">
      <!-- 6.75 -->
      <g transform="translate(315.884824 243.558437) scale(0.1 -0.1)">
       <use xlink:href="#DejaVuSans-36"/>
       <use xlink:href="#DejaVuSans-2e" transform="translate(63.623047 0)"/>
       <use xlink:href="#DejaVuSans-37" transform="translate(95.410156 0)"/>
       <use xlink:href="#DejaVuSans-35" transform="translate(159.033203 0)"/>
      </g>
     </g>
    </g>
    <g id="xtick_8">
     <g id="line2d_8">
      <g>
       <use xlink:href="#m7ac159030c" x="371.102412" y="228.96" style="stroke: #000000; stroke-width: 0.8"/>
      </g>
     </g>
     <g id="text_8">
      <!-- 7.00 -->
      <g transform="translate(359.9696 243.558437) scale(0.1 -0.1)">
       <use xlink:href="#DejaVuSans-37"/>
       <use xlink:href="#DejaVuSans-2e" transform="translate(63.623047 0)"/>
       <use xlink:href="#DejaVuSans-30" transform="translate(95.410156 0)"/>
       <use xlink:href="#DejaVuSans-30" transform="translate(159.033203 0)"/>
      </g>
     </g>
    </g>
    <g id="text_9">
     <!-- wavelength [Å] -->
     <g transform="translate(176.328125 258.920937) scale(0.1 -0.1)">
      <defs>
       <path id="DejaVuSans-77" d="M 269 3500 
L 844 3500 
L 1563 769 
L 2278 3500 
L 2956 3500 
L 3675 769 
L 4391 3500 
L 4966 3500 
L 4050 0 
L 3372 0 
L 2619 2869 
L 1863 0 
L 1184 0 
L 269 3500 
z
" transform="scale(0.015625)"/>
       <path id="DejaVuSans-61" d="M 2194 1759 
Q 1497 1759 1228 1600 
Q 959 1441 959 1056 
Q 959 750 1161 570 
Q 1363 391 1709 391 
Q 2188 391 2477 730 
Q 2766 1069 2766 1631 
L 2766 1759 
L 2194 1759 
z
M 3341 1997 
L 3341 0 
L 2766 0 
L 2766 531 
Q 2569 213 2275 61 
Q 1981 -91 1556 -91 
Q 1019 -91 701 211 
Q 384 513 384 1019 
Q 384 1609 779 1909 
Q 1175 2209 1959 2209 
L 2766 2209 
L 2766 2266 
Q 2766 2663 2505 2880 
Q 2244 3097 1772 3097 
Q 1472 3097 1187 3025 
Q 903 2953 641 2809 
L 641 3341 
Q 956 3463 1253 3523 
Q 1550 3584 1831 3584 
Q 2591 3584 2966 3190 
Q 3341 2797 3341 1997 
z
" transform="scale(0.015625)"/>
       <path id="DejaVuSans-76" d="M 191 3500 
L 800 3500 
L 1894 563 
L 2988 3500 
L 3597 3500 
L 2284 0 
L 1503 0 
L 191 3500 
z
" transform="scale(0.015625)"/>
       <path id="DejaVuSans-65" d="M 3597 1894 
L 3597 1613 
L 953 1613 
Q 991 1019 1311 708 
Q 1631 397 2203 397 
Q 2534 397 2845 478 
Q 3156 559 3463 722 
L 3463 178 
Q 3153 47 2828 -22 
Q 2503 -91 2169 -91 
Q 1331 -91 842 396 
Q 353 884 353 1716 
Q 353 2575 817 3079 
Q 1281 3584 2069 3584 
Q 2775 3584 3186 3129 
Q 3597 2675 3597 1894 
z
M 3022 2063 
Q 3016 2534 2758 2815 
Q 2500 3097 2075 3097 
Q 1594 3097 1305 2825 
Q 1016 2553 972 2059 
L 3022 2063 
z
" transform="scale(0.015625)"/>
       <path id="DejaVuSans-6c" d="M 603 4863 
L 1178 4863 
L 1178 0 
L 603 0 
L 603 4863 
z
" transform="scale(0.015625)"/>
       <path id="DejaVuSans-6e" d="M 3513 2113 
L 3513 0 
L 2938 0 
L 2938 2094 
Q 2938 2591 2744 2837 
Q 2550 3084 2163 3084 
Q 1697 3084 1428 2787 
Q 1159 2491 1159 1978 
L 1159 0 
L 581 0 
L 581 3500 
L 1159 3500 
L 1159 2956 
Q 1366 3272 1645 3428 
Q 1925 3584 2291 3584 
Q 2894 3584 3203 3211 
Q 3513 2838 3513 2113 
z
" transform="scale(0.015625)"/>
       <path id="DejaVuSans-67" d="M 2906 1791 
Q 2906 2416 2648 2759 
Q 2391 3103 1925 3103 
Q 1463 3103 1205 2759 
Q 947 2416 947 1791 
Q 947 1169 1205 825 
Q 1463 481 1925 481 
Q 2391 481 2648 825 
Q 2906 1169 2906 1791 
z
M 3481 434 
Q 3481 -459 3084 -895 
Q 2688 -1331 1869 -1331 
Q 1566 -1331 1297 -1286 
Q 1028 -1241 775 -1147 
L 775 -588 
Q 1028 -725 1275 -790 
Q 1522 -856 1778 -856 
Q 2344 -856 2625 -561 
Q 2906 -266 2906 331 
L 2906 616 
Q 2728 306 2450 153 
Q 2172 0 1784 0 
Q 1141 0 747 490 
Q 353 981 353 1791 
Q 353 2603 747 3093 
Q 1141 3584 1784 3584 
Q 2172 3584 2450 3431 
Q 2728 3278 2906 2969 
L 2906 3500 
L 3481 3500 
L 3481 434 
z
" transform="scale(0.015625)"/>
       <path id="DejaVuSans-74" d="M 1172 4494 
L 1172 3500 
L 2356 3500 
L 2356 3053 
L 1172 3053 
L 1172 1153 
Q 1172 725 1289 603 
Q 1406 481 1766 481 
L 2356 481 
L 2356 0 
L 1766 0 
Q 1100 0 847 248 
Q 594 497 594 1153 
L 594 3053 
L 172 3053 
L 172 3500 
L 594 3500 
L 594 4494 
L 1172 4494 
z
" transform="scale(0.015625)"/>
       <path id="DejaVuSans-68" d="M 3513 2113 
L 3513 0 
L 2938 0 
L 2938 2094 
Q 2938 2591 2744 2837 
Q 2550 3084 2163 3084 
Q 1697 3084 1428 2787 
Q 1159 2491 1159 1978 
L 1159 0 
L 581 0 
L 581 4863 
L 1159 4863 
L 1159 2956 
Q 1366 3272 1645 3428 
Q 1925 3584 2291 3584 
Q 2894 3584 3203 3211 
Q 3513 2838 3513 2113 
z
" transform="scale(0.015625)"/>
       <path id="DejaVuSans-20" transform="scale(0.015625)"/>
       <path id="DejaVuSans-5b" d="M 550 4863 
L 1875 4863 
L 1875 4416 
L 1125 4416 
L 1125 -397 
L 1875 -397 
L 1875 -844 
L 550 -844 
L 550 4863 
z
" transform="scale(0.015625)"/>
       <path id="DejaVuSans-c5" d="M 2663 5081 
Q 2663 5278 2523 5417 
Q 2384 5556 2188 5556 
Q 1988 5556 1852 5420 
Q 1716 5284 1716 5081 
Q 1716 4884 1853 4746 
Q 1991 4609 2188 4609 
Q 2384 4609 2523 4746 
Q 2663 4884 2663 5081 
z
M 2188 4044 
L 1338 1722 
L 3041 1722 
L 2188 4044 
z
M 1716 4366 
Q 1525 4494 1428 4673 
Q 1331 4853 1331 5081 
Q 1331 5441 1579 5691 
Q 1828 5941 2188 5941 
Q 2544 5941 2795 5689 
Q 3047 5438 3047 5081 
Q 3047 4863 2948 4678 
Q 2850 4494 2663 4366 
L 4325 0 
L 3669 0 
L 3244 1197 
L 1141 1197 
L 716 0 
L 50 0 
L 1716 4366 
z
" transform="scale(0.015625)"/>
       <path id="DejaVuSans-5d" d="M 1947 4863 
L 1947 -844 
L 622 -844 
L 622 -397 
L 1369 -397 
L 1369 4416 
L 622 4416 
L 622 4863 
L 1947 4863 
z
" transform="scale(0.015625)"/>
      </defs>
      <use xlink:href="#DejaVuSans-77"/>
      <use xlink:href="#DejaVuSans-61" transform="translate(81.787109 0)"/>
      <use xlink:href="#DejaVuSans-76" transform="translate(143.066406 0)"/>
      <use xlink:href="#DejaVuSans-65" transform="translate(202.246094 0)"/>
      <use xlink:href="#DejaVuSans-6c" transform="translate(263.769531 0)"/>
      <use xlink:href="#DejaVuSans-65" transform="translate(291.552734 0)"/>
      <use xlink:href="#DejaVuSans-6e" transform="translate(353.076172 0)"/>
      <use xlink:href="#DejaVuSans-67" transform="translate(416.455078 0)"/>
      <use xlink:href="#DejaVuSans-74" transform="translate(479.931641 0)"/>
      <use xlink:href="#DejaVuSans-68" transform="translate(519.140625 0)"/>
      <use xlink:href="#DejaVuSans-20" transform="translate(582.519531 0)"/>
      <use xlink:href="#DejaVuSans-5b" transform="translate(614.306641 0)"/>
      <use xlink:href="#DejaVuSans-c5" transform="translate(653.320312 0)"/>
      <use xlink:href="#DejaVuSans-5d" transform="translate(721.728516 0)"/>
     </g>
    </g>
   </g>
   <g id="matplotlib.axis_2">
    <g id="ytick_1">
     <g id="line2d_9">
      <defs>
       <path id="m869ea7d2fa" d="M 0 0 
L -3.5 0 
" style="stroke: #000000; stroke-width: 0.8"/>
      </defs>
      <g>
       <use xlink:href="#m869ea7d2fa" x="46.965625" y="218.88" style="stroke: #000000; stroke-width: 0.8"/>
      </g>
     </g>
     <g id="text_10">
      <!-- 0 -->
      <g transform="translate(33.603125 222.679219) scale(0.1 -0.1)">
       <use xlink:href="#DejaVuSans-30"/>
      </g>
     </g>
    </g>
    <g id="ytick_2">
     <g id="line2d_10">
      <g>
       <use xlink:href="#m869ea7d2fa" x="46.965625" y="185.094798" style="stroke: #000000; stroke-width: 0.8"/>
      </g>
     </g>
     <g id="text_11">
      <!-- 100 -->
      <g transform="translate(20.878125 188.894017) scale(0.1 -0.1)">
       <defs>
        <path id="DejaVuSans-31" d="M 794 531 
L 1825 531 
L 1825 4091 
L 703 3866 
L 703 4441 
L 1819 4666 
L 2450 4666 
L 2450 531 
L 3481 531 
L 3481 0 
L 794 0 
L 794 531 
z
" transform="scale(0.015625)"/>
       </defs>
       <use xlink:href="#DejaVuSans-31"/>
       <use xlink:href="#DejaVuSans-30" transform="translate(63.623047 0)"/>
       <use xlink:href="#DejaVuSans-30" transform="translate(127.246094 0)"/>
      </g>
     </g>
    </g>
    <g id="ytick_3">
     <g id="line2d_11">
      <g>
       <use xlink:href="#m869ea7d2fa" x="46.965625" y="151.309595" style="stroke: #000000; stroke-width: 0.8"/>
      </g>
     </g>
     <g id="text_12">
      <!-- 200 -->
      <g transform="translate(20.878125 155.108814) scale(0.1 -0.1)">
       <use xlink:href="#DejaVuSans-32"/>
       <use xlink:href="#DejaVuSans-30" transform="translate(63.623047 0)"/>
       <use xlink:href="#DejaVuSans-30" transform="translate(127.246094 0)"/>
      </g>
     </g>
    </g>
    <g id="ytick_4">
     <g id="line2d_12">
      <g>
       <use xlink:href="#m869ea7d2fa" x="46.965625" y="117.524393" style="stroke: #000000; stroke-width: 0.8"/>
      </g>
     </g>
     <g id="text_13">
      <!-- 300 -->
      <g transform="translate(20.878125 121.323611) scale(0.1 -0.1)">
       <defs>
        <path id="DejaVuSans-33" d="M 2597 2516 
Q 3050 2419 3304 2112 
Q 3559 1806 3559 1356 
Q 3559 666 3084 287 
Q 2609 -91 1734 -91 
Q 1441 -91 1130 -33 
Q 819 25 488 141 
L 488 750 
Q 750 597 1062 519 
Q 1375 441 1716 441 
Q 2309 441 2620 675 
Q 2931 909 2931 1356 
Q 2931 1769 2642 2001 
Q 2353 2234 1838 2234 
L 1294 2234 
L 1294 2753 
L 1863 2753 
Q 2328 2753 2575 2939 
Q 2822 3125 2822 3475 
Q 2822 3834 2567 4026 
Q 2313 4219 1838 4219 
Q 1578 4219 1281 4162 
Q 984 4106 628 3988 
L 628 4550 
Q 988 4650 1302 4700 
Q 1616 4750 1894 4750 
Q 2613 4750 3031 4423 
Q 3450 4097 3450 3541 
Q 3450 3153 3228 2886 
Q 3006 2619 2597 2516 
z
" transform="scale(0.015625)"/>
       </defs>
       <use xlink:href="#DejaVuSans-33"/>
       <use xlink:href="#DejaVuSans-30" transform="translate(63.623047 0)"/>
       <use xlink:href="#DejaVuSans-30" transform="translate(127.246094 0)"/>
      </g>
     </g>
    </g>
    <g id="ytick_5">
     <g id="line2d_13">
      <g>
       <use xlink:href="#m869ea7d2fa" x="46.965625" y="83.73919" style="stroke: #000000; stroke-width: 0.8"/>
      </g>
     </g>
     <g id="text_14">
      <!-- 400 -->
      <g transform="translate(20.878125 87.538409) scale(0.1 -0.1)">
       <defs>
        <path id="DejaVuSans-34" d="M 2419 4116 
L 825 1625 
L 2419 1625 
L 2419 4116 
z
M 2253 4666 
L 3047 4666 
L 3047 1625 
L 3713 1625 
L 3713 1100 
L 3047 1100 
L 3047 0 
L 2419 0 
L 2419 1100 
L 313 1100 
L 313 1709 
L 2253 4666 
z
" transform="scale(0.015625)"/>
       </defs>
       <use xlink:href="#DejaVuSans-34"/>
       <use xlink:href="#DejaVuSans-30" transform="translate(63.623047 0)"/>
       <use xlink:href="#DejaVuSans-30" transform="translate(127.246094 0)"/>
      </g>
     </g>
    </g>
    <g id="ytick_6">
     <g id="line2d_14">
      <g>
       <use xlink:href="#m869ea7d2fa" x="46.965625" y="49.953987" style="stroke: #000000; stroke-width: 0.8"/>
      </g>
     </g>
     <g id="text_15">
      <!-- 500 -->
      <g transform="translate(20.878125 53.753206) scale(0.1 -0.1)">
       <use xlink:href="#DejaVuSans-35"/>
       <use xlink:href="#DejaVuSans-30" transform="translate(63.623047 0)"/>
       <use xlink:href="#DejaVuSans-30" transform="translate(127.246094 0)"/>
      </g>
     </g>
    </g>
    <g id="ytick_7">
     <g id="line2d_15">
      <g>
       <use xlink:href="#m869ea7d2fa" x="46.965625" y="16.168785" style="stroke: #000000; stroke-width: 0.8"/>
      </g>
     </g>
     <g id="text_16">
      <!-- 600 -->
      <g transform="translate(20.878125 19.968003) scale(0.1 -0.1)">
       <use xlink:href="#DejaVuSans-36"/>
       <use xlink:href="#DejaVuSans-30" transform="translate(63.623047 0)"/>
       <use xlink:href="#DejaVuSans-30" transform="translate(127.246094 0)"/>
      </g>
     </g>
    </g>
    <g id="text_17">
     <!-- [counts] -->
     <g transform="translate(14.798438 138.6925) rotate(-90) scale(0.1 -0.1)">
      <defs>
       <path id="DejaVuSans-63" d="M 3122 3366 
L 3122 2828 
Q 2878 2963 2633 3030 
Q 2388 3097 2138 3097 
Q 1578 3097 1268 2742 
Q 959 2388 959 1747 
Q 959 1106 1268 751 
Q 1578 397 2138 397 
Q 2388 397 2633 464 
Q 2878 531 3122 666 
L 3122 134 
Q 2881 22 2623 -34 
Q 2366 -91 2075 -91 
Q 1284 -91 818 406 
Q 353 903 353 1747 
Q 353 2603 823 3093 
Q 1294 3584 2113 3584 
Q 2378 3584 2631 3529 
Q 2884 3475 3122 3366 
z
" transform="scale(0.015625)"/>
       <path id="DejaVuSans-6f" d="M 1959 3097 
Q 1497 3097 1228 2736 
Q 959 2375 959 1747 
Q 959 1119 1226 758 
Q 1494 397 1959 397 
Q 2419 397 2687 759 
Q 2956 1122 2956 1747 
Q 2956 2369 2687 2733 
Q 2419 3097 1959 3097 
z
M 1959 3584 
Q 2709 3584 3137 3096 
Q 3566 2609 3566 1747 
Q 3566 888 3137 398 
Q 2709 -91 1959 -91 
Q 1206 -91 779 398 
Q 353 888 353 1747 
Q 353 2609 779 3096 
Q 1206 3584 1959 3584 
z
" transform="scale(0.015625)"/>
       <path id="DejaVuSans-75" d="M 544 1381 
L 544 3500 
L 1119 3500 
L 1119 1403 
Q 1119 906 1312 657 
Q 1506 409 1894 409 
Q 2359 409 2629 706 
Q 2900 1003 2900 1516 
L 2900 3500 
L 3475 3500 
L 3475 0 
L 2900 0 
L 2900 538 
Q 2691 219 2414 64 
Q 2138 -91 1772 -91 
Q 1169 -91 856 284 
Q 544 659 544 1381 
z
M 1991 3584 
L 1991 3584 
z
" transform="scale(0.015625)"/>
       <path id="DejaVuSans-73" d="M 2834 3397 
L 2834 2853 
Q 2591 2978 2328 3040 
Q 2066 3103 1784 3103 
Q 1356 3103 1142 2972 
Q 928 2841 928 2578 
Q 928 2378 1081 2264 
Q 1234 2150 1697 2047 
L 1894 2003 
Q 2506 1872 2764 1633 
Q 3022 1394 3022 966 
Q 3022 478 2636 193 
Q 2250 -91 1575 -91 
Q 1294 -91 989 -36 
Q 684 19 347 128 
L 347 722 
Q 666 556 975 473 
Q 1284 391 1588 391 
Q 1994 391 2212 530 
Q 2431 669 2431 922 
Q 2431 1156 2273 1281 
Q 2116 1406 1581 1522 
L 1381 1569 
Q 847 1681 609 1914 
Q 372 2147 372 2553 
Q 372 3047 722 3315 
Q 1072 3584 1716 3584 
Q 2034 3584 2315 3537 
Q 2597 3491 2834 3397 
z
" transform="scale(0.015625)"/>
      </defs>
      <use xlink:href="#DejaVuSans-5b"/>
      <use xlink:href="#DejaVuSans-63" transform="translate(39.013672 0)"/>
      <use xlink:href="#DejaVuSans-6f" transform="translate(93.994141 0)"/>
      <use xlink:href="#DejaVuSans-75" transform="translate(155.175781 0)"/>
      <use xlink:href="#DejaVuSans-6e" transform="translate(218.554688 0)"/>
      <use xlink:href="#DejaVuSans-74" transform="translate(281.933594 0)"/>
      <use xlink:href="#DejaVuSans-73" transform="translate(321.142578 0)"/>
      <use xlink:href="#DejaVuSans-5d" transform="translate(373.242188 0)"/>
     </g>
    </g>
   </g>
   <g id="line2d_16">
    <path d="M 62.183807 217.287293 
L 63.705625 217.287293 
L 63.705625 206.313036 
L 65.227443 206.313036 
L 65.227443 188.866938 
L 66.749261 188.866938 
L 66.749261 163.974065 
L 68.27108 163.974065 
L 68.27108 158.341384 
L 69.792898 158.341384 
L 69.792898 134.215016 
L 71.314716 134.215016 
L 71.314716 99.000083 
L 72.836534 99.000083 
L 72.836534 76.025813 
L 74.358352 76.025813 
L 74.358352 53.552106 
L 75.88017 53.552106 
L 75.88017 63.980875 
L 77.401989 63.980875 
L 77.401989 35.663301 
L 78.923807 35.663301 
L 78.923807 45.97116 
L 81.967443 45.886294 
L 81.967443 31.575384 
L 83.489261 31.575384 
L 83.489261 26.936015 
L 85.01108 26.936015 
L 85.01108 46.827263 
L 86.532898 46.827263 
L 86.532898 38.211851 
L 88.054716 38.211851 
L 88.054716 45.556231 
L 89.576534 45.556231 
L 89.576534 37.121281 
L 91.098352 37.121281 
L 91.098352 61.039616 
L 92.62017 61.039616 
L 92.62017 38.873509 
L 94.141989 38.873509 
L 94.141989 37.456502 
L 95.663807 37.456502 
L 95.663807 50.159709 
L 97.185625 50.159709 
L 97.185625 47.432707 
L 98.707443 47.432707 
L 98.707443 39.668726 
L 100.229261 39.668726 
L 100.229261 56.774573 
L 101.75108 56.774573 
L 101.75108 48.88204 
L 103.272898 48.88204 
L 103.272898 57.28361 
L 104.794716 57.28361 
L 104.794716 50.160648 
L 106.316534 50.160648 
L 106.316534 61.005047 
L 107.838352 61.005047 
L 107.838352 47.125763 
L 110.881989 47.175409 
L 110.881989 49.480747 
L 112.403807 49.480747 
L 112.403807 44.797602 
L 113.925625 44.797602 
L 113.925625 55.229231 
L 115.447443 55.229231 
L 115.447443 51.293829 
L 116.969261 51.293829 
L 116.969261 61.781228 
L 118.49108 61.781228 
L 118.49108 54.01864 
L 120.012898 54.01864 
L 120.012898 55.913517 
L 121.534716 55.913517 
L 121.534716 64.21519 
L 123.056534 64.21519 
L 123.056534 51.417636 
L 124.578352 51.417636 
L 124.578352 71.950438 
L 126.10017 71.950438 
L 126.10017 41.61857 
L 127.621989 41.61857 
L 127.621989 58.292112 
L 129.143807 58.292112 
L 129.143807 57.762054 
L 130.665625 57.762054 
L 130.665625 60.365438 
L 132.187443 60.365438 
L 132.187443 75.432196 
L 133.709261 75.432196 
L 133.709261 63.175978 
L 135.23108 63.175978 
L 135.23108 75.445909 
L 136.752898 75.445909 
L 136.752898 71.367743 
L 138.274716 71.367743 
L 138.274716 68.340405 
L 139.796534 68.340405 
L 139.796534 83.02803 
L 141.318352 83.02803 
L 141.318352 62.080489 
L 142.84017 62.080489 
L 142.84017 60.657504 
L 144.361989 60.657504 
L 144.361989 61.025357 
L 145.883807 61.025357 
L 145.883807 69.566729 
L 147.405625 69.566729 
L 147.405625 60.509942 
L 148.927443 60.509942 
L 148.927443 54.463918 
L 150.449261 54.463918 
L 150.449261 65.720891 
L 151.97108 65.720891 
L 151.97108 60.716413 
L 153.492898 60.716413 
L 153.492898 63.879504 
L 155.014716 63.879504 
L 155.014716 76.988272 
L 156.536534 76.988272 
L 156.536534 71.570953 
L 158.058352 71.570953 
L 158.058352 74.22953 
L 159.58017 74.22953 
L 159.58017 73.910465 
L 161.101989 73.910465 
L 161.101989 68.298896 
L 162.623807 68.298896 
L 162.623807 70.059709 
L 164.145625 70.059709 
L 164.145625 82.443694 
L 165.667443 82.443694 
L 165.667443 67.485968 
L 167.189261 67.485968 
L 167.189261 76.711808 
L 168.71108 76.711808 
L 168.71108 87.529895 
L 170.232898 87.529895 
L 170.232898 87.676386 
L 171.754716 87.676386 
L 171.754716 78.931363 
L 173.276534 78.931363 
L 173.276534 83.270979 
L 174.798352 83.270979 
L 174.798352 79.140129 
L 176.32017 79.140129 
L 176.32017 69.425744 
L 177.841989 69.425744 
L 177.841989 83.556458 
L 179.363807 83.556458 
L 179.363807 67.261726 
L 180.885625 67.261726 
L 180.885625 72.128519 
L 182.407443 72.128519 
L 182.407443 70.863047 
L 183.929261 70.863047 
L 183.929261 75.822628 
L 185.45108 75.822628 
L 185.45108 72.944136 
L 186.972898 72.944136 
L 186.972898 70.33357 
L 188.494716 70.33357 
L 188.494716 91.543363 
L 190.016534 91.543363 
L 190.016534 82.809696 
L 191.538352 82.809696 
L 191.538352 71.807293 
L 193.06017 71.807293 
L 193.06017 81.296332 
L 194.581989 81.296332 
L 194.581989 87.316974 
L 196.103807 87.316974 
L 196.103807 86.414377 
L 199.147443 86.510432 
L 199.147443 87.762342 
L 200.669261 87.762342 
L 200.669261 92.015434 
L 202.19108 92.015434 
L 202.19108 74.365077 
L 203.712898 74.365077 
L 203.712898 71.796696 
L 205.234716 71.796696 
L 205.234716 95.167839 
L 206.756534 95.167839 
L 206.756534 80.615355 
L 208.278352 80.615355 
L 208.278352 87.795248 
L 209.80017 87.795248 
L 209.80017 89.391314 
L 211.321989 89.391314 
L 211.321989 75.412794 
L 212.843807 75.412794 
L 212.843807 84.635354 
L 214.365625 84.635354 
L 214.365625 87.837535 
L 215.887443 87.837535 
L 215.887443 96.810228 
L 217.409261 96.810228 
L 217.409261 106.277401 
L 218.93108 106.277401 
L 218.93108 95.426519 
L 220.452898 95.426519 
L 220.452898 84.201496 
L 221.974716 84.201496 
L 221.974716 85.838152 
L 223.496534 85.838152 
L 223.496534 81.952137 
L 225.018352 81.952137 
L 225.018352 106.376241 
L 226.54017 106.376241 
L 226.54017 74.291667 
L 228.061989 74.291667 
L 228.061989 96.307959 
L 229.583807 96.307959 
L 229.583807 90.221167 
L 231.105625 90.221167 
L 231.105625 96.101095 
L 232.627443 96.101095 
L 232.627443 91.771575 
L 234.149261 91.771575 
L 234.149261 109.279158 
L 235.67108 109.279158 
L 235.67108 86.69356 
L 237.192898 86.69356 
L 237.192898 99.691665 
L 238.714716 99.691665 
L 238.714716 95.396972 
L 240.236534 95.396972 
L 240.236534 104.562901 
L 241.758352 104.562901 
L 241.758352 94.199772 
L 243.28017 94.199772 
L 243.28017 100.088252 
L 244.801989 100.088252 
L 244.801989 92.863037 
L 246.323807 92.863037 
L 246.323807 101.669722 
L 247.845625 101.669722 
L 247.845625 95.191219 
L 249.367443 95.191219 
L 249.367443 105.153486 
L 250.889261 105.153486 
L 250.889261 94.286498 
L 252.41108 94.286498 
L 252.41108 102.226115 
L 253.932898 102.226115 
L 253.932898 98.44248 
L 255.454716 98.44248 
L 255.454716 98.778008 
L 256.976534 98.778008 
L 256.976534 89.61789 
L 258.498352 89.61789 
L 258.498352 118.325879 
L 260.02017 118.325879 
L 260.02017 106.073195 
L 261.541989 106.073195 
L 261.541989 106.204745 
L 263.063807 106.204745 
L 263.063807 98.948472 
L 264.585625 98.948472 
L 264.585625 104.566833 
L 266.107443 104.566833 
L 266.107443 107.780195 
L 267.629261 107.780195 
L 267.629261 100.67896 
L 269.15108 100.67896 
L 269.15108 113.733021 
L 270.672898 113.733021 
L 270.672898 106.237216 
L 272.194716 106.237216 
L 272.194716 94.77978 
L 273.716534 94.77978 
L 273.716534 97.344941 
L 275.238352 97.344941 
L 275.238352 114.979154 
L 276.76017 114.979154 
L 276.76017 101.159307 
L 278.281989 101.159307 
L 278.281989 115.300794 
L 279.803807 115.300794 
L 279.803807 98.302604 
L 281.325625 98.302604 
L 281.325625 107.360919 
L 282.847443 107.360919 
L 282.847443 103.644493 
L 284.369261 103.644493 
L 284.369261 111.340182 
L 285.89108 111.340182 
L 285.89108 110.883164 
L 287.412898 110.883164 
L 287.412898 116.943245 
L 288.934716 116.943245 
L 288.934716 104.867864 
L 290.456534 104.867864 
L 290.456534 109.686559 
L 291.978352 109.686559 
L 291.978352 118.432974 
L 293.50017 118.432974 
L 293.50017 120.939923 
L 295.021989 120.939923 
L 295.021989 102.405991 
L 296.543807 102.405991 
L 296.543807 115.200768 
L 299.587443 115.133001 
L 299.587443 110.562624 
L 301.109261 110.562624 
L 301.109261 117.923947 
L 302.63108 117.923947 
L 302.63108 116.333114 
L 304.152898 116.333114 
L 304.152898 116.748156 
L 305.674716 116.748156 
L 305.674716 118.37656 
L 307.196534 118.37656 
L 307.196534 110.960889 
L 308.718352 110.960889 
L 308.718352 118.719014 
L 310.24017 118.719014 
L 310.24017 117.940336 
L 311.761989 117.940336 
L 311.761989 120.490358 
L 313.283807 120.490358 
L 313.283807 108.802263 
L 314.805625 108.802263 
L 314.805625 119.586016 
L 316.327443 119.586016 
L 316.327443 114.631569 
L 317.849261 114.631569 
L 317.849261 114.888099 
L 319.37108 114.888099 
L 319.37108 118.72293 
L 320.892898 118.72293 
L 320.892898 109.844019 
L 322.414716 109.844019 
L 322.414716 117.288817 
L 323.936534 117.288817 
L 323.936534 114.574007 
L 325.458352 114.574007 
L 325.458352 127.399669 
L 326.98017 127.399669 
L 326.98017 118.37188 
L 328.501989 118.37188 
L 328.501989 128.21672 
L 330.023807 128.21672 
L 330.023807 140.577903 
L 331.545625 140.577903 
L 331.545625 153.051209 
L 333.067443 153.051209 
L 333.067443 156.255945 
L 334.589261 156.255945 
L 334.589261 176.199237 
L 336.11108 176.199237 
L 336.11108 188.4818 
L 337.632898 188.4818 
L 337.632898 194.238178 
L 339.154716 194.238178 
L 339.154716 207.797512 
L 340.676534 207.797512 
L 340.676534 214.346064 
L 342.198352 214.346064 
L 342.198352 217.483712 
L 343.72017 217.483712 
L 343.72017 218.1984 
L 345.241989 218.1984 
L 345.241989 218.707674 
L 348.285625 218.776132 
L 348.285625 218.84513 
L 366.547443 218.88 
L 366.547443 218.88 
" clip-path="url(#p3e659221f6)" style="fill: none; stroke: #1f77b4; stroke-width: 1.5; stroke-linecap: square"/>
   </g>
   <g id="LineCollection_1">
    <path d="M 62.944716 217.758799 
L 62.944716 216.815787 
" clip-path="url(#p3e659221f6)" style="fill: none; stroke: #1f77b4; stroke-width: 1.5"/>
    <path d="M 64.466534 208.51409 
L 64.466534 204.111982 
" clip-path="url(#p3e659221f6)" style="fill: none; stroke: #1f77b4; stroke-width: 1.5"/>
    <path d="M 65.988352 192.406726 
L 65.988352 185.327151 
" clip-path="url(#p3e659221f6)" style="fill: none; stroke: #1f77b4; stroke-width: 1.5"/>
    <path d="M 67.51017 169.071791 
L 67.51017 158.876339 
" clip-path="url(#p3e659221f6)" style="fill: none; stroke: #1f77b4; stroke-width: 1.5"/>
    <path d="M 69.031989 163.449402 
L 69.031989 153.233365 
" clip-path="url(#p3e659221f6)" style="fill: none; stroke: #1f77b4; stroke-width: 1.5"/>
    <path d="M 70.553807 140.537354 
L 70.553807 127.892679 
" clip-path="url(#p3e659221f6)" style="fill: none; stroke: #1f77b4; stroke-width: 1.5"/>
    <path d="M 72.075625 106.941422 
L 72.075625 91.058745 
" clip-path="url(#p3e659221f6)" style="fill: none; stroke: #1f77b4; stroke-width: 1.5"/>
    <path d="M 73.597443 84.549849 
L 73.597443 67.501778 
" clip-path="url(#p3e659221f6)" style="fill: none; stroke: #1f77b4; stroke-width: 1.5"/>
    <path d="M 75.119261 62.843544 
L 75.119261 44.260668 
" clip-path="url(#p3e659221f6)" style="fill: none; stroke: #1f77b4; stroke-width: 1.5"/>
    <path d="M 76.64108 72.685074 
L 76.64108 55.276676 
" clip-path="url(#p3e659221f6)" style="fill: none; stroke: #1f77b4; stroke-width: 1.5"/>
    <path d="M 78.162898 45.134432 
L 78.162898 26.192169 
" clip-path="url(#p3e659221f6)" style="fill: none; stroke: #1f77b4; stroke-width: 1.5"/>
    <path d="M 79.684716 55.111165 
L 79.684716 36.831154 
" clip-path="url(#p3e659221f6)" style="fill: none; stroke: #1f77b4; stroke-width: 1.5"/>
    <path d="M 81.206534 55.084331 
L 81.206534 36.688258 
" clip-path="url(#p3e659221f6)" style="fill: none; stroke: #1f77b4; stroke-width: 1.5"/>
    <path d="M 82.728352 41.169033 
L 82.728352 21.981734 
" clip-path="url(#p3e659221f6)" style="fill: none; stroke: #1f77b4; stroke-width: 1.5"/>
    <path d="M 84.25017 36.592029 
L 84.25017 17.28 
" clip-path="url(#p3e659221f6)" style="fill: none; stroke: #1f77b4; stroke-width: 1.5"/>
    <path d="M 85.771989 55.91902 
L 85.771989 37.735507 
" clip-path="url(#p3e659221f6)" style="fill: none; stroke: #1f77b4; stroke-width: 1.5"/>
    <path d="M 87.293807 47.381068 
L 87.293807 29.042634 
" clip-path="url(#p3e659221f6)" style="fill: none; stroke: #1f77b4; stroke-width: 1.5"/>
    <path d="M 88.815625 54.541094 
L 88.815625 36.571368 
" clip-path="url(#p3e659221f6)" style="fill: none; stroke: #1f77b4; stroke-width: 1.5"/>
    <path d="M 90.337443 46.24376 
L 90.337443 27.998803 
" clip-path="url(#p3e659221f6)" style="fill: none; stroke: #1f77b4; stroke-width: 1.5"/>
    <path d="M 91.859261 69.477404 
L 91.859261 52.601828 
" clip-path="url(#p3e659221f6)" style="fill: none; stroke: #1f77b4; stroke-width: 1.5"/>
    <path d="M 93.38108 48.008199 
L 93.38108 29.73882 
" clip-path="url(#p3e659221f6)" style="fill: none; stroke: #1f77b4; stroke-width: 1.5"/>
    <path d="M 94.902898 46.640003 
L 94.902898 28.273002 
" clip-path="url(#p3e659221f6)" style="fill: none; stroke: #1f77b4; stroke-width: 1.5"/>
    <path d="M 96.424716 59.003513 
L 96.424716 41.315906 
" clip-path="url(#p3e659221f6)" style="fill: none; stroke: #1f77b4; stroke-width: 1.5"/>
    <path d="M 97.946534 56.17958 
L 97.946534 38.685835 
" clip-path="url(#p3e659221f6)" style="fill: none; stroke: #1f77b4; stroke-width: 1.5"/>
    <path d="M 99.468352 48.795419 
L 99.468352 30.542032 
" clip-path="url(#p3e659221f6)" style="fill: none; stroke: #1f77b4; stroke-width: 1.5"/>
    <path d="M 100.99017 65.296426 
L 100.99017 48.25272 
" clip-path="url(#p3e659221f6)" style="fill: none; stroke: #1f77b4; stroke-width: 1.5"/>
    <path d="M 102.511989 57.674198 
L 102.511989 40.089881 
" clip-path="url(#p3e659221f6)" style="fill: none; stroke: #1f77b4; stroke-width: 1.5"/>
    <path d="M 104.033807 65.771548 
L 104.033807 48.795673 
" clip-path="url(#p3e659221f6)" style="fill: none; stroke: #1f77b4; stroke-width: 1.5"/>
    <path d="M 105.555625 58.904926 
L 105.555625 41.416371 
" clip-path="url(#p3e659221f6)" style="fill: none; stroke: #1f77b4; stroke-width: 1.5"/>
    <path d="M 107.077443 69.289777 
L 107.077443 52.720317 
" clip-path="url(#p3e659221f6)" style="fill: none; stroke: #1f77b4; stroke-width: 1.5"/>
    <path d="M 108.599261 55.966789 
L 108.599261 38.284737 
" clip-path="url(#p3e659221f6)" style="fill: none; stroke: #1f77b4; stroke-width: 1.5"/>
    <path d="M 110.12108 55.935543 
L 110.12108 38.415275 
" clip-path="url(#p3e659221f6)" style="fill: none; stroke: #1f77b4; stroke-width: 1.5"/>
    <path d="M 111.642898 58.073694 
L 111.642898 40.887801 
" clip-path="url(#p3e659221f6)" style="fill: none; stroke: #1f77b4; stroke-width: 1.5"/>
    <path d="M 113.164716 53.734558 
L 113.164716 35.860647 
" clip-path="url(#p3e659221f6)" style="fill: none; stroke: #1f77b4; stroke-width: 1.5"/>
    <path d="M 114.686534 63.851407 
L 114.686534 46.607056 
" clip-path="url(#p3e659221f6)" style="fill: none; stroke: #1f77b4; stroke-width: 1.5"/>
    <path d="M 116.208352 60.079542 
L 116.208352 42.508116 
" clip-path="url(#p3e659221f6)" style="fill: none; stroke: #1f77b4; stroke-width: 1.5"/>
    <path d="M 117.73017 70.237036 
L 117.73017 53.325419 
" clip-path="url(#p3e659221f6)" style="fill: none; stroke: #1f77b4; stroke-width: 1.5"/>
    <path d="M 119.251989 62.66001 
L 119.251989 45.37727 
" clip-path="url(#p3e659221f6)" style="fill: none; stroke: #1f77b4; stroke-width: 1.5"/>
    <path d="M 120.773807 64.439798 
L 120.773807 47.387236 
" clip-path="url(#p3e659221f6)" style="fill: none; stroke: #1f77b4; stroke-width: 1.5"/>
    <path d="M 122.295625 72.421044 
L 122.295625 56.009335 
" clip-path="url(#p3e659221f6)" style="fill: none; stroke: #1f77b4; stroke-width: 1.5"/>
    <path d="M 123.817443 60.046884 
L 123.817443 42.788388 
" clip-path="url(#p3e659221f6)" style="fill: none; stroke: #1f77b4; stroke-width: 1.5"/>
    <path d="M 125.339261 79.851326 
L 125.339261 64.049549 
" clip-path="url(#p3e659221f6)" style="fill: none; stroke: #1f77b4; stroke-width: 1.5"/>
    <path d="M 126.86108 50.443714 
L 126.86108 32.793426 
" clip-path="url(#p3e659221f6)" style="fill: none; stroke: #1f77b4; stroke-width: 1.5"/>
    <path d="M 128.382898 66.499582 
L 128.382898 50.084642 
" clip-path="url(#p3e659221f6)" style="fill: none; stroke: #1f77b4; stroke-width: 1.5"/>
    <path d="M 129.904716 65.96275 
L 129.904716 49.561359 
" clip-path="url(#p3e659221f6)" style="fill: none; stroke: #1f77b4; stroke-width: 1.5"/>
    <path d="M 131.426534 68.517997 
L 131.426534 52.212878 
" clip-path="url(#p3e659221f6)" style="fill: none; stroke: #1f77b4; stroke-width: 1.5"/>
    <path d="M 132.948352 83.154889 
L 132.948352 67.709504 
" clip-path="url(#p3e659221f6)" style="fill: none; stroke: #1f77b4; stroke-width: 1.5"/>
    <path d="M 134.47017 71.362234 
L 134.47017 54.989723 
" clip-path="url(#p3e659221f6)" style="fill: none; stroke: #1f77b4; stroke-width: 1.5"/>
    <path d="M 135.991989 83.06639 
L 135.991989 67.825427 
" clip-path="url(#p3e659221f6)" style="fill: none; stroke: #1f77b4; stroke-width: 1.5"/>
    <path d="M 137.513807 79.210716 
L 137.513807 63.52477 
" clip-path="url(#p3e659221f6)" style="fill: none; stroke: #1f77b4; stroke-width: 1.5"/>
    <path d="M 139.035625 76.295423 
L 139.035625 60.385387 
" clip-path="url(#p3e659221f6)" style="fill: none; stroke: #1f77b4; stroke-width: 1.5"/>
    <path d="M 140.557443 90.492954 
L 140.557443 75.563107 
" clip-path="url(#p3e659221f6)" style="fill: none; stroke: #1f77b4; stroke-width: 1.5"/>
    <path d="M 142.079261 70.168309 
L 142.079261 53.99267 
" clip-path="url(#p3e659221f6)" style="fill: none; stroke: #1f77b4; stroke-width: 1.5"/>
    <path d="M 143.60108 68.71372 
L 143.60108 52.601289 
" clip-path="url(#p3e659221f6)" style="fill: none; stroke: #1f77b4; stroke-width: 1.5"/>
    <path d="M 145.122898 68.998695 
L 145.122898 53.052019 
" clip-path="url(#p3e659221f6)" style="fill: none; stroke: #1f77b4; stroke-width: 1.5"/>
    <path d="M 146.644716 77.328798 
L 146.644716 61.80466 
" clip-path="url(#p3e659221f6)" style="fill: none; stroke: #1f77b4; stroke-width: 1.5"/>
    <path d="M 148.166534 68.697355 
L 148.166534 52.322528 
" clip-path="url(#p3e659221f6)" style="fill: none; stroke: #1f77b4; stroke-width: 1.5"/>
    <path d="M 149.688352 62.772834 
L 149.688352 46.155002 
" clip-path="url(#p3e659221f6)" style="fill: none; stroke: #1f77b4; stroke-width: 1.5"/>
    <path d="M 151.21017 73.538864 
L 151.21017 57.902918 
" clip-path="url(#p3e659221f6)" style="fill: none; stroke: #1f77b4; stroke-width: 1.5"/>
    <path d="M 152.731989 68.751194 
L 152.731989 52.681631 
" clip-path="url(#p3e659221f6)" style="fill: none; stroke: #1f77b4; stroke-width: 1.5"/>
    <path d="M 154.253807 72.026796 
L 154.253807 55.732212 
" clip-path="url(#p3e659221f6)" style="fill: none; stroke: #1f77b4; stroke-width: 1.5"/>
    <path d="M 155.775625 84.4773 
L 155.775625 69.499244 
" clip-path="url(#p3e659221f6)" style="fill: none; stroke: #1f77b4; stroke-width: 1.5"/>
    <path d="M 157.297443 79.249425 
L 157.297443 63.892481 
" clip-path="url(#p3e659221f6)" style="fill: none; stroke: #1f77b4; stroke-width: 1.5"/>
    <path d="M 158.819261 81.820967 
L 158.819261 66.638093 
" clip-path="url(#p3e659221f6)" style="fill: none; stroke: #1f77b4; stroke-width: 1.5"/>
    <path d="M 160.34108 81.55941 
L 160.34108 66.261519 
" clip-path="url(#p3e659221f6)" style="fill: none; stroke: #1f77b4; stroke-width: 1.5"/>
    <path d="M 161.862898 76.088531 
L 161.862898 60.50926 
" clip-path="url(#p3e659221f6)" style="fill: none; stroke: #1f77b4; stroke-width: 1.5"/>
    <path d="M 163.384716 77.785274 
L 163.384716 62.334144 
" clip-path="url(#p3e659221f6)" style="fill: none; stroke: #1f77b4; stroke-width: 1.5"/>
    <path d="M 164.906534 89.750176 
L 164.906534 75.137211 
" clip-path="url(#p3e659221f6)" style="fill: none; stroke: #1f77b4; stroke-width: 1.5"/>
    <path d="M 166.428352 75.406897 
L 166.428352 59.565039 
" clip-path="url(#p3e659221f6)" style="fill: none; stroke: #1f77b4; stroke-width: 1.5"/>
    <path d="M 167.95017 84.101865 
L 167.95017 69.321751 
" clip-path="url(#p3e659221f6)" style="fill: none; stroke: #1f77b4; stroke-width: 1.5"/>
    <path d="M 169.471989 94.61268 
L 169.471989 80.44711 
" clip-path="url(#p3e659221f6)" style="fill: none; stroke: #1f77b4; stroke-width: 1.5"/>
    <path d="M 170.993807 94.72129 
L 170.993807 80.631481 
" clip-path="url(#p3e659221f6)" style="fill: none; stroke: #1f77b4; stroke-width: 1.5"/>
    <path d="M 172.515625 86.409722 
L 172.515625 71.453004 
" clip-path="url(#p3e659221f6)" style="fill: none; stroke: #1f77b4; stroke-width: 1.5"/>
    <path d="M 174.037443 90.518369 
L 174.037443 76.023589 
" clip-path="url(#p3e659221f6)" style="fill: none; stroke: #1f77b4; stroke-width: 1.5"/>
    <path d="M 175.559261 86.597179 
L 175.559261 71.68308 
" clip-path="url(#p3e659221f6)" style="fill: none; stroke: #1f77b4; stroke-width: 1.5"/>
    <path d="M 177.08108 77.204137 
L 177.08108 61.647351 
" clip-path="url(#p3e659221f6)" style="fill: none; stroke: #1f77b4; stroke-width: 1.5"/>
    <path d="M 178.602898 90.688271 
L 178.602898 76.424646 
" clip-path="url(#p3e659221f6)" style="fill: none; stroke: #1f77b4; stroke-width: 1.5"/>
    <path d="M 180.124716 74.906611 
L 180.124716 59.61684 
" clip-path="url(#p3e659221f6)" style="fill: none; stroke: #1f77b4; stroke-width: 1.5"/>
    <path d="M 181.646534 79.718035 
L 181.646534 64.539003 
" clip-path="url(#p3e659221f6)" style="fill: none; stroke: #1f77b4; stroke-width: 1.5"/>
    <path d="M 183.168352 78.564724 
L 183.168352 63.16137 
" clip-path="url(#p3e659221f6)" style="fill: none; stroke: #1f77b4; stroke-width: 1.5"/>
    <path d="M 184.69017 83.272363 
L 184.69017 68.372894 
" clip-path="url(#p3e659221f6)" style="fill: none; stroke: #1f77b4; stroke-width: 1.5"/>
    <path d="M 186.211989 80.484056 
L 186.211989 65.404217 
" clip-path="url(#p3e659221f6)" style="fill: none; stroke: #1f77b4; stroke-width: 1.5"/>
    <path d="M 187.733807 77.983778 
L 187.733807 62.683362 
" clip-path="url(#p3e659221f6)" style="fill: none; stroke: #1f77b4; stroke-width: 1.5"/>
    <path d="M 189.255625 98.276633 
L 189.255625 84.810094 
" clip-path="url(#p3e659221f6)" style="fill: none; stroke: #1f77b4; stroke-width: 1.5"/>
    <path d="M 190.777443 89.948537 
L 190.777443 75.670856 
" clip-path="url(#p3e659221f6)" style="fill: none; stroke: #1f77b4; stroke-width: 1.5"/>
    <path d="M 192.299261 79.242321 
L 192.299261 64.372265 
" clip-path="url(#p3e659221f6)" style="fill: none; stroke: #1f77b4; stroke-width: 1.5"/>
    <path d="M 193.82108 88.495519 
L 193.82108 74.097145 
" clip-path="url(#p3e659221f6)" style="fill: none; stroke: #1f77b4; stroke-width: 1.5"/>
    <path d="M 195.342898 94.22802 
L 195.342898 80.405927 
" clip-path="url(#p3e659221f6)" style="fill: none; stroke: #1f77b4; stroke-width: 1.5"/>
    <path d="M 196.864716 93.292101 
L 196.864716 79.536653 
" clip-path="url(#p3e659221f6)" style="fill: none; stroke: #1f77b4; stroke-width: 1.5"/>
    <path d="M 198.386534 93.548505 
L 198.386534 79.47236 
" clip-path="url(#p3e659221f6)" style="fill: none; stroke: #1f77b4; stroke-width: 1.5"/>
    <path d="M 199.908352 94.82578 
L 199.908352 80.698904 
" clip-path="url(#p3e659221f6)" style="fill: none; stroke: #1f77b4; stroke-width: 1.5"/>
    <path d="M 201.43017 98.680576 
L 201.43017 85.350291 
" clip-path="url(#p3e659221f6)" style="fill: none; stroke: #1f77b4; stroke-width: 1.5"/>
    <path d="M 202.951989 81.716776 
L 202.951989 67.013378 
" clip-path="url(#p3e659221f6)" style="fill: none; stroke: #1f77b4; stroke-width: 1.5"/>
    <path d="M 204.473807 79.302388 
L 204.473807 64.291005 
" clip-path="url(#p3e659221f6)" style="fill: none; stroke: #1f77b4; stroke-width: 1.5"/>
    <path d="M 205.995625 101.682558 
L 205.995625 88.65312 
" clip-path="url(#p3e659221f6)" style="fill: none; stroke: #1f77b4; stroke-width: 1.5"/>
    <path d="M 207.517443 87.595447 
L 207.517443 73.635262 
" clip-path="url(#p3e659221f6)" style="fill: none; stroke: #1f77b4; stroke-width: 1.5"/>
    <path d="M 209.039261 94.703655 
L 209.039261 80.886841 
" clip-path="url(#p3e659221f6)" style="fill: none; stroke: #1f77b4; stroke-width: 1.5"/>
    <path d="M 210.56108 96.198595 
L 210.56108 82.584034 
" clip-path="url(#p3e659221f6)" style="fill: none; stroke: #1f77b4; stroke-width: 1.5"/>
    <path d="M 212.082898 82.749796 
L 212.082898 68.075793 
" clip-path="url(#p3e659221f6)" style="fill: none; stroke: #1f77b4; stroke-width: 1.5"/>
    <path d="M 213.604716 91.678349 
L 213.604716 77.592359 
" clip-path="url(#p3e659221f6)" style="fill: none; stroke: #1f77b4; stroke-width: 1.5"/>
    <path d="M 215.126534 94.634423 
L 215.126534 81.040647 
" clip-path="url(#p3e659221f6)" style="fill: none; stroke: #1f77b4; stroke-width: 1.5"/>
    <path d="M 216.648352 103.41347 
L 216.648352 90.206986 
" clip-path="url(#p3e659221f6)" style="fill: none; stroke: #1f77b4; stroke-width: 1.5"/>
    <path d="M 218.17017 112.447859 
L 218.17017 100.106942 
" clip-path="url(#p3e659221f6)" style="fill: none; stroke: #1f77b4; stroke-width: 1.5"/>
    <path d="M 219.691989 102.086084 
L 219.691989 88.766953 
" clip-path="url(#p3e659221f6)" style="fill: none; stroke: #1f77b4; stroke-width: 1.5"/>
    <path d="M 221.213807 91.225622 
L 221.213807 77.17737 
" clip-path="url(#p3e659221f6)" style="fill: none; stroke: #1f77b4; stroke-width: 1.5"/>
    <path d="M 222.735625 92.562698 
L 222.735625 79.113606 
" clip-path="url(#p3e659221f6)" style="fill: none; stroke: #1f77b4; stroke-width: 1.5"/>
    <path d="M 224.257443 88.958467 
L 224.257443 74.945806 
" clip-path="url(#p3e659221f6)" style="fill: none; stroke: #1f77b4; stroke-width: 1.5"/>
    <path d="M 225.779261 112.623081 
L 225.779261 100.1294 
" clip-path="url(#p3e659221f6)" style="fill: none; stroke: #1f77b4; stroke-width: 1.5"/>
    <path d="M 227.30108 81.636392 
L 227.30108 66.946943 
" clip-path="url(#p3e659221f6)" style="fill: none; stroke: #1f77b4; stroke-width: 1.5"/>
    <path d="M 228.822898 102.839097 
L 228.822898 89.776821 
" clip-path="url(#p3e659221f6)" style="fill: none; stroke: #1f77b4; stroke-width: 1.5"/>
    <path d="M 230.344716 97.016048 
L 230.344716 83.426285 
" clip-path="url(#p3e659221f6)" style="fill: none; stroke: #1f77b4; stroke-width: 1.5"/>
    <path d="M 231.866534 102.440977 
L 231.866534 89.761214 
" clip-path="url(#p3e659221f6)" style="fill: none; stroke: #1f77b4; stroke-width: 1.5"/>
    <path d="M 233.388352 98.511638 
L 233.388352 85.031512 
" clip-path="url(#p3e659221f6)" style="fill: none; stroke: #1f77b4; stroke-width: 1.5"/>
    <path d="M 234.91017 115.22024 
L 234.91017 103.338075 
" clip-path="url(#p3e659221f6)" style="fill: none; stroke: #1f77b4; stroke-width: 1.5"/>
    <path d="M 236.431989 93.540666 
L 236.431989 79.846453 
" clip-path="url(#p3e659221f6)" style="fill: none; stroke: #1f77b4; stroke-width: 1.5"/>
    <path d="M 237.953807 106.089152 
L 237.953807 93.294178 
" clip-path="url(#p3e659221f6)" style="fill: none; stroke: #1f77b4; stroke-width: 1.5"/>
    <path d="M 239.475625 101.833606 
L 239.475625 88.960339 
" clip-path="url(#p3e659221f6)" style="fill: none; stroke: #1f77b4; stroke-width: 1.5"/>
    <path d="M 240.997443 110.572306 
L 240.997443 98.553497 
" clip-path="url(#p3e659221f6)" style="fill: none; stroke: #1f77b4; stroke-width: 1.5"/>
    <path d="M 242.519261 100.786757 
L 242.519261 87.612787 
" clip-path="url(#p3e659221f6)" style="fill: none; stroke: #1f77b4; stroke-width: 1.5"/>
    <path d="M 244.04108 106.514691 
L 244.04108 93.661813 
" clip-path="url(#p3e659221f6)" style="fill: none; stroke: #1f77b4; stroke-width: 1.5"/>
    <path d="M 245.562898 99.351411 
L 245.562898 86.374662 
" clip-path="url(#p3e659221f6)" style="fill: none; stroke: #1f77b4; stroke-width: 1.5"/>
    <path d="M 247.084716 107.890317 
L 247.084716 95.449128 
" clip-path="url(#p3e659221f6)" style="fill: none; stroke: #1f77b4; stroke-width: 1.5"/>
    <path d="M 248.606534 101.6193 
L 248.606534 88.763138 
" clip-path="url(#p3e659221f6)" style="fill: none; stroke: #1f77b4; stroke-width: 1.5"/>
    <path d="M 250.128352 111.464602 
L 250.128352 98.842371 
" clip-path="url(#p3e659221f6)" style="fill: none; stroke: #1f77b4; stroke-width: 1.5"/>
    <path d="M 251.65017 100.847265 
L 251.65017 87.725731 
" clip-path="url(#p3e659221f6)" style="fill: none; stroke: #1f77b4; stroke-width: 1.5"/>
    <path d="M 253.171989 108.454821 
L 253.171989 95.997409 
" clip-path="url(#p3e659221f6)" style="fill: none; stroke: #1f77b4; stroke-width: 1.5"/>
    <path d="M 254.693807 104.727752 
L 254.693807 92.157207 
" clip-path="url(#p3e659221f6)" style="fill: none; stroke: #1f77b4; stroke-width: 1.5"/>
    <path d="M 256.215625 105.127865 
L 256.215625 92.428152 
" clip-path="url(#p3e659221f6)" style="fill: none; stroke: #1f77b4; stroke-width: 1.5"/>
    <path d="M 257.737443 96.261545 
L 257.737443 82.974235 
" clip-path="url(#p3e659221f6)" style="fill: none; stroke: #1f77b4; stroke-width: 1.5"/>
    <path d="M 259.259261 123.809005 
L 259.259261 112.842754 
" clip-path="url(#p3e659221f6)" style="fill: none; stroke: #1f77b4; stroke-width: 1.5"/>
    <path d="M 260.78108 111.989699 
L 260.78108 100.156691 
" clip-path="url(#p3e659221f6)" style="fill: none; stroke: #1f77b4; stroke-width: 1.5"/>
    <path d="M 262.302898 112.166328 
L 262.302898 100.243163 
" clip-path="url(#p3e659221f6)" style="fill: none; stroke: #1f77b4; stroke-width: 1.5"/>
    <path d="M 263.824716 105.130516 
L 263.824716 92.766429 
" clip-path="url(#p3e659221f6)" style="fill: none; stroke: #1f77b4; stroke-width: 1.5"/>
    <path d="M 265.346534 110.64359 
L 265.346534 98.490075 
" clip-path="url(#p3e659221f6)" style="fill: none; stroke: #1f77b4; stroke-width: 1.5"/>
    <path d="M 266.868352 113.65492 
L 266.868352 101.905469 
" clip-path="url(#p3e659221f6)" style="fill: none; stroke: #1f77b4; stroke-width: 1.5"/>
    <path d="M 268.39017 106.718519 
L 268.39017 94.639402 
" clip-path="url(#p3e659221f6)" style="fill: none; stroke: #1f77b4; stroke-width: 1.5"/>
    <path d="M 269.911989 119.725854 
L 269.911989 107.740188 
" clip-path="url(#p3e659221f6)" style="fill: none; stroke: #1f77b4; stroke-width: 1.5"/>
    <path d="M 271.433807 112.068835 
L 271.433807 100.405598 
" clip-path="url(#p3e659221f6)" style="fill: none; stroke: #1f77b4; stroke-width: 1.5"/>
    <path d="M 272.955625 101.219298 
L 272.955625 88.340261 
" clip-path="url(#p3e659221f6)" style="fill: none; stroke: #1f77b4; stroke-width: 1.5"/>
    <path d="M 274.477443 103.607879 
L 274.477443 91.082003 
" clip-path="url(#p3e659221f6)" style="fill: none; stroke: #1f77b4; stroke-width: 1.5"/>
    <path d="M 275.999261 120.687786 
L 275.999261 109.270523 
" clip-path="url(#p3e659221f6)" style="fill: none; stroke: #1f77b4; stroke-width: 1.5"/>
    <path d="M 277.52108 107.164071 
L 277.52108 95.154543 
" clip-path="url(#p3e659221f6)" style="fill: none; stroke: #1f77b4; stroke-width: 1.5"/>
    <path d="M 279.042898 120.940226 
L 279.042898 109.661361 
" clip-path="url(#p3e659221f6)" style="fill: none; stroke: #1f77b4; stroke-width: 1.5"/>
    <path d="M 280.564716 104.530406 
L 280.564716 92.074802 
" clip-path="url(#p3e659221f6)" style="fill: none; stroke: #1f77b4; stroke-width: 1.5"/>
    <path d="M 282.086534 113.328569 
L 282.086534 101.393269 
" clip-path="url(#p3e659221f6)" style="fill: none; stroke: #1f77b4; stroke-width: 1.5"/>
    <path d="M 283.608352 109.648264 
L 283.608352 97.640722 
" clip-path="url(#p3e659221f6)" style="fill: none; stroke: #1f77b4; stroke-width: 1.5"/>
    <path d="M 285.13017 117.150436 
L 285.13017 105.529927 
" clip-path="url(#p3e659221f6)" style="fill: none; stroke: #1f77b4; stroke-width: 1.5"/>
    <path d="M 286.651989 116.669572 
L 286.651989 105.096757 
" clip-path="url(#p3e659221f6)" style="fill: none; stroke: #1f77b4; stroke-width: 1.5"/>
    <path d="M 288.173807 122.466471 
L 288.173807 111.420019 
" clip-path="url(#p3e659221f6)" style="fill: none; stroke: #1f77b4; stroke-width: 1.5"/>
    <path d="M 289.695625 110.543737 
L 289.695625 99.191991 
" clip-path="url(#p3e659221f6)" style="fill: none; stroke: #1f77b4; stroke-width: 1.5"/>
    <path d="M 291.217443 115.490824 
L 291.217443 103.882293 
" clip-path="url(#p3e659221f6)" style="fill: none; stroke: #1f77b4; stroke-width: 1.5"/>
    <path d="M 292.739261 123.727738 
L 292.739261 113.138211 
" clip-path="url(#p3e659221f6)" style="fill: none; stroke: #1f77b4; stroke-width: 1.5"/>
    <path d="M 294.26108 126.430854 
L 294.26108 115.448992 
" clip-path="url(#p3e659221f6)" style="fill: none; stroke: #1f77b4; stroke-width: 1.5"/>
    <path d="M 295.782898 108.408721 
L 295.782898 96.403261 
" clip-path="url(#p3e659221f6)" style="fill: none; stroke: #1f77b4; stroke-width: 1.5"/>
    <path d="M 297.304716 120.807497 
L 297.304716 109.594039 
" clip-path="url(#p3e659221f6)" style="fill: none; stroke: #1f77b4; stroke-width: 1.5"/>
    <path d="M 298.826534 120.704425 
L 298.826534 109.561578 
" clip-path="url(#p3e659221f6)" style="fill: none; stroke: #1f77b4; stroke-width: 1.5"/>
    <path d="M 300.348352 116.231167 
L 300.348352 104.894082 
" clip-path="url(#p3e659221f6)" style="fill: none; stroke: #1f77b4; stroke-width: 1.5"/>
    <path d="M 301.87017 123.351343 
L 301.87017 112.496551 
" clip-path="url(#p3e659221f6)" style="fill: none; stroke: #1f77b4; stroke-width: 1.5"/>
    <path d="M 303.391989 121.836439 
L 303.391989 110.82979 
" clip-path="url(#p3e659221f6)" style="fill: none; stroke: #1f77b4; stroke-width: 1.5"/>
    <path d="M 304.913807 122.186301 
L 304.913807 111.310011 
" clip-path="url(#p3e659221f6)" style="fill: none; stroke: #1f77b4; stroke-width: 1.5"/>
    <path d="M 306.435625 123.973201 
L 306.435625 112.779918 
" clip-path="url(#p3e659221f6)" style="fill: none; stroke: #1f77b4; stroke-width: 1.5"/>
    <path d="M 307.957443 116.583009 
L 307.957443 105.33877 
" clip-path="url(#p3e659221f6)" style="fill: none; stroke: #1f77b4; stroke-width: 1.5"/>
    <path d="M 309.479261 123.970319 
L 309.479261 113.467709 
" clip-path="url(#p3e659221f6)" style="fill: none; stroke: #1f77b4; stroke-width: 1.5"/>
    <path d="M 311.00108 123.275797 
L 311.00108 112.604875 
" clip-path="url(#p3e659221f6)" style="fill: none; stroke: #1f77b4; stroke-width: 1.5"/>
    <path d="M 312.522898 125.772422 
L 312.522898 115.208295 
" clip-path="url(#p3e659221f6)" style="fill: none; stroke: #1f77b4; stroke-width: 1.5"/>
    <path d="M 314.044716 114.484315 
L 314.044716 103.120211 
" clip-path="url(#p3e659221f6)" style="fill: none; stroke: #1f77b4; stroke-width: 1.5"/>
    <path d="M 315.566534 124.856074 
L 315.566534 114.315958 
" clip-path="url(#p3e659221f6)" style="fill: none; stroke: #1f77b4; stroke-width: 1.5"/>
    <path d="M 317.088352 120.119828 
L 317.088352 109.14331 
" clip-path="url(#p3e659221f6)" style="fill: none; stroke: #1f77b4; stroke-width: 1.5"/>
    <path d="M 318.61017 120.431889 
L 318.61017 109.344309 
" clip-path="url(#p3e659221f6)" style="fill: none; stroke: #1f77b4; stroke-width: 1.5"/>
    <path d="M 320.131989 124.068 
L 320.131989 113.377861 
" clip-path="url(#p3e659221f6)" style="fill: none; stroke: #1f77b4; stroke-width: 1.5"/>
    <path d="M 321.653807 115.328528 
L 321.653807 104.359509 
" clip-path="url(#p3e659221f6)" style="fill: none; stroke: #1f77b4; stroke-width: 1.5"/>
    <path d="M 323.175625 122.716208 
L 323.175625 111.861426 
" clip-path="url(#p3e659221f6)" style="fill: none; stroke: #1f77b4; stroke-width: 1.5"/>
    <path d="M 324.697443 120.061686 
L 324.697443 109.086329 
" clip-path="url(#p3e659221f6)" style="fill: none; stroke: #1f77b4; stroke-width: 1.5"/>
    <path d="M 326.219261 132.277478 
L 326.219261 122.52186 
" clip-path="url(#p3e659221f6)" style="fill: none; stroke: #1f77b4; stroke-width: 1.5"/>
    <path d="M 327.74108 123.691348 
L 327.74108 113.052411 
" clip-path="url(#p3e659221f6)" style="fill: none; stroke: #1f77b4; stroke-width: 1.5"/>
    <path d="M 329.262898 133.467005 
L 329.262898 122.966436 
" clip-path="url(#p3e659221f6)" style="fill: none; stroke: #1f77b4; stroke-width: 1.5"/>
    <path d="M 330.784716 145.481808 
L 330.784716 135.673998 
" clip-path="url(#p3e659221f6)" style="fill: none; stroke: #1f77b4; stroke-width: 1.5"/>
    <path d="M 332.306534 157.517468 
L 332.306534 148.584951 
" clip-path="url(#p3e659221f6)" style="fill: none; stroke: #1f77b4; stroke-width: 1.5"/>
    <path d="M 333.828352 160.540485 
L 333.828352 151.971405 
" clip-path="url(#p3e659221f6)" style="fill: none; stroke: #1f77b4; stroke-width: 1.5"/>
    <path d="M 335.35017 179.488795 
L 335.35017 172.909679 
" clip-path="url(#p3e659221f6)" style="fill: none; stroke: #1f77b4; stroke-width: 1.5"/>
    <path d="M 336.871989 191.311096 
L 336.871989 185.652504 
" clip-path="url(#p3e659221f6)" style="fill: none; stroke: #1f77b4; stroke-width: 1.5"/>
    <path d="M 338.393807 196.757418 
L 338.393807 191.718938 
" clip-path="url(#p3e659221f6)" style="fill: none; stroke: #1f77b4; stroke-width: 1.5"/>
    <path d="M 339.915625 209.070605 
L 339.915625 206.524418 
" clip-path="url(#p3e659221f6)" style="fill: none; stroke: #1f77b4; stroke-width: 1.5"/>
    <path d="M 341.437443 214.922375 
L 341.437443 213.769754 
" clip-path="url(#p3e659221f6)" style="fill: none; stroke: #1f77b4; stroke-width: 1.5"/>
    <path d="M 342.959261 217.657485 
L 342.959261 217.309939 
" clip-path="url(#p3e659221f6)" style="fill: none; stroke: #1f77b4; stroke-width: 1.5"/>
    <path d="M 344.48108 218.279276 
L 344.48108 218.117523 
" clip-path="url(#p3e659221f6)" style="fill: none; stroke: #1f77b4; stroke-width: 1.5"/>
    <path d="M 346.002898 218.729512 
L 346.002898 218.685836 
" clip-path="url(#p3e659221f6)" style="fill: none; stroke: #1f77b4; stroke-width: 1.5"/>
    <path d="M 347.524716 218.789797 
L 347.524716 218.762468 
" clip-path="url(#p3e659221f6)" style="fill: none; stroke: #1f77b4; stroke-width: 1.5"/>
    <path d="M 349.046534 218.849787 
L 349.046534 218.840473 
" clip-path="url(#p3e659221f6)" style="fill: none; stroke: #1f77b4; stroke-width: 1.5"/>
    <path d="M 350.568352 218.864131 
L 350.568352 218.859994 
" clip-path="url(#p3e659221f6)" style="fill: none; stroke: #1f77b4; stroke-width: 1.5"/>
    <path d="M 352.09017 218.873909 
L 352.09017 218.871045 
" clip-path="url(#p3e659221f6)" style="fill: none; stroke: #1f77b4; stroke-width: 1.5"/>
    <path d="M 353.611989 218.877771 
L 353.611989 218.876383 
" clip-path="url(#p3e659221f6)" style="fill: none; stroke: #1f77b4; stroke-width: 1.5"/>
    <path d="M 355.133807 218.87922 
L 355.133807 218.878917 
" clip-path="url(#p3e659221f6)" style="fill: none; stroke: #1f77b4; stroke-width: 1.5"/>
    <path d="M 356.655625 218.879567 
L 356.655625 218.879363 
" clip-path="url(#p3e659221f6)" style="fill: none; stroke: #1f77b4; stroke-width: 1.5"/>
    <path d="M 358.177443 218.879837 
L 358.177443 218.879609 
" clip-path="url(#p3e659221f6)" style="fill: none; stroke: #1f77b4; stroke-width: 1.5"/>
    <path d="M 359.699261 218.879934 
L 359.699261 218.879885 
" clip-path="url(#p3e659221f6)" style="fill: none; stroke: #1f77b4; stroke-width: 1.5"/>
    <path d="M 361.22108 218.879955 
L 361.22108 218.879898 
" clip-path="url(#p3e659221f6)" style="fill: none; stroke: #1f77b4; stroke-width: 1.5"/>
    <path d="M 362.742898 218.879993 
L 362.742898 218.879981 
" clip-path="url(#p3e659221f6)" style="fill: none; stroke: #1f77b4; stroke-width: 1.5"/>
    <path d="M 364.264716 218.879998 
L 364.264716 218.879991 
" clip-path="url(#p3e659221f6)" style="fill: none; stroke: #1f77b4; stroke-width: 1.5"/>
    <path d="M 365.786534 218.88 
L 365.786534 218.879999 
" clip-path="url(#p3e659221f6)" style="fill: none; stroke: #1f77b4; stroke-width: 1.5"/>
   </g>
   <g id="patch_3">
    <path d="M 46.965625 228.96 
L 46.965625 7.2 
" style="fill: none; stroke: #000000; stroke-width: 0.8; stroke-linejoin: miter; stroke-linecap: square"/>
   </g>
   <g id="patch_4">
    <path d="M 381.765625 228.96 
L 381.765625 7.2 
" style="fill: none; stroke: #000000; stroke-width: 0.8; stroke-linejoin: miter; stroke-linecap: square"/>
   </g>
   <g id="patch_5">
    <path d="M 46.965625 228.96 
L 381.765625 228.96 
" style="fill: none; stroke: #000000; stroke-width: 0.8; stroke-linejoin: miter; stroke-linecap: square"/>
   </g>
   <g id="patch_6">
    <path d="M 46.965625 7.2 
L 381.765625 7.2 
" style="fill: none; stroke: #000000; stroke-width: 0.8; stroke-linejoin: miter; stroke-linecap: square"/>
   </g>
  </g>
 </g>
 <defs>
  <clipPath id="p3e659221f6">
   <rect x="46.965625" y="7.2" width="334.8" height="221.76"/>
  </clipPath>
 </defs>
</svg>