<?xml version="1.0" encoding="UTF-8" standalone="no"?>
<!DOCTYPE svg PUBLIC "-//W3C//DTD SVG 1.1//EN"
 "http://www.w3.org/Graphics/SVG/1.1/DTD/svg11.dtd">
<!-- Generated by graphviz version 2.43.0 (0)
 -->
<!-- Title: %3 Pages: 1 -->
<svg width="372pt" height="307pt"
 viewBox="0.00 0.00 372.00 307.00" xmlns="http://www.w3.org/2000/svg" xmlns:xlink="http://www.w3.org/1999/xlink">
<g id="graph0" class="graph" transform="scale(1 1) rotate(0) translate(4 303)">
<title>%3</title>
<polygon fill="white" stroke="transparent" points="-4,4 -4,-303 368,-303 368,4 -4,4"/>
<!-- BinWidth -->
<g id="node1" class="node">
<title>BinWidth</title>
<polygon fill="none" stroke="red" stroke-dasharray="5,2" points="83,-97 0,-97 0,-74 83,-74 83,-97"/>
<text text-anchor="middle" x="41.5" y="-81.8" font-family="Times,serif" font-size="14.00" fill="red">BinWidth</text>
</g>
<!-- EnergyTransferHistogram -->
<g id="node5" class="node">
<title>EnergyTransferHistogram</title>
<polygon fill="none" stroke="black" points="209,-33 4,-33 4,0 209,0 209,-33"/>
<text text-anchor="start" x="12" y="-18.8" font-family="Times,serif" font-size="14.00">EnergyTransferHistogram</text>
<text text-anchor="start" x="59" y="-7.2" font-family="Times,serif" font-size="11.00">via:</text>
<text text-anchor="start" x="80" y="-7.2" font-family="Times,serif" font-style="italic" font-size="11.00">to_histogram</text>
</g>
<!-- BinWidth&#45;&gt;EnergyTransferHistogram -->
<g id="edge4" class="edge">
<title>BinWidth&#45;&gt;EnergyTransferHistogram</title>
<path fill="none" stroke="black" d="M51.94,-73.74C60.57,-64.84 73.13,-51.89 84.03,-40.66"/>
<polygon fill="black" stroke="black" points="86.78,-42.85 91.23,-33.23 81.76,-37.98 86.78,-42.85"/>
</g>
<!-- CoordTransformGraph -->
<g id="node2" class="node">
<title>CoordTransformGraph</title>
<polygon fill="none" stroke="red" stroke-dasharray="5,2" points="178.5,-166 0.5,-166 0.5,-143 178.5,-143 178.5,-166"/>
<text text-anchor="middle" x="89.5" y="-150.8" font-family="Times,serif" font-size="14.00" fill="red">CoordTransformGraph</text>
</g>
<!-- EnergyTransferData -->
<g id="node4" class="node">
<title>EnergyTransferData</title>
<polygon fill="none" stroke="black" points="253,-102 90,-102 90,-69 253,-69 253,-102"/>
<text text-anchor="start" x="98" y="-87.8" font-family="Times,serif" font-size="14.00">EnergyTransferData</text>
<text text-anchor="start" x="108" y="-76.2" font-family="Times,serif" font-size="11.00">via:</text>
<text text-anchor="start" x="129" y="-76.2" font-family="Times,serif" font-style="italic" font-size="11.00">to_energy_transfer</text>
</g>
<!-- CoordTransformGraph&#45;&gt;EnergyTransferData -->
<g id="edge2" class="edge">
<title>CoordTransformGraph&#45;&gt;EnergyTransferData</title>
<path fill="none" stroke="black" d="M102.67,-142.74C113.88,-133.58 130.33,-120.14 144.33,-108.7"/>
<polygon fill="black" stroke="black" points="146.71,-111.27 152.24,-102.23 142.28,-105.85 146.71,-111.27"/>
</g>
<!-- MaskedData -->
<g id="node3" class="node">
<title>MaskedData</title>
<polygon fill="none" stroke="black" points="319.5,-171 185.5,-171 185.5,-138 319.5,-138 319.5,-171"/>
<text text-anchor="start" x="207.5" y="-156.8" font-family="Times,serif" font-size="14.00">MaskedData</text>
<text text-anchor="start" x="193.5" y="-145.2" font-family="Times,serif" font-size="11.00">via:</text>
<text text-anchor="start" x="214.5" y="-145.2" font-family="Times,serif" font-style="italic" font-size="11.00">mask_bad_region</text>
</g>
<!-- MaskedData&#45;&gt;EnergyTransferData -->
<g id="edge1" class="edge">
<title>MaskedData&#45;&gt;EnergyTransferData</title>
<path fill="none" stroke="black" d="M233.71,-137.96C223.16,-129.23 209.81,-118.19 198.18,-108.57"/>
<polygon fill="black" stroke="black" points="200.4,-105.86 190.47,-102.19 195.94,-111.26 200.4,-105.86"/>
</g>
<!-- EnergyTransferData&#45;&gt;EnergyTransferHistogram -->
<g id="edge3" class="edge">
<title>EnergyTransferData&#45;&gt;EnergyTransferHistogram</title>
<path fill="none" stroke="black" d="M156.42,-68.96C148.26,-60.54 138,-49.97 128.92,-40.61"/>
<polygon fill="black" stroke="black" points="131.42,-38.16 121.95,-33.42 126.4,-43.04 131.42,-38.16"/>
</g>
<!-- Foldername -->
<g id="node6" class="node">
<title>Foldername</title>
<polygon fill="none" stroke="red" stroke-dasharray="5,2" points="250,-299 149,-299 149,-276 250,-276 250,-299"/>
<text text-anchor="middle" x="199.5" y="-283.8" font-family="Times,serif" font-size="14.00" fill="red">Foldername</text>
</g>
<!-- RawData -->
<g id="node7" class="node">
<title>RawData</title>
<polygon fill="none" stroke="black" points="240,-240 159,-240 159,-207 240,-207 240,-240"/>
<text text-anchor="start" x="167" y="-225.8" font-family="Times,serif" font-size="14.00">RawData</text>
<text text-anchor="start" x="176.5" y="-214.2" font-family="Times,serif" font-size="11.00">via:</text>
<text text-anchor="start" x="197.5" y="-214.2" font-family="Times,serif" font-style="italic" font-size="11.00">load</text>
</g>
<!-- Foldername&#45;&gt;RawData -->
<g id="edge7" class="edge">
<title>Foldername&#45;&gt;RawData</title>
<path fill="none" stroke="black" d="M199.5,-275.98C199.5,-268.93 199.5,-259.32 199.5,-250.31"/>
<polygon fill="black" stroke="black" points="203,-250.2 199.5,-240.2 196,-250.2 203,-250.2"/>
</g>
<!-- RawData&#45;&gt;MaskedData -->
<g id="edge5" class="edge">
<title>RawData&#45;&gt;MaskedData</title>
<path fill="none" stroke="black" d="M211.79,-206.96C218.25,-198.79 226.32,-188.6 233.56,-179.45"/>
<polygon fill="black" stroke="black" points="236.45,-181.43 239.91,-171.42 230.96,-177.09 236.45,-181.43"/>
</g>
<!-- MaskedRange -->
<g id="node8" class="node">
<title>MaskedRange</title>
<polygon fill="none" stroke="red" stroke-dasharray="5,2" points="364,-235 247,-235 247,-212 364,-212 364,-235"/>
<text text-anchor="middle" x="305.5" y="-219.8" font-family="Times,serif" font-size="14.00" fill="red">MaskedRange</text>
</g>
<!-- MaskedRange&#45;&gt;MaskedData -->
<g id="edge6" class="edge">
<title>MaskedRange&#45;&gt;MaskedData</title>
<path fill="none" stroke="black" d="M296.98,-211.74C290.08,-203.01 280.1,-190.39 271.34,-179.31"/>
<polygon fill="black" stroke="black" points="273.9,-176.91 264.95,-171.23 268.41,-181.25 273.9,-176.91"/>
</g>
</g>
</svg>