<?xml version="1.0" encoding="utf-8" standalone="no"?>
<!DOCTYPE svg PUBLIC "-//W3C//DTD SVG 1.1//EN"
  "http://www.w3.org/Graphics/SVG/1.1/DTD/svg11.dtd">
<svg xmlns:xlink="http://www.w3.org/1999/xlink" width="389.925279pt" height="266.51625pt" viewBox="0 0 389.925279 266.51625" xmlns="http://www.w3.org/2000/svg" version="1.1">
 <metadata>
  <rdf:RDF xmlns:dc="http://purl.org/dc/elements/1.1/" xmlns:cc="http://creativecommons.org/ns#" xmlns:rdf="http://www.w3.org/1999/02/22-rdf-syntax-ns#">
   <cc:Work>
    <dc:type rdf:resource="http://purl.org/dc/dcmitype/StillImage"/>
    <dc:date>2025-11-24T17:21:25.937981</dc:date>
    <dc:format>image/svg+xml</dc:format>
    <dc:creator>
     <cc:Agent>
      <dc:title>Matplotlib v3.10.5, https://matplotlib.org/</dc:title>
     </cc:Agent>
    </dc:creator>
   </cc:Work>
  </rdf:RDF>
 </metadata>
 <defs>
  <style type="text/css">*{stroke-linejoin: round; stroke-linecap: butt}</style>
 </defs>
 <g id="figure_1">
  <g id="patch_1">
   <path d="M 0 266.51625 
L 389.925279 266.51625 
L 389.925279 0 
L 0 0 
z
" style="fill: #ffffff"/>
  </g>
  <g id="axes_1">
   <g id="patch_2">
    <path d="M 45.478125 228.96 
L 380.278125 228.96 
L 380.278125 7.2 
L 45.478125 7.2 
z
" style="fill: #ffffff"/>
   </g>
   <g id="matplotlib.axis_1">
    <g id="xtick_1">
     <g id="line2d_1">
      <defs>
       <path id="mf966f2129c" d="M 0 0 
L 0 3.5 
" style="stroke: #000000; stroke-width: 0.8"/>
      </defs>
      <g>
       <use xlink:href="#mf966f2129c" x="50.982554" y="228.96" style="stroke: #000000; stroke-width: 0.8"/>
      </g>
     </g>
     <g id="text_1">
      <!-- 0.0 -->
      <g transform="translate(43.030992 243.558438) scale(0.1 -0.1)">
       <defs>
        <path id="DejaVuSans-30" d="M 2034 4250 
Q 1547 4250 1301 3770 
Q 1056 3291 1056 2328 
Q 1056 1369 1301 889 
Q 1547 409 2034 409 
Q 2525 409 2770 889 
Q 3016 1369 3016 2328 
Q 3016 3291 2770 3770 
Q 2525 4250 2034 4250 
z
M 2034 4750 
Q 2819 4750 3233 4129 
Q 3647 3509 3647 2328 
Q 3647 1150 3233 529 
Q 2819 -91 2034 -91 
Q 1250 -91 836 529 
Q 422 1150 422 2328 
Q 422 3509 836 4129 
Q 1250 4750 2034 4750 
z
" transform="scale(0.015625)"/>
        <path id="DejaVuSans-2e" d="M 684 794 
L 1344 794 
L 1344 0 
L 684 0 
L 684 794 
z
" transform="scale(0.015625)"/>
       </defs>
       <use xlink:href="#DejaVuSans-30"/>
       <use xlink:href="#DejaVuSans-2e" transform="translate(63.623047 0)"/>
       <use xlink:href="#DejaVuSans-30" transform="translate(95.410156 0)"/>
      </g>
     </g>
    </g>
    <g id="xtick_2">
     <g id="line2d_2">
      <g>
       <use xlink:href="#mf966f2129c" x="115.740787" y="228.96" style="stroke: #000000; stroke-width: 0.8"/>
      </g>
     </g>
     <g id="text_2">
      <!-- 0.1 -->
      <g transform="translate(107.789224 243.558438) scale(0.1 -0.1)">
       <defs>
        <path id="DejaVuSans-31" d="M 794 531 
L 1825 531 
L 1825 4091 
L 703 3866 
L 703 4441 
L 1819 4666 
L 2450 4666 
L 2450 531 
L 3481 531 
L 3481 0 
L 794 0 
L 794 531 
z
" transform="scale(0.015625)"/>
       </defs>
       <use xlink:href="#DejaVuSans-30"/>
       <use xlink:href="#DejaVuSans-2e" transform="translate(63.623047 0)"/>
       <use xlink:href="#DejaVuSans-31" transform="translate(95.410156 0)"/>
      </g>
     </g>
    </g>
    <g id="xtick_3">
     <g id="line2d_3">
      <g>
       <use xlink:href="#mf966f2129c" x="180.499019" y="228.96" style="stroke: #000000; stroke-width: 0.8"/>
      </g>
     </g>
     <g id="text_3">
      <!-- 0.2 -->
      <g transform="translate(172.547457 243.558438) scale(0.1 -0.1)">
       <defs>
        <path id="DejaVuSans-32" d="M 1228 531 
L 3431 531 
L 3431 0 
L 469 0 
L 469 531 
Q 828 903 1448 1529 
Q 2069 2156 2228 2338 
Q 2531 2678 2651 2914 
Q 2772 3150 2772 3378 
Q 2772 3750 2511 3984 
Q 2250 4219 1831 4219 
Q 1534 4219 1204 4116 
Q 875 4013 500 3803 
L 500 4441 
Q 881 4594 1212 4672 
Q 1544 4750 1819 4750 
Q 2544 4750 2975 4387 
Q 3406 4025 3406 3419 
Q 3406 3131 3298 2873 
Q 3191 2616 2906 2266 
Q 2828 2175 2409 1742 
Q 1991 1309 1228 531 
z
" transform="scale(0.015625)"/>
       </defs>
       <use xlink:href="#DejaVuSans-30"/>
       <use xlink:href="#DejaVuSans-2e" transform="translate(63.623047 0)"/>
       <use xlink:href="#DejaVuSans-32" transform="translate(95.410156 0)"/>
      </g>
     </g>
    </g>
    <g id="xtick_4">
     <g id="line2d_4">
      <g>
       <use xlink:href="#mf966f2129c" x="245.257252" y="228.96" style="stroke: #000000; stroke-width: 0.8"/>
      </g>
     </g>
     <g id="text_4">
      <!-- 0.3 -->
      <g transform="translate(237.305689 243.558438) scale(0.1 -0.1)">
       <defs>
        <path id="DejaVuSans-33" d="M 2597 2516 
Q 3050 2419 3304 2112 
Q 3559 1806 3559 1356 
Q 3559 666 3084 287 
Q 2609 -91 1734 -91 
Q 1441 -91 1130 -33 
Q 819 25 488 141 
L 488 750 
Q 750 597 1062 519 
Q 1375 441 1716 441 
Q 2309 441 2620 675 
Q 2931 909 2931 1356 
Q 2931 1769 2642 2001 
Q 2353 2234 1838 2234 
L 1294 2234 
L 1294 2753 
L 1863 2753 
Q 2328 2753 2575 2939 
Q 2822 3125 2822 3475 
Q 2822 3834 2567 4026 
Q 2313 4219 1838 4219 
Q 1578 4219 1281 4162 
Q 984 4106 628 3988 
L 628 4550 
Q 988 4650 1302 4700 
Q 1616 4750 1894 4750 
Q 2613 4750 3031 4423 
Q 3450 4097 3450 3541 
Q 3450 3153 3228 2886 
Q 3006 2619 2597 2516 
z
" transform="scale(0.015625)"/>
       </defs>
       <use xlink:href="#DejaVuSans-30"/>
       <use xlink:href="#DejaVuSans-2e" transform="translate(63.623047 0)"/>
       <use xlink:href="#DejaVuSans-33" transform="translate(95.410156 0)"/>
      </g>
     </g>
    </g>
    <g id="xtick_5">
     <g id="line2d_5">
      <g>
       <use xlink:href="#mf966f2129c" x="310.015484" y="228.96" style="stroke: #000000; stroke-width: 0.8"/>
      </g>
     </g>
     <g id="text_5">
      <!-- 0.4 -->
      <g transform="translate(302.063922 243.558438) scale(0.1 -0.1)">
       <defs>
        <path id="DejaVuSans-34" d="M 2419 4116 
L 825 1625 
L 2419 1625 
L 2419 4116 
z
M 2253 4666 
L 3047 4666 
L 3047 1625 
L 3713 1625 
L 3713 1100 
L 3047 1100 
L 3047 0 
L 2419 0 
L 2419 1100 
L 313 1100 
L 313 1709 
L 2253 4666 
z
" transform="scale(0.015625)"/>
       </defs>
       <use xlink:href="#DejaVuSans-30"/>
       <use xlink:href="#DejaVuSans-2e" transform="translate(63.623047 0)"/>
       <use xlink:href="#DejaVuSans-34" transform="translate(95.410156 0)"/>
      </g>
     </g>
    </g>
    <g id="xtick_6">
     <g id="line2d_6">
      <g>
       <use xlink:href="#mf966f2129c" x="374.773717" y="228.96" style="stroke: #000000; stroke-width: 0.8"/>
      </g>
     </g>
     <g id="text_6">
      <!-- 0.5 -->
      <g transform="translate(366.822154 243.558438) scale(0.1 -0.1)">
       <defs>
        <path id="DejaVuSans-35" d="M 691 4666 
L 3169 4666 
L 3169 4134 
L 1269 4134 
L 1269 2991 
Q 1406 3038 1543 3061 
Q 1681 3084 1819 3084 
Q 2600 3084 3056 2656 
Q 3513 2228 3513 1497 
Q 3513 744 3044 326 
Q 2575 -91 1722 -91 
Q 1428 -91 1123 -41 
Q 819 9 494 109 
L 494 744 
Q 775 591 1075 516 
Q 1375 441 1709 441 
Q 2250 441 2565 725 
Q 2881 1009 2881 1497 
Q 2881 1984 2565 2268 
Q 2250 2553 1709 2553 
Q 1456 2553 1204 2497 
Q 953 2441 691 2322 
L 691 4666 
z
" transform="scale(0.015625)"/>
       </defs>
       <use xlink:href="#DejaVuSans-30"/>
       <use xlink:href="#DejaVuSans-2e" transform="translate(63.623047 0)"/>
       <use xlink:href="#DejaVuSans-35" transform="translate(95.410156 0)"/>
      </g>
     </g>
    </g>
    <g id="text_7">
     <!-- y [m] -->
     <g transform="translate(199.557813 257.236562) scale(0.1 -0.1)">
      <defs>
       <path id="DejaVuSans-79" d="M 2059 -325 
Q 1816 -950 1584 -1140 
Q 1353 -1331 966 -1331 
L 506 -1331 
L 506 -850 
L 844 -850 
Q 1081 -850 1212 -737 
Q 1344 -625 1503 -206 
L 1606 56 
L 191 3500 
L 800 3500 
L 1894 763 
L 2988 3500 
L 3597 3500 
L 2059 -325 
z
" transform="scale(0.015625)"/>
       <path id="DejaVuSans-20" transform="scale(0.015625)"/>
       <path id="DejaVuSans-5b" d="M 550 4863 
L 1875 4863 
L 1875 4416 
L 1125 4416 
L 1125 -397 
L 1875 -397 
L 1875 -844 
L 550 -844 
L 550 4863 
z
" transform="scale(0.015625)"/>
       <path id="DejaVuSans-6d" d="M 3328 2828 
Q 3544 3216 3844 3400 
Q 4144 3584 4550 3584 
Q 5097 3584 5394 3201 
Q 5691 2819 5691 2113 
L 5691 0 
L 5113 0 
L 5113 2094 
Q 5113 2597 4934 2840 
Q 4756 3084 4391 3084 
Q 3944 3084 3684 2787 
Q 3425 2491 3425 1978 
L 3425 0 
L 2847 0 
L 2847 2094 
Q 2847 2600 2669 2842 
Q 2491 3084 2119 3084 
Q 1678 3084 1418 2786 
Q 1159 2488 1159 1978 
L 1159 0 
L 581 0 
L 581 3500 
L 1159 3500 
L 1159 2956 
Q 1356 3278 1631 3431 
Q 1906 3584 2284 3584 
Q 2666 3584 2933 3390 
Q 3200 3197 3328 2828 
z
" transform="scale(0.015625)"/>
       <path id="DejaVuSans-5d" d="M 1947 4863 
L 1947 -844 
L 622 -844 
L 622 -397 
L 1369 -397 
L 1369 4416 
L 622 4416 
L 622 4863 
L 1947 4863 
z
" transform="scale(0.015625)"/>
      </defs>
      <use xlink:href="#DejaVuSans-79"/>
      <use xlink:href="#DejaVuSans-20" transform="translate(59.179688 0)"/>
      <use xlink:href="#DejaVuSans-5b" transform="translate(90.966797 0)"/>
      <use xlink:href="#DejaVuSans-6d" transform="translate(129.980469 0)"/>
      <use xlink:href="#DejaVuSans-5d" transform="translate(227.392578 0)"/>
     </g>
    </g>
   </g>
   <g id="matplotlib.axis_2">
    <g id="ytick_1">
     <g id="line2d_7">
      <defs>
       <path id="m847b5325be" d="M 0 0 
L -3.5 0 
" style="stroke: #000000; stroke-width: 0.8"/>
      </defs>
      <g>
       <use xlink:href="#m847b5325be" x="45.478125" y="216.502816" style="stroke: #000000; stroke-width: 0.8"/>
      </g>
     </g>
     <g id="text_8">
      <!-- $\mathdefault{10^{1}}$ -->
      <g transform="translate(20.878125 220.302035) scale(0.1 -0.1)">
       <use xlink:href="#DejaVuSans-31" transform="translate(0 0.684375)"/>
       <use xlink:href="#DejaVuSans-30" transform="translate(63.623047 0.684375)"/>
       <use xlink:href="#DejaVuSans-31" transform="translate(128.203125 38.965625) scale(0.7)"/>
      </g>
     </g>
    </g>
    <g id="ytick_2">
     <g id="line2d_8">
      <g>
       <use xlink:href="#m847b5325be" x="45.478125" y="139.563024" style="stroke: #000000; stroke-width: 0.8"/>
      </g>
     </g>
     <g id="text_9">
      <!-- $\mathdefault{10^{2}}$ -->
      <g transform="translate(20.878125 143.362243) scale(0.1 -0.1)">
       <use xlink:href="#DejaVuSans-31" transform="translate(0 0.765625)"/>
       <use xlink:href="#DejaVuSans-30" transform="translate(63.623047 0.765625)"/>
       <use xlink:href="#DejaVuSans-32" transform="translate(128.203125 39.046875) scale(0.7)"/>
      </g>
     </g>
    </g>
    <g id="ytick_3">
     <g id="line2d_9">
      <g>
       <use xlink:href="#m847b5325be" x="45.478125" y="62.623232" style="stroke: #000000; stroke-width: 0.8"/>
      </g>
     </g>
     <g id="text_10">
      <!-- $\mathdefault{10^{3}}$ -->
      <g transform="translate(20.878125 66.422451) scale(0.1 -0.1)">
       <use xlink:href="#DejaVuSans-31" transform="translate(0 0.765625)"/>
       <use xlink:href="#DejaVuSans-30" transform="translate(63.623047 0.765625)"/>
       <use xlink:href="#DejaVuSans-33" transform="translate(128.203125 39.046875) scale(0.7)"/>
      </g>
     </g>
    </g>
    <g id="ytick_4">
     <g id="line2d_10">
      <defs>
       <path id="m15b140fc19" d="M 0 0 
L -2 0 
" style="stroke: #000000; stroke-width: 0.6"/>
      </defs>
      <g>
       <use xlink:href="#m15b140fc19" x="45.478125" y="228.420941" style="stroke: #000000; stroke-width: 0.6"/>
      </g>
     </g>
    </g>
    <g id="ytick_5">
     <g id="line2d_11">
      <g>
       <use xlink:href="#m15b140fc19" x="45.478125" y="223.959053" style="stroke: #000000; stroke-width: 0.6"/>
      </g>
     </g>
    </g>
    <g id="ytick_6">
     <g id="line2d_12">
      <g>
       <use xlink:href="#m15b140fc19" x="45.478125" y="220.023388" style="stroke: #000000; stroke-width: 0.6"/>
      </g>
     </g>
    </g>
    <g id="ytick_7">
     <g id="line2d_13">
      <g>
       <use xlink:href="#m15b140fc19" x="45.478125" y="193.341631" style="stroke: #000000; stroke-width: 0.6"/>
      </g>
     </g>
    </g>
    <g id="ytick_8">
     <g id="line2d_14">
      <g>
       <use xlink:href="#m15b140fc19" x="45.478125" y="179.793206" style="stroke: #000000; stroke-width: 0.6"/>
      </g>
     </g>
    </g>
    <g id="ytick_9">
     <g id="line2d_15">
      <g>
       <use xlink:href="#m15b140fc19" x="45.478125" y="170.180446" style="stroke: #000000; stroke-width: 0.6"/>
      </g>
     </g>
    </g>
    <g id="ytick_10">
     <g id="line2d_16">
      <g>
       <use xlink:href="#m15b140fc19" x="45.478125" y="162.72421" style="stroke: #000000; stroke-width: 0.6"/>
      </g>
     </g>
    </g>
    <g id="ytick_11">
     <g id="line2d_17">
      <g>
       <use xlink:href="#m15b140fc19" x="45.478125" y="156.632021" style="stroke: #000000; stroke-width: 0.6"/>
      </g>
     </g>
    </g>
    <g id="ytick_12">
     <g id="line2d_18">
      <g>
       <use xlink:href="#m15b140fc19" x="45.478125" y="151.481149" style="stroke: #000000; stroke-width: 0.6"/>
      </g>
     </g>
    </g>
    <g id="ytick_13">
     <g id="line2d_19">
      <g>
       <use xlink:href="#m15b140fc19" x="45.478125" y="147.019261" style="stroke: #000000; stroke-width: 0.6"/>
      </g>
     </g>
    </g>
    <g id="ytick_14">
     <g id="line2d_20">
      <g>
       <use xlink:href="#m15b140fc19" x="45.478125" y="143.083596" style="stroke: #000000; stroke-width: 0.6"/>
      </g>
     </g>
    </g>
    <g id="ytick_15">
     <g id="line2d_21">
      <g>
       <use xlink:href="#m15b140fc19" x="45.478125" y="116.401839" style="stroke: #000000; stroke-width: 0.6"/>
      </g>
     </g>
    </g>
    <g id="ytick_16">
     <g id="line2d_22">
      <g>
       <use xlink:href="#m15b140fc19" x="45.478125" y="102.853414" style="stroke: #000000; stroke-width: 0.6"/>
      </g>
     </g>
    </g>
    <g id="ytick_17">
     <g id="line2d_23">
      <g>
       <use xlink:href="#m15b140fc19" x="45.478125" y="93.240654" style="stroke: #000000; stroke-width: 0.6"/>
      </g>
     </g>
    </g>
    <g id="ytick_18">
     <g id="line2d_24">
      <g>
       <use xlink:href="#m15b140fc19" x="45.478125" y="85.784418" style="stroke: #000000; stroke-width: 0.6"/>
      </g>
     </g>
    </g>
    <g id="ytick_19">
     <g id="line2d_25">
      <g>
       <use xlink:href="#m15b140fc19" x="45.478125" y="79.692229" style="stroke: #000000; stroke-width: 0.6"/>
      </g>
     </g>
    </g>
    <g id="ytick_20">
     <g id="line2d_26">
      <g>
       <use xlink:href="#m15b140fc19" x="45.478125" y="74.541357" style="stroke: #000000; stroke-width: 0.6"/>
      </g>
     </g>
    </g>
    <g id="ytick_21">
     <g id="line2d_27">
      <g>
       <use xlink:href="#m15b140fc19" x="45.478125" y="70.079469" style="stroke: #000000; stroke-width: 0.6"/>
      </g>
     </g>
    </g>
    <g id="ytick_22">
     <g id="line2d_28">
      <g>
       <use xlink:href="#m15b140fc19" x="45.478125" y="66.143804" style="stroke: #000000; stroke-width: 0.6"/>
      </g>
     </g>
    </g>
    <g id="ytick_23">
     <g id="line2d_29">
      <g>
       <use xlink:href="#m15b140fc19" x="45.478125" y="39.462047" style="stroke: #000000; stroke-width: 0.6"/>
      </g>
     </g>
    </g>
    <g id="ytick_24">
     <g id="line2d_30">
      <g>
       <use xlink:href="#m15b140fc19" x="45.478125" y="25.913622" style="stroke: #000000; stroke-width: 0.6"/>
      </g>
     </g>
    </g>
    <g id="ytick_25">
     <g id="line2d_31">
      <g>
       <use xlink:href="#m15b140fc19" x="45.478125" y="16.300862" style="stroke: #000000; stroke-width: 0.6"/>
      </g>
     </g>
    </g>
    <g id="ytick_26">
     <g id="line2d_32">
      <g>
       <use xlink:href="#m15b140fc19" x="45.478125" y="8.844626" style="stroke: #000000; stroke-width: 0.6"/>
      </g>
     </g>
    </g>
    <g id="text_11">
     <!-- [counts] -->
     <g transform="translate(14.798438 138.6925) rotate(-90) scale(0.1 -0.1)">
      <defs>
       <path id="DejaVuSans-63" d="M 3122 3366 
L 3122 2828 
Q 2878 2963 2633 3030 
Q 2388 3097 2138 3097 
Q 1578 3097 1268 2742 
Q 959 2388 959 1747 
Q 959 1106 1268 751 
Q 1578 397 2138 397 
Q 2388 397 2633 464 
Q 2878 531 3122 666 
L 3122 134 
Q 2881 22 2623 -34 
Q 2366 -91 2075 -91 
Q 1284 -91 818 406 
Q 353 903 353 1747 
Q 353 2603 823 3093 
Q 1294 3584 2113 3584 
Q 2378 3584 2631 3529 
Q 2884 3475 3122 3366 
z
" transform="scale(0.015625)"/>
       <path id="DejaVuSans-6f" d="M 1959 3097 
Q 1497 3097 1228 2736 
Q 959 2375 959 1747 
Q 959 1119 1226 758 
Q 1494 397 1959 397 
Q 2419 397 2687 759 
Q 2956 1122 2956 1747 
Q 2956 2369 2687 2733 
Q 2419 3097 1959 3097 
z
M 1959 3584 
Q 2709 3584 3137 3096 
Q 3566 2609 3566 1747 
Q 3566 888 3137 398 
Q 2709 -91 1959 -91 
Q 1206 -91 779 398 
Q 353 888 353 1747 
Q 353 2609 779 3096 
Q 1206 3584 1959 3584 
z
" transform="scale(0.015625)"/>
       <path id="DejaVuSans-75" d="M 544 1381 
L 544 3500 
L 1119 3500 
L 1119 1403 
Q 1119 906 1312 657 
Q 1506 409 1894 409 
Q 2359 409 2629 706 
Q 2900 1003 2900 1516 
L 2900 3500 
L 3475 3500 
L 3475 0 
L 2900 0 
L 2900 538 
Q 2691 219 2414 64 
Q 2138 -91 1772 -91 
Q 1169 -91 856 284 
Q 544 659 544 1381 
z
M 1991 3584 
L 1991 3584 
z
" transform="scale(0.015625)"/>
       <path id="DejaVuSans-6e" d="M 3513 2113 
L 3513 0 
L 2938 0 
L 2938 2094 
Q 2938 2591 2744 2837 
Q 2550 3084 2163 3084 
Q 1697 3084 1428 2787 
Q 1159 2491 1159 1978 
L 1159 0 
L 581 0 
L 581 3500 
L 1159 3500 
L 1159 2956 
Q 1366 3272 1645 3428 
Q 1925 3584 2291 3584 
Q 2894 3584 3203 3211 
Q 3513 2838 3513 2113 
z
" transform="scale(0.015625)"/>
       <path id="DejaVuSans-74" d="M 1172 4494 
L 1172 3500 
L 2356 3500 
L 2356 3053 
L 1172 3053 
L 1172 1153 
Q 1172 725 1289 603 
Q 1406 481 1766 481 
L 2356 481 
L 2356 0 
L 1766 0 
Q 1100 0 847 248 
Q 594 497 594 1153 
L 594 3053 
L 172 3053 
L 172 3500 
L 594 3500 
L 594 4494 
L 1172 4494 
z
" transform="scale(0.015625)"/>
       <path id="DejaVuSans-73" d="M 2834 3397 
L 2834 2853 
Q 2591 2978 2328 3040 
Q 2066 3103 1784 3103 
Q 1356 3103 1142 2972 
Q 928 2841 928 2578 
Q 928 2378 1081 2264 
Q 1234 2150 1697 2047 
L 1894 2003 
Q 2506 1872 2764 1633 
Q 3022 1394 3022 966 
Q 3022 478 2636 193 
Q 2250 -91 1575 -91 
Q 1294 -91 989 -36 
Q 684 19 347 128 
L 347 722 
Q 666 556 975 473 
Q 1284 391 1588 391 
Q 1994 391 2212 530 
Q 2431 669 2431 922 
Q 2431 1156 2273 1281 
Q 2116 1406 1581 1522 
L 1381 1569 
Q 847 1681 609 1914 
Q 372 2147 372 2553 
Q 372 3047 722 3315 
Q 1072 3584 1716 3584 
Q 2034 3584 2315 3537 
Q 2597 3491 2834 3397 
z
" transform="scale(0.015625)"/>
      </defs>
      <use xlink:href="#DejaVuSans-5b"/>
      <use xlink:href="#DejaVuSans-63" transform="translate(39.013672 0)"/>
      <use xlink:href="#DejaVuSans-6f" transform="translate(93.994141 0)"/>
      <use xlink:href="#DejaVuSans-75" transform="translate(155.175781 0)"/>
      <use xlink:href="#DejaVuSans-6e" transform="translate(218.554688 0)"/>
      <use xlink:href="#DejaVuSans-74" transform="translate(281.933594 0)"/>
      <use xlink:href="#DejaVuSans-73" transform="translate(321.142578 0)"/>
      <use xlink:href="#DejaVuSans-5d" transform="translate(373.242188 0)"/>
     </g>
    </g>
   </g>
   <g id="line2d_33">
    <path d="M 60.696307 17.659815 
L 62.218125 17.659815 
L 62.218125 19.197773 
L 63.739943 19.197773 
L 63.739943 21.241616 
L 65.261761 21.241616 
L 65.261761 21.601104 
L 66.78358 21.601104 
L 66.78358 21.866064 
L 68.305398 21.866064 
L 68.305398 22.977465 
L 69.827216 22.977465 
L 69.827216 24.312071 
L 71.349034 24.312071 
L 71.349034 25.020683 
L 72.870852 25.020683 
L 72.870852 26.29412 
L 74.39267 26.29412 
L 74.39267 27.751615 
L 75.914489 27.751615 
L 75.914489 28.283346 
L 77.436307 28.283346 
L 77.436307 29.739758 
L 78.958125 29.739758 
L 78.958125 30.189368 
L 80.479943 30.189368 
L 80.479943 32.779531 
L 82.001761 32.779531 
L 82.001761 33.686055 
L 83.52358 33.686055 
L 83.52358 37.3896 
L 85.045398 37.3896 
L 85.045398 37.799111 
L 86.567216 37.799111 
L 86.567216 40.624069 
L 88.089034 40.624069 
L 88.089034 42.57966 
L 89.610852 42.57966 
L 89.610852 44.840746 
L 91.13267 44.840746 
L 91.13267 47.624446 
L 92.654489 47.624446 
L 92.654489 51.044817 
L 94.176307 51.044817 
L 94.176307 52.426942 
L 95.698125 52.426942 
L 95.698125 58.670962 
L 97.219943 58.670962 
L 97.219943 65.574733 
L 98.741761 65.574733 
L 98.741761 71.913154 
L 100.26358 71.913154 
L 100.26358 83.26184 
L 101.785398 83.26184 
L 101.785398 97.314272 
L 103.307216 97.314272 
L 103.307216 117.053478 
L 104.829034 117.053478 
L 104.829034 135.447538 
L 106.350852 135.447538 
L 106.350852 148.923024 
L 107.87267 148.923024 
L 107.87267 144.981516 
L 109.394489 144.981516 
L 109.394489 127.912326 
L 110.916307 127.912326 
L 110.916307 121.467614 
L 112.438125 121.467614 
L 112.438125 105.000647 
L 113.959943 105.000647 
L 113.959943 104.760504 
L 115.481761 104.760504 
L 115.481761 105.064805 
L 117.00358 105.064805 
L 117.00358 107.275219 
L 118.525398 107.275219 
L 118.525398 111.391918 
L 120.047216 111.391918 
L 120.047216 113.311336 
L 121.569034 113.311336 
L 121.569034 118.748392 
L 123.090852 118.748392 
L 123.090852 124.841666 
L 124.61267 124.841666 
L 124.61267 131.915567 
L 126.134489 131.915567 
L 126.134489 140.191329 
L 127.656307 140.191329 
L 127.656307 143.643486 
L 129.178125 143.643486 
L 129.178125 149.914302 
L 130.699943 149.914302 
L 130.699943 153.850392 
L 132.221761 153.850392 
L 132.221761 159.883467 
L 133.74358 159.883467 
L 133.74358 167.403121 
L 135.265398 167.403121 
L 135.265398 172.116908 
L 136.787216 172.116908 
L 136.787216 174.644621 
L 138.309034 174.644621 
L 138.309034 186.034139 
L 139.830852 186.034139 
L 139.830852 183.542746 
L 141.35267 183.542746 
L 141.35267 188.688123 
L 142.874489 188.688123 
L 142.874489 186.612118 
L 144.396307 186.612118 
L 144.396307 187.680572 
L 145.918125 187.680572 
L 145.918125 185.962478 
L 147.439943 185.962478 
L 147.439943 184.592246 
L 148.961761 184.592246 
L 148.961761 181.80319 
L 150.48358 181.80319 
L 150.48358 188.119005 
L 152.005398 188.119005 
L 152.005398 182.562609 
L 153.527216 182.562609 
L 153.527216 177.281805 
L 155.049034 177.281805 
L 155.049034 173.887014 
L 156.570852 173.887014 
L 156.570852 172.498238 
L 158.09267 172.498238 
L 158.09267 171.740529 
L 159.614489 171.740529 
L 159.614489 172.803937 
L 161.136307 172.803937 
L 161.136307 167.733103 
L 162.658125 167.733103 
L 162.658125 166.719566 
L 164.179943 166.719566 
L 164.179943 168.766573 
L 165.701761 168.766573 
L 165.701761 174.15496 
L 167.22358 174.15496 
L 167.22358 173.212552 
L 170.267216 173.30312 
L 170.267216 171.902304 
L 171.789034 171.902304 
L 171.789034 167.688089 
L 173.310852 167.688089 
L 173.310852 175.198616 
L 174.83267 175.198616 
L 174.83267 177.330613 
L 176.354489 177.330613 
L 176.354489 174.170323 
L 177.876307 174.170323 
L 177.876307 173.714118 
L 179.398125 173.714118 
L 179.398125 175.165701 
L 180.919943 175.165701 
L 180.919943 184.445911 
L 182.441761 184.445911 
L 182.441761 181.109893 
L 183.96358 181.109893 
L 183.96358 182.457431 
L 185.485398 182.457431 
L 185.485398 183.053635 
L 187.007216 183.053635 
L 187.007216 182.347303 
L 188.529034 182.347303 
L 188.529034 186.212642 
L 190.050852 186.212642 
L 190.050852 193.802288 
L 191.57267 193.802288 
L 191.57267 187.381442 
L 193.094489 187.381442 
L 193.094489 193.575398 
L 194.616307 193.575398 
L 194.616307 192.419343 
L 196.138125 192.419343 
L 196.138125 199.619973 
L 197.659943 199.619973 
L 197.659943 196.870416 
L 199.181761 196.870416 
L 199.181761 195.858475 
L 200.70358 195.858475 
L 200.70358 196.595197 
L 202.225398 196.595197 
L 202.225398 202.502027 
L 203.747216 202.502027 
L 203.747216 196.036111 
L 205.269034 196.036111 
L 205.269034 199.540916 
L 206.790852 199.540916 
L 206.790852 197.676916 
L 208.31267 197.676916 
L 208.31267 205.943257 
L 209.834489 205.943257 
L 209.834489 201.299193 
L 211.356307 201.299193 
L 211.356307 198.532499 
L 212.878125 198.532499 
L 212.878125 205.610311 
L 214.399943 205.610311 
L 214.399943 202.019751 
L 215.921761 202.019751 
L 215.921761 202.506539 
L 217.44358 202.506539 
L 217.44358 200.202252 
L 218.965398 200.202252 
L 218.965398 197.276144 
L 220.487216 197.276144 
L 220.487216 198.887246 
L 222.009034 198.887246 
L 222.009034 200.534036 
L 223.530852 200.534036 
L 223.530852 198.412687 
L 225.05267 198.412687 
L 225.05267 199.335545 
L 226.574489 199.335545 
L 226.574489 197.629899 
L 228.096307 197.629899 
L 228.096307 199.665217 
L 229.618125 199.665217 
L 229.618125 199.217632 
L 231.139943 199.217632 
L 231.139943 201.438928 
L 232.661761 201.438928 
L 232.661761 208.178201 
L 234.18358 208.178201 
L 234.18358 203.098448 
L 235.705398 203.098448 
L 235.705398 200.512377 
L 237.227216 200.512377 
L 237.227216 199.125536 
L 238.749034 199.125536 
L 238.749034 198.228509 
L 240.270852 198.228509 
L 240.270852 197.019361 
L 241.79267 197.019361 
L 241.79267 201.094468 
L 243.314489 201.094468 
L 243.314489 199.845641 
L 244.836307 199.845641 
L 244.836307 197.403238 
L 246.358125 197.403238 
L 246.358125 196.617701 
L 247.879943 196.617701 
L 247.879943 201.618231 
L 249.401761 201.618231 
L 249.401761 198.009758 
L 250.92358 198.009758 
L 250.92358 198.557502 
L 252.445398 198.557502 
L 252.445398 202.778633 
L 253.967216 202.778633 
L 253.967216 205.962238 
L 255.489034 205.962238 
L 255.489034 205.435821 
L 257.010852 205.435821 
L 257.010852 205.090388 
L 258.53267 205.090388 
L 258.53267 205.643329 
L 260.054489 205.643329 
L 260.054489 203.003254 
L 261.576307 203.003254 
L 261.576307 203.953744 
L 263.098125 203.953744 
L 263.098125 200.563432 
L 264.619943 200.563432 
L 264.619943 201.758881 
L 266.141761 201.758881 
L 266.141761 205.142416 
L 267.66358 205.142416 
L 267.66358 200.177914 
L 269.185398 200.177914 
L 269.185398 207.302367 
L 270.707216 207.302367 
L 270.707216 202.375366 
L 272.229034 202.375366 
L 272.229034 200.830818 
L 273.750852 200.830818 
L 273.750852 204.822173 
L 275.27267 204.822173 
L 275.27267 203.213487 
L 276.794489 203.213487 
L 276.794489 201.722251 
L 278.316307 201.722251 
L 278.316307 199.787182 
L 279.838125 199.787182 
L 279.838125 204.485139 
L 281.359943 204.485139 
L 281.359943 195.279287 
L 282.881761 195.279287 
L 282.881761 199.571102 
L 284.40358 199.571102 
L 284.40358 203.741023 
L 285.925398 203.741023 
L 285.925398 212.437882 
L 287.447216 212.437882 
L 287.447216 204.218372 
L 288.969034 204.218372 
L 288.969034 209.376838 
L 290.490852 209.376838 
L 290.490852 208.791606 
L 292.01267 208.791606 
L 292.01267 204.560381 
L 293.534489 204.560381 
L 293.534489 209.556116 
L 295.056307 209.556116 
L 295.056307 198.698997 
L 296.578125 198.698997 
L 296.578125 205.524895 
L 298.099943 205.524895 
L 298.099943 206.954114 
L 299.621761 206.954114 
L 299.621761 200.551956 
L 301.14358 200.551956 
L 301.14358 207.995992 
L 302.665398 207.995992 
L 302.665398 202.414072 
L 304.187216 202.414072 
L 304.187216 207.118702 
L 305.709034 207.118702 
L 305.709034 197.541089 
L 307.230852 197.541089 
L 307.230852 206.05553 
L 308.75267 206.05553 
L 308.75267 202.268258 
L 310.274489 202.268258 
L 310.274489 205.364865 
L 311.796307 205.364865 
L 311.796307 214.665611 
L 313.318125 214.665611 
L 313.318125 201.233927 
L 314.839943 201.233927 
L 314.839943 205.182844 
L 316.361761 205.182844 
L 316.361761 208.532994 
L 317.88358 208.532994 
L 317.88358 210.672443 
L 319.405398 210.672443 
L 319.405398 207.848119 
L 320.927216 207.848119 
L 320.927216 207.566405 
L 322.449034 207.566405 
L 322.449034 207.029657 
L 323.970852 207.029657 
L 323.970852 201.516272 
L 325.49267 201.516272 
L 325.49267 209.092825 
L 327.014489 209.092825 
L 327.014489 208.351105 
L 328.536307 208.351105 
L 328.536307 201.213789 
L 330.058125 201.213789 
L 330.058125 210.11618 
L 331.579943 210.11618 
L 331.579943 204.385581 
L 333.101761 204.385581 
L 333.101761 213.384854 
L 334.62358 213.384854 
L 334.62358 199.444114 
L 336.145398 199.444114 
L 336.145398 211.590736 
L 337.667216 211.590736 
L 337.667216 207.623048 
L 339.189034 207.623048 
L 339.189034 205.802631 
L 340.710852 205.802631 
L 340.710852 211.294058 
L 342.23267 211.294058 
L 342.23267 200.518753 
L 343.754489 200.518753 
L 343.754489 201.925188 
L 345.276307 201.925188 
L 345.276307 200.481494 
L 346.798125 200.481494 
L 346.798125 211.538838 
L 348.319943 211.538838 
L 348.319943 205.72115 
L 349.841761 205.72115 
L 349.841761 204.990179 
L 351.36358 204.990179 
L 351.36358 206.897925 
L 352.885398 206.897925 
L 352.885398 210.616764 
L 354.407216 210.616764 
L 354.407216 203.510981 
L 355.929034 203.510981 
L 355.929034 200.649334 
L 357.450852 200.649334 
L 357.450852 208.399524 
L 358.97267 208.399524 
L 358.97267 196.662766 
L 360.494489 196.662766 
L 360.494489 198.388226 
L 362.016307 198.388226 
L 362.016307 200.810231 
L 363.538125 200.810231 
L 363.538125 203.82703 
L 365.059943 203.82703 
L 365.059943 203.82703 
" clip-path="url(#pc54e1fb658)" style="fill: none; stroke: #1f77b4; stroke-width: 1.5; stroke-linecap: square"/>
   </g>
   <g id="LineCollection_1">
    <path d="M 61.457216 18.043998 
L 61.457216 17.28 
" clip-path="url(#pc54e1fb658)" style="fill: none; stroke: #1f77b4; stroke-width: 1.5"/>
    <path d="M 62.979034 19.62064 
L 62.979034 18.780191 
" clip-path="url(#pc54e1fb658)" style="fill: none; stroke: #1f77b4; stroke-width: 1.5"/>
    <path d="M 64.500852 21.699253 
L 64.500852 20.790161 
" clip-path="url(#pc54e1fb658)" style="fill: none; stroke: #1f77b4; stroke-width: 1.5"/>
    <path d="M 66.02267 22.086808 
L 66.02267 21.122359 
" clip-path="url(#pc54e1fb658)" style="fill: none; stroke: #1f77b4; stroke-width: 1.5"/>
    <path d="M 67.544489 22.384474 
L 67.544489 21.355575 
" clip-path="url(#pc54e1fb658)" style="fill: none; stroke: #1f77b4; stroke-width: 1.5"/>
    <path d="M 69.066307 23.530891 
L 69.066307 22.433055 
" clip-path="url(#pc54e1fb658)" style="fill: none; stroke: #1f77b4; stroke-width: 1.5"/>
    <path d="M 70.588125 24.904526 
L 70.588125 23.729939 
" clip-path="url(#pc54e1fb658)" style="fill: none; stroke: #1f77b4; stroke-width: 1.5"/>
    <path d="M 72.109943 25.648782 
L 72.109943 24.404173 
" clip-path="url(#pc54e1fb658)" style="fill: none; stroke: #1f77b4; stroke-width: 1.5"/>
    <path d="M 73.631761 26.957284 
L 73.631761 25.643862 
" clip-path="url(#pc54e1fb658)" style="fill: none; stroke: #1f77b4; stroke-width: 1.5"/>
    <path d="M 75.15358 28.453052 
L 75.15358 27.064601 
" clip-path="url(#pc54e1fb658)" style="fill: none; stroke: #1f77b4; stroke-width: 1.5"/>
    <path d="M 76.675398 29.008442 
L 76.675398 27.573651 
" clip-path="url(#pc54e1fb658)" style="fill: none; stroke: #1f77b4; stroke-width: 1.5"/>
    <path d="M 78.197216 30.507842 
L 78.197216 28.988934 
" clip-path="url(#pc54e1fb658)" style="fill: none; stroke: #1f77b4; stroke-width: 1.5"/>
    <path d="M 79.719034 30.986129 
L 79.719034 29.411165 
" clip-path="url(#pc54e1fb658)" style="fill: none; stroke: #1f77b4; stroke-width: 1.5"/>
    <path d="M 81.240852 33.62004 
L 81.240852 31.959646 
" clip-path="url(#pc54e1fb658)" style="fill: none; stroke: #1f77b4; stroke-width: 1.5"/>
    <path d="M 82.76267 34.561599 
L 82.76267 32.832867 
" clip-path="url(#pc54e1fb658)" style="fill: none; stroke: #1f77b4; stroke-width: 1.5"/>
    <path d="M 84.284489 38.326477 
L 84.284489 36.478276 
" clip-path="url(#pc54e1fb658)" style="fill: none; stroke: #1f77b4; stroke-width: 1.5"/>
    <path d="M 85.806307 38.75085 
L 85.806307 36.873731 
" clip-path="url(#pc54e1fb658)" style="fill: none; stroke: #1f77b4; stroke-width: 1.5"/>
    <path d="M 87.328125 41.628131 
L 87.328125 39.6493 
" clip-path="url(#pc54e1fb658)" style="fill: none; stroke: #1f77b4; stroke-width: 1.5"/>
    <path d="M 88.849943 43.627397 
L 88.849943 41.563779 
" clip-path="url(#pc54e1fb658)" style="fill: none; stroke: #1f77b4; stroke-width: 1.5"/>
    <path d="M 90.371761 45.921116 
L 90.371761 43.794216 
" clip-path="url(#pc54e1fb658)" style="fill: none; stroke: #1f77b4; stroke-width: 1.5"/>
    <path d="M 91.89358 48.752046 
L 91.89358 46.533659 
" clip-path="url(#pc54e1fb658)" style="fill: none; stroke: #1f77b4; stroke-width: 1.5"/>
    <path d="M 93.415398 52.238987 
L 93.415398 49.891855 
" clip-path="url(#pc54e1fb658)" style="fill: none; stroke: #1f77b4; stroke-width: 1.5"/>
    <path d="M 94.937216 53.640437 
L 94.937216 51.255977 
" clip-path="url(#pc54e1fb658)" style="fill: none; stroke: #1f77b4; stroke-width: 1.5"/>
    <path d="M 96.459034 59.996213 
L 96.459034 57.396273 
" clip-path="url(#pc54e1fb658)" style="fill: none; stroke: #1f77b4; stroke-width: 1.5"/>
    <path d="M 97.980852 67.016164 
L 97.980852 64.192919 
" clip-path="url(#pc54e1fb658)" style="fill: none; stroke: #1f77b4; stroke-width: 1.5"/>
    <path d="M 99.50267 73.496634 
L 99.50267 70.40133 
" clip-path="url(#pc54e1fb658)" style="fill: none; stroke: #1f77b4; stroke-width: 1.5"/>
    <path d="M 101.024489 85.105091 
L 101.024489 81.514974 
" clip-path="url(#pc54e1fb658)" style="fill: none; stroke: #1f77b4; stroke-width: 1.5"/>
    <path d="M 102.546307 99.570685 
L 102.546307 95.200639 
" clip-path="url(#pc54e1fb658)" style="fill: none; stroke: #1f77b4; stroke-width: 1.5"/>
    <path d="M 104.068125 120.06847 
L 104.068125 114.288157 
" clip-path="url(#pc54e1fb658)" style="fill: none; stroke: #1f77b4; stroke-width: 1.5"/>
    <path d="M 105.589943 139.416952 
L 105.589943 131.899991 
" clip-path="url(#pc54e1fb658)" style="fill: none; stroke: #1f77b4; stroke-width: 1.5"/>
    <path d="M 107.111761 153.747617 
L 107.111761 144.707952 
" clip-path="url(#pc54e1fb658)" style="fill: none; stroke: #1f77b4; stroke-width: 1.5"/>
    <path d="M 108.63358 149.280766 
L 108.63358 141.172897 
" clip-path="url(#pc54e1fb658)" style="fill: none; stroke: #1f77b4; stroke-width: 1.5"/>
    <path d="M 110.155398 131.196156 
L 110.155398 124.922535 
" clip-path="url(#pc54e1fb658)" style="fill: none; stroke: #1f77b4; stroke-width: 1.5"/>
    <path d="M 111.677216 124.385898 
L 111.677216 118.783856 
" clip-path="url(#pc54e1fb658)" style="fill: none; stroke: #1f77b4; stroke-width: 1.5"/>
    <path d="M 113.199034 107.150532 
L 113.199034 102.980762 
" clip-path="url(#pc54e1fb658)" style="fill: none; stroke: #1f77b4; stroke-width: 1.5"/>
    <path d="M 114.720852 106.771637 
L 114.720852 102.863574 
" clip-path="url(#pc54e1fb658)" style="fill: none; stroke: #1f77b4; stroke-width: 1.5"/>
    <path d="M 116.24267 107.020011 
L 116.24267 103.217708 
" clip-path="url(#pc54e1fb658)" style="fill: none; stroke: #1f77b4; stroke-width: 1.5"/>
    <path d="M 117.764489 109.228997 
L 117.764489 105.429396 
" clip-path="url(#pc54e1fb658)" style="fill: none; stroke: #1f77b4; stroke-width: 1.5"/>
    <path d="M 119.286307 113.358915 
L 119.286307 109.534302 
" clip-path="url(#pc54e1fb658)" style="fill: none; stroke: #1f77b4; stroke-width: 1.5"/>
    <path d="M 120.808125 115.242868 
L 120.808125 111.485382 
" clip-path="url(#pc54e1fb658)" style="fill: none; stroke: #1f77b4; stroke-width: 1.5"/>
    <path d="M 122.329943 120.77061 
L 122.329943 116.841604 
" clip-path="url(#pc54e1fb658)" style="fill: none; stroke: #1f77b4; stroke-width: 1.5"/>
    <path d="M 123.851761 126.901202 
L 123.851761 122.901735 
" clip-path="url(#pc54e1fb658)" style="fill: none; stroke: #1f77b4; stroke-width: 1.5"/>
    <path d="M 125.37358 134.106273 
L 125.37358 129.859692 
" clip-path="url(#pc54e1fb658)" style="fill: none; stroke: #1f77b4; stroke-width: 1.5"/>
    <path d="M 126.895398 142.519458 
L 126.895398 138.014898 
" clip-path="url(#pc54e1fb658)" style="fill: none; stroke: #1f77b4; stroke-width: 1.5"/>
    <path d="M 128.417216 145.979772 
L 128.417216 141.459928 
" clip-path="url(#pc54e1fb658)" style="fill: none; stroke: #1f77b4; stroke-width: 1.5"/>
    <path d="M 129.939034 152.278182 
L 129.939034 147.70666 
" clip-path="url(#pc54e1fb658)" style="fill: none; stroke: #1f77b4; stroke-width: 1.5"/>
    <path d="M 131.460852 156.241631 
L 131.460852 151.618907 
" clip-path="url(#pc54e1fb658)" style="fill: none; stroke: #1f77b4; stroke-width: 1.5"/>
    <path d="M 132.98267 162.386011 
L 132.98267 157.555361 
" clip-path="url(#pc54e1fb658)" style="fill: none; stroke: #1f77b4; stroke-width: 1.5"/>
    <path d="M 134.504489 169.891321 
L 134.504489 165.087433 
" clip-path="url(#pc54e1fb658)" style="fill: none; stroke: #1f77b4; stroke-width: 1.5"/>
    <path d="M 136.026307 174.522333 
L 136.026307 169.873075 
" clip-path="url(#pc54e1fb658)" style="fill: none; stroke: #1f77b4; stroke-width: 1.5"/>
    <path d="M 137.548125 176.973656 
L 137.548125 172.4674 
" clip-path="url(#pc54e1fb658)" style="fill: none; stroke: #1f77b4; stroke-width: 1.5"/>
    <path d="M 139.069943 188.266595 
L 139.069943 183.941541 
" clip-path="url(#pc54e1fb658)" style="fill: none; stroke: #1f77b4; stroke-width: 1.5"/>
    <path d="M 140.591761 185.756142 
L 140.591761 181.466903 
" clip-path="url(#pc54e1fb658)" style="fill: none; stroke: #1f77b4; stroke-width: 1.5"/>
    <path d="M 142.11358 190.873486 
L 142.11358 186.636955 
" clip-path="url(#pc54e1fb658)" style="fill: none; stroke: #1f77b4; stroke-width: 1.5"/>
    <path d="M 143.635398 188.813956 
L 143.635398 184.546443 
" clip-path="url(#pc54e1fb658)" style="fill: none; stroke: #1f77b4; stroke-width: 1.5"/>
    <path d="M 145.157216 190.015696 
L 145.157216 185.498031 
" clip-path="url(#pc54e1fb658)" style="fill: none; stroke: #1f77b4; stroke-width: 1.5"/>
    <path d="M 146.679034 188.495299 
L 146.679034 183.608191 
" clip-path="url(#pc54e1fb658)" style="fill: none; stroke: #1f77b4; stroke-width: 1.5"/>
    <path d="M 148.200852 187.10727 
L 148.200852 182.253343 
" clip-path="url(#pc54e1fb658)" style="fill: none; stroke: #1f77b4; stroke-width: 1.5"/>
    <path d="M 149.72267 184.440193 
L 149.72267 179.359158 
" clip-path="url(#pc54e1fb658)" style="fill: none; stroke: #1f77b4; stroke-width: 1.5"/>
    <path d="M 151.244489 191.025126 
L 151.244489 185.445535 
" clip-path="url(#pc54e1fb658)" style="fill: none; stroke: #1f77b4; stroke-width: 1.5"/>
    <path d="M 152.766307 185.336925 
L 152.766307 180.001083 
" clip-path="url(#pc54e1fb658)" style="fill: none; stroke: #1f77b4; stroke-width: 1.5"/>
    <path d="M 154.288125 180.100771 
L 154.288125 174.682266 
" clip-path="url(#pc54e1fb658)" style="fill: none; stroke: #1f77b4; stroke-width: 1.5"/>
    <path d="M 155.809943 176.6084 
L 155.809943 171.370671 
" clip-path="url(#pc54e1fb658)" style="fill: none; stroke: #1f77b4; stroke-width: 1.5"/>
    <path d="M 157.331761 175.272469 
L 157.331761 169.936784 
" clip-path="url(#pc54e1fb658)" style="fill: none; stroke: #1f77b4; stroke-width: 1.5"/>
    <path d="M 158.85358 174.523873 
L 158.85358 169.171308 
" clip-path="url(#pc54e1fb658)" style="fill: none; stroke: #1f77b4; stroke-width: 1.5"/>
    <path d="M 160.375398 175.630338 
L 160.375398 170.198077 
" clip-path="url(#pc54e1fb658)" style="fill: none; stroke: #1f77b4; stroke-width: 1.5"/>
    <path d="M 161.897216 170.462634 
L 161.897216 165.209798 
" clip-path="url(#pc54e1fb658)" style="fill: none; stroke: #1f77b4; stroke-width: 1.5"/>
    <path d="M 163.419034 169.449326 
L 163.419034 164.196067 
" clip-path="url(#pc54e1fb658)" style="fill: none; stroke: #1f77b4; stroke-width: 1.5"/>
    <path d="M 164.940852 171.532549 
L 164.940852 166.212157 
" clip-path="url(#pc54e1fb658)" style="fill: none; stroke: #1f77b4; stroke-width: 1.5"/>
    <path d="M 166.46267 176.970345 
L 166.46267 171.558466 
" clip-path="url(#pc54e1fb658)" style="fill: none; stroke: #1f77b4; stroke-width: 1.5"/>
    <path d="M 167.984489 176.061925 
L 167.984489 170.587179 
" clip-path="url(#pc54e1fb658)" style="fill: none; stroke: #1f77b4; stroke-width: 1.5"/>
    <path d="M 169.506307 176.187465 
L 169.506307 170.648088 
" clip-path="url(#pc54e1fb658)" style="fill: none; stroke: #1f77b4; stroke-width: 1.5"/>
    <path d="M 171.028125 174.753098 
L 171.028125 169.275725 
" clip-path="url(#pc54e1fb658)" style="fill: none; stroke: #1f77b4; stroke-width: 1.5"/>
    <path d="M 172.549943 170.395557 
L 172.549943 165.183649 
" clip-path="url(#pc54e1fb658)" style="fill: none; stroke: #1f77b4; stroke-width: 1.5"/>
    <path d="M 174.071761 178.139058 
L 174.071761 172.496131 
" clip-path="url(#pc54e1fb658)" style="fill: none; stroke: #1f77b4; stroke-width: 1.5"/>
    <path d="M 175.59358 180.236243 
L 175.59358 174.657559 
" clip-path="url(#pc54e1fb658)" style="fill: none; stroke: #1f77b4; stroke-width: 1.5"/>
    <path d="M 177.115398 177.02903 
L 177.115398 171.53703 
" clip-path="url(#pc54e1fb658)" style="fill: none; stroke: #1f77b4; stroke-width: 1.5"/>
    <path d="M 178.637216 176.443473 
L 178.637216 171.190965 
" clip-path="url(#pc54e1fb658)" style="fill: none; stroke: #1f77b4; stroke-width: 1.5"/>
    <path d="M 180.159034 178.071392 
L 180.159034 172.492596 
" clip-path="url(#pc54e1fb658)" style="fill: none; stroke: #1f77b4; stroke-width: 1.5"/>
    <path d="M 181.680852 187.504314 
L 181.680852 181.644118 
" clip-path="url(#pc54e1fb658)" style="fill: none; stroke: #1f77b4; stroke-width: 1.5"/>
    <path d="M 183.20267 184.110429 
L 183.20267 178.356735 
" clip-path="url(#pc54e1fb658)" style="fill: none; stroke: #1f77b4; stroke-width: 1.5"/>
    <path d="M 184.724489 185.468205 
L 184.724489 179.695658 
" clip-path="url(#pc54e1fb658)" style="fill: none; stroke: #1f77b4; stroke-width: 1.5"/>
    <path d="M 186.246307 186.066524 
L 186.246307 180.290082 
" clip-path="url(#pc54e1fb658)" style="fill: none; stroke: #1f77b4; stroke-width: 1.5"/>
    <path d="M 187.768125 185.170143 
L 187.768125 179.744469 
" clip-path="url(#pc54e1fb658)" style="fill: none; stroke: #1f77b4; stroke-width: 1.5"/>
    <path d="M 189.289943 189.217069 
L 189.289943 183.456209 
" clip-path="url(#pc54e1fb658)" style="fill: none; stroke: #1f77b4; stroke-width: 1.5"/>
    <path d="M 190.811761 196.864148 
L 190.811761 190.997594 
" clip-path="url(#pc54e1fb658)" style="fill: none; stroke: #1f77b4; stroke-width: 1.5"/>
    <path d="M 192.33358 190.225048 
L 192.33358 184.760965 
" clip-path="url(#pc54e1fb658)" style="fill: none; stroke: #1f77b4; stroke-width: 1.5"/>
    <path d="M 193.855398 196.55567 
L 193.855398 190.839309 
" clip-path="url(#pc54e1fb658)" style="fill: none; stroke: #1f77b4; stroke-width: 1.5"/>
    <path d="M 195.377216 195.260599 
L 195.377216 189.800861 
" clip-path="url(#pc54e1fb658)" style="fill: none; stroke: #1f77b4; stroke-width: 1.5"/>
    <path d="M 196.899034 202.618236 
L 196.899034 196.868729 
" clip-path="url(#pc54e1fb658)" style="fill: none; stroke: #1f77b4; stroke-width: 1.5"/>
    <path d="M 198.420852 199.688868 
L 198.420852 194.271312 
" clip-path="url(#pc54e1fb658)" style="fill: none; stroke: #1f77b4; stroke-width: 1.5"/>
    <path d="M 199.94267 198.615789 
L 199.94267 193.311447 
" clip-path="url(#pc54e1fb658)" style="fill: none; stroke: #1f77b4; stroke-width: 1.5"/>
    <path d="M 201.464489 199.377619 
L 201.464489 194.026763 
" clip-path="url(#pc54e1fb658)" style="fill: none; stroke: #1f77b4; stroke-width: 1.5"/>
    <path d="M 202.986307 205.311384 
L 202.986307 199.910661 
" clip-path="url(#pc54e1fb658)" style="fill: none; stroke: #1f77b4; stroke-width: 1.5"/>
    <path d="M 204.508125 198.822863 
L 204.508125 193.463988 
" clip-path="url(#pc54e1fb658)" style="fill: none; stroke: #1f77b4; stroke-width: 1.5"/>
    <path d="M 206.029943 202.261046 
L 206.029943 197.025648 
" clip-path="url(#pc54e1fb658)" style="fill: none; stroke: #1f77b4; stroke-width: 1.5"/>
    <path d="M 207.551761 200.64289 
L 207.551761 194.952882 
" clip-path="url(#pc54e1fb658)" style="fill: none; stroke: #1f77b4; stroke-width: 1.5"/>
    <path d="M 209.07358 209.172971 
L 209.07358 202.998384 
" clip-path="url(#pc54e1fb658)" style="fill: none; stroke: #1f77b4; stroke-width: 1.5"/>
    <path d="M 210.595398 204.057895 
L 210.595398 198.750982 
" clip-path="url(#pc54e1fb658)" style="fill: none; stroke: #1f77b4; stroke-width: 1.5"/>
    <path d="M 212.117216 201.622999 
L 212.117216 195.703795 
" clip-path="url(#pc54e1fb658)" style="fill: none; stroke: #1f77b4; stroke-width: 1.5"/>
    <path d="M 213.639034 208.808899 
L 213.639034 202.691335 
" clip-path="url(#pc54e1fb658)" style="fill: none; stroke: #1f77b4; stroke-width: 1.5"/>
    <path d="M 215.160852 205.482114 
L 215.160852 198.882707 
" clip-path="url(#pc54e1fb658)" style="fill: none; stroke: #1f77b4; stroke-width: 1.5"/>
    <path d="M 216.68267 205.534116 
L 216.68267 199.730635 
" clip-path="url(#pc54e1fb658)" style="fill: none; stroke: #1f77b4; stroke-width: 1.5"/>
    <path d="M 218.204489 203.263569 
L 218.204489 197.398013 
" clip-path="url(#pc54e1fb658)" style="fill: none; stroke: #1f77b4; stroke-width: 1.5"/>
    <path d="M 219.726307 200.397004 
L 219.726307 194.42203 
" clip-path="url(#pc54e1fb658)" style="fill: none; stroke: #1f77b4; stroke-width: 1.5"/>
    <path d="M 221.248125 202.037446 
L 221.248125 196.008618 
" clip-path="url(#pc54e1fb658)" style="fill: none; stroke: #1f77b4; stroke-width: 1.5"/>
    <path d="M 222.769943 203.768886 
L 222.769943 197.584895 
" clip-path="url(#pc54e1fb658)" style="fill: none; stroke: #1f77b4; stroke-width: 1.5"/>
    <path d="M 224.291761 201.750204 
L 224.291761 195.378465 
" clip-path="url(#pc54e1fb658)" style="fill: none; stroke: #1f77b4; stroke-width: 1.5"/>
    <path d="M 225.81358 202.779526 
L 225.81358 196.213597 
" clip-path="url(#pc54e1fb658)" style="fill: none; stroke: #1f77b4; stroke-width: 1.5"/>
    <path d="M 227.335398 200.939357 
L 227.335398 194.618882 
" clip-path="url(#pc54e1fb658)" style="fill: none; stroke: #1f77b4; stroke-width: 1.5"/>
    <path d="M 228.857216 203.114233 
L 228.857216 196.539133 
" clip-path="url(#pc54e1fb658)" style="fill: none; stroke: #1f77b4; stroke-width: 1.5"/>
    <path d="M 230.379034 202.753271 
L 230.379034 196.020565 
" clip-path="url(#pc54e1fb658)" style="fill: none; stroke: #1f77b4; stroke-width: 1.5"/>
    <path d="M 231.900852 204.975335 
L 231.900852 198.241233 
" clip-path="url(#pc54e1fb658)" style="fill: none; stroke: #1f77b4; stroke-width: 1.5"/>
    <path d="M 233.42267 211.684875 
L 233.42267 205.004832 
" clip-path="url(#pc54e1fb658)" style="fill: none; stroke: #1f77b4; stroke-width: 1.5"/>
    <path d="M 234.944489 206.433439 
L 234.944489 200.066312 
" clip-path="url(#pc54e1fb658)" style="fill: none; stroke: #1f77b4; stroke-width: 1.5"/>
    <path d="M 236.466307 203.919993 
L 236.466307 197.420336 
" clip-path="url(#pc54e1fb658)" style="fill: none; stroke: #1f77b4; stroke-width: 1.5"/>
    <path d="M 237.988125 202.680597 
L 237.988125 195.9126 
" clip-path="url(#pc54e1fb658)" style="fill: none; stroke: #1f77b4; stroke-width: 1.5"/>
    <path d="M 239.509943 201.670452 
L 239.509943 195.108234 
" clip-path="url(#pc54e1fb658)" style="fill: none; stroke: #1f77b4; stroke-width: 1.5"/>
    <path d="M 241.031761 200.437577 
L 241.031761 193.918597 
" clip-path="url(#pc54e1fb658)" style="fill: none; stroke: #1f77b4; stroke-width: 1.5"/>
    <path d="M 242.55358 204.63315 
L 242.55358 197.894914 
" clip-path="url(#pc54e1fb658)" style="fill: none; stroke: #1f77b4; stroke-width: 1.5"/>
    <path d="M 244.075398 203.203169 
L 244.075398 196.79489 
" clip-path="url(#pc54e1fb658)" style="fill: none; stroke: #1f77b4; stroke-width: 1.5"/>
    <path d="M 245.597216 200.862316 
L 245.597216 194.268892 
" clip-path="url(#pc54e1fb658)" style="fill: none; stroke: #1f77b4; stroke-width: 1.5"/>
    <path d="M 247.119034 200.102011 
L 247.119034 193.462655 
" clip-path="url(#pc54e1fb658)" style="fill: none; stroke: #1f77b4; stroke-width: 1.5"/>
    <path d="M 248.640852 204.9889 
L 248.640852 198.556635 
" clip-path="url(#pc54e1fb658)" style="fill: none; stroke: #1f77b4; stroke-width: 1.5"/>
    <path d="M 250.16267 201.36475 
L 250.16267 194.961101 
" clip-path="url(#pc54e1fb658)" style="fill: none; stroke: #1f77b4; stroke-width: 1.5"/>
    <path d="M 251.684489 202.014941 
L 251.684489 195.424502 
" clip-path="url(#pc54e1fb658)" style="fill: none; stroke: #1f77b4; stroke-width: 1.5"/>
    <path d="M 253.206307 206.281556 
L 253.206307 199.608335 
" clip-path="url(#pc54e1fb658)" style="fill: none; stroke: #1f77b4; stroke-width: 1.5"/>
    <path d="M 254.728125 209.498746 
L 254.728125 202.764461 
" clip-path="url(#pc54e1fb658)" style="fill: none; stroke: #1f77b4; stroke-width: 1.5"/>
    <path d="M 256.249943 208.927106 
L 256.249943 202.275057 
" clip-path="url(#pc54e1fb658)" style="fill: none; stroke: #1f77b4; stroke-width: 1.5"/>
    <path d="M 257.771761 208.806704 
L 257.771761 201.746338 
" clip-path="url(#pc54e1fb658)" style="fill: none; stroke: #1f77b4; stroke-width: 1.5"/>
    <path d="M 259.29358 209.178503 
L 259.29358 202.446643 
" clip-path="url(#pc54e1fb658)" style="fill: none; stroke: #1f77b4; stroke-width: 1.5"/>
    <path d="M 260.815398 206.537369 
L 260.815398 199.807433 
" clip-path="url(#pc54e1fb658)" style="fill: none; stroke: #1f77b4; stroke-width: 1.5"/>
    <path d="M 262.337216 207.376337 
L 262.337216 200.849378 
" clip-path="url(#pc54e1fb658)" style="fill: none; stroke: #1f77b4; stroke-width: 1.5"/>
    <path d="M 263.859034 204.266284 
L 263.859034 197.230285 
" clip-path="url(#pc54e1fb658)" style="fill: none; stroke: #1f77b4; stroke-width: 1.5"/>
    <path d="M 265.380852 205.295221 
L 265.380852 198.561242 
" clip-path="url(#pc54e1fb658)" style="fill: none; stroke: #1f77b4; stroke-width: 1.5"/>
    <path d="M 266.90267 208.682667 
L 266.90267 201.94158 
" clip-path="url(#pc54e1fb658)" style="fill: none; stroke: #1f77b4; stroke-width: 1.5"/>
    <path d="M 268.424489 203.669236 
L 268.424489 197.017121 
" clip-path="url(#pc54e1fb658)" style="fill: none; stroke: #1f77b4; stroke-width: 1.5"/>
    <path d="M 269.946307 211.173955 
L 269.946307 203.833145 
" clip-path="url(#pc54e1fb658)" style="fill: none; stroke: #1f77b4; stroke-width: 1.5"/>
    <path d="M 271.468125 206.098367 
L 271.468125 199.025905 
" clip-path="url(#pc54e1fb658)" style="fill: none; stroke: #1f77b4; stroke-width: 1.5"/>
    <path d="M 272.989943 204.591223 
L 272.989943 197.451119 
" clip-path="url(#pc54e1fb658)" style="fill: none; stroke: #1f77b4; stroke-width: 1.5"/>
    <path d="M 274.511761 208.539766 
L 274.511761 201.477089 
" clip-path="url(#pc54e1fb658)" style="fill: none; stroke: #1f77b4; stroke-width: 1.5"/>
    <path d="M 276.03358 207.122063 
L 276.03358 199.714601 
" clip-path="url(#pc54e1fb658)" style="fill: none; stroke: #1f77b4; stroke-width: 1.5"/>
    <path d="M 277.555398 205.580583 
L 277.555398 198.263674 
" clip-path="url(#pc54e1fb658)" style="fill: none; stroke: #1f77b4; stroke-width: 1.5"/>
    <path d="M 279.077216 203.757885 
L 279.077216 196.238606 
" clip-path="url(#pc54e1fb658)" style="fill: none; stroke: #1f77b4; stroke-width: 1.5"/>
    <path d="M 280.599034 208.303897 
L 280.599034 201.058387 
" clip-path="url(#pc54e1fb658)" style="fill: none; stroke: #1f77b4; stroke-width: 1.5"/>
    <path d="M 282.120852 199.065048 
L 282.120852 191.879123 
" clip-path="url(#pc54e1fb658)" style="fill: none; stroke: #1f77b4; stroke-width: 1.5"/>
    <path d="M 283.64267 203.654607 
L 283.64267 195.932728 
" clip-path="url(#pc54e1fb658)" style="fill: none; stroke: #1f77b4; stroke-width: 1.5"/>
    <path d="M 285.164489 207.648641 
L 285.164489 200.242906 
" clip-path="url(#pc54e1fb658)" style="fill: none; stroke: #1f77b4; stroke-width: 1.5"/>
    <path d="M 286.686307 216.206412 
L 286.686307 209.051622 
" clip-path="url(#pc54e1fb658)" style="fill: none; stroke: #1f77b4; stroke-width: 1.5"/>
    <path d="M 288.208125 208.454364 
L 288.208125 200.459466 
" clip-path="url(#pc54e1fb658)" style="fill: none; stroke: #1f77b4; stroke-width: 1.5"/>
    <path d="M 289.729943 213.19539 
L 289.729943 205.950253 
" clip-path="url(#pc54e1fb658)" style="fill: none; stroke: #1f77b4; stroke-width: 1.5"/>
    <path d="M 291.251761 213.122879 
L 291.251761 204.957885 
" clip-path="url(#pc54e1fb658)" style="fill: none; stroke: #1f77b4; stroke-width: 1.5"/>
    <path d="M 292.77358 208.587772 
L 292.77358 200.966608 
" clip-path="url(#pc54e1fb658)" style="fill: none; stroke: #1f77b4; stroke-width: 1.5"/>
    <path d="M 294.295398 213.560668 
L 294.295398 205.980537 
" clip-path="url(#pc54e1fb658)" style="fill: none; stroke: #1f77b4; stroke-width: 1.5"/>
    <path d="M 295.817216 202.644426 
L 295.817216 195.170615 
" clip-path="url(#pc54e1fb658)" style="fill: none; stroke: #1f77b4; stroke-width: 1.5"/>
    <path d="M 297.339034 209.715995 
L 297.339034 201.801371 
" clip-path="url(#pc54e1fb658)" style="fill: none; stroke: #1f77b4; stroke-width: 1.5"/>
    <path d="M 298.860852 210.877573 
L 298.860852 203.443309 
" clip-path="url(#pc54e1fb658)" style="fill: none; stroke: #1f77b4; stroke-width: 1.5"/>
    <path d="M 300.38267 204.613037 
L 300.38267 196.93139 
" clip-path="url(#pc54e1fb658)" style="fill: none; stroke: #1f77b4; stroke-width: 1.5"/>
    <path d="M 301.904489 211.977778 
L 301.904489 204.438569 
" clip-path="url(#pc54e1fb658)" style="fill: none; stroke: #1f77b4; stroke-width: 1.5"/>
    <path d="M 303.426307 206.901254 
L 303.426307 198.458748 
" clip-path="url(#pc54e1fb658)" style="fill: none; stroke: #1f77b4; stroke-width: 1.5"/>
    <path d="M 304.948125 211.202737 
L 304.948125 203.479905 
" clip-path="url(#pc54e1fb658)" style="fill: none; stroke: #1f77b4; stroke-width: 1.5"/>
    <path d="M 306.469943 201.774093 
L 306.469943 193.784537 
" clip-path="url(#pc54e1fb658)" style="fill: none; stroke: #1f77b4; stroke-width: 1.5"/>
    <path d="M 307.991761 210.432223 
L 307.991761 202.186279 
" clip-path="url(#pc54e1fb658)" style="fill: none; stroke: #1f77b4; stroke-width: 1.5"/>
    <path d="M 309.51358 206.331544 
L 309.51358 198.645939 
" clip-path="url(#pc54e1fb658)" style="fill: none; stroke: #1f77b4; stroke-width: 1.5"/>
    <path d="M 311.035398 209.799712 
L 311.035398 201.450248 
" clip-path="url(#pc54e1fb658)" style="fill: none; stroke: #1f77b4; stroke-width: 1.5"/>
    <path d="M 312.557216 218.88 
L 312.557216 210.923722 
" clip-path="url(#pc54e1fb658)" style="fill: none; stroke: #1f77b4; stroke-width: 1.5"/>
    <path d="M 314.079034 205.516689 
L 314.079034 197.438249 
" clip-path="url(#pc54e1fb658)" style="fill: none; stroke: #1f77b4; stroke-width: 1.5"/>
    <path d="M 315.600852 209.502006 
L 315.600852 201.358612 
" clip-path="url(#pc54e1fb658)" style="fill: none; stroke: #1f77b4; stroke-width: 1.5"/>
    <path d="M 317.12267 212.725585 
L 317.12267 204.808294 
" clip-path="url(#pc54e1fb658)" style="fill: none; stroke: #1f77b4; stroke-width: 1.5"/>
    <path d="M 318.644489 214.781002 
L 318.644489 207.014197 
" clip-path="url(#pc54e1fb658)" style="fill: none; stroke: #1f77b4; stroke-width: 1.5"/>
    <path d="M 320.166307 212.24358 
L 320.166307 203.964212 
" clip-path="url(#pc54e1fb658)" style="fill: none; stroke: #1f77b4; stroke-width: 1.5"/>
    <path d="M 321.688125 212.388693 
L 321.688125 203.353092 
" clip-path="url(#pc54e1fb658)" style="fill: none; stroke: #1f77b4; stroke-width: 1.5"/>
    <path d="M 323.209943 211.309466 
L 323.209943 203.236298 
" clip-path="url(#pc54e1fb658)" style="fill: none; stroke: #1f77b4; stroke-width: 1.5"/>
    <path d="M 324.731761 206.333495 
L 324.731761 197.306825 
" clip-path="url(#pc54e1fb658)" style="fill: none; stroke: #1f77b4; stroke-width: 1.5"/>
    <path d="M 326.25358 213.388113 
L 326.25358 205.287314 
" clip-path="url(#pc54e1fb658)" style="fill: none; stroke: #1f77b4; stroke-width: 1.5"/>
    <path d="M 327.775398 212.89856 
L 327.775398 204.34904 
" clip-path="url(#pc54e1fb658)" style="fill: none; stroke: #1f77b4; stroke-width: 1.5"/>
    <path d="M 329.297216 205.622461 
L 329.297216 197.319574 
" clip-path="url(#pc54e1fb658)" style="fill: none; stroke: #1f77b4; stroke-width: 1.5"/>
    <path d="M 330.819034 214.446865 
L 330.819034 206.282919 
" clip-path="url(#pc54e1fb658)" style="fill: none; stroke: #1f77b4; stroke-width: 1.5"/>
    <path d="M 332.340852 209.066787 
L 332.340852 200.280325 
" clip-path="url(#pc54e1fb658)" style="fill: none; stroke: #1f77b4; stroke-width: 1.5"/>
    <path d="M 333.86267 217.422078 
L 333.86267 209.783257 
" clip-path="url(#pc54e1fb658)" style="fill: none; stroke: #1f77b4; stroke-width: 1.5"/>
    <path d="M 335.384489 203.962301 
L 335.384489 195.464727 
" clip-path="url(#pc54e1fb658)" style="fill: none; stroke: #1f77b4; stroke-width: 1.5"/>
    <path d="M 336.906307 216.415962 
L 336.906307 207.375181 
" clip-path="url(#pc54e1fb658)" style="fill: none; stroke: #1f77b4; stroke-width: 1.5"/>
    <path d="M 338.428125 212.402379 
L 338.428125 203.442552 
" clip-path="url(#pc54e1fb658)" style="fill: none; stroke: #1f77b4; stroke-width: 1.5"/>
    <path d="M 339.949943 210.947262 
L 339.949943 201.345425 
" clip-path="url(#pc54e1fb658)" style="fill: none; stroke: #1f77b4; stroke-width: 1.5"/>
    <path d="M 341.471761 215.7891 
L 341.471761 207.33263 
" clip-path="url(#pc54e1fb658)" style="fill: none; stroke: #1f77b4; stroke-width: 1.5"/>
    <path d="M 342.99358 205.627028 
L 342.99358 196.088848 
" clip-path="url(#pc54e1fb658)" style="fill: none; stroke: #1f77b4; stroke-width: 1.5"/>
    <path d="M 344.515398 206.551276 
L 344.515398 197.862368 
" clip-path="url(#pc54e1fb658)" style="fill: none; stroke: #1f77b4; stroke-width: 1.5"/>
    <path d="M 346.037216 205.325572 
L 346.037216 196.251564 
" clip-path="url(#pc54e1fb658)" style="fill: none; stroke: #1f77b4; stroke-width: 1.5"/>
    <path d="M 347.559034 216.910374 
L 347.559034 206.912403 
" clip-path="url(#pc54e1fb658)" style="fill: none; stroke: #1f77b4; stroke-width: 1.5"/>
    <path d="M 349.080852 210.656415 
L 349.080852 201.421886 
" clip-path="url(#pc54e1fb658)" style="fill: none; stroke: #1f77b4; stroke-width: 1.5"/>
    <path d="M 350.60267 209.934501 
L 350.60267 200.684046 
" clip-path="url(#pc54e1fb658)" style="fill: none; stroke: #1f77b4; stroke-width: 1.5"/>
    <path d="M 352.124489 212.312769 
L 352.124489 202.239417 
" clip-path="url(#pc54e1fb658)" style="fill: none; stroke: #1f77b4; stroke-width: 1.5"/>
    <path d="M 353.646307 215.446759 
L 353.646307 206.397572 
" clip-path="url(#pc54e1fb658)" style="fill: none; stroke: #1f77b4; stroke-width: 1.5"/>
    <path d="M 355.168125 208.348479 
L 355.168125 199.286067 
" clip-path="url(#pc54e1fb658)" style="fill: none; stroke: #1f77b4; stroke-width: 1.5"/>
    <path d="M 356.689943 205.793756 
L 356.689943 196.192285 
" clip-path="url(#pc54e1fb658)" style="fill: none; stroke: #1f77b4; stroke-width: 1.5"/>
    <path d="M 358.211761 213.533317 
L 358.211761 203.95045 
" clip-path="url(#pc54e1fb658)" style="fill: none; stroke: #1f77b4; stroke-width: 1.5"/>
    <path d="M 359.73358 201.63704 
L 359.73358 192.333941 
" clip-path="url(#pc54e1fb658)" style="fill: none; stroke: #1f77b4; stroke-width: 1.5"/>
    <path d="M 361.255398 203.207494 
L 361.255398 194.177218 
" clip-path="url(#pc54e1fb658)" style="fill: none; stroke: #1f77b4; stroke-width: 1.5"/>
    <path d="M 362.777216 205.66143 
L 362.777216 196.574874 
" clip-path="url(#pc54e1fb658)" style="fill: none; stroke: #1f77b4; stroke-width: 1.5"/>
    <path d="M 364.299034 209.103381 
L 364.299034 199.271341 
" clip-path="url(#pc54e1fb658)" style="fill: none; stroke: #1f77b4; stroke-width: 1.5"/>
   </g>
   <g id="patch_3">
    <path d="M 45.478125 228.96 
L 45.478125 7.2 
" style="fill: none; stroke: #000000; stroke-width: 0.8; stroke-linejoin: miter; stroke-linecap: square"/>
   </g>
   <g id="patch_4">
    <path d="M 380.278125 228.96 
L 380.278125 7.2 
" style="fill: none; stroke: #000000; stroke-width: 0.8; stroke-linejoin: miter; stroke-linecap: square"/>
   </g>
   <g id="patch_5">
    <path d="M 45.478125 228.96 
L 380.278125 228.96 
" style="fill: none; stroke: #000000; stroke-width: 0.8; stroke-linejoin: miter; stroke-linecap: square"/>
   </g>
   <g id="patch_6">
    <path d="M 45.478125 7.2 
L 380.278125 7.2 
" style="fill: none; stroke: #000000; stroke-width: 0.8; stroke-linejoin: miter; stroke-linecap: square"/>
   </g>
  </g>
 </g>
 <defs>
  <clipPath id="pc54e1fb658">
   <rect x="45.478125" y="7.2" width="334.8" height="221.76"/>
  </clipPath>
 </defs>
</svg>