<?xml version="1.0" encoding="UTF-8" standalone="no"?>
<!DOCTYPE svg PUBLIC "-//W3C//DTD SVG 1.1//EN"
 "http://www.w3.org/Graphics/SVG/1.1/DTD/svg11.dtd">
<!-- Generated by graphviz version 2.43.0 (0)
 -->
<!-- Title: %3 Pages: 1 -->
<svg width="695pt" height="519pt"
 viewBox="0.00 0.00 695.00 519.00" xmlns="http://www.w3.org/2000/svg" xmlns:xlink="http://www.w3.org/1999/xlink">
<g id="graph0" class="graph" transform="scale(1 1) rotate(0) translate(4 515)">
<title>%3</title>
<polygon fill="white" stroke="transparent" points="-4,4 -4,-515 691,-515 691,4 -4,4"/>
<g id="clust2" class="cluster">
<title>cluster_CorrectedData</title>
<polygon fill="#f0f0ff" stroke="#f0f0ff" points="186,-287 186,-357 415,-357 415,-287 186,-287"/>
<text text-anchor="start" x="247.5" y="-342.8" font-family="Times,serif" font-size="14.00">CorrectedData</text>
<text text-anchor="start" x="217.5" y="-331.2" font-family="Times,serif" font-size="11.00">via:</text>
<text text-anchor="start" x="238.5" y="-331.2" font-family="Times,serif" font-style="italic" font-size="11.00">correct_beamline_params</text>
</g>
<g id="clust4" class="cluster">
<title>cluster_DspacingData</title>
<polygon fill="#f0f0ff" stroke="#f0f0ff" points="186,-209 186,-279 415,-279 415,-209 186,-209"/>
<text text-anchor="start" x="250.5" y="-264.8" font-family="Times,serif" font-size="14.00">DspacingData</text>
<text text-anchor="start" x="256.5" y="-253.2" font-family="Times,serif" font-size="11.00">via:</text>
<text text-anchor="start" x="277.5" y="-253.2" font-family="Times,serif" font-style="italic" font-size="11.00">to_dspacing</text>
</g>
<g id="clust5" class="cluster">
<title>cluster_Foldername</title>
<polygon fill="#f0f0ff" stroke="#f0f0ff" points="123,-443 123,-503 352,-503 352,-443 123,-443"/>
<text text-anchor="middle" x="237.5" y="-487.8" font-family="Times,serif" font-size="14.00">Foldername</text>
</g>
<g id="clust7" class="cluster">
<title>cluster_HistogramTwothetaDspacing</title>
<polygon fill="#f0f0ff" stroke="#f0f0ff" points="246,-131 246,-201 475,-201 475,-131 246,-131"/>
<text text-anchor="start" x="256" y="-186.8" font-family="Times,serif" font-size="14.00">HistogramTwothetaDspacing</text>
<text text-anchor="start" x="313" y="-175.2" font-family="Times,serif" font-size="11.00">via:</text>
<text text-anchor="start" x="334" y="-175.2" font-family="Times,serif" font-style="italic" font-size="11.00">to_histogram</text>
</g>
<g id="clust9" class="cluster">
<title>cluster_RawData</title>
<polygon fill="#f0f0ff" stroke="#f0f0ff" points="123,-365 123,-435 352,-435 352,-365 123,-365"/>
<text text-anchor="start" x="205" y="-420.8" font-family="Times,serif" font-size="14.00">RawData</text>
<text text-anchor="start" x="214.5" y="-409.2" font-family="Times,serif" font-size="11.00">via:</text>
<text text-anchor="start" x="235.5" y="-409.2" font-family="Times,serif" font-style="italic" font-size="11.00">load</text>
</g>
<!-- CoordTransformGraph -->
<g id="node1" class="node">
<title>CoordTransformGraph</title>
<polygon fill="none" stroke="red" stroke-dasharray="5,2" points="178,-317 0,-317 0,-294 178,-294 178,-317"/>
<text text-anchor="middle" x="89" y="-301.8" font-family="Times,serif" font-size="14.00" fill="red">CoordTransformGraph</text>
</g>
<!-- DspacingData[SampleRun] -->
<g id="node9" class="node">
<title>DspacingData[SampleRun]</title>
<polygon fill="none" stroke="black" points="406.5,-238 311.5,-238 311.5,-217 406.5,-217 406.5,-238"/>
<text text-anchor="start" x="319.5" y="-224.4" font-family="Times,serif" font-size="12.00">[SampleRun]</text>
</g>
<!-- CoordTransformGraph&#45;&gt;DspacingData[SampleRun] -->
<g id="edge6" class="edge">
<title>CoordTransformGraph&#45;&gt;DspacingData[SampleRun]</title>
<path fill="none" stroke="black" stroke-width="2" d="M140.65,-293.96C154.96,-291.34 170.54,-288.78 185,-287 209.21,-284.02 268.05,-288.91 298.27,-282.08"/>
<polygon fill="black" stroke="black" stroke-width="2" points="299.53,-285.36 308,-279 297.41,-278.69 299.53,-285.36"/>
</g>
<!-- RawData[SampleRun] -->
<g id="node2" class="node">
<title>RawData[SampleRun]</title>
<polygon fill="none" stroke="black" points="343.5,-394 248.5,-394 248.5,-373 343.5,-373 343.5,-394"/>
<text text-anchor="start" x="256.5" y="-380.4" font-family="Times,serif" font-size="12.00">[SampleRun]</text>
</g>
<!-- CorrectedData[SampleRun] -->
<g id="node3" class="node">
<title>CorrectedData[SampleRun]</title>
<polygon fill="none" stroke="black" points="406.5,-316 311.5,-316 311.5,-295 406.5,-295 406.5,-316"/>
<text text-anchor="start" x="319.5" y="-302.4" font-family="Times,serif" font-size="12.00">[SampleRun]</text>
</g>
<!-- RawData[SampleRun]&#45;&gt;CorrectedData[SampleRun] -->
<g id="edge1" class="edge">
<title>RawData[SampleRun]&#45;&gt;CorrectedData[SampleRun]</title>
<path fill="none" stroke="black" d="M303.98,-372.87C314.05,-360.72 331.59,-339.57 344.15,-324.41"/>
<polygon fill="black" stroke="black" points="347.2,-326.22 350.89,-316.29 341.81,-321.75 347.2,-326.22"/>
</g>
<!-- CorrectedData[SampleRun]&#45;&gt;DspacingData[SampleRun] -->
<g id="edge5" class="edge">
<title>CorrectedData[SampleRun]&#45;&gt;DspacingData[SampleRun]</title>
<path fill="none" stroke="black" d="M359,-294.87C359,-283.29 359,-263.53 359,-248.57"/>
<polygon fill="black" stroke="black" points="362.5,-248.29 359,-238.29 355.5,-248.29 362.5,-248.29"/>
</g>
<!-- SourcePosition -->
<g id="node4" class="node">
<title>SourcePosition</title>
<polygon fill="none" stroke="red" stroke-dasharray="5,2" points="483.5,-395 360.5,-395 360.5,-372 483.5,-372 483.5,-395"/>
<text text-anchor="middle" x="422" y="-379.8" font-family="Times,serif" font-size="14.00" fill="red">SourcePosition</text>
</g>
<!-- SourcePosition&#45;&gt;CorrectedData[SampleRun] -->
<g id="edge2" class="edge">
<title>SourcePosition&#45;&gt;CorrectedData[SampleRun]</title>
<path fill="none" stroke="black" stroke-width="2" d="M413.24,-371.93C411.5,-369.83 409.56,-367.49 407.47,-364.98"/>
<polygon fill="black" stroke="black" stroke-width="2" points="409.94,-362.46 400.86,-357 404.55,-366.93 409.94,-362.46"/>
</g>
<!-- TimeOrigin -->
<g id="node5" class="node">
<title>TimeOrigin</title>
<polygon fill="none" stroke="red" stroke-dasharray="5,2" points="587.5,-395 490.5,-395 490.5,-372 587.5,-372 587.5,-395"/>
<text text-anchor="middle" x="539" y="-379.8" font-family="Times,serif" font-size="14.00" fill="red">TimeOrigin</text>
</g>
<!-- TimeOrigin&#45;&gt;CorrectedData[SampleRun] -->
<g id="edge3" class="edge">
<title>TimeOrigin&#45;&gt;CorrectedData[SampleRun]</title>
<path fill="none" stroke="black" stroke-width="2" d="M513.97,-371.93C490.88,-362.18 455.57,-347.28 424.49,-334.15"/>
<polygon fill="black" stroke="black" stroke-width="2" points="425.57,-330.81 415,-330.14 422.85,-337.26 425.57,-330.81"/>
</g>
<!-- RawData[VanadiumRun] -->
<g id="node6" class="node">
<title>RawData[VanadiumRun]</title>
<polygon fill="none" stroke="black" points="241,-394 131,-394 131,-373 241,-373 241,-394"/>
<text text-anchor="start" x="139" y="-380.4" font-family="Times,serif" font-size="12.00">[VanadiumRun]</text>
</g>
<!-- CorrectedData[VanadiumRun] -->
<g id="node7" class="node">
<title>CorrectedData[VanadiumRun]</title>
<polygon fill="none" stroke="black" points="304,-316 194,-316 194,-295 304,-295 304,-316"/>
<text text-anchor="start" x="202" y="-302.4" font-family="Times,serif" font-size="12.00">[VanadiumRun]</text>
</g>
<!-- RawData[VanadiumRun]&#45;&gt;CorrectedData[VanadiumRun] -->
<g id="edge4" class="edge">
<title>RawData[VanadiumRun]&#45;&gt;CorrectedData[VanadiumRun]</title>
<path fill="none" stroke="black" d="M193.98,-372.87C204.05,-360.72 221.59,-339.57 234.15,-324.41"/>
<polygon fill="black" stroke="black" points="237.2,-326.22 240.89,-316.29 231.81,-321.75 237.2,-326.22"/>
</g>
<!-- DspacingData[VanadiumRun] -->
<g id="node10" class="node">
<title>DspacingData[VanadiumRun]</title>
<polygon fill="none" stroke="black" points="304,-238 194,-238 194,-217 304,-217 304,-238"/>
<text text-anchor="start" x="202" y="-224.4" font-family="Times,serif" font-size="12.00">[VanadiumRun]</text>
</g>
<!-- CorrectedData[VanadiumRun]&#45;&gt;DspacingData[VanadiumRun] -->
<g id="edge7" class="edge">
<title>CorrectedData[VanadiumRun]&#45;&gt;DspacingData[VanadiumRun]</title>
<path fill="none" stroke="black" d="M249,-294.87C249,-283.29 249,-263.53 249,-248.57"/>
<polygon fill="black" stroke="black" points="252.5,-248.29 249,-238.29 245.5,-248.29 252.5,-248.29"/>
</g>
<!-- DspacingBins -->
<g id="node8" class="node">
<title>DspacingBins</title>
<polygon fill="none" stroke="red" stroke-dasharray="5,2" points="537,-239 423,-239 423,-216 537,-216 537,-239"/>
<text text-anchor="middle" x="480" y="-223.8" font-family="Times,serif" font-size="14.00" fill="red">DspacingBins</text>
</g>
<!-- HistogramTwothetaDspacing[SampleRun] -->
<g id="node14" class="node">
<title>HistogramTwothetaDspacing[SampleRun]</title>
<polygon fill="none" stroke="black" points="466.5,-160 371.5,-160 371.5,-139 466.5,-139 466.5,-160"/>
<text text-anchor="start" x="379.5" y="-146.4" font-family="Times,serif" font-size="12.00">[SampleRun]</text>
</g>
<!-- DspacingBins&#45;&gt;HistogramTwothetaDspacing[SampleRun] -->
<g id="edge10" class="edge">
<title>DspacingBins&#45;&gt;HistogramTwothetaDspacing[SampleRun]</title>
<path fill="none" stroke="black" stroke-width="2" d="M471.52,-215.93C469.83,-213.83 467.95,-211.49 465.94,-208.98"/>
<polygon fill="black" stroke="black" stroke-width="2" points="468.52,-206.61 459.53,-201 463.06,-210.99 468.52,-206.61"/>
</g>
<!-- DspacingData[SampleRun]&#45;&gt;HistogramTwothetaDspacing[SampleRun] -->
<g id="edge8" class="edge">
<title>DspacingData[SampleRun]&#45;&gt;HistogramTwothetaDspacing[SampleRun]</title>
<path fill="none" stroke="black" d="M366.6,-216.87C376.19,-204.72 392.89,-183.57 404.86,-168.41"/>
<polygon fill="black" stroke="black" points="407.82,-170.3 411.27,-160.29 402.33,-165.97 407.82,-170.3"/>
</g>
<!-- HistogramTwothetaDspacing[VanadiumRun] -->
<g id="node16" class="node">
<title>HistogramTwothetaDspacing[VanadiumRun]</title>
<polygon fill="none" stroke="black" points="364,-160 254,-160 254,-139 364,-139 364,-160"/>
<text text-anchor="start" x="262" y="-146.4" font-family="Times,serif" font-size="12.00">[VanadiumRun]</text>
</g>
<!-- DspacingData[VanadiumRun]&#45;&gt;HistogramTwothetaDspacing[VanadiumRun] -->
<g id="edge11" class="edge">
<title>DspacingData[VanadiumRun]&#45;&gt;HistogramTwothetaDspacing[VanadiumRun]</title>
<path fill="none" stroke="black" d="M256.6,-216.87C266.19,-204.72 282.89,-183.57 294.86,-168.41"/>
<polygon fill="black" stroke="black" points="297.82,-170.3 301.27,-160.29 292.33,-165.97 297.82,-170.3"/>
</g>
<!-- Foldername[SampleRun] -->
<g id="node11" class="node">
<title>Foldername[SampleRun]</title>
<polygon fill="none" stroke="red" stroke-dasharray="5,2" points="343.5,-472 248.5,-472 248.5,-451 343.5,-451 343.5,-472"/>
<text text-anchor="start" x="256.5" y="-458.4" font-family="Times,serif" font-size="12.00" fill="red">[SampleRun]</text>
</g>
<!-- Foldername[SampleRun]&#45;&gt;RawData[SampleRun] -->
<g id="edge14" class="edge">
<title>Foldername[SampleRun]&#45;&gt;RawData[SampleRun]</title>
<path fill="none" stroke="black" d="M296,-450.87C296,-439.29 296,-419.53 296,-404.57"/>
<polygon fill="black" stroke="black" points="299.5,-404.29 296,-394.29 292.5,-404.29 299.5,-404.29"/>
</g>
<!-- Foldername[VanadiumRun] -->
<g id="node12" class="node">
<title>Foldername[VanadiumRun]</title>
<polygon fill="none" stroke="red" stroke-dasharray="5,2" points="241,-472 131,-472 131,-451 241,-451 241,-472"/>
<text text-anchor="start" x="139" y="-458.4" font-family="Times,serif" font-size="12.00" fill="red">[VanadiumRun]</text>
</g>
<!-- Foldername[VanadiumRun]&#45;&gt;RawData[VanadiumRun] -->
<g id="edge15" class="edge">
<title>Foldername[VanadiumRun]&#45;&gt;RawData[VanadiumRun]</title>
<path fill="none" stroke="black" d="M186,-450.87C186,-439.29 186,-419.53 186,-404.57"/>
<polygon fill="black" stroke="black" points="189.5,-404.29 186,-394.29 182.5,-404.29 189.5,-404.29"/>
</g>
<!-- GaussianSmoothingSigma -->
<g id="node13" class="node">
<title>GaussianSmoothingSigma</title>
<polygon fill="none" stroke="red" stroke-dasharray="5,2" points="687,-161 483,-161 483,-138 687,-138 687,-161"/>
<text text-anchor="middle" x="585" y="-145.8" font-family="Times,serif" font-size="14.00" fill="red">GaussianSmoothingSigma</text>
</g>
<!-- SmoothedVanadium -->
<g id="node19" class="node">
<title>SmoothedVanadium</title>
<polygon fill="none" stroke="black" points="661.5,-102 502.5,-102 502.5,-69 661.5,-69 661.5,-102"/>
<text text-anchor="start" x="510.5" y="-87.8" font-family="Times,serif" font-size="14.00">SmoothedVanadium</text>
<text text-anchor="start" x="521" y="-76.2" font-family="Times,serif" font-size="11.00">via:</text>
<text text-anchor="start" x="542" y="-76.2" font-family="Times,serif" font-style="italic" font-size="11.00">smooth_vanadium</text>
</g>
<!-- GaussianSmoothingSigma&#45;&gt;SmoothedVanadium -->
<g id="edge18" class="edge">
<title>GaussianSmoothingSigma&#45;&gt;SmoothedVanadium</title>
<path fill="none" stroke="black" d="M584.49,-137.98C584.15,-130.93 583.68,-121.32 583.25,-112.31"/>
<polygon fill="black" stroke="black" points="586.74,-112.02 582.76,-102.2 579.75,-112.36 586.74,-112.02"/>
</g>
<!-- SampleDspacing -->
<g id="node17" class="node">
<title>SampleDspacing</title>
<polygon fill="none" stroke="black" points="495,-102 343,-102 343,-69 495,-69 495,-102"/>
<text text-anchor="start" x="359" y="-87.8" font-family="Times,serif" font-size="14.00">SampleDspacing</text>
<text text-anchor="start" x="351" y="-76.2" font-family="Times,serif" font-size="11.00">via:</text>
<text text-anchor="start" x="372" y="-76.2" font-family="Times,serif" font-style="italic" font-size="11.00">sum_over_two_theta</text>
</g>
<!-- HistogramTwothetaDspacing[SampleRun]&#45;&gt;SampleDspacing -->
<g id="edge16" class="edge">
<title>HistogramTwothetaDspacing[SampleRun]&#45;&gt;SampleDspacing</title>
<path fill="none" stroke="black" d="M419,-138.81C419,-131.69 419,-121.65 419,-112.27"/>
<polygon fill="black" stroke="black" points="422.5,-112.15 419,-102.15 415.5,-112.15 422.5,-112.15"/>
</g>
<!-- TwoThetaBins -->
<g id="node15" class="node">
<title>TwoThetaBins</title>
<polygon fill="none" stroke="red" stroke-dasharray="5,2" points="662,-239 544,-239 544,-216 662,-216 662,-239"/>
<text text-anchor="middle" x="603" y="-223.8" font-family="Times,serif" font-size="14.00" fill="red">TwoThetaBins</text>
</g>
<!-- TwoThetaBins&#45;&gt;HistogramTwothetaDspacing[SampleRun] -->
<g id="edge9" class="edge">
<title>TwoThetaBins&#45;&gt;HistogramTwothetaDspacing[SampleRun]</title>
<path fill="none" stroke="black" stroke-width="2" d="M568.22,-215.91C559.1,-213.39 549.23,-210.89 540,-209 516.63,-204.22 506.91,-210.1 484.33,-202.32"/>
<polygon fill="black" stroke="black" stroke-width="2" points="485.58,-199.05 475,-198.63 483.01,-205.56 485.58,-199.05"/>
</g>
<!-- HistogramTwothetaDspacing[VanadiumRun]&#45;&gt;SmoothedVanadium -->
<g id="edge17" class="edge">
<title>HistogramTwothetaDspacing[VanadiumRun]&#45;&gt;SmoothedVanadium</title>
<path fill="none" stroke="black" d="M339.49,-138.93C348.61,-136.21 358.68,-133.35 368,-131 408.54,-120.79 453.81,-111.13 492.24,-103.43"/>
<polygon fill="black" stroke="black" points="493.25,-106.8 502.37,-101.42 491.88,-99.94 493.25,-106.8"/>
</g>
<!-- NormalizedDspacing -->
<g id="node18" class="node">
<title>NormalizedDspacing</title>
<polygon fill="none" stroke="black" points="582.5,-33 417.5,-33 417.5,0 582.5,0 582.5,-33"/>
<text text-anchor="start" x="425.5" y="-18.8" font-family="Times,serif" font-size="14.00">NormalizedDspacing</text>
<text text-anchor="start" x="461" y="-7.2" font-family="Times,serif" font-size="11.00">via:</text>
<text text-anchor="start" x="482" y="-7.2" font-family="Times,serif" font-style="italic" font-size="11.00">normalize</text>
</g>
<!-- SampleDspacing&#45;&gt;NormalizedDspacing -->
<g id="edge12" class="edge">
<title>SampleDspacing&#45;&gt;NormalizedDspacing</title>
<path fill="none" stroke="black" d="M437.79,-68.96C448.34,-60.23 461.69,-49.19 473.32,-39.57"/>
<polygon fill="black" stroke="black" points="475.56,-42.26 481.03,-33.19 471.1,-36.86 475.56,-42.26"/>
</g>
<!-- SmoothedVanadium&#45;&gt;NormalizedDspacing -->
<g id="edge13" class="edge">
<title>SmoothedVanadium&#45;&gt;NormalizedDspacing</title>
<path fill="none" stroke="black" d="M562.98,-68.96C552.29,-60.23 538.78,-49.19 527.01,-39.57"/>
<polygon fill="black" stroke="black" points="529.16,-36.8 519.2,-33.19 524.73,-42.22 529.16,-36.8"/>
</g>
</g>
</svg>