<?xml version="1.0" encoding="utf-8" standalone="no"?>
<!DOCTYPE svg PUBLIC "-//W3C//DTD SVG 1.1//EN"
  "http://www.w3.org/Graphics/SVG/1.1/DTD/svg11.dtd">
<svg xmlns:xlink="http://www.w3.org/1999/xlink" width="403.092438pt" height="267.439687pt" viewBox="0 0 403.092438 267.439687" xmlns="http://www.w3.org/2000/svg" version="1.1">
 <metadata>
  <rdf:RDF xmlns:dc="http://purl.org/dc/elements/1.1/" xmlns:cc="http://creativecommons.org/ns#" xmlns:rdf="http://www.w3.org/1999/02/22-rdf-syntax-ns#">
   <cc:Work>
    <dc:type rdf:resource="http://purl.org/dc/dcmitype/StillImage"/>
    <dc:date>2025-11-24T17:21:28.499740</dc:date>
    <dc:format>image/svg+xml</dc:format>
    <dc:creator>
     <cc:Agent>
      <dc:title>Matplotlib v3.10.5, https://matplotlib.org/</dc:title>
     </cc:Agent>
    </dc:creator>
   </cc:Work>
  </rdf:RDF>
 </metadata>
 <defs>
  <style type="text/css">*{stroke-linejoin: round; stroke-linecap: butt}</style>
 </defs>
 <g id="figure_1">
  <g id="patch_1">
   <path d="M 0 267.439687 
L 403.092438 267.439687 
L 403.092438 0 
L 0 0 
z
" style="fill: #ffffff"/>
  </g>
  <g id="axes_1">
   <g id="patch_2">
    <path d="M 46.965625 228.96 
L 381.765625 228.96 
L 381.765625 7.2 
L 46.965625 7.2 
z
" style="fill: #ffffff"/>
   </g>
   <g id="matplotlib.axis_1">
    <g id="xtick_1">
     <g id="line2d_1">
      <defs>
       <path id="m3ea29e7d7d" d="M 0 0 
L 0 3.5 
" style="stroke: #000000; stroke-width: 0.8"/>
      </defs>
      <g>
       <use xlink:href="#m3ea29e7d7d" x="54.737132" y="228.96" style="stroke: #000000; stroke-width: 0.8"/>
      </g>
     </g>
     <g id="text_1">
      <!-- 0.000 -->
      <g transform="translate(40.423069 243.558437) scale(0.1 -0.1)">
       <defs>
        <path id="DejaVuSans-30" d="M 2034 4250 
Q 1547 4250 1301 3770 
Q 1056 3291 1056 2328 
Q 1056 1369 1301 889 
Q 1547 409 2034 409 
Q 2525 409 2770 889 
Q 3016 1369 3016 2328 
Q 3016 3291 2770 3770 
Q 2525 4250 2034 4250 
z
M 2034 4750 
Q 2819 4750 3233 4129 
Q 3647 3509 3647 2328 
Q 3647 1150 3233 529 
Q 2819 -91 2034 -91 
Q 1250 -91 836 529 
Q 422 1150 422 2328 
Q 422 3509 836 4129 
Q 1250 4750 2034 4750 
z
" transform="scale(0.015625)"/>
        <path id="DejaVuSans-2e" d="M 684 794 
L 1344 794 
L 1344 0 
L 684 0 
L 684 794 
z
" transform="scale(0.015625)"/>
       </defs>
       <use xlink:href="#DejaVuSans-30"/>
       <use xlink:href="#DejaVuSans-2e" transform="translate(63.623047 0)"/>
       <use xlink:href="#DejaVuSans-30" transform="translate(95.410156 0)"/>
       <use xlink:href="#DejaVuSans-30" transform="translate(159.033203 0)"/>
       <use xlink:href="#DejaVuSans-30" transform="translate(222.65625 0)"/>
      </g>
     </g>
    </g>
    <g id="xtick_2">
     <g id="line2d_2">
      <g>
       <use xlink:href="#m3ea29e7d7d" x="95.592287" y="228.96" style="stroke: #000000; stroke-width: 0.8"/>
      </g>
     </g>
     <g id="text_2">
      <!-- 0.025 -->
      <g transform="translate(81.278225 243.558437) scale(0.1 -0.1)">
       <defs>
        <path id="DejaVuSans-32" d="M 1228 531 
L 3431 531 
L 3431 0 
L 469 0 
L 469 531 
Q 828 903 1448 1529 
Q 2069 2156 2228 2338 
Q 2531 2678 2651 2914 
Q 2772 3150 2772 3378 
Q 2772 3750 2511 3984 
Q 2250 4219 1831 4219 
Q 1534 4219 1204 4116 
Q 875 4013 500 3803 
L 500 4441 
Q 881 4594 1212 4672 
Q 1544 4750 1819 4750 
Q 2544 4750 2975 4387 
Q 3406 4025 3406 3419 
Q 3406 3131 3298 2873 
Q 3191 2616 2906 2266 
Q 2828 2175 2409 1742 
Q 1991 1309 1228 531 
z
" transform="scale(0.015625)"/>
        <path id="DejaVuSans-35" d="M 691 4666 
L 3169 4666 
L 3169 4134 
L 1269 4134 
L 1269 2991 
Q 1406 3038 1543 3061 
Q 1681 3084 1819 3084 
Q 2600 3084 3056 2656 
Q 3513 2228 3513 1497 
Q 3513 744 3044 326 
Q 2575 -91 1722 -91 
Q 1428 -91 1123 -41 
Q 819 9 494 109 
L 494 744 
Q 775 591 1075 516 
Q 1375 441 1709 441 
Q 2250 441 2565 725 
Q 2881 1009 2881 1497 
Q 2881 1984 2565 2268 
Q 2250 2553 1709 2553 
Q 1456 2553 1204 2497 
Q 953 2441 691 2322 
L 691 4666 
z
" transform="scale(0.015625)"/>
       </defs>
       <use xlink:href="#DejaVuSans-30"/>
       <use xlink:href="#DejaVuSans-2e" transform="translate(63.623047 0)"/>
       <use xlink:href="#DejaVuSans-30" transform="translate(95.410156 0)"/>
       <use xlink:href="#DejaVuSans-32" transform="translate(159.033203 0)"/>
       <use xlink:href="#DejaVuSans-35" transform="translate(222.65625 0)"/>
      </g>
     </g>
    </g>
    <g id="xtick_3">
     <g id="line2d_3">
      <g>
       <use xlink:href="#m3ea29e7d7d" x="136.447443" y="228.96" style="stroke: #000000; stroke-width: 0.8"/>
      </g>
     </g>
     <g id="text_3">
      <!-- 0.050 -->
      <g transform="translate(122.13338 243.558437) scale(0.1 -0.1)">
       <use xlink:href="#DejaVuSans-30"/>
       <use xlink:href="#DejaVuSans-2e" transform="translate(63.623047 0)"/>
       <use xlink:href="#DejaVuSans-30" transform="translate(95.410156 0)"/>
       <use xlink:href="#DejaVuSans-35" transform="translate(159.033203 0)"/>
       <use xlink:href="#DejaVuSans-30" transform="translate(222.65625 0)"/>
      </g>
     </g>
    </g>
    <g id="xtick_4">
     <g id="line2d_4">
      <g>
       <use xlink:href="#m3ea29e7d7d" x="177.302598" y="228.96" style="stroke: #000000; stroke-width: 0.8"/>
      </g>
     </g>
     <g id="text_4">
      <!-- 0.075 -->
      <g transform="translate(162.988535 243.558437) scale(0.1 -0.1)">
       <defs>
        <path id="DejaVuSans-37" d="M 525 4666 
L 3525 4666 
L 3525 4397 
L 1831 0 
L 1172 0 
L 2766 4134 
L 525 4134 
L 525 4666 
z
" transform="scale(0.015625)"/>
       </defs>
       <use xlink:href="#DejaVuSans-30"/>
       <use xlink:href="#DejaVuSans-2e" transform="translate(63.623047 0)"/>
       <use xlink:href="#DejaVuSans-30" transform="translate(95.410156 0)"/>
       <use xlink:href="#DejaVuSans-37" transform="translate(159.033203 0)"/>
       <use xlink:href="#DejaVuSans-35" transform="translate(222.65625 0)"/>
      </g>
     </g>
    </g>
    <g id="xtick_5">
     <g id="line2d_5">
      <g>
       <use xlink:href="#m3ea29e7d7d" x="218.157753" y="228.96" style="stroke: #000000; stroke-width: 0.8"/>
      </g>
     </g>
     <g id="text_5">
      <!-- 0.100 -->
      <g transform="translate(203.843691 243.558437) scale(0.1 -0.1)">
       <defs>
        <path id="DejaVuSans-31" d="M 794 531 
L 1825 531 
L 1825 4091 
L 703 3866 
L 703 4441 
L 1819 4666 
L 2450 4666 
L 2450 531 
L 3481 531 
L 3481 0 
L 794 0 
L 794 531 
z
" transform="scale(0.015625)"/>
       </defs>
       <use xlink:href="#DejaVuSans-30"/>
       <use xlink:href="#DejaVuSans-2e" transform="translate(63.623047 0)"/>
       <use xlink:href="#DejaVuSans-31" transform="translate(95.410156 0)"/>
       <use xlink:href="#DejaVuSans-30" transform="translate(159.033203 0)"/>
       <use xlink:href="#DejaVuSans-30" transform="translate(222.65625 0)"/>
      </g>
     </g>
    </g>
    <g id="xtick_6">
     <g id="line2d_6">
      <g>
       <use xlink:href="#m3ea29e7d7d" x="259.012909" y="228.96" style="stroke: #000000; stroke-width: 0.8"/>
      </g>
     </g>
     <g id="text_6">
      <!-- 0.125 -->
      <g transform="translate(244.698846 243.558437) scale(0.1 -0.1)">
       <use xlink:href="#DejaVuSans-30"/>
       <use xlink:href="#DejaVuSans-2e" transform="translate(63.623047 0)"/>
       <use xlink:href="#DejaVuSans-31" transform="translate(95.410156 0)"/>
       <use xlink:href="#DejaVuSans-32" transform="translate(159.033203 0)"/>
       <use xlink:href="#DejaVuSans-35" transform="translate(222.65625 0)"/>
      </g>
     </g>
    </g>
    <g id="xtick_7">
     <g id="line2d_7">
      <g>
       <use xlink:href="#m3ea29e7d7d" x="299.868064" y="228.96" style="stroke: #000000; stroke-width: 0.8"/>
      </g>
     </g>
     <g id="text_7">
      <!-- 0.150 -->
      <g transform="translate(285.554002 243.558437) scale(0.1 -0.1)">
       <use xlink:href="#DejaVuSans-30"/>
       <use xlink:href="#DejaVuSans-2e" transform="translate(63.623047 0)"/>
       <use xlink:href="#DejaVuSans-31" transform="translate(95.410156 0)"/>
       <use xlink:href="#DejaVuSans-35" transform="translate(159.033203 0)"/>
       <use xlink:href="#DejaVuSans-30" transform="translate(222.65625 0)"/>
      </g>
     </g>
    </g>
    <g id="xtick_8">
     <g id="line2d_8">
      <g>
       <use xlink:href="#m3ea29e7d7d" x="340.72322" y="228.96" style="stroke: #000000; stroke-width: 0.8"/>
      </g>
     </g>
     <g id="text_8">
      <!-- 0.175 -->
      <g transform="translate(326.409157 243.558437) scale(0.1 -0.1)">
       <use xlink:href="#DejaVuSans-30"/>
       <use xlink:href="#DejaVuSans-2e" transform="translate(63.623047 0)"/>
       <use xlink:href="#DejaVuSans-31" transform="translate(95.410156 0)"/>
       <use xlink:href="#DejaVuSans-37" transform="translate(159.033203 0)"/>
       <use xlink:href="#DejaVuSans-35" transform="translate(222.65625 0)"/>
      </g>
     </g>
    </g>
    <g id="xtick_9">
     <g id="line2d_9">
      <g>
       <use xlink:href="#m3ea29e7d7d" x="381.578375" y="228.96" style="stroke: #000000; stroke-width: 0.8"/>
      </g>
     </g>
     <g id="text_9">
      <!-- 0.200 -->
      <g transform="translate(367.264313 243.558437) scale(0.1 -0.1)">
       <use xlink:href="#DejaVuSans-30"/>
       <use xlink:href="#DejaVuSans-2e" transform="translate(63.623047 0)"/>
       <use xlink:href="#DejaVuSans-32" transform="translate(95.410156 0)"/>
       <use xlink:href="#DejaVuSans-30" transform="translate(159.033203 0)"/>
       <use xlink:href="#DejaVuSans-30" transform="translate(222.65625 0)"/>
      </g>
     </g>
    </g>
    <g id="text_10">
     <!-- Q [1/Å] -->
     <g transform="translate(196.653125 258.16) scale(0.1 -0.1)">
      <defs>
       <path id="DejaVuSans-51" d="M 2522 4238 
Q 1834 4238 1429 3725 
Q 1025 3213 1025 2328 
Q 1025 1447 1429 934 
Q 1834 422 2522 422 
Q 3209 422 3611 934 
Q 4013 1447 4013 2328 
Q 4013 3213 3611 3725 
Q 3209 4238 2522 4238 
z
M 3406 84 
L 4238 -825 
L 3475 -825 
L 2784 -78 
Q 2681 -84 2626 -87 
Q 2572 -91 2522 -91 
Q 1538 -91 948 567 
Q 359 1225 359 2328 
Q 359 3434 948 4092 
Q 1538 4750 2522 4750 
Q 3503 4750 4090 4092 
Q 4678 3434 4678 2328 
Q 4678 1516 4351 937 
Q 4025 359 3406 84 
z
" transform="scale(0.015625)"/>
       <path id="DejaVuSans-20" transform="scale(0.015625)"/>
       <path id="DejaVuSans-5b" d="M 550 4863 
L 1875 4863 
L 1875 4416 
L 1125 4416 
L 1125 -397 
L 1875 -397 
L 1875 -844 
L 550 -844 
L 550 4863 
z
" transform="scale(0.015625)"/>
       <path id="DejaVuSans-2f" d="M 1625 4666 
L 2156 4666 
L 531 -594 
L 0 -594 
L 1625 4666 
z
" transform="scale(0.015625)"/>
       <path id="DejaVuSans-c5" d="M 2663 5081 
Q 2663 5278 2523 5417 
Q 2384 5556 2188 5556 
Q 1988 5556 1852 5420 
Q 1716 5284 1716 5081 
Q 1716 4884 1853 4746 
Q 1991 4609 2188 4609 
Q 2384 4609 2523 4746 
Q 2663 4884 2663 5081 
z
M 2188 4044 
L 1338 1722 
L 3041 1722 
L 2188 4044 
z
M 1716 4366 
Q 1525 4494 1428 4673 
Q 1331 4853 1331 5081 
Q 1331 5441 1579 5691 
Q 1828 5941 2188 5941 
Q 2544 5941 2795 5689 
Q 3047 5438 3047 5081 
Q 3047 4863 2948 4678 
Q 2850 4494 2663 4366 
L 4325 0 
L 3669 0 
L 3244 1197 
L 1141 1197 
L 716 0 
L 50 0 
L 1716 4366 
z
" transform="scale(0.015625)"/>
       <path id="DejaVuSans-5d" d="M 1947 4863 
L 1947 -844 
L 622 -844 
L 622 -397 
L 1369 -397 
L 1369 4416 
L 622 4416 
L 622 4863 
L 1947 4863 
z
" transform="scale(0.015625)"/>
      </defs>
      <use xlink:href="#DejaVuSans-51"/>
      <use xlink:href="#DejaVuSans-20" transform="translate(78.710938 0)"/>
      <use xlink:href="#DejaVuSans-5b" transform="translate(110.498047 0)"/>
      <use xlink:href="#DejaVuSans-31" transform="translate(149.511719 0)"/>
      <use xlink:href="#DejaVuSans-2f" transform="translate(213.134766 0)"/>
      <use xlink:href="#DejaVuSans-c5" transform="translate(246.826172 0)"/>
      <use xlink:href="#DejaVuSans-5d" transform="translate(315.234375 0)"/>
     </g>
    </g>
   </g>
   <g id="matplotlib.axis_2">
    <g id="ytick_1">
     <g id="line2d_10">
      <defs>
       <path id="m7f38f2bbb9" d="M 0 0 
L -3.5 0 
" style="stroke: #000000; stroke-width: 0.8"/>
      </defs>
      <g>
       <use xlink:href="#m7f38f2bbb9" x="46.965625" y="219.625288" style="stroke: #000000; stroke-width: 0.8"/>
      </g>
     </g>
     <g id="text_11">
      <!-- 0 -->
      <g transform="translate(33.603125 223.424506) scale(0.1 -0.1)">
       <use xlink:href="#DejaVuSans-30"/>
      </g>
     </g>
    </g>
    <g id="ytick_2">
     <g id="line2d_11">
      <g>
       <use xlink:href="#m7f38f2bbb9" x="46.965625" y="172.700663" style="stroke: #000000; stroke-width: 0.8"/>
      </g>
     </g>
     <g id="text_12">
      <!-- 200 -->
      <g transform="translate(20.878125 176.499882) scale(0.1 -0.1)">
       <use xlink:href="#DejaVuSans-32"/>
       <use xlink:href="#DejaVuSans-30" transform="translate(63.623047 0)"/>
       <use xlink:href="#DejaVuSans-30" transform="translate(127.246094 0)"/>
      </g>
     </g>
    </g>
    <g id="ytick_3">
     <g id="line2d_12">
      <g>
       <use xlink:href="#m7f38f2bbb9" x="46.965625" y="125.776039" style="stroke: #000000; stroke-width: 0.8"/>
      </g>
     </g>
     <g id="text_13">
      <!-- 400 -->
      <g transform="translate(20.878125 129.575258) scale(0.1 -0.1)">
       <defs>
        <path id="DejaVuSans-34" d="M 2419 4116 
L 825 1625 
L 2419 1625 
L 2419 4116 
z
M 2253 4666 
L 3047 4666 
L 3047 1625 
L 3713 1625 
L 3713 1100 
L 3047 1100 
L 3047 0 
L 2419 0 
L 2419 1100 
L 313 1100 
L 313 1709 
L 2253 4666 
z
" transform="scale(0.015625)"/>
       </defs>
       <use xlink:href="#DejaVuSans-34"/>
       <use xlink:href="#DejaVuSans-30" transform="translate(63.623047 0)"/>
       <use xlink:href="#DejaVuSans-30" transform="translate(127.246094 0)"/>
      </g>
     </g>
    </g>
    <g id="ytick_4">
     <g id="line2d_13">
      <g>
       <use xlink:href="#m7f38f2bbb9" x="46.965625" y="78.851415" style="stroke: #000000; stroke-width: 0.8"/>
      </g>
     </g>
     <g id="text_14">
      <!-- 600 -->
      <g transform="translate(20.878125 82.650634) scale(0.1 -0.1)">
       <defs>
        <path id="DejaVuSans-36" d="M 2113 2584 
Q 1688 2584 1439 2293 
Q 1191 2003 1191 1497 
Q 1191 994 1439 701 
Q 1688 409 2113 409 
Q 2538 409 2786 701 
Q 3034 994 3034 1497 
Q 3034 2003 2786 2293 
Q 2538 2584 2113 2584 
z
M 3366 4563 
L 3366 3988 
Q 3128 4100 2886 4159 
Q 2644 4219 2406 4219 
Q 1781 4219 1451 3797 
Q 1122 3375 1075 2522 
Q 1259 2794 1537 2939 
Q 1816 3084 2150 3084 
Q 2853 3084 3261 2657 
Q 3669 2231 3669 1497 
Q 3669 778 3244 343 
Q 2819 -91 2113 -91 
Q 1303 -91 875 529 
Q 447 1150 447 2328 
Q 447 3434 972 4092 
Q 1497 4750 2381 4750 
Q 2619 4750 2861 4703 
Q 3103 4656 3366 4563 
z
" transform="scale(0.015625)"/>
       </defs>
       <use xlink:href="#DejaVuSans-36"/>
       <use xlink:href="#DejaVuSans-30" transform="translate(63.623047 0)"/>
       <use xlink:href="#DejaVuSans-30" transform="translate(127.246094 0)"/>
      </g>
     </g>
    </g>
    <g id="ytick_5">
     <g id="line2d_14">
      <g>
       <use xlink:href="#m7f38f2bbb9" x="46.965625" y="31.926791" style="stroke: #000000; stroke-width: 0.8"/>
      </g>
     </g>
     <g id="text_15">
      <!-- 800 -->
      <g transform="translate(20.878125 35.726009) scale(0.1 -0.1)">
       <defs>
        <path id="DejaVuSans-38" d="M 2034 2216 
Q 1584 2216 1326 1975 
Q 1069 1734 1069 1313 
Q 1069 891 1326 650 
Q 1584 409 2034 409 
Q 2484 409 2743 651 
Q 3003 894 3003 1313 
Q 3003 1734 2745 1975 
Q 2488 2216 2034 2216 
z
M 1403 2484 
Q 997 2584 770 2862 
Q 544 3141 544 3541 
Q 544 4100 942 4425 
Q 1341 4750 2034 4750 
Q 2731 4750 3128 4425 
Q 3525 4100 3525 3541 
Q 3525 3141 3298 2862 
Q 3072 2584 2669 2484 
Q 3125 2378 3379 2068 
Q 3634 1759 3634 1313 
Q 3634 634 3220 271 
Q 2806 -91 2034 -91 
Q 1263 -91 848 271 
Q 434 634 434 1313 
Q 434 1759 690 2068 
Q 947 2378 1403 2484 
z
M 1172 3481 
Q 1172 3119 1398 2916 
Q 1625 2713 2034 2713 
Q 2441 2713 2670 2916 
Q 2900 3119 2900 3481 
Q 2900 3844 2670 4047 
Q 2441 4250 2034 4250 
Q 1625 4250 1398 4047 
Q 1172 3844 1172 3481 
z
" transform="scale(0.015625)"/>
       </defs>
       <use xlink:href="#DejaVuSans-38"/>
       <use xlink:href="#DejaVuSans-30" transform="translate(63.623047 0)"/>
       <use xlink:href="#DejaVuSans-30" transform="translate(127.246094 0)"/>
      </g>
     </g>
    </g>
    <g id="text_16">
     <!-- [counts] -->
     <g transform="translate(14.798438 138.6925) rotate(-90) scale(0.1 -0.1)">
      <defs>
       <path id="DejaVuSans-63" d="M 3122 3366 
L 3122 2828 
Q 2878 2963 2633 3030 
Q 2388 3097 2138 3097 
Q 1578 3097 1268 2742 
Q 959 2388 959 1747 
Q 959 1106 1268 751 
Q 1578 397 2138 397 
Q 2388 397 2633 464 
Q 2878 531 3122 666 
L 3122 134 
Q 2881 22 2623 -34 
Q 2366 -91 2075 -91 
Q 1284 -91 818 406 
Q 353 903 353 1747 
Q 353 2603 823 3093 
Q 1294 3584 2113 3584 
Q 2378 3584 2631 3529 
Q 2884 3475 3122 3366 
z
" transform="scale(0.015625)"/>
       <path id="DejaVuSans-6f" d="M 1959 3097 
Q 1497 3097 1228 2736 
Q 959 2375 959 1747 
Q 959 1119 1226 758 
Q 1494 397 1959 397 
Q 2419 397 2687 759 
Q 2956 1122 2956 1747 
Q 2956 2369 2687 2733 
Q 2419 3097 1959 3097 
z
M 1959 3584 
Q 2709 3584 3137 3096 
Q 3566 2609 3566 1747 
Q 3566 888 3137 398 
Q 2709 -91 1959 -91 
Q 1206 -91 779 398 
Q 353 888 353 1747 
Q 353 2609 779 3096 
Q 1206 3584 1959 3584 
z
" transform="scale(0.015625)"/>
       <path id="DejaVuSans-75" d="M 544 1381 
L 544 3500 
L 1119 3500 
L 1119 1403 
Q 1119 906 1312 657 
Q 1506 409 1894 409 
Q 2359 409 2629 706 
Q 2900 1003 2900 1516 
L 2900 3500 
L 3475 3500 
L 3475 0 
L 2900 0 
L 2900 538 
Q 2691 219 2414 64 
Q 2138 -91 1772 -91 
Q 1169 -91 856 284 
Q 544 659 544 1381 
z
M 1991 3584 
L 1991 3584 
z
" transform="scale(0.015625)"/>
       <path id="DejaVuSans-6e" d="M 3513 2113 
L 3513 0 
L 2938 0 
L 2938 2094 
Q 2938 2591 2744 2837 
Q 2550 3084 2163 3084 
Q 1697 3084 1428 2787 
Q 1159 2491 1159 1978 
L 1159 0 
L 581 0 
L 581 3500 
L 1159 3500 
L 1159 2956 
Q 1366 3272 1645 3428 
Q 1925 3584 2291 3584 
Q 2894 3584 3203 3211 
Q 3513 2838 3513 2113 
z
" transform="scale(0.015625)"/>
       <path id="DejaVuSans-74" d="M 1172 4494 
L 1172 3500 
L 2356 3500 
L 2356 3053 
L 1172 3053 
L 1172 1153 
Q 1172 725 1289 603 
Q 1406 481 1766 481 
L 2356 481 
L 2356 0 
L 1766 0 
Q 1100 0 847 248 
Q 594 497 594 1153 
L 594 3053 
L 172 3053 
L 172 3500 
L 594 3500 
L 594 4494 
L 1172 4494 
z
" transform="scale(0.015625)"/>
       <path id="DejaVuSans-73" d="M 2834 3397 
L 2834 2853 
Q 2591 2978 2328 3040 
Q 2066 3103 1784 3103 
Q 1356 3103 1142 2972 
Q 928 2841 928 2578 
Q 928 2378 1081 2264 
Q 1234 2150 1697 2047 
L 1894 2003 
Q 2506 1872 2764 1633 
Q 3022 1394 3022 966 
Q 3022 478 2636 193 
Q 2250 -91 1575 -91 
Q 1294 -91 989 -36 
Q 684 19 347 128 
L 347 722 
Q 666 556 975 473 
Q 1284 391 1588 391 
Q 1994 391 2212 530 
Q 2431 669 2431 922 
Q 2431 1156 2273 1281 
Q 2116 1406 1581 1522 
L 1381 1569 
Q 847 1681 609 1914 
Q 372 2147 372 2553 
Q 372 3047 722 3315 
Q 1072 3584 1716 3584 
Q 2034 3584 2315 3537 
Q 2597 3491 2834 3397 
z
" transform="scale(0.015625)"/>
      </defs>
      <use xlink:href="#DejaVuSans-5b"/>
      <use xlink:href="#DejaVuSans-63" transform="translate(39.013672 0)"/>
      <use xlink:href="#DejaVuSans-6f" transform="translate(93.994141 0)"/>
      <use xlink:href="#DejaVuSans-75" transform="translate(155.175781 0)"/>
      <use xlink:href="#DejaVuSans-6e" transform="translate(218.554688 0)"/>
      <use xlink:href="#DejaVuSans-74" transform="translate(281.933594 0)"/>
      <use xlink:href="#DejaVuSans-73" transform="translate(321.142578 0)"/>
      <use xlink:href="#DejaVuSans-5d" transform="translate(373.242188 0)"/>
     </g>
    </g>
   </g>
   <g id="line2d_15">
    <path d="M 62.183807 151.936285 
L 63.705625 151.936285 
L 63.705625 27.855835 
L 65.227443 27.855835 
L 65.227443 36.657042 
L 66.749261 36.657042 
L 66.749261 32.615807 
L 68.27108 32.615807 
L 68.27108 31.450649 
L 69.792898 31.450649 
L 69.792898 32.049314 
L 71.314716 32.049314 
L 71.314716 31.732305 
L 72.836534 31.732305 
L 72.836534 39.556475 
L 74.358352 39.556475 
L 74.358352 24.785696 
L 75.88017 24.785696 
L 75.88017 32.582324 
L 77.401989 32.582324 
L 77.401989 22.896388 
L 78.923807 22.896388 
L 78.923807 29.75591 
L 80.445625 29.75591 
L 80.445625 32.899811 
L 81.967443 32.899811 
L 81.967443 32.234104 
L 83.489261 32.234104 
L 83.489261 37.496489 
L 85.01108 37.496489 
L 85.01108 36.199213 
L 86.532898 36.199213 
L 86.532898 44.853872 
L 88.054716 44.853872 
L 88.054716 37.191917 
L 89.576534 37.191917 
L 89.576534 46.25861 
L 91.098352 46.25861 
L 91.098352 37.122239 
L 92.62017 37.122239 
L 92.62017 52.963939 
L 94.141989 52.963939 
L 94.141989 65.123542 
L 95.663807 65.123542 
L 95.663807 88.425878 
L 97.185625 88.425878 
L 97.185625 105.667475 
L 98.707443 105.667475 
L 98.707443 129.564369 
L 100.229261 129.564369 
L 100.229261 145.022444 
L 101.75108 145.022444 
L 101.75108 154.002281 
L 103.272898 154.002281 
L 103.272898 162.329405 
L 104.794716 162.329405 
L 104.794716 163.064903 
L 106.316534 163.064903 
L 106.316534 150.784117 
L 107.838352 150.784117 
L 107.838352 135.887066 
L 109.36017 135.887066 
L 109.36017 129.295232 
L 110.881989 129.295232 
L 110.881989 100.705224 
L 112.403807 100.705224 
L 112.403807 86.638251 
L 113.925625 86.638251 
L 113.925625 66.439847 
L 115.447443 66.439847 
L 115.447443 59.72174 
L 116.969261 59.72174 
L 116.969261 41.816039 
L 118.49108 41.816039 
L 118.49108 40.770877 
L 120.012898 40.770877 
L 120.012898 44.736068 
L 121.534716 44.736068 
L 121.534716 31.296893 
L 123.056534 31.296893 
L 123.056534 36.322141 
L 124.578352 36.322141 
L 124.578352 33.800778 
L 126.10017 33.800778 
L 126.10017 40.572018 
L 127.621989 40.572018 
L 127.621989 36.50725 
L 129.143807 36.50725 
L 129.143807 40.217177 
L 130.665625 40.217177 
L 130.665625 26.599081 
L 132.187443 26.599081 
L 132.187443 36.631067 
L 133.709261 36.631067 
L 133.709261 30.309981 
L 135.23108 30.309981 
L 135.23108 27.99058 
L 136.752898 27.99058 
L 136.752898 28.360002 
L 138.274716 28.360002 
L 138.274716 35.646519 
L 139.796534 35.646519 
L 139.796534 40.396158 
L 141.318352 40.396158 
L 141.318352 41.404282 
L 142.84017 41.404282 
L 142.84017 32.651536 
L 144.361989 32.651536 
L 144.361989 39.287318 
L 145.883807 39.287318 
L 145.883807 33.130263 
L 147.405625 33.130263 
L 147.405625 46.13738 
L 148.927443 46.13738 
L 148.927443 23.271859 
L 150.449261 23.271859 
L 150.449261 34.608445 
L 151.97108 34.608445 
L 151.97108 37.13118 
L 153.492898 37.13118 
L 153.492898 34.507644 
L 155.014716 34.507644 
L 155.014716 38.367324 
L 156.536534 38.367324 
L 156.536534 35.638355 
L 158.058352 35.638355 
L 158.058352 37.631335 
L 159.58017 37.631335 
L 159.58017 34.77206 
L 161.101989 34.77206 
L 161.101989 26.319796 
L 162.623807 26.319796 
L 162.623807 33.411247 
L 164.145625 33.411247 
L 164.145625 40.96289 
L 165.667443 40.96289 
L 165.667443 24.144103 
L 167.189261 24.144103 
L 167.189261 41.919568 
L 168.71108 41.919568 
L 168.71108 33.433194 
L 170.232898 33.433194 
L 170.232898 34.492598 
L 171.754716 34.492598 
L 171.754716 26.560044 
L 173.276534 26.560044 
L 173.276534 37.494705 
L 174.798352 37.494705 
L 174.798352 43.901619 
L 176.32017 43.901619 
L 176.32017 22.470876 
L 177.841989 22.470876 
L 177.841989 36.81553 
L 179.363807 36.81553 
L 179.363807 37.914318 
L 180.885625 37.914318 
L 180.885625 28.677921 
L 182.407443 28.677921 
L 182.407443 40.741021 
L 183.929261 40.741021 
L 183.929261 38.364831 
L 185.45108 38.364831 
L 185.45108 33.25027 
L 186.972898 33.25027 
L 186.972898 24.993454 
L 188.494716 24.993454 
L 188.494716 42.028659 
L 190.016534 42.028659 
L 190.016534 35.444939 
L 191.538352 35.444939 
L 191.538352 31.075072 
L 193.06017 31.075072 
L 193.06017 38.410477 
L 194.581989 38.410477 
L 194.581989 37.497877 
L 196.103807 37.497877 
L 196.103807 29.187615 
L 197.625625 29.187615 
L 197.625625 36.198233 
L 199.147443 36.198233 
L 199.147443 31.915988 
L 200.669261 31.915988 
L 200.669261 32.543044 
L 202.19108 32.543044 
L 202.19108 36.048656 
L 203.712898 36.048656 
L 203.712898 33.213709 
L 205.234716 33.213709 
L 205.234716 41.673362 
L 206.756534 41.673362 
L 206.756534 34.473524 
L 208.278352 34.473524 
L 208.278352 23.402134 
L 209.80017 23.402134 
L 209.80017 35.592786 
L 211.321989 35.592786 
L 211.321989 38.551416 
L 212.843807 38.551416 
L 212.843807 28.514049 
L 214.365625 28.514049 
L 214.365625 45.144974 
L 215.887443 45.144974 
L 215.887443 33.724936 
L 217.409261 33.724936 
L 217.409261 32.733011 
L 218.93108 32.733011 
L 218.93108 31.782148 
L 220.452898 31.782148 
L 220.452898 37.813124 
L 221.974716 37.813124 
L 221.974716 33.721301 
L 223.496534 33.721301 
L 223.496534 40.86824 
L 225.018352 40.86824 
L 225.018352 39.451262 
L 226.54017 39.451262 
L 226.54017 33.038852 
L 228.061989 33.038852 
L 228.061989 25.687711 
L 229.583807 25.687711 
L 229.583807 35.014953 
L 231.105625 35.014953 
L 231.105625 40.113118 
L 232.627443 40.113118 
L 232.627443 34.466687 
L 234.149261 34.466687 
L 234.149261 38.380832 
L 235.67108 38.380832 
L 235.67108 37.341572 
L 237.192898 37.341572 
L 237.192898 34.109428 
L 238.714716 34.109428 
L 238.714716 31.046221 
L 240.236534 31.046221 
L 240.236534 39.167257 
L 241.758352 39.167257 
L 241.758352 36.357051 
L 243.28017 36.357051 
L 243.28017 39.428754 
L 244.801989 39.428754 
L 244.801989 35.821225 
L 246.323807 35.821225 
L 246.323807 39.420004 
L 247.845625 39.420004 
L 247.845625 28.587966 
L 249.367443 28.587966 
L 249.367443 33.68384 
L 250.889261 33.68384 
L 250.889261 36.796577 
L 252.41108 36.796577 
L 252.41108 30.658126 
L 253.932898 30.658126 
L 253.932898 44.790002 
L 255.454716 44.790002 
L 255.454716 36.863818 
L 256.976534 36.863818 
L 256.976534 28.821729 
L 258.498352 28.821729 
L 258.498352 37.213796 
L 260.02017 37.213796 
L 260.02017 34.327434 
L 261.541989 34.327434 
L 261.541989 32.445718 
L 263.063807 32.445718 
L 263.063807 28.649057 
L 264.585625 28.649057 
L 264.585625 30.836066 
L 266.107443 30.836066 
L 266.107443 38.42771 
L 267.629261 38.42771 
L 267.629261 33.490538 
L 269.15108 33.490538 
L 269.15108 28.725674 
L 270.672898 28.725674 
L 270.672898 46.787103 
L 272.194716 46.787103 
L 272.194716 36.236405 
L 273.716534 36.236405 
L 273.716534 31.622175 
L 275.238352 31.622175 
L 275.238352 43.454757 
L 276.76017 43.454757 
L 276.76017 38.296312 
L 279.803807 38.272923 
L 279.803807 41.421304 
L 281.325625 41.421304 
L 281.325625 32.290421 
L 282.847443 32.290421 
L 282.847443 38.132432 
L 284.369261 38.132432 
L 284.369261 34.134319 
L 285.89108 34.134319 
L 285.89108 33.640571 
L 287.412898 33.640571 
L 287.412898 39.111433 
L 288.934716 39.111433 
L 288.934716 36.767144 
L 290.456534 36.767144 
L 290.456534 40.530121 
L 291.978352 40.530121 
L 291.978352 29.819557 
L 293.50017 29.819557 
L 293.50017 28.390614 
L 295.021989 28.390614 
L 295.021989 29.597115 
L 296.543807 29.597115 
L 296.543807 47.928866 
L 298.065625 47.928866 
L 298.065625 40.15985 
L 299.587443 40.15985 
L 299.587443 48.316349 
L 301.109261 48.316349 
L 301.109261 47.763052 
L 302.63108 47.763052 
L 302.63108 52.83816 
L 304.152898 52.83816 
L 304.152898 50.574194 
L 305.674716 50.574194 
L 305.674716 70.637276 
L 307.196534 70.637276 
L 307.196534 68.180593 
L 308.718352 68.180593 
L 308.718352 69.624812 
L 310.24017 69.624812 
L 310.24017 73.802779 
L 311.761989 73.802779 
L 311.761989 81.26085 
L 313.283807 81.26085 
L 313.283807 76.054183 
L 314.805625 76.054183 
L 314.805625 75.253448 
L 316.327443 75.253448 
L 316.327443 88.181324 
L 317.849261 88.181324 
L 317.849261 94.166142 
L 319.37108 94.166142 
L 319.37108 94.707792 
L 320.892898 94.707792 
L 320.892898 100.105194 
L 322.414716 100.105194 
L 322.414716 102.925816 
L 323.936534 102.925816 
L 323.936534 109.43276 
L 325.458352 109.43276 
L 325.458352 107.181313 
L 326.98017 107.181313 
L 326.98017 120.987016 
L 328.501989 120.987016 
L 328.501989 117.622405 
L 330.023807 117.622405 
L 330.023807 128.40304 
L 331.545625 128.40304 
L 331.545625 123.197756 
L 333.067443 123.197756 
L 333.067443 135.398884 
L 334.589261 135.398884 
L 334.589261 136.691443 
L 336.11108 136.691443 
L 336.11108 142.485607 
L 337.632898 142.485607 
L 337.632898 147.576571 
L 339.154716 147.576571 
L 339.154716 150.289548 
L 340.676534 150.289548 
L 340.676534 146.664929 
L 342.198352 146.664929 
L 342.198352 156.612963 
L 343.72017 156.612963 
L 343.72017 165.651063 
L 345.241989 165.651063 
L 345.241989 167.081606 
L 346.763807 167.081606 
L 346.763807 166.661369 
L 348.285625 166.661369 
L 348.285625 175.643636 
L 351.329261 175.568355 
L 351.329261 179.850752 
L 352.85108 179.850752 
L 352.85108 188.841791 
L 354.372898 188.841791 
L 354.372898 189.619501 
L 355.894716 189.619501 
L 355.894716 190.403397 
L 357.416534 190.403397 
L 357.416534 200.464538 
L 358.938352 200.464538 
L 358.938352 202.89425 
L 360.46017 202.89425 
L 360.46017 209.775173 
L 361.981989 209.775173 
L 361.981989 212.277734 
L 363.503807 212.277734 
L 363.503807 215.563805 
L 365.025625 215.563805 
L 365.025625 218.421365 
L 366.547443 218.421365 
L 366.547443 218.421365 
" clip-path="url(#p79d80c11e6)" style="fill: none; stroke: #1f77b4; stroke-width: 1.5; stroke-linecap: square"/>
   </g>
   <g id="LineCollection_1">
    <path d="M 62.944716 157.791308 
L 62.944716 146.081262 
" clip-path="url(#p79d80c11e6)" style="fill: none; stroke: #1f77b4; stroke-width: 1.5"/>
    <path d="M 64.466534 36.78709 
L 64.466534 18.924581 
" clip-path="url(#p79d80c11e6)" style="fill: none; stroke: #1f77b4; stroke-width: 1.5"/>
    <path d="M 65.988352 43.052402 
L 65.988352 30.261681 
" clip-path="url(#p79d80c11e6)" style="fill: none; stroke: #1f77b4; stroke-width: 1.5"/>
    <path d="M 67.51017 39.748795 
L 67.51017 25.482818 
" clip-path="url(#p79d80c11e6)" style="fill: none; stroke: #1f77b4; stroke-width: 1.5"/>
    <path d="M 69.031989 37.229362 
L 69.031989 25.671937 
" clip-path="url(#p79d80c11e6)" style="fill: none; stroke: #1f77b4; stroke-width: 1.5"/>
    <path d="M 70.553807 37.056492 
L 70.553807 27.042137 
" clip-path="url(#p79d80c11e6)" style="fill: none; stroke: #1f77b4; stroke-width: 1.5"/>
    <path d="M 72.075625 36.744243 
L 72.075625 26.720367 
" clip-path="url(#p79d80c11e6)" style="fill: none; stroke: #1f77b4; stroke-width: 1.5"/>
    <path d="M 73.597443 45.220172 
L 73.597443 33.892778 
" clip-path="url(#p79d80c11e6)" style="fill: none; stroke: #1f77b4; stroke-width: 1.5"/>
    <path d="M 75.119261 29.91581 
L 75.119261 19.655581 
" clip-path="url(#p79d80c11e6)" style="fill: none; stroke: #1f77b4; stroke-width: 1.5"/>
    <path d="M 76.64108 37.579749 
L 76.64108 27.5849 
" clip-path="url(#p79d80c11e6)" style="fill: none; stroke: #1f77b4; stroke-width: 1.5"/>
    <path d="M 78.162898 28.049489 
L 78.162898 17.743288 
" clip-path="url(#p79d80c11e6)" style="fill: none; stroke: #1f77b4; stroke-width: 1.5"/>
    <path d="M 79.684716 34.808702 
L 79.684716 24.703119 
" clip-path="url(#p79d80c11e6)" style="fill: none; stroke: #1f77b4; stroke-width: 1.5"/>
    <path d="M 81.206534 37.894059 
L 81.206534 27.905563 
" clip-path="url(#p79d80c11e6)" style="fill: none; stroke: #1f77b4; stroke-width: 1.5"/>
    <path d="M 82.728352 37.248708 
L 82.728352 27.219499 
" clip-path="url(#p79d80c11e6)" style="fill: none; stroke: #1f77b4; stroke-width: 1.5"/>
    <path d="M 84.25017 42.421852 
L 84.25017 32.571126 
" clip-path="url(#p79d80c11e6)" style="fill: none; stroke: #1f77b4; stroke-width: 1.5"/>
    <path d="M 85.771989 41.211213 
L 85.771989 31.187213 
" clip-path="url(#p79d80c11e6)" style="fill: none; stroke: #1f77b4; stroke-width: 1.5"/>
    <path d="M 87.293807 49.661685 
L 87.293807 40.046058 
" clip-path="url(#p79d80c11e6)" style="fill: none; stroke: #1f77b4; stroke-width: 1.5"/>
    <path d="M 88.815625 42.15145 
L 88.815625 32.232385 
" clip-path="url(#p79d80c11e6)" style="fill: none; stroke: #1f77b4; stroke-width: 1.5"/>
    <path d="M 90.337443 51.075484 
L 90.337443 41.441735 
" clip-path="url(#p79d80c11e6)" style="fill: none; stroke: #1f77b4; stroke-width: 1.5"/>
    <path d="M 91.859261 42.142947 
L 91.859261 32.10153 
" clip-path="url(#p79d80c11e6)" style="fill: none; stroke: #1f77b4; stroke-width: 1.5"/>
    <path d="M 93.38108 57.763426 
L 93.38108 48.164453 
" clip-path="url(#p79d80c11e6)" style="fill: none; stroke: #1f77b4; stroke-width: 1.5"/>
    <path d="M 94.902898 69.780656 
L 94.902898 60.466428 
" clip-path="url(#p79d80c11e6)" style="fill: none; stroke: #1f77b4; stroke-width: 1.5"/>
    <path d="M 96.424716 92.786076 
L 96.424716 84.06568 
" clip-path="url(#p79d80c11e6)" style="fill: none; stroke: #1f77b4; stroke-width: 1.5"/>
    <path d="M 97.946534 109.770715 
L 97.946534 101.564234 
" clip-path="url(#p79d80c11e6)" style="fill: none; stroke: #1f77b4; stroke-width: 1.5"/>
    <path d="M 99.468352 133.299662 
L 99.468352 125.829077 
" clip-path="url(#p79d80c11e6)" style="fill: none; stroke: #1f77b4; stroke-width: 1.5"/>
    <path d="M 100.99017 148.392769 
L 100.99017 141.65212 
" clip-path="url(#p79d80c11e6)" style="fill: none; stroke: #1f77b4; stroke-width: 1.5"/>
    <path d="M 102.511989 157.123211 
L 102.511989 150.881352 
" clip-path="url(#p79d80c11e6)" style="fill: none; stroke: #1f77b4; stroke-width: 1.5"/>
    <path d="M 104.033807 165.128382 
L 104.033807 159.530428 
" clip-path="url(#p79d80c11e6)" style="fill: none; stroke: #1f77b4; stroke-width: 1.5"/>
    <path d="M 105.555625 165.713045 
L 105.555625 160.416762 
" clip-path="url(#p79d80c11e6)" style="fill: none; stroke: #1f77b4; stroke-width: 1.5"/>
    <path d="M 107.077443 153.583509 
L 107.077443 147.984725 
" clip-path="url(#p79d80c11e6)" style="fill: none; stroke: #1f77b4; stroke-width: 1.5"/>
    <path d="M 108.599261 138.933178 
L 108.599261 132.840954 
" clip-path="url(#p79d80c11e6)" style="fill: none; stroke: #1f77b4; stroke-width: 1.5"/>
    <path d="M 110.12108 132.468831 
L 110.12108 126.121632 
" clip-path="url(#p79d80c11e6)" style="fill: none; stroke: #1f77b4; stroke-width: 1.5"/>
    <path d="M 111.642898 104.442325 
L 111.642898 96.968123 
" clip-path="url(#p79d80c11e6)" style="fill: none; stroke: #1f77b4; stroke-width: 1.5"/>
    <path d="M 113.164716 90.650734 
L 113.164716 82.625768 
" clip-path="url(#p79d80c11e6)" style="fill: none; stroke: #1f77b4; stroke-width: 1.5"/>
    <path d="M 114.686534 70.837669 
L 114.686534 62.042024 
" clip-path="url(#p79d80c11e6)" style="fill: none; stroke: #1f77b4; stroke-width: 1.5"/>
    <path d="M 116.208352 64.234542 
L 116.208352 55.208937 
" clip-path="url(#p79d80c11e6)" style="fill: none; stroke: #1f77b4; stroke-width: 1.5"/>
    <path d="M 117.73017 46.675323 
L 117.73017 36.956754 
" clip-path="url(#p79d80c11e6)" style="fill: none; stroke: #1f77b4; stroke-width: 1.5"/>
    <path d="M 119.251989 45.636004 
L 119.251989 35.90575 
" clip-path="url(#p79d80c11e6)" style="fill: none; stroke: #1f77b4; stroke-width: 1.5"/>
    <path d="M 120.773807 49.556518 
L 120.773807 39.915618 
" clip-path="url(#p79d80c11e6)" style="fill: none; stroke: #1f77b4; stroke-width: 1.5"/>
    <path d="M 122.295625 36.327816 
L 122.295625 26.26597 
" clip-path="url(#p79d80c11e6)" style="fill: none; stroke: #1f77b4; stroke-width: 1.5"/>
    <path d="M 123.817443 41.306362 
L 123.817443 31.33792 
" clip-path="url(#p79d80c11e6)" style="fill: none; stroke: #1f77b4; stroke-width: 1.5"/>
    <path d="M 125.339261 38.837701 
L 125.339261 28.763855 
" clip-path="url(#p79d80c11e6)" style="fill: none; stroke: #1f77b4; stroke-width: 1.5"/>
    <path d="M 126.86108 45.437497 
L 126.86108 35.706538 
" clip-path="url(#p79d80c11e6)" style="fill: none; stroke: #1f77b4; stroke-width: 1.5"/>
    <path d="M 128.382898 41.47983 
L 128.382898 31.53467 
" clip-path="url(#p79d80c11e6)" style="fill: none; stroke: #1f77b4; stroke-width: 1.5"/>
    <path d="M 129.904716 45.140001 
L 129.904716 35.294353 
" clip-path="url(#p79d80c11e6)" style="fill: none; stroke: #1f77b4; stroke-width: 1.5"/>
    <path d="M 131.426534 31.705563 
L 131.426534 21.492599 
" clip-path="url(#p79d80c11e6)" style="fill: none; stroke: #1f77b4; stroke-width: 1.5"/>
    <path d="M 132.948352 41.611678 
L 132.948352 31.650456 
" clip-path="url(#p79d80c11e6)" style="fill: none; stroke: #1f77b4; stroke-width: 1.5"/>
    <path d="M 134.47017 35.422435 
L 134.47017 25.197526 
" clip-path="url(#p79d80c11e6)" style="fill: none; stroke: #1f77b4; stroke-width: 1.5"/>
    <path d="M 135.991989 33.059879 
L 135.991989 22.921281 
" clip-path="url(#p79d80c11e6)" style="fill: none; stroke: #1f77b4; stroke-width: 1.5"/>
    <path d="M 137.513807 33.466767 
L 137.513807 23.253237 
" clip-path="url(#p79d80c11e6)" style="fill: none; stroke: #1f77b4; stroke-width: 1.5"/>
    <path d="M 139.035625 40.615262 
L 139.035625 30.677775 
" clip-path="url(#p79d80c11e6)" style="fill: none; stroke: #1f77b4; stroke-width: 1.5"/>
    <path d="M 140.557443 45.310125 
L 140.557443 35.482191 
" clip-path="url(#p79d80c11e6)" style="fill: none; stroke: #1f77b4; stroke-width: 1.5"/>
    <path d="M 142.079261 46.323009 
L 142.079261 36.485554 
" clip-path="url(#p79d80c11e6)" style="fill: none; stroke: #1f77b4; stroke-width: 1.5"/>
    <path d="M 143.60108 37.67845 
L 143.60108 27.624621 
" clip-path="url(#p79d80c11e6)" style="fill: none; stroke: #1f77b4; stroke-width: 1.5"/>
    <path d="M 145.122898 44.161328 
L 145.122898 34.413308 
" clip-path="url(#p79d80c11e6)" style="fill: none; stroke: #1f77b4; stroke-width: 1.5"/>
    <path d="M 146.644716 38.167623 
L 146.644716 28.092902 
" clip-path="url(#p79d80c11e6)" style="fill: none; stroke: #1f77b4; stroke-width: 1.5"/>
    <path d="M 148.166534 50.951151 
L 148.166534 41.323609 
" clip-path="url(#p79d80c11e6)" style="fill: none; stroke: #1f77b4; stroke-width: 1.5"/>
    <path d="M 149.688352 28.409423 
L 149.688352 18.134296 
" clip-path="url(#p79d80c11e6)" style="fill: none; stroke: #1f77b4; stroke-width: 1.5"/>
    <path d="M 151.21017 39.587456 
L 151.21017 29.629434 
" clip-path="url(#p79d80c11e6)" style="fill: none; stroke: #1f77b4; stroke-width: 1.5"/>
    <path d="M 152.731989 42.082707 
L 152.731989 32.179652 
" clip-path="url(#p79d80c11e6)" style="fill: none; stroke: #1f77b4; stroke-width: 1.5"/>
    <path d="M 154.253807 39.540171 
L 154.253807 29.475117 
" clip-path="url(#p79d80c11e6)" style="fill: none; stroke: #1f77b4; stroke-width: 1.5"/>
    <path d="M 155.775625 43.283346 
L 155.775625 33.451303 
" clip-path="url(#p79d80c11e6)" style="fill: none; stroke: #1f77b4; stroke-width: 1.5"/>
    <path d="M 157.297443 40.626724 
L 157.297443 30.649987 
" clip-path="url(#p79d80c11e6)" style="fill: none; stroke: #1f77b4; stroke-width: 1.5"/>
    <path d="M 158.819261 42.572221 
L 158.819261 32.690448 
" clip-path="url(#p79d80c11e6)" style="fill: none; stroke: #1f77b4; stroke-width: 1.5"/>
    <path d="M 160.34108 39.783636 
L 160.34108 29.760483 
" clip-path="url(#p79d80c11e6)" style="fill: none; stroke: #1f77b4; stroke-width: 1.5"/>
    <path d="M 161.862898 31.434824 
L 161.862898 21.204769 
" clip-path="url(#p79d80c11e6)" style="fill: none; stroke: #1f77b4; stroke-width: 1.5"/>
    <path d="M 163.384716 38.437076 
L 163.384716 28.385418 
" clip-path="url(#p79d80c11e6)" style="fill: none; stroke: #1f77b4; stroke-width: 1.5"/>
    <path d="M 164.906534 45.8412 
L 164.906534 36.08458 
" clip-path="url(#p79d80c11e6)" style="fill: none; stroke: #1f77b4; stroke-width: 1.5"/>
    <path d="M 166.428352 29.310774 
L 166.428352 18.977432 
" clip-path="url(#p79d80c11e6)" style="fill: none; stroke: #1f77b4; stroke-width: 1.5"/>
    <path d="M 167.95017 46.852537 
L 167.95017 36.9866 
" clip-path="url(#p79d80c11e6)" style="fill: none; stroke: #1f77b4; stroke-width: 1.5"/>
    <path d="M 169.471989 38.446052 
L 169.471989 28.420335 
" clip-path="url(#p79d80c11e6)" style="fill: none; stroke: #1f77b4; stroke-width: 1.5"/>
    <path d="M 170.993807 39.500612 
L 170.993807 29.484583 
" clip-path="url(#p79d80c11e6)" style="fill: none; stroke: #1f77b4; stroke-width: 1.5"/>
    <path d="M 172.515625 31.651672 
L 172.515625 21.468417 
" clip-path="url(#p79d80c11e6)" style="fill: none; stroke: #1f77b4; stroke-width: 1.5"/>
    <path d="M 174.037443 42.434431 
L 174.037443 32.554979 
" clip-path="url(#p79d80c11e6)" style="fill: none; stroke: #1f77b4; stroke-width: 1.5"/>
    <path d="M 175.559261 48.741268 
L 175.559261 39.06197 
" clip-path="url(#p79d80c11e6)" style="fill: none; stroke: #1f77b4; stroke-width: 1.5"/>
    <path d="M 177.08108 27.661752 
L 177.08108 17.28 
" clip-path="url(#p79d80c11e6)" style="fill: none; stroke: #1f77b4; stroke-width: 1.5"/>
    <path d="M 178.602898 41.793397 
L 178.602898 31.837663 
" clip-path="url(#p79d80c11e6)" style="fill: none; stroke: #1f77b4; stroke-width: 1.5"/>
    <path d="M 180.124716 42.884815 
L 180.124716 32.94382 
" clip-path="url(#p79d80c11e6)" style="fill: none; stroke: #1f77b4; stroke-width: 1.5"/>
    <path d="M 181.646534 33.806566 
L 181.646534 23.549276 
" clip-path="url(#p79d80c11e6)" style="fill: none; stroke: #1f77b4; stroke-width: 1.5"/>
    <path d="M 183.168352 45.605168 
L 183.168352 35.876874 
" clip-path="url(#p79d80c11e6)" style="fill: none; stroke: #1f77b4; stroke-width: 1.5"/>
    <path d="M 184.69017 43.316202 
L 184.69017 33.413459 
" clip-path="url(#p79d80c11e6)" style="fill: none; stroke: #1f77b4; stroke-width: 1.5"/>
    <path d="M 186.211989 38.289698 
L 186.211989 28.210843 
" clip-path="url(#p79d80c11e6)" style="fill: none; stroke: #1f77b4; stroke-width: 1.5"/>
    <path d="M 187.733807 30.141977 
L 187.733807 19.844931 
" clip-path="url(#p79d80c11e6)" style="fill: none; stroke: #1f77b4; stroke-width: 1.5"/>
    <path d="M 189.255625 46.916577 
L 189.255625 37.140741 
" clip-path="url(#p79d80c11e6)" style="fill: none; stroke: #1f77b4; stroke-width: 1.5"/>
    <path d="M 190.777443 40.388005 
L 190.777443 30.501872 
" clip-path="url(#p79d80c11e6)" style="fill: none; stroke: #1f77b4; stroke-width: 1.5"/>
    <path d="M 192.299261 36.143283 
L 192.299261 26.00686 
" clip-path="url(#p79d80c11e6)" style="fill: none; stroke: #1f77b4; stroke-width: 1.5"/>
    <path d="M 193.82108 43.404127 
L 193.82108 33.416827 
" clip-path="url(#p79d80c11e6)" style="fill: none; stroke: #1f77b4; stroke-width: 1.5"/>
    <path d="M 195.342898 42.477012 
L 195.342898 32.518741 
" clip-path="url(#p79d80c11e6)" style="fill: none; stroke: #1f77b4; stroke-width: 1.5"/>
    <path d="M 196.864716 34.288682 
L 196.864716 24.086549 
" clip-path="url(#p79d80c11e6)" style="fill: none; stroke: #1f77b4; stroke-width: 1.5"/>
    <path d="M 198.386534 41.205856 
L 198.386534 31.19061 
" clip-path="url(#p79d80c11e6)" style="fill: none; stroke: #1f77b4; stroke-width: 1.5"/>
    <path d="M 199.908352 36.979963 
L 199.908352 26.852014 
" clip-path="url(#p79d80c11e6)" style="fill: none; stroke: #1f77b4; stroke-width: 1.5"/>
    <path d="M 201.43017 37.538678 
L 201.43017 27.54741 
" clip-path="url(#p79d80c11e6)" style="fill: none; stroke: #1f77b4; stroke-width: 1.5"/>
    <path d="M 202.951989 40.98779 
L 202.951989 31.109522 
" clip-path="url(#p79d80c11e6)" style="fill: none; stroke: #1f77b4; stroke-width: 1.5"/>
    <path d="M 204.473807 38.186909 
L 204.473807 28.24051 
" clip-path="url(#p79d80c11e6)" style="fill: none; stroke: #1f77b4; stroke-width: 1.5"/>
    <path d="M 205.995625 46.534507 
L 205.995625 36.812217 
" clip-path="url(#p79d80c11e6)" style="fill: none; stroke: #1f77b4; stroke-width: 1.5"/>
    <path d="M 207.517443 39.467679 
L 207.517443 29.47937 
" clip-path="url(#p79d80c11e6)" style="fill: none; stroke: #1f77b4; stroke-width: 1.5"/>
    <path d="M 209.039261 28.633441 
L 209.039261 18.170827 
" clip-path="url(#p79d80c11e6)" style="fill: none; stroke: #1f77b4; stroke-width: 1.5"/>
    <path d="M 210.56108 40.556151 
L 210.56108 30.629422 
" clip-path="url(#p79d80c11e6)" style="fill: none; stroke: #1f77b4; stroke-width: 1.5"/>
    <path d="M 212.082898 43.479015 
L 212.082898 33.623818 
" clip-path="url(#p79d80c11e6)" style="fill: none; stroke: #1f77b4; stroke-width: 1.5"/>
    <path d="M 213.604716 33.628261 
L 213.604716 23.399837 
" clip-path="url(#p79d80c11e6)" style="fill: none; stroke: #1f77b4; stroke-width: 1.5"/>
    <path d="M 215.126534 49.985738 
L 215.126534 40.304211 
" clip-path="url(#p79d80c11e6)" style="fill: none; stroke: #1f77b4; stroke-width: 1.5"/>
    <path d="M 216.648352 38.7644 
L 216.648352 28.685472 
" clip-path="url(#p79d80c11e6)" style="fill: none; stroke: #1f77b4; stroke-width: 1.5"/>
    <path d="M 218.17017 37.756563 
L 218.17017 27.709459 
" clip-path="url(#p79d80c11e6)" style="fill: none; stroke: #1f77b4; stroke-width: 1.5"/>
    <path d="M 219.691989 36.801816 
L 219.691989 26.76248 
" clip-path="url(#p79d80c11e6)" style="fill: none; stroke: #1f77b4; stroke-width: 1.5"/>
    <path d="M 221.213807 42.750137 
L 221.213807 32.876111 
" clip-path="url(#p79d80c11e6)" style="fill: none; stroke: #1f77b4; stroke-width: 1.5"/>
    <path d="M 222.735625 38.718351 
L 222.735625 28.724252 
" clip-path="url(#p79d80c11e6)" style="fill: none; stroke: #1f77b4; stroke-width: 1.5"/>
    <path d="M 224.257443 45.800603 
L 224.257443 35.935878 
" clip-path="url(#p79d80c11e6)" style="fill: none; stroke: #1f77b4; stroke-width: 1.5"/>
    <path d="M 225.779261 44.357805 
L 225.779261 34.544718 
" clip-path="url(#p79d80c11e6)" style="fill: none; stroke: #1f77b4; stroke-width: 1.5"/>
    <path d="M 227.30108 38.081684 
L 227.30108 27.99602 
" clip-path="url(#p79d80c11e6)" style="fill: none; stroke: #1f77b4; stroke-width: 1.5"/>
    <path d="M 228.822898 30.854955 
L 228.822898 20.520468 
" clip-path="url(#p79d80c11e6)" style="fill: none; stroke: #1f77b4; stroke-width: 1.5"/>
    <path d="M 230.344716 39.979528 
L 230.344716 30.050377 
" clip-path="url(#p79d80c11e6)" style="fill: none; stroke: #1f77b4; stroke-width: 1.5"/>
    <path d="M 231.866534 45.078675 
L 231.866534 35.147562 
" clip-path="url(#p79d80c11e6)" style="fill: none; stroke: #1f77b4; stroke-width: 1.5"/>
    <path d="M 233.388352 39.469467 
L 233.388352 29.463908 
" clip-path="url(#p79d80c11e6)" style="fill: none; stroke: #1f77b4; stroke-width: 1.5"/>
    <path d="M 234.91017 43.337235 
L 234.91017 33.424429 
" clip-path="url(#p79d80c11e6)" style="fill: none; stroke: #1f77b4; stroke-width: 1.5"/>
    <path d="M 236.431989 42.327173 
L 236.431989 32.355971 
" clip-path="url(#p79d80c11e6)" style="fill: none; stroke: #1f77b4; stroke-width: 1.5"/>
    <path d="M 237.953807 39.102962 
L 237.953807 29.115894 
" clip-path="url(#p79d80c11e6)" style="fill: none; stroke: #1f77b4; stroke-width: 1.5"/>
    <path d="M 239.475625 36.120831 
L 239.475625 25.971611 
" clip-path="url(#p79d80c11e6)" style="fill: none; stroke: #1f77b4; stroke-width: 1.5"/>
    <path d="M 240.997443 44.083635 
L 240.997443 34.250878 
" clip-path="url(#p79d80c11e6)" style="fill: none; stroke: #1f77b4; stroke-width: 1.5"/>
    <path d="M 242.519261 41.318759 
L 242.519261 31.395343 
" clip-path="url(#p79d80c11e6)" style="fill: none; stroke: #1f77b4; stroke-width: 1.5"/>
    <path d="M 244.04108 44.333178 
L 244.04108 34.524331 
" clip-path="url(#p79d80c11e6)" style="fill: none; stroke: #1f77b4; stroke-width: 1.5"/>
    <path d="M 245.562898 40.828149 
L 245.562898 30.814301 
" clip-path="url(#p79d80c11e6)" style="fill: none; stroke: #1f77b4; stroke-width: 1.5"/>
    <path d="M 247.084716 44.399743 
L 247.084716 34.440265 
" clip-path="url(#p79d80c11e6)" style="fill: none; stroke: #1f77b4; stroke-width: 1.5"/>
    <path d="M 248.606534 33.688507 
L 248.606534 23.487424 
" clip-path="url(#p79d80c11e6)" style="fill: none; stroke: #1f77b4; stroke-width: 1.5"/>
    <path d="M 250.128352 38.708767 
L 250.128352 28.658914 
" clip-path="url(#p79d80c11e6)" style="fill: none; stroke: #1f77b4; stroke-width: 1.5"/>
    <path d="M 251.65017 41.746375 
L 251.65017 31.846779 
" clip-path="url(#p79d80c11e6)" style="fill: none; stroke: #1f77b4; stroke-width: 1.5"/>
    <path d="M 253.171989 35.731889 
L 253.171989 25.584364 
" clip-path="url(#p79d80c11e6)" style="fill: none; stroke: #1f77b4; stroke-width: 1.5"/>
    <path d="M 254.693807 49.637419 
L 254.693807 39.942585 
" clip-path="url(#p79d80c11e6)" style="fill: none; stroke: #1f77b4; stroke-width: 1.5"/>
    <path d="M 256.215625 41.804472 
L 256.215625 31.923163 
" clip-path="url(#p79d80c11e6)" style="fill: none; stroke: #1f77b4; stroke-width: 1.5"/>
    <path d="M 257.737443 33.926515 
L 257.737443 23.716943 
" clip-path="url(#p79d80c11e6)" style="fill: none; stroke: #1f77b4; stroke-width: 1.5"/>
    <path d="M 259.259261 42.143352 
L 259.259261 32.28424 
" clip-path="url(#p79d80c11e6)" style="fill: none; stroke: #1f77b4; stroke-width: 1.5"/>
    <path d="M 260.78108 39.334843 
L 260.78108 29.320024 
" clip-path="url(#p79d80c11e6)" style="fill: none; stroke: #1f77b4; stroke-width: 1.5"/>
    <path d="M 262.302898 37.492552 
L 262.302898 27.398885 
" clip-path="url(#p79d80c11e6)" style="fill: none; stroke: #1f77b4; stroke-width: 1.5"/>
    <path d="M 263.824716 33.726113 
L 263.824716 23.572001 
" clip-path="url(#p79d80c11e6)" style="fill: none; stroke: #1f77b4; stroke-width: 1.5"/>
    <path d="M 265.346534 35.910716 
L 265.346534 25.761417 
" clip-path="url(#p79d80c11e6)" style="fill: none; stroke: #1f77b4; stroke-width: 1.5"/>
    <path d="M 266.868352 43.369005 
L 266.868352 33.486414 
" clip-path="url(#p79d80c11e6)" style="fill: none; stroke: #1f77b4; stroke-width: 1.5"/>
    <path d="M 268.39017 38.498739 
L 268.39017 28.482337 
" clip-path="url(#p79d80c11e6)" style="fill: none; stroke: #1f77b4; stroke-width: 1.5"/>
    <path d="M 269.911989 33.874435 
L 269.911989 23.576913 
" clip-path="url(#p79d80c11e6)" style="fill: none; stroke: #1f77b4; stroke-width: 1.5"/>
    <path d="M 271.433807 51.635191 
L 271.433807 41.939015 
" clip-path="url(#p79d80c11e6)" style="fill: none; stroke: #1f77b4; stroke-width: 1.5"/>
    <path d="M 272.955625 41.202028 
L 272.955625 31.270783 
" clip-path="url(#p79d80c11e6)" style="fill: none; stroke: #1f77b4; stroke-width: 1.5"/>
    <path d="M 274.477443 36.71757 
L 274.477443 26.526781 
" clip-path="url(#p79d80c11e6)" style="fill: none; stroke: #1f77b4; stroke-width: 1.5"/>
    <path d="M 275.999261 48.261877 
L 275.999261 38.647637 
" clip-path="url(#p79d80c11e6)" style="fill: none; stroke: #1f77b4; stroke-width: 1.5"/>
    <path d="M 277.52108 43.229323 
L 277.52108 33.3633 
" clip-path="url(#p79d80c11e6)" style="fill: none; stroke: #1f77b4; stroke-width: 1.5"/>
    <path d="M 279.042898 43.212063 
L 279.042898 33.333782 
" clip-path="url(#p79d80c11e6)" style="fill: none; stroke: #1f77b4; stroke-width: 1.5"/>
    <path d="M 280.564716 46.283793 
L 280.564716 36.558815 
" clip-path="url(#p79d80c11e6)" style="fill: none; stroke: #1f77b4; stroke-width: 1.5"/>
    <path d="M 282.086534 37.308655 
L 282.086534 27.272186 
" clip-path="url(#p79d80c11e6)" style="fill: none; stroke: #1f77b4; stroke-width: 1.5"/>
    <path d="M 283.608352 43.086554 
L 283.608352 33.17831 
" clip-path="url(#p79d80c11e6)" style="fill: none; stroke: #1f77b4; stroke-width: 1.5"/>
    <path d="M 285.13017 39.13592 
L 285.13017 29.132718 
" clip-path="url(#p79d80c11e6)" style="fill: none; stroke: #1f77b4; stroke-width: 1.5"/>
    <path d="M 286.651989 38.641797 
L 286.651989 28.639346 
" clip-path="url(#p79d80c11e6)" style="fill: none; stroke: #1f77b4; stroke-width: 1.5"/>
    <path d="M 288.173807 44.055495 
L 288.173807 34.167372 
" clip-path="url(#p79d80c11e6)" style="fill: none; stroke: #1f77b4; stroke-width: 1.5"/>
    <path d="M 289.695625 41.753259 
L 289.695625 31.781029 
" clip-path="url(#p79d80c11e6)" style="fill: none; stroke: #1f77b4; stroke-width: 1.5"/>
    <path d="M 291.217443 45.451651 
L 291.217443 35.60859 
" clip-path="url(#p79d80c11e6)" style="fill: none; stroke: #1f77b4; stroke-width: 1.5"/>
    <path d="M 292.739261 34.896376 
L 292.739261 24.742737 
" clip-path="url(#p79d80c11e6)" style="fill: none; stroke: #1f77b4; stroke-width: 1.5"/>
    <path d="M 294.26108 33.470303 
L 294.26108 23.310926 
" clip-path="url(#p79d80c11e6)" style="fill: none; stroke: #1f77b4; stroke-width: 1.5"/>
    <path d="M 295.782898 34.645518 
L 295.782898 24.548712 
" clip-path="url(#p79d80c11e6)" style="fill: none; stroke: #1f77b4; stroke-width: 1.5"/>
    <path d="M 297.304716 52.715489 
L 297.304716 43.142242 
" clip-path="url(#p79d80c11e6)" style="fill: none; stroke: #1f77b4; stroke-width: 1.5"/>
    <path d="M 298.826534 45.108883 
L 298.826534 35.210817 
" clip-path="url(#p79d80c11e6)" style="fill: none; stroke: #1f77b4; stroke-width: 1.5"/>
    <path d="M 300.348352 53.164487 
L 300.348352 43.46821 
" clip-path="url(#p79d80c11e6)" style="fill: none; stroke: #1f77b4; stroke-width: 1.5"/>
    <path d="M 301.87017 52.679609 
L 301.87017 42.846496 
" clip-path="url(#p79d80c11e6)" style="fill: none; stroke: #1f77b4; stroke-width: 1.5"/>
    <path d="M 303.391989 57.668825 
L 303.391989 48.007496 
" clip-path="url(#p79d80c11e6)" style="fill: none; stroke: #1f77b4; stroke-width: 1.5"/>
    <path d="M 304.913807 55.45473 
L 304.913807 45.693658 
" clip-path="url(#p79d80c11e6)" style="fill: none; stroke: #1f77b4; stroke-width: 1.5"/>
    <path d="M 306.435625 75.228444 
L 306.435625 66.046108 
" clip-path="url(#p79d80c11e6)" style="fill: none; stroke: #1f77b4; stroke-width: 1.5"/>
    <path d="M 307.957443 72.830517 
L 307.957443 63.530669 
" clip-path="url(#p79d80c11e6)" style="fill: none; stroke: #1f77b4; stroke-width: 1.5"/>
    <path d="M 309.479261 74.250995 
L 309.479261 64.99863 
" clip-path="url(#p79d80c11e6)" style="fill: none; stroke: #1f77b4; stroke-width: 1.5"/>
    <path d="M 311.00108 78.387448 
L 311.00108 69.21811 
" clip-path="url(#p79d80c11e6)" style="fill: none; stroke: #1f77b4; stroke-width: 1.5"/>
    <path d="M 312.522898 85.717677 
L 312.522898 76.804022 
" clip-path="url(#p79d80c11e6)" style="fill: none; stroke: #1f77b4; stroke-width: 1.5"/>
    <path d="M 314.044716 80.692027 
L 314.044716 71.416339 
" clip-path="url(#p79d80c11e6)" style="fill: none; stroke: #1f77b4; stroke-width: 1.5"/>
    <path d="M 315.566534 79.901717 
L 315.566534 70.605178 
" clip-path="url(#p79d80c11e6)" style="fill: none; stroke: #1f77b4; stroke-width: 1.5"/>
    <path d="M 317.088352 92.659045 
L 317.088352 83.703603 
" clip-path="url(#p79d80c11e6)" style="fill: none; stroke: #1f77b4; stroke-width: 1.5"/>
    <path d="M 318.61017 98.517731 
L 318.61017 89.814554 
" clip-path="url(#p79d80c11e6)" style="fill: none; stroke: #1f77b4; stroke-width: 1.5"/>
    <path d="M 320.131989 99.104467 
L 320.131989 90.311116 
" clip-path="url(#p79d80c11e6)" style="fill: none; stroke: #1f77b4; stroke-width: 1.5"/>
    <path d="M 321.653807 104.4087 
L 321.653807 95.801688 
" clip-path="url(#p79d80c11e6)" style="fill: none; stroke: #1f77b4; stroke-width: 1.5"/>
    <path d="M 323.175625 107.202789 
L 323.175625 98.648842 
" clip-path="url(#p79d80c11e6)" style="fill: none; stroke: #1f77b4; stroke-width: 1.5"/>
    <path d="M 324.697443 113.584194 
L 324.697443 105.281326 
" clip-path="url(#p79d80c11e6)" style="fill: none; stroke: #1f77b4; stroke-width: 1.5"/>
    <path d="M 326.219261 111.400311 
L 326.219261 102.962315 
" clip-path="url(#p79d80c11e6)" style="fill: none; stroke: #1f77b4; stroke-width: 1.5"/>
    <path d="M 327.74108 124.966106 
L 327.74108 117.007926 
" clip-path="url(#p79d80c11e6)" style="fill: none; stroke: #1f77b4; stroke-width: 1.5"/>
    <path d="M 329.262898 121.698911 
L 329.262898 113.545899 
" clip-path="url(#p79d80c11e6)" style="fill: none; stroke: #1f77b4; stroke-width: 1.5"/>
    <path d="M 330.784716 132.268338 
L 330.784716 124.537742 
" clip-path="url(#p79d80c11e6)" style="fill: none; stroke: #1f77b4; stroke-width: 1.5"/>
    <path d="M 332.306534 127.191122 
L 332.306534 119.204391 
" clip-path="url(#p79d80c11e6)" style="fill: none; stroke: #1f77b4; stroke-width: 1.5"/>
    <path d="M 333.828352 139.155054 
L 333.828352 131.642714 
" clip-path="url(#p79d80c11e6)" style="fill: none; stroke: #1f77b4; stroke-width: 1.5"/>
    <path d="M 335.35017 140.419941 
L 335.35017 132.962945 
" clip-path="url(#p79d80c11e6)" style="fill: none; stroke: #1f77b4; stroke-width: 1.5"/>
    <path d="M 336.871989 146.107463 
L 336.871989 138.863751 
" clip-path="url(#p79d80c11e6)" style="fill: none; stroke: #1f77b4; stroke-width: 1.5"/>
    <path d="M 338.393807 151.055393 
L 338.393807 144.097748 
" clip-path="url(#p79d80c11e6)" style="fill: none; stroke: #1f77b4; stroke-width: 1.5"/>
    <path d="M 339.915625 153.755198 
L 339.915625 146.823897 
" clip-path="url(#p79d80c11e6)" style="fill: none; stroke: #1f77b4; stroke-width: 1.5"/>
    <path d="M 341.437443 150.253278 
L 341.437443 143.076581 
" clip-path="url(#p79d80c11e6)" style="fill: none; stroke: #1f77b4; stroke-width: 1.5"/>
    <path d="M 342.959261 159.938767 
L 342.959261 153.287159 
" clip-path="url(#p79d80c11e6)" style="fill: none; stroke: #1f77b4; stroke-width: 1.5"/>
    <path d="M 344.48108 168.725144 
L 344.48108 162.576981 
" clip-path="url(#p79d80c11e6)" style="fill: none; stroke: #1f77b4; stroke-width: 1.5"/>
    <path d="M 346.002898 170.139401 
L 346.002898 164.02381 
" clip-path="url(#p79d80c11e6)" style="fill: none; stroke: #1f77b4; stroke-width: 1.5"/>
    <path d="M 347.524716 169.742391 
L 347.524716 163.580346 
" clip-path="url(#p79d80c11e6)" style="fill: none; stroke: #1f77b4; stroke-width: 1.5"/>
    <path d="M 349.046534 178.500124 
L 349.046534 172.787147 
" clip-path="url(#p79d80c11e6)" style="fill: none; stroke: #1f77b4; stroke-width: 1.5"/>
    <path d="M 350.568352 178.412253 
L 350.568352 172.724458 
" clip-path="url(#p79d80c11e6)" style="fill: none; stroke: #1f77b4; stroke-width: 1.5"/>
    <path d="M 352.09017 182.538314 
L 352.09017 177.16319 
" clip-path="url(#p79d80c11e6)" style="fill: none; stroke: #1f77b4; stroke-width: 1.5"/>
    <path d="M 353.611989 191.21223 
L 353.611989 186.471353 
" clip-path="url(#p79d80c11e6)" style="fill: none; stroke: #1f77b4; stroke-width: 1.5"/>
    <path d="M 355.133807 191.997833 
L 355.133807 187.241168 
" clip-path="url(#p79d80c11e6)" style="fill: none; stroke: #1f77b4; stroke-width: 1.5"/>
    <path d="M 356.655625 192.758616 
L 356.655625 188.048178 
" clip-path="url(#p79d80c11e6)" style="fill: none; stroke: #1f77b4; stroke-width: 1.5"/>
    <path d="M 358.177443 202.346883 
L 358.177443 198.582193 
" clip-path="url(#p79d80c11e6)" style="fill: none; stroke: #1f77b4; stroke-width: 1.5"/>
    <path d="M 359.699261 204.716352 
L 359.699261 201.072148 
" clip-path="url(#p79d80c11e6)" style="fill: none; stroke: #1f77b4; stroke-width: 1.5"/>
    <path d="M 361.22108 211.131741 
L 361.22108 208.418605 
" clip-path="url(#p79d80c11e6)" style="fill: none; stroke: #1f77b4; stroke-width: 1.5"/>
    <path d="M 362.742898 213.492547 
L 362.742898 211.06292 
" clip-path="url(#p79d80c11e6)" style="fill: none; stroke: #1f77b4; stroke-width: 1.5"/>
    <path d="M 364.264716 216.443802 
L 364.264716 214.683809 
" clip-path="url(#p79d80c11e6)" style="fill: none; stroke: #1f77b4; stroke-width: 1.5"/>
    <path d="M 365.786534 218.88 
L 365.786534 217.96273 
" clip-path="url(#p79d80c11e6)" style="fill: none; stroke: #1f77b4; stroke-width: 1.5"/>
   </g>
   <g id="patch_3">
    <path d="M 46.965625 228.96 
L 46.965625 7.2 
" style="fill: none; stroke: #000000; stroke-width: 0.8; stroke-linejoin: miter; stroke-linecap: square"/>
   </g>
   <g id="patch_4">
    <path d="M 381.765625 228.96 
L 381.765625 7.2 
" style="fill: none; stroke: #000000; stroke-width: 0.8; stroke-linejoin: miter; stroke-linecap: square"/>
   </g>
   <g id="patch_5">
    <path d="M 46.965625 228.96 
L 381.765625 228.96 
" style="fill: none; stroke: #000000; stroke-width: 0.8; stroke-linejoin: miter; stroke-linecap: square"/>
   </g>
   <g id="patch_6">
    <path d="M 46.965625 7.2 
L 381.765625 7.2 
" style="fill: none; stroke: #000000; stroke-width: 0.8; stroke-linejoin: miter; stroke-linecap: square"/>
   </g>
  </g>
 </g>
 <defs>
  <clipPath id="p79d80c11e6">
   <rect x="46.965625" y="7.2" width="334.8" height="221.76"/>
  </clipPath>
 </defs>
</svg>