<?xml version="1.0" encoding="UTF-8" standalone="no"?>
<!DOCTYPE svg PUBLIC "-//W3C//DTD SVG 1.1//EN"
 "http://www.w3.org/Graphics/SVG/1.1/DTD/svg11.dtd">
<!-- Generated by graphviz version 2.43.0 (0)
 -->
<!-- Title: %3 Pages: 1 -->
<svg width="425pt" height="449pt"
 viewBox="0.00 0.00 425.00 449.00" xmlns="http://www.w3.org/2000/svg" xmlns:xlink="http://www.w3.org/1999/xlink">
<g id="graph0" class="graph" transform="scale(1 1) rotate(0) translate(4 445)">
<title>%3</title>
<polygon fill="white" stroke="transparent" points="-4,4 -4,-445 421,-445 421,4 -4,4"/>
<g id="clust2" class="cluster">
<title>cluster_Foldername</title>
<polygon fill="#f0f0ff" stroke="#f0f0ff" points="8,-373 8,-433 231,-433 231,-373 8,-373"/>
<text text-anchor="middle" x="119.5" y="-417.8" font-family="Times,serif" font-size="14.00">Foldername</text>
</g>
<g id="clust5" class="cluster">
<title>cluster_QData</title>
<polygon fill="#f0f0ff" stroke="#f0f0ff" points="29,-139 29,-209 252,-209 252,-139 29,-139"/>
<text text-anchor="start" x="117.5" y="-194.8" font-family="Times,serif" font-size="14.00">QData</text>
<text text-anchor="start" x="117" y="-183.2" font-family="Times,serif" font-size="11.00">via:</text>
<text text-anchor="start" x="138" y="-183.2" font-family="Times,serif" font-style="italic" font-size="11.00">to_Q</text>
</g>
<g id="clust6" class="cluster">
<title>cluster_QHistogram</title>
<polygon fill="#f0f0ff" stroke="#f0f0ff" points="29,-61 29,-131 252,-131 252,-61 29,-61"/>
<text text-anchor="start" x="96.5" y="-116.8" font-family="Times,serif" font-size="14.00">QHistogram</text>
<text text-anchor="start" x="93" y="-105.2" font-family="Times,serif" font-size="11.00">via:</text>
<text text-anchor="start" x="114" y="-105.2" font-family="Times,serif" font-style="italic" font-size="11.00">to_histogram</text>
</g>
<g id="clust7" class="cluster">
<title>cluster_RawData</title>
<polygon fill="#f0f0ff" stroke="#f0f0ff" points="8,-295 8,-365 231,-365 231,-295 8,-295"/>
<text text-anchor="start" x="87" y="-350.8" font-family="Times,serif" font-size="14.00">RawData</text>
<text text-anchor="start" x="96.5" y="-339.2" font-family="Times,serif" font-size="11.00">via:</text>
<text text-anchor="start" x="117.5" y="-339.2" font-family="Times,serif" font-style="italic" font-size="11.00">load</text>
</g>
<g id="clust8" class="cluster">
<title>cluster_WavelengthData</title>
<polygon fill="#f0f0ff" stroke="#f0f0ff" points="29,-217 29,-287 252,-287 252,-217 29,-217"/>
<text text-anchor="start" x="81.5" y="-272.8" font-family="Times,serif" font-size="14.00">WavelengthData</text>
<text text-anchor="start" x="89" y="-261.2" font-family="Times,serif" font-size="11.00">via:</text>
<text text-anchor="start" x="110" y="-261.2" font-family="Times,serif" font-style="italic" font-size="11.00">to_wavelength</text>
</g>
<!-- CoordTransformGraph -->
<g id="node1" class="node">
<title>CoordTransformGraph</title>
<polygon fill="none" stroke="red" stroke-dasharray="5,2" points="417,-325 239,-325 239,-302 417,-302 417,-325"/>
<text text-anchor="middle" x="328" y="-309.8" font-family="Times,serif" font-size="14.00" fill="red">CoordTransformGraph</text>
</g>
<!-- WavelengthData[FlatFieldRun] -->
<g id="node8" class="node">
<title>WavelengthData[FlatFieldRun]</title>
<polygon fill="none" stroke="black" points="244,-246 140,-246 140,-225 244,-225 244,-246"/>
<text text-anchor="start" x="148" y="-232.4" font-family="Times,serif" font-size="12.00">[FlatFieldRun]</text>
</g>
<!-- CoordTransformGraph&#45;&gt;WavelengthData[FlatFieldRun] -->
<g id="edge12" class="edge">
<title>CoordTransformGraph&#45;&gt;WavelengthData[FlatFieldRun]</title>
<path fill="none" stroke="black" stroke-width="2" d="M309.09,-301.93C296.3,-294.78 278.55,-284.86 260.73,-274.91"/>
<polygon fill="black" stroke="black" stroke-width="2" points="262.43,-271.85 252,-270.03 259.02,-277.96 262.43,-271.85"/>
</g>
<!-- QData[FlatFieldRun] -->
<g id="node9" class="node">
<title>QData[FlatFieldRun]</title>
<polygon fill="none" stroke="black" points="244,-168 140,-168 140,-147 244,-147 244,-168"/>
<text text-anchor="start" x="148" y="-154.4" font-family="Times,serif" font-size="12.00">[FlatFieldRun]</text>
</g>
<!-- CoordTransformGraph&#45;&gt;QData[FlatFieldRun] -->
<g id="edge4" class="edge">
<title>CoordTransformGraph&#45;&gt;QData[FlatFieldRun]</title>
<path fill="none" stroke="black" stroke-width="2" d="M320.36,-301.79C307.29,-283.71 279.47,-246.22 253,-217 252.85,-216.83 252.7,-216.67 252.55,-216.5"/>
<polygon fill="black" stroke="black" stroke-width="2" points="254.93,-213.92 245.55,-209 249.81,-218.7 254.93,-213.92"/>
</g>
<!-- Foldername[FlatFieldRun] -->
<g id="node2" class="node">
<title>Foldername[FlatFieldRun]</title>
<polygon fill="none" stroke="red" stroke-dasharray="5,2" points="223,-402 119,-402 119,-381 223,-381 223,-402"/>
<text text-anchor="start" x="127" y="-388.4" font-family="Times,serif" font-size="12.00" fill="red">[FlatFieldRun]</text>
</g>
<!-- RawData[FlatFieldRun] -->
<g id="node12" class="node">
<title>RawData[FlatFieldRun]</title>
<polygon fill="none" stroke="black" points="223,-324 119,-324 119,-303 223,-303 223,-324"/>
<text text-anchor="start" x="127" y="-310.4" font-family="Times,serif" font-size="12.00">[FlatFieldRun]</text>
</g>
<!-- Foldername[FlatFieldRun]&#45;&gt;RawData[FlatFieldRun] -->
<g id="edge9" class="edge">
<title>Foldername[FlatFieldRun]&#45;&gt;RawData[FlatFieldRun]</title>
<path fill="none" stroke="black" d="M171,-380.87C171,-369.29 171,-349.53 171,-334.57"/>
<polygon fill="black" stroke="black" points="174.5,-334.29 171,-324.29 167.5,-334.29 174.5,-334.29"/>
</g>
<!-- Foldername[SampleRun] -->
<g id="node3" class="node">
<title>Foldername[SampleRun]</title>
<polygon fill="none" stroke="red" stroke-dasharray="5,2" points="111.5,-402 16.5,-402 16.5,-381 111.5,-381 111.5,-402"/>
<text text-anchor="start" x="24.5" y="-388.4" font-family="Times,serif" font-size="12.00" fill="red">[SampleRun]</text>
</g>
<!-- RawData[SampleRun] -->
<g id="node13" class="node">
<title>RawData[SampleRun]</title>
<polygon fill="none" stroke="black" points="111.5,-324 16.5,-324 16.5,-303 111.5,-303 111.5,-324"/>
<text text-anchor="start" x="24.5" y="-310.4" font-family="Times,serif" font-size="12.00">[SampleRun]</text>
</g>
<!-- Foldername[SampleRun]&#45;&gt;RawData[SampleRun] -->
<g id="edge10" class="edge">
<title>Foldername[SampleRun]&#45;&gt;RawData[SampleRun]</title>
<path fill="none" stroke="black" d="M64,-380.87C64,-369.29 64,-349.53 64,-334.57"/>
<polygon fill="black" stroke="black" points="67.5,-334.29 64,-324.29 60.5,-334.29 67.5,-334.29"/>
</g>
<!-- QHistogram[SampleRun] -->
<g id="node4" class="node">
<title>QHistogram[SampleRun]</title>
<polygon fill="none" stroke="black" points="132.5,-90 37.5,-90 37.5,-69 132.5,-69 132.5,-90"/>
<text text-anchor="start" x="45.5" y="-76.4" font-family="Times,serif" font-size="12.00">[SampleRun]</text>
</g>
<!-- NormalizedQ -->
<g id="node5" class="node">
<title>NormalizedQ</title>
<polygon fill="none" stroke="black" points="193,-33 83,-33 83,0 193,0 193,-33"/>
<text text-anchor="start" x="91" y="-18.8" font-family="Times,serif" font-size="14.00">NormalizedQ</text>
<text text-anchor="start" x="99" y="-7.2" font-family="Times,serif" font-size="11.00">via:</text>
<text text-anchor="start" x="120" y="-7.2" font-family="Times,serif" font-style="italic" font-size="11.00">normalize</text>
</g>
<!-- QHistogram[SampleRun]&#45;&gt;NormalizedQ -->
<g id="edge1" class="edge">
<title>QHistogram[SampleRun]&#45;&gt;NormalizedQ</title>
<path fill="none" stroke="black" d="M93.28,-68.97C99.74,-61.53 109,-50.88 117.42,-41.19"/>
<polygon fill="black" stroke="black" points="120.3,-43.21 124.21,-33.37 115.01,-38.62 120.3,-43.21"/>
</g>
<!-- QHistogram[FlatFieldRun] -->
<g id="node6" class="node">
<title>QHistogram[FlatFieldRun]</title>
<polygon fill="none" stroke="black" points="244,-90 140,-90 140,-69 244,-69 244,-90"/>
<text text-anchor="start" x="148" y="-76.4" font-family="Times,serif" font-size="12.00">[FlatFieldRun]</text>
</g>
<!-- QHistogram[FlatFieldRun]&#45;&gt;NormalizedQ -->
<g id="edge2" class="edge">
<title>QHistogram[FlatFieldRun]&#45;&gt;NormalizedQ</title>
<path fill="none" stroke="black" d="M183.56,-68.97C176.92,-61.46 167.36,-50.66 158.71,-40.9"/>
<polygon fill="black" stroke="black" points="161.3,-38.54 152.05,-33.37 156.05,-43.18 161.3,-38.54"/>
</g>
<!-- QBins -->
<g id="node7" class="node">
<title>QBins</title>
<polygon fill="none" stroke="red" stroke-dasharray="5,2" points="319.5,-169 260.5,-169 260.5,-146 319.5,-146 319.5,-169"/>
<text text-anchor="middle" x="290" y="-153.8" font-family="Times,serif" font-size="14.00" fill="red">QBins</text>
</g>
<!-- QBins&#45;&gt;QHistogram[FlatFieldRun] -->
<g id="edge7" class="edge">
<title>QBins&#45;&gt;QHistogram[FlatFieldRun]</title>
<path fill="none" stroke="black" stroke-width="2" d="M276.37,-145.93C271.67,-142.28 266.03,-137.91 259.94,-133.18"/>
<polygon fill="black" stroke="black" stroke-width="2" points="262.05,-130.39 252,-127.03 257.76,-135.92 262.05,-130.39"/>
</g>
<!-- WavelengthData[FlatFieldRun]&#45;&gt;QData[FlatFieldRun] -->
<g id="edge3" class="edge">
<title>WavelengthData[FlatFieldRun]&#45;&gt;QData[FlatFieldRun]</title>
<path fill="none" stroke="black" d="M192,-224.87C192,-213.29 192,-193.53 192,-178.57"/>
<polygon fill="black" stroke="black" points="195.5,-178.29 192,-168.29 188.5,-178.29 195.5,-178.29"/>
</g>
<!-- QData[FlatFieldRun]&#45;&gt;QHistogram[FlatFieldRun] -->
<g id="edge6" class="edge">
<title>QData[FlatFieldRun]&#45;&gt;QHistogram[FlatFieldRun]</title>
<path fill="none" stroke="black" d="M192,-146.87C192,-135.29 192,-115.53 192,-100.57"/>
<polygon fill="black" stroke="black" points="195.5,-100.29 192,-90.29 188.5,-100.29 195.5,-100.29"/>
</g>
<!-- WavelengthData[SampleRun] -->
<g id="node10" class="node">
<title>WavelengthData[SampleRun]</title>
<polygon fill="none" stroke="black" points="132.5,-246 37.5,-246 37.5,-225 132.5,-225 132.5,-246"/>
<text text-anchor="start" x="45.5" y="-232.4" font-family="Times,serif" font-size="12.00">[SampleRun]</text>
</g>
<!-- QData[SampleRun] -->
<g id="node11" class="node">
<title>QData[SampleRun]</title>
<polygon fill="none" stroke="black" points="132.5,-168 37.5,-168 37.5,-147 132.5,-147 132.5,-168"/>
<text text-anchor="start" x="45.5" y="-154.4" font-family="Times,serif" font-size="12.00">[SampleRun]</text>
</g>
<!-- WavelengthData[SampleRun]&#45;&gt;QData[SampleRun] -->
<g id="edge5" class="edge">
<title>WavelengthData[SampleRun]&#45;&gt;QData[SampleRun]</title>
<path fill="none" stroke="black" d="M85,-224.87C85,-213.29 85,-193.53 85,-178.57"/>
<polygon fill="black" stroke="black" points="88.5,-178.29 85,-168.29 81.5,-178.29 88.5,-178.29"/>
</g>
<!-- QData[SampleRun]&#45;&gt;QHistogram[SampleRun] -->
<g id="edge8" class="edge">
<title>QData[SampleRun]&#45;&gt;QHistogram[SampleRun]</title>
<path fill="none" stroke="black" d="M85,-146.87C85,-135.29 85,-115.53 85,-100.57"/>
<polygon fill="black" stroke="black" points="88.5,-100.29 85,-90.29 81.5,-100.29 88.5,-100.29"/>
</g>
<!-- RawData[FlatFieldRun]&#45;&gt;WavelengthData[FlatFieldRun] -->
<g id="edge11" class="edge">
<title>RawData[FlatFieldRun]&#45;&gt;WavelengthData[FlatFieldRun]</title>
<path fill="none" stroke="black" d="M173.66,-302.87C176.89,-291.18 182.43,-271.14 186.57,-256.13"/>
<polygon fill="black" stroke="black" points="190.01,-256.86 189.3,-246.29 183.26,-254.99 190.01,-256.86"/>
</g>
<!-- RawData[SampleRun]&#45;&gt;WavelengthData[SampleRun] -->
<g id="edge13" class="edge">
<title>RawData[SampleRun]&#45;&gt;WavelengthData[SampleRun]</title>
<path fill="none" stroke="black" d="M66.66,-302.87C69.89,-291.18 75.43,-271.14 79.57,-256.13"/>
<polygon fill="black" stroke="black" points="83.01,-256.86 82.3,-246.29 76.26,-254.99 83.01,-256.86"/>
</g>
</g>
</svg>