<?xml version="1.0" encoding="UTF-8" standalone="no"?>
<!DOCTYPE svg PUBLIC "-//W3C//DTD SVG 1.1//EN"
 "http://www.w3.org/Graphics/SVG/1.1/DTD/svg11.dtd">
<!-- Generated by graphviz version 2.43.0 (0)
 -->
<!-- Title: %3 Pages: 1 -->
<svg width="883pt" height="75pt"
 viewBox="0.00 0.00 883.00 75.00" xmlns="http://www.w3.org/2000/svg" xmlns:xlink="http://www.w3.org/1999/xlink">
<g id="graph0" class="graph" transform="scale(1 1) rotate(0) translate(4 71)">
<title>%3</title>
<polygon fill="white" stroke="transparent" points="-4,4 -4,-71 879,-71 879,4 -4,4"/>
<!-- CoordTransformGraph -->
<g id="node1" class="node">
<title>CoordTransformGraph</title>
<polygon fill="none" stroke="black" points="351,-67 173,-67 173,-44 351,-44 351,-67"/>
<text text-anchor="middle" x="262" y="-51.8" font-family="Times,serif" font-size="14.00">CoordTransformGraph</text>
</g>
<!-- Qdata -->
<g id="node4" class="node">
<title>Qdata</title>
<polygon fill="none" stroke="black" points="692,-60 629,-60 629,-27 692,-27 692,-60"/>
<text text-anchor="start" x="639" y="-45.8" font-family="Times,serif" font-size="14.00">Qdata</text>
<text text-anchor="start" x="637" y="-34.2" font-family="Times,serif" font-size="11.00">via:</text>
<text text-anchor="start" x="658" y="-34.2" font-family="Times,serif" font-style="italic" font-size="11.00">to_Q</text>
</g>
<!-- CoordTransformGraph&#45;&gt;Qdata -->
<g id="edge4" class="edge">
<title>CoordTransformGraph:e&#45;&gt;Qdata:w</title>
<path fill="none" stroke="black" d="M351,-55.5C442.61,-55.5 465.51,-53.23 557,-48.5 585.41,-47.03 594.83,-44.24 618.96,-43.62"/>
<polygon fill="black" stroke="black" points="619.04,-47.12 629,-43.5 618.96,-40.12 619.04,-47.12"/>
</g>
<!-- WavelengthData -->
<g id="node6" class="node">
<title>WavelengthData</title>
<polygon fill="none" stroke="black" points="557,-48 423,-48 423,-15 557,-15 557,-48"/>
<text text-anchor="start" x="431" y="-33.8" font-family="Times,serif" font-size="14.00">WavelengthData</text>
<text text-anchor="start" x="438.5" y="-22.2" font-family="Times,serif" font-size="11.00">via:</text>
<text text-anchor="start" x="459.5" y="-22.2" font-family="Times,serif" font-style="italic" font-size="11.00">to_wavelength</text>
</g>
<!-- CoordTransformGraph&#45;&gt;WavelengthData -->
<g id="edge7" class="edge">
<title>CoordTransformGraph:e&#45;&gt;WavelengthData:w</title>
<path fill="none" stroke="black" d="M351,-55.5C381.04,-55.5 387.93,-36.46 412.9,-32.3"/>
<polygon fill="black" stroke="black" points="413.31,-35.78 423,-31.5 412.76,-28.8 413.31,-35.78"/>
</g>
<!-- Foldername -->
<g id="node2" class="node">
<title>Foldername</title>
<polygon fill="none" stroke="red" stroke-dasharray="5,2" points="101,-35 0,-35 0,-12 101,-12 101,-35"/>
<text text-anchor="middle" x="50.5" y="-19.8" font-family="Times,serif" font-size="14.00" fill="red">Foldername</text>
</g>
<!-- RawData -->
<g id="node7" class="node">
<title>RawData</title>
<polygon fill="none" stroke="black" points="302.5,-40 221.5,-40 221.5,-7 302.5,-7 302.5,-40"/>
<text text-anchor="start" x="229.5" y="-25.8" font-family="Times,serif" font-size="14.00">RawData</text>
<text text-anchor="start" x="239" y="-14.2" font-family="Times,serif" font-size="11.00">via:</text>
<text text-anchor="start" x="260" y="-14.2" font-family="Times,serif" font-style="italic" font-size="11.00">load</text>
</g>
<!-- Foldername&#45;&gt;RawData -->
<g id="edge5" class="edge">
<title>Foldername:e&#45;&gt;RawData:w</title>
<path fill="none" stroke="black" d="M101,-23.5C150.38,-23.5 165.18,-23.5 209.97,-23.5"/>
<polygon fill="black" stroke="black" points="210,-27 220,-23.5 210,-20 210,-27"/>
</g>
<!-- QBins -->
<g id="node3" class="node">
<title>QBins</title>
<polygon fill="none" stroke="red" stroke-dasharray="5,2" points="690,-23 631,-23 631,0 690,0 690,-23"/>
<text text-anchor="middle" x="660.5" y="-7.8" font-family="Times,serif" font-size="14.00" fill="red">QBins</text>
</g>
<!-- QHistogram -->
<g id="node5" class="node">
<title>QHistogram</title>
<polygon fill="none" stroke="black" points="875,-44 764,-44 764,-11 875,-11 875,-44"/>
<text text-anchor="start" x="775.5" y="-29.8" font-family="Times,serif" font-size="14.00">QHistogram</text>
<text text-anchor="start" x="772" y="-18.2" font-family="Times,serif" font-size="11.00">via:</text>
<text text-anchor="start" x="793" y="-18.2" font-family="Times,serif" font-style="italic" font-size="11.00">to_histogram</text>
</g>
<!-- QBins&#45;&gt;QHistogram -->
<g id="edge2" class="edge">
<title>QBins:e&#45;&gt;QHistogram:w</title>
<path fill="none" stroke="black" d="M691.5,-11.5C720.76,-11.5 729.19,-24.08 753.73,-26.93"/>
<polygon fill="black" stroke="black" points="753.82,-30.44 764,-27.5 754.21,-23.45 753.82,-30.44"/>
</g>
<!-- Qdata&#45;&gt;QHistogram -->
<g id="edge1" class="edge">
<title>Qdata:e&#45;&gt;QHistogram:w</title>
<path fill="none" stroke="black" d="M692,-43.5C721.07,-43.5 729.42,-30.92 753.8,-28.07"/>
<polygon fill="black" stroke="black" points="754.21,-31.55 764,-27.5 753.82,-24.56 754.21,-31.55"/>
</g>
<!-- WavelengthData&#45;&gt;Qdata -->
<g id="edge3" class="edge">
<title>WavelengthData:e&#45;&gt;Qdata:w</title>
<path fill="none" stroke="black" d="M557,-31.5C585.77,-31.5 594.62,-40.94 618.88,-43.07"/>
<polygon fill="black" stroke="black" points="618.86,-46.58 629,-43.5 619.16,-39.58 618.86,-46.58"/>
</g>
<!-- RawData&#45;&gt;WavelengthData -->
<g id="edge6" class="edge">
<title>RawData:e&#45;&gt;WavelengthData:w</title>
<path fill="none" stroke="black" d="M304,-23.5C353.49,-23.5 368.09,-30.47 412.95,-31.4"/>
<polygon fill="black" stroke="black" points="412.97,-34.9 423,-31.5 413.04,-27.9 412.97,-34.9"/>
</g>
</g>
</svg>